<svg width="60" height="61" viewBox="0 0 60 61" fill="none" xmlns="http://www.w3.org/2000/svg">
<path d="M27.9214 0.33508C21.584 0.798035 15.689 3.1717 10.7746 7.24083C9.85504 8.00227 7.70941 10.1485 6.96646 11.0501C2.83962 16.0553 0.48288 21.9661 0.0626853 28.354C-0.412317 35.5765 1.82872 42.9351 6.22351 48.586C7.342 50.0256 8.88271 51.6724 10.1616 52.7952C18.1818 59.837 29.1698 62.1051 39.3113 58.8157C46.1278 56.6045 52.0227 51.8957 55.7557 45.6844C59.5598 39.3553 60.8772 31.7064 59.4218 24.4047C58.3865 19.2107 56.0338 14.4613 52.5017 10.4389C51.8136 9.6551 50.1369 8.0043 49.3838 7.37078C44.7149 3.43769 39.1875 1.08434 33.0632 0.424422C32.0015 0.306653 28.9993 0.25589 27.9214 0.33508ZM32.1822 2.53412C35.8807 2.82651 39.2321 3.73618 42.4638 5.32606C50.8392 9.4419 56.6509 17.5233 57.8628 26.7377C58.9792 35.2395 56.1962 43.6965 50.2485 49.8672C46.2252 54.042 40.8845 56.905 35.1905 57.9405C26.2629 59.5649 17.1892 56.8055 10.6833 50.4886C5.70588 45.656 2.79496 39.3919 2.25906 32.3663C2.16772 31.1785 2.21847 28.5469 2.35447 27.3733C2.9533 22.2036 4.80865 17.5659 7.91241 13.4806C9.01871 12.0227 10.801 10.1505 12.159 9.01955C16.6878 5.24687 22.128 3.01941 27.9823 2.54021C28.912 2.46508 31.2626 2.46305 32.1822 2.53412Z" fill="#0377A3"/>
<path d="M38.495 41.256C40.5667 40.4869 42.5939 39.7117 44.6373 38.9852C45.7774 38.5794 46.9277 38.9893 47.6669 39.9735C48.24 40.7344 48.3028 41.9804 47.7499 42.8185C47.5353 43.1432 47.2335 43.4618 46.8973 43.6424C43.8049 45.3125 40.7227 47.0049 37.5796 48.5755C36.2187 49.2553 34.7546 49.9534 33.2782 50.1178C31.7047 50.2923 30.0258 50.0001 28.4564 49.6389C25.8297 49.0362 23.2801 48.0743 20.6433 47.5365C18.8572 47.1713 16.9758 47.2098 15.1349 47.1855C13.0754 47.1591 12.1742 46.4001 12.1033 44.3222C12.0324 42.2686 12.0041 40.2129 12 38.1593C11.996 36.5562 12.9863 35.3122 14.4849 35.2798C16.7632 35.2311 19.0597 35.229 21.3177 35.4908C22.2817 35.6024 23.2801 36.2985 24.0496 36.9722C24.965 37.7737 25.8885 38.2689 27.0995 38.2608C29.2502 38.2466 31.405 38.1694 33.5496 38.279C35.6699 38.3866 37.5877 39.0177 38.495 41.256ZM36.7858 41.9013C36.4962 40.6796 35.4674 39.9106 34.0458 39.8761C31.9639 39.8253 29.874 39.736 27.8002 39.8679C25.8702 39.9917 24.3473 39.3444 22.9743 38.0781C22.0306 37.2076 20.9309 36.7429 19.5903 36.822C18.2516 36.9012 16.9029 36.8322 15.5602 36.8423C14.335 36.8504 13.7902 37.4004 13.8024 38.6423C13.8206 40.2576 13.8591 41.8729 13.9057 43.4881C13.9482 44.9533 14.3431 45.3713 15.7769 45.3267C18.7195 45.2374 21.581 45.6798 24.3939 46.5077C25.7062 46.8933 27.0671 47.1733 28.3085 47.7192C31.0911 48.9448 33.7501 48.5674 36.318 47.2463C39.4084 45.6595 42.4258 43.9326 45.4939 42.301C46.1014 41.9784 46.5551 41.6314 46.221 40.9191C45.8909 40.2149 45.3096 40.4341 44.7507 40.6594C42.278 41.6598 39.8032 42.6562 37.3204 43.6302C36.9235 43.7865 36.48 43.8981 36.0588 43.9041C33.6407 43.9305 31.2207 43.9143 28.8006 43.9184C28.1425 43.9184 27.539 43.8007 27.5187 42.991C27.4964 42.1387 28.1182 42.0839 28.7743 42.088C30.925 42.1001 33.0757 42.1082 35.2244 42.09C35.7408 42.0859 36.2552 41.9682 36.7858 41.9013Z" fill="#0377A3"/>
<path d="M20.3985 26.8258C20.3823 21.296 24.7566 16.8296 30.2144 16.8053C35.82 16.7809 40.3219 21.2027 40.3421 26.7548C40.3604 32.2257 35.824 36.8159 30.3865 36.824C24.8822 36.8341 20.4147 32.3596 20.3985 26.8258ZM30.3136 35.231C34.9856 35.2351 38.801 31.4322 38.7909 26.7811C38.7828 22.1321 34.939 18.3232 30.2873 18.3556C25.6841 18.3861 21.8809 22.2194 21.8991 26.8075C21.9214 31.416 25.7246 35.2269 30.3136 35.231Z" fill="#0377A3"/>
<path d="M30.8494 24.9271C29.4561 24.9271 28.0831 24.9271 26.704 24.9271C26.704 24.4827 26.704 24.0484 26.704 23.5938C28.079 23.5938 29.4561 23.5938 30.8798 23.5938C30.8008 23.4356 30.7482 23.3037 30.6712 23.186C30.4343 22.8247 30.1163 22.5488 29.7093 22.4027C29.523 22.3357 29.3205 22.287 29.126 22.2829C28.3707 22.2687 27.6153 22.2768 26.8599 22.2768C26.8113 22.2768 26.7647 22.2768 26.708 22.2768C26.708 21.8304 26.708 21.3961 26.708 20.9497C29.122 20.9497 31.538 20.9497 33.9621 20.9497C33.9621 21.384 33.9621 21.8182 33.9621 22.2687C33.2087 22.2687 32.4554 22.2687 31.6696 22.2687C31.7527 22.4067 31.8256 22.5183 31.8904 22.634C32.0443 22.9019 32.1719 23.1819 32.2245 23.4903C32.2387 23.5756 32.2994 23.5918 32.3764 23.5918C32.8523 23.5898 33.3302 23.5918 33.8062 23.5918C33.8548 23.5918 33.9034 23.5918 33.9601 23.5918C33.9601 24.0362 33.9601 24.4745 33.9601 24.9271C33.9175 24.9271 33.875 24.9271 33.8325 24.9271C33.3606 24.9271 32.8867 24.9311 32.4149 24.925C32.2853 24.923 32.2529 24.9656 32.2144 25.0914C32.1354 25.3593 32.0301 25.6231 31.9005 25.8686C31.6554 26.3354 31.301 26.7108 30.8636 27.003C30.5214 27.2323 30.1528 27.3886 29.7478 27.4819C29.3448 27.5753 28.9397 27.555 28.5347 27.5651C28.476 27.5671 28.4172 27.5651 28.3585 27.5651C28.3524 27.5773 28.3464 27.5874 28.3403 27.5996C29.6425 28.9044 30.9446 30.2113 32.2468 31.5161C32.2387 31.5262 32.2326 31.5364 32.2245 31.5465C32.1901 31.5486 32.1557 31.5506 32.1192 31.5506C31.6514 31.5506 31.1816 31.5364 30.7138 31.5587C30.4788 31.5709 30.3229 31.4796 30.171 31.3253C29.4359 30.5806 28.6947 29.8419 27.9575 29.0992C27.5545 28.6954 27.1535 28.2936 26.7526 27.8878C26.7262 27.8614 26.704 27.8208 26.704 27.7863C26.7019 27.277 26.704 26.7676 26.706 26.2562C26.706 26.2542 26.71 26.2501 26.7242 26.2339C26.7566 26.2339 26.7991 26.2339 26.8437 26.2339C27.5748 26.2339 28.3059 26.238 29.0369 26.2319C29.6364 26.2278 30.1325 25.9843 30.5173 25.5257C30.6388 25.3796 30.7259 25.2051 30.8251 25.0407C30.8373 25.0204 30.8373 24.9798 30.8494 24.9271Z" fill="#0377A3"/>
<path d="M29.5352 15.4992C29.0187 15.4992 28.6016 15.0811 28.6016 14.5637V8.23237C28.6016 7.7149 29.0187 7.29688 29.5352 7.29688C30.0516 7.29688 30.4687 7.7149 30.4687 8.23237V14.5637C30.4687 15.0791 30.0495 15.4992 29.5352 15.4992Z" fill="#0377A3"/>
<path d="M24.0039 16.9341C23.4875 16.9341 23.0703 16.5161 23.0703 15.9986V12.8715C23.0703 12.3541 23.4875 11.936 24.0039 11.936C24.5203 11.936 24.9375 12.3541 24.9375 12.8715V15.9986C24.9375 16.5161 24.5203 16.9341 24.0039 16.9341Z" fill="#0377A3"/>
<path d="M36.082 16.9341C35.5656 16.9341 35.1484 16.5161 35.1484 15.9986V12.8715C35.1484 12.3541 35.5656 11.936 36.082 11.936C36.5985 11.936 37.0156 12.3541 37.0156 12.8715V15.9986C37.0156 16.5161 36.5985 16.9341 36.082 16.9341Z" fill="#0377A3"/>
</svg>
