<svg width="31" height="30" viewBox="0 0 31 30" fill="none" xmlns="http://www.w3.org/2000/svg">
<path d="M10.1172 10.9842C10.1852 12.7013 11.3716 14.3619 12.3711 15.7037C13.2856 16.9259 14.3531 18.0352 15.5565 18.985C16.3214 19.5895 17.1373 20.1342 18.011 20.5792C18.5414 20.8516 18.8949 21.0176 19.5102 20.8449C20.4553 20.5825 22.6276 19.4932 22.2639 18.3042C22.0803 17.6997 21.3256 17.1085 20.8497 16.7233C20.2751 16.2616 19.2655 15.4446 18.5889 16.2052C18.1844 16.5838 17.7662 17.454 17.1339 17.5171C16.454 17.5802 15.8523 16.813 15.4307 16.3945C14.7372 15.707 14.1117 14.9564 13.5542 14.1593C13.0306 13.3257 13.6833 12.9836 14.3191 12.5286C14.608 12.3227 14.9786 12.1267 15.118 11.7846C15.3831 11.1503 14.761 10.3631 14.4041 9.87492C14.0675 9.41327 13.6799 8.99148 13.2482 8.61286C12.6907 8.118 12.0719 8.5099 11.5994 8.90513C10.9467 9.44981 10.3994 10.1838 10.1172 10.9842Z" fill="#0076A2"/>
<circle cx="15.7422" cy="15" r="14.6201" stroke="#0076A2" stroke-width="0.75982"/>
</svg>
