<svg width="60" height="61" viewBox="0 0 60 61" fill="none" xmlns="http://www.w3.org/2000/svg">
<path d="M27.9214 0.97424C21.584 1.4372 15.689 3.81086 10.7746 7.87999C9.85504 8.64143 7.70941 10.7877 6.96646 11.6892C2.83962 16.6944 0.48288 22.6052 0.0626853 28.9932C-0.412317 36.2157 1.82872 43.5742 6.22351 49.2251C7.342 50.6648 8.88271 52.3115 10.1616 53.4344C18.1818 60.4762 29.1698 62.7443 39.3113 59.4548C46.1278 57.2436 52.0227 52.5349 55.7557 46.3236C59.5598 39.9945 60.8772 32.3455 59.4218 25.0439C58.3865 19.8498 56.0338 15.1005 52.5017 11.078C51.8136 10.2943 50.1369 8.64346 49.3838 8.00994C44.7149 4.07685 39.1875 1.7235 33.0632 1.06358C32.0015 0.945813 28.9993 0.89505 27.9214 0.97424ZM32.1822 3.17328C35.8807 3.46567 39.2321 4.37534 42.4638 5.96522C50.8392 10.0811 56.6509 18.1625 57.8628 27.3769C58.9792 35.8786 56.1962 44.3357 50.2485 50.5064C46.2252 54.6811 40.8845 57.5441 35.1905 58.5797C26.2629 60.2041 17.1892 57.4446 10.6833 51.1277C5.70588 46.2951 2.79496 40.031 2.25906 33.0055C2.16772 31.8176 2.21847 29.1861 2.35447 28.0125C2.9533 22.8428 4.80865 18.2051 7.91241 14.1197C9.01871 12.6618 10.801 10.7897 12.159 9.65871C16.6878 5.88603 22.128 3.65857 27.9823 3.17937C28.912 3.10424 31.2626 3.10221 32.1822 3.17328Z" fill="#0377A3"/>
<path d="M33.2685 48.005C31.7808 47.1447 31.012 45.6682 30.1229 44.2976C29.85 43.8771 29.6221 43.4261 29.3349 42.9238C28.9657 43.1453 28.6078 43.3475 28.2596 43.5674C26.8938 44.4292 25.5488 44.3554 24.2489 43.4422C23.005 42.5691 22.1946 41.367 21.8383 39.8985C21.5702 38.7943 21.697 37.703 22.4915 36.8235C23.8797 35.2876 25.3306 33.8062 26.7188 32.2687C28.5725 30.2144 29.9672 27.8905 30.7328 25.2038C31.2784 23.2891 32.2221 22.9024 34.002 23.8637C36.0531 24.9711 37.5858 26.6739 39.0254 28.4554C40.8149 30.6734 42.4359 33.0086 43.1773 35.814C43.3667 36.533 43.3523 37.329 43.3089 38.0817C43.2656 38.8328 42.744 39.2935 42.0154 39.3737C41.0701 39.478 40.1151 39.5197 39.1634 39.5294C37.2584 39.5486 35.4272 39.913 33.6698 40.6336C33.4387 40.7283 33.0904 40.985 33.1048 41.1407C33.1337 41.4649 33.3472 41.7843 33.5205 42.0844C33.7452 42.4728 33.9811 42.858 34.254 43.2111C34.4754 43.4967 34.7146 43.8579 35.0243 43.9702C35.907 44.2912 36.1831 44.7053 35.883 45.588C35.5427 46.5894 34.981 47.4336 34.0646 48.0034C33.7998 48.005 33.5333 48.005 33.2685 48.005ZM39.4459 38.3915C35.6165 35.3999 32.9604 31.715 31.2848 27.2196C31.1436 27.5598 31.0329 27.8006 30.9414 28.0477C30.1903 30.0699 29.0765 31.8386 27.5052 33.3392C26.1234 34.66 24.801 36.0483 23.5154 37.4638C23.1671 37.8474 22.8911 38.4284 22.8558 38.9388C22.7563 40.388 24.1638 42.4247 25.5488 42.8484C26.0367 42.9976 26.6578 42.9543 27.1474 42.7874C27.7877 42.5691 28.3767 42.1711 28.9497 41.7939C29.5387 41.4055 29.8805 41.5484 30.2208 42.1358C30.8981 43.3058 31.5962 44.4677 32.3618 45.5799C32.694 46.0614 33.2156 46.4113 33.6505 46.8205C34.0453 46.3134 34.4417 45.8062 34.8301 45.2943C34.851 45.2654 34.8189 45.1964 34.7948 45.0407C33.7275 45.0969 33.2798 44.4629 33.1674 43.4486C33.145 43.2464 32.8721 43.0474 32.6779 42.8917C31.9076 42.2674 31.9332 41.4103 31.9878 40.5533C32.0295 39.8921 32.6266 39.8568 33.0743 39.669C35.0644 38.828 37.1509 38.4332 39.4459 38.3915ZM32.3601 24.3628C32.2671 24.4511 32.174 24.5394 32.0809 24.6276C31.9814 26.9066 33.1305 28.7812 34.1191 30.7408C35.5475 30.2208 36.8186 30.3765 37.7928 31.5128C38.8922 32.7951 38.3208 34.1481 37.7045 35.6439C38.8489 36.4399 39.99 37.2937 41.192 38.048C41.9239 38.507 42.3155 38.2262 42.3299 37.3483C42.3331 37.1124 42.2978 36.8716 42.2529 36.6389C41.8982 34.7772 40.9802 33.1675 39.9611 31.6139C38.3802 29.2049 36.5955 26.9676 34.2187 25.2889C33.6601 24.8941 32.9829 24.6678 32.3601 24.3628Z" fill="#0377A3"/>
<path d="M10 26.9228C10.4317 25.8619 11.1925 25.3997 12.3576 25.4607C13.6175 25.5265 14.176 25.0434 14.42 23.8012C14.4537 23.6279 14.3012 23.3454 14.1487 23.2186C12.4668 21.8143 12.3287 20.6555 14.2595 18.9752C14.6398 18.6446 14.9688 18.2562 15.3396 17.9143C16.2175 17.1022 17.1564 17.099 18.031 17.8951C18.2862 18.1278 18.5559 18.3541 18.7677 18.6221C19.1208 19.0683 19.461 19.0089 19.9923 18.8805C21.0306 18.6285 21.2505 18.07 21.2104 17.0846C21.1542 15.7124 21.9663 14.9677 23.3177 14.9484C24.141 14.9372 24.9643 14.926 25.786 14.9516C26.9913 14.9902 27.6847 15.714 27.7216 16.9193C27.7248 16.9995 27.7232 17.0782 27.7232 17.1584C27.7376 18.7617 27.805 18.8661 29.3458 19.3363C29.4998 19.3828 29.7486 19.3026 29.8802 19.1935C30.2076 18.9254 30.4756 18.5852 30.7966 18.3091C31.5557 17.6591 32.5251 17.6126 33.2602 18.2722C34.0241 18.9591 34.7142 19.7311 35.4124 20.5063C34.4799 20.0922 33.334 20.2094 32.6246 19.2368C32.3101 18.8051 31.7756 18.8003 31.4691 19.2609C30.4451 20.7904 29.2976 20.8546 27.7697 19.9221C26.6768 19.2544 26.5869 19.4037 26.5869 18.0427C26.5869 16.0767 26.5869 16.0831 24.6353 16.0751C22.2616 16.0622 22.2793 15.9178 22.3419 18.3637C22.3595 19.0233 22.1685 19.3844 21.4897 19.5481C20.8798 19.6942 20.2876 19.9526 19.7194 20.2286C19.2604 20.4517 18.9298 20.3923 18.5896 20.0328C18.1707 19.5883 17.7197 19.1742 17.2864 18.7441C16.8899 18.3509 16.4887 18.3621 16.1035 18.7425C15.4792 19.3588 14.8629 19.9831 14.2547 20.6122C13.8935 20.9862 13.924 21.3665 14.29 21.7292C14.6864 22.1224 15.0684 22.5301 15.4744 22.9121C15.8451 23.2603 15.8756 23.6038 15.6188 24.0435C15.3396 24.5218 15.0395 25.0161 14.903 25.5441C14.6719 26.4477 14.1391 26.6483 13.2773 26.6194C11.0849 26.5456 11.1042 26.4509 11.1234 28.7845C11.1411 30.8869 11.1283 30.9255 13.2291 30.8693C14.0556 30.8468 14.5114 31.0458 14.6495 31.9189C14.7265 32.4052 14.9351 32.8963 15.1903 33.32C15.5707 33.9523 15.4263 34.4001 14.9014 34.8399C14.5564 35.1288 14.2723 35.4899 13.9353 35.7884C13.4089 36.2522 13.3623 36.6952 13.8855 37.1975C14.4216 37.7127 14.9367 38.2503 15.4503 38.7896C15.9511 39.316 16.4374 39.3529 16.9397 38.7944C17.1355 38.5777 17.3297 38.3547 17.5544 38.1701C17.954 37.8411 18.1707 37.2184 18.9234 37.48C19.7355 37.764 19.7002 38.3595 19.6504 39.0063C19.6055 39.0255 19.5397 39.0753 19.5172 39.0592C18.8271 38.5681 18.3809 38.8875 17.8706 39.4267C16.6765 40.6914 15.7151 40.6593 14.4906 39.4171C13.9497 38.8682 13.388 38.337 12.8792 37.7608C12.1522 36.9375 12.096 35.8654 12.9611 35.217C14.2049 34.2846 14.1921 33.3072 13.4827 32.1275C13.4698 32.1067 13.4506 32.089 13.3896 32.0152C12.08 32.0698 10.6789 32.1789 10.0032 30.5932C10 29.3719 10 28.1473 10 26.9228Z" fill="#0377A3"/>
<path d="M28.0761 26.1489C25.4216 23.6516 22.3883 23.6179 20.3901 26.0093C18.8285 27.879 18.583 31.4195 21.9886 33.4802C21.3419 34.4704 21.313 34.4752 20.4062 33.7514C17.8752 31.7324 17.4242 27.9336 19.4143 25.4026C21.4349 22.8331 25.1519 22.3468 27.7327 24.3161C28.6844 25.0415 28.6844 25.0415 28.0761 26.1489Z" fill="#0377A3"/>
<path d="M37.1037 23.0945C36.4714 23.0897 36.1343 22.536 36.4457 22.0866C37.2161 20.9744 38.0121 19.875 38.8579 18.8206C39.0007 18.6424 39.5593 18.575 39.7326 18.7082C39.9107 18.8447 40.0006 19.3903 39.8706 19.5845C39.1211 20.7112 38.3026 21.7913 37.4889 22.8746C37.3926 23.0046 37.184 23.0512 37.1037 23.0945Z" fill="#0377A3"/>
<path d="M43.0807 22.0002C42.9074 22.241 42.7966 22.4496 42.6361 22.6085C41.8497 23.3933 41.0489 24.1637 40.2544 24.9405C39.9222 25.2647 39.5531 25.4861 39.1647 25.0705C38.7988 24.6821 38.948 24.3129 39.3043 23.9759C40.1501 23.1766 40.9702 22.3501 41.8321 21.5685C41.991 21.4257 42.3312 21.3518 42.5286 21.4193C42.7356 21.4899 42.8737 21.7691 43.0807 22.0002Z" fill="#0377A3"/>
<path d="M48.9983 32.6817C48.7384 32.802 48.4864 32.9513 48.2151 33.0363C47.058 33.3958 45.9008 33.7666 44.726 34.0587C44.5174 34.11 44.0472 33.8436 44.0086 33.6591C43.9573 33.4119 44.1435 32.9192 44.3409 32.847C45.506 32.4281 46.6937 32.0622 47.8958 31.7749C48.1526 31.7139 48.504 32.0509 48.8122 32.205C48.8748 32.3623 48.9374 32.5228 48.9983 32.6817Z" fill="#0377A3"/>
<path d="M45.6928 25.348C45.5997 25.4523 45.4617 25.6786 45.2611 25.8166C44.3463 26.4441 43.4122 27.0444 42.4894 27.6607C42.0978 27.9223 41.6532 27.9431 41.4895 27.5098C41.3916 27.2482 41.5585 26.7073 41.7896 26.5324C42.6707 25.8632 43.616 25.2725 44.5581 24.6867C45.1375 24.324 45.7089 24.6033 45.6928 25.348Z" fill="#0377A3"/>
<path d="M47.3515 28.9758C47.2359 29.0946 47.0835 29.3658 46.8588 29.4653C45.8653 29.8954 44.8639 30.3111 43.8367 30.6481C43.612 30.722 43.1193 30.5197 43.0326 30.3223C42.9428 30.1137 43.1113 29.5857 43.3071 29.4942C44.331 29.0111 45.3903 28.5938 46.4576 28.2118C46.9358 28.0401 47.2841 28.2584 47.3515 28.9758Z" fill="#0377A3"/>
</svg>
