<svg width="29" height="26" viewBox="0 0 29 26" fill="none" xmlns="http://www.w3.org/2000/svg">
<path d="M13.7158 0.00740147C11.9279 0.127364 10.6471 0.381089 9.14247 0.91269C6.56721 1.82276 4.29655 3.4242 2.65933 5.48478C-0.769609 9.80129 -0.893044 15.6391 2.34971 20.1005C3.02697 21.0321 3.95347 21.9912 4.89478 22.7346C8.52767 25.6042 13.4464 26.6645 18.1322 25.5877C19.8816 25.1856 21.6263 24.4414 23.0992 23.469C24.079 22.822 25.115 21.9228 25.8846 21.0509C28.3444 18.2647 29.4145 14.6945 28.8544 11.1408C28.525 9.04941 27.5911 7.00315 26.1854 5.2913C25.3172 4.23421 24.0645 3.13278 22.8597 2.36763C20.8534 1.09316 18.4966 0.301999 15.9805 0.0575626C15.5777 0.018283 14.0535 -0.0154232 13.7158 0.00740147ZM15.1366 0.548823C16.7706 0.622605 18.1127 0.878984 19.5915 1.39944C21.3172 2.00695 22.8757 2.91277 24.1885 4.07151C24.6503 4.47917 25.0049 4.82552 25.3225 5.17957C26.9869 7.03367 27.9809 9.17123 28.3157 11.6156C28.3909 12.165 28.3909 13.849 28.3154 14.389C28.097 15.9549 27.6663 17.2573 26.9331 18.5691C26.2641 19.7661 25.4815 20.7423 24.4025 21.7248C23.6397 22.4196 23.0163 22.883 22.1668 23.387C20.3256 24.4794 18.3276 25.1299 16.0394 25.3826C15.4208 25.4508 13.5476 25.4497 12.9314 25.3807C10.0453 25.0572 7.45642 24.0343 5.38319 22.3986C1.50668 19.3401 -0.159244 14.8031 0.932429 10.278C1.40545 8.31663 2.51547 6.35239 4.01889 4.81597C6.52814 2.25165 10.0394 0.717354 13.7809 0.550415C14.4676 0.519629 14.4907 0.519629 15.1366 0.548823Z" fill="#89898F"/>
<path d="M13.9726 6.09526C12.959 6.2484 12.1426 6.60589 11.4341 7.20624C10.5253 7.97643 10.0572 8.9433 10.0563 10.0527C10.0554 11.0347 10.427 11.8885 11.192 12.6616C11.4334 12.9058 11.7899 13.1786 12.0605 13.3267C12.1566 13.3792 12.2372 13.4307 12.2372 13.4392C12.2372 13.448 12.1721 13.4761 12.0915 13.5021C11.8138 13.5916 11.1616 13.8888 10.8392 14.0727C8.95408 15.1489 7.77655 16.9664 7.73564 18.8641C7.7282 19.2117 7.74927 19.2749 7.91944 19.4134C8.133 19.5873 8.46497 19.5878 8.68194 19.4148C8.82576 19.3001 8.88713 19.156 8.88837 18.9304C8.89302 18.0386 9.26156 17.0445 9.87899 16.2578C11.5897 14.0778 14.9713 13.4058 17.5904 14.7254C18.4025 15.1346 19.1443 15.7591 19.6278 16.4409C20.1575 17.188 20.4823 18.1501 20.4823 18.9729C20.4823 19.3046 20.6795 19.5098 21.0217 19.5345C21.2231 19.5491 21.3995 19.4806 21.526 19.3391C21.6084 19.247 21.6143 19.2223 21.6242 18.9384C21.6369 18.5724 21.5666 18.0678 21.4429 17.6352C20.956 15.9314 19.6371 14.5067 17.8167 13.7184C17.6028 13.6258 17.3632 13.5292 17.282 13.5029C17.2014 13.4766 17.1348 13.448 17.1348 13.4392C17.1348 13.4305 17.2138 13.3798 17.313 13.3251C17.41 13.2718 17.6028 13.1428 17.7361 13.0422C19.3107 11.854 19.7657 9.92529 18.8554 8.29837C18.6282 7.8923 18.3715 7.58948 17.9438 7.22349C17.2622 6.63987 16.549 6.30333 15.6315 6.13215C15.2682 6.06474 14.3154 6.04351 13.9726 6.09526ZM15.0017 7.06716C15.7921 7.13086 16.5189 7.41696 17.0815 7.8854C17.7919 8.47698 18.157 9.21401 18.157 10.0553C18.157 10.8303 17.8266 11.5456 17.2079 12.1096C16.779 12.5005 16.1764 12.81 15.5689 12.9506C15.284 13.0167 15.2124 13.0225 14.6855 13.0225C14.1586 13.0225 14.087 13.0167 13.8021 12.9509C12.708 12.6977 11.7998 11.9835 11.417 11.0745C11.0872 10.2915 11.1647 9.35786 11.62 8.63543C12.0038 8.02633 12.6646 7.51543 13.3837 7.27152C13.7804 7.13696 14.0408 7.08919 14.6235 7.04381C14.6492 7.04195 14.8188 7.0523 15.0017 7.06716Z" fill="#89898F"/>
</svg>
