<svg width="61" height="61" viewBox="0 0 61 61" fill="none" xmlns="http://www.w3.org/2000/svg">
<path d="M28.3198 0.47424C21.9824 0.937195 16.0875 3.31086 11.173 7.37999C10.2535 8.14143 8.10785 10.2877 7.3649 11.1892C3.23806 16.1944 0.881317 22.1052 0.461123 28.4932C-0.0138796 35.7157 2.22716 43.0742 6.62194 48.7251C7.74043 50.1648 9.28115 51.8115 10.56 52.9344C18.5802 59.9762 29.5682 62.2443 39.7097 58.9548C46.5262 56.7436 52.4211 52.0349 56.1541 45.8236C59.9582 39.4945 61.2757 31.8455 59.8202 24.5439C58.7849 19.3498 56.4322 14.6005 52.9002 10.578C52.212 9.79426 50.5353 8.14346 49.7822 7.50994C45.1134 3.57685 39.5859 1.2235 33.4616 0.563582C32.4 0.445813 29.3977 0.39505 28.3198 0.47424ZM32.5806 2.67328C36.2791 2.96567 39.6306 3.87534 42.8622 5.46522C51.2377 9.58106 57.0493 17.6625 58.2612 26.8769C59.3777 35.3786 56.5946 43.8357 50.647 50.0064C46.6236 54.1811 41.2829 57.0441 35.589 58.0797C26.6614 59.7041 17.5876 56.9446 11.0817 50.6277C6.10431 45.7951 3.1934 39.531 2.6575 32.5055C2.56615 31.3176 2.6169 28.6861 2.75291 27.5125C3.35174 22.3428 5.20709 17.7051 8.31084 13.6197C9.41715 12.1618 11.1994 10.2897 12.5574 9.15871C17.0862 5.38603 22.5264 3.15857 28.3807 2.67937C29.3104 2.60424 31.6611 2.60221 32.5806 2.67328Z" fill="#0377A3"/>
<path d="M38.7285 40.0851C39.8142 39.7582 40.8985 39.4299 41.9857 39.1076C42.7573 38.8791 43.5365 38.7278 44.3338 38.982C45.554 39.3694 46.0341 40.5768 45.3093 41.633C44.9831 42.1081 44.5045 42.5394 44.0001 42.8208C41.6777 44.1175 39.3416 45.3961 36.9678 46.5975C35.423 47.3798 33.7982 48.0032 32.2202 48.7205C30.609 49.4528 28.9343 49.5345 27.2068 49.3363C22.7733 48.8309 18.4485 47.805 14.1585 46.6112C14.0634 46.5839 13.9667 46.5597 13.8731 46.5249C13.4895 46.3857 13.3189 46.0846 13.4186 45.729C13.5212 45.3613 13.855 45.1782 14.2551 45.2842C15.2034 45.5338 16.1472 45.7971 17.0955 46.0437C20.0537 46.8139 23.0376 47.4661 26.0683 47.8792C27.0679 48.0153 28.0842 48.1334 29.0884 48.1122C29.8102 48.0971 30.5607 47.9306 31.2387 47.6719C35.4759 46.0558 39.4926 43.9798 43.3946 41.6784C43.6724 41.515 43.9352 41.2986 44.1436 41.055C44.4848 40.6555 44.3368 40.253 43.8159 40.2046C43.4142 40.1668 42.9778 40.1849 42.5942 40.2999C39.9275 41.0973 37.2683 41.925 34.6121 42.7572C34.4974 42.7936 34.363 42.9751 34.3509 43.1007C34.2663 43.939 33.7967 44.4459 33.0386 44.7319C32.0314 45.1101 30.9774 45.0814 29.9551 44.9437C28.4662 44.7425 26.9939 44.4096 25.5186 44.1054C24.9402 43.9859 24.7213 43.4548 25.0414 43.0508C25.2392 42.7996 25.4944 42.7648 25.807 42.8314C27.0151 43.0916 28.2186 43.3928 29.4402 43.5547C30.3477 43.6742 31.281 43.6288 32.2006 43.6016C32.5192 43.5925 32.9269 43.5199 33.0115 43.1037C33.1006 42.6665 32.9058 42.2625 32.5162 42.1005C31.7611 41.7858 30.982 41.5089 30.1907 41.3122C29.3511 41.1034 28.4677 41.0686 27.6342 40.8447C26.9728 40.6661 26.3204 40.3801 25.73 40.0306C24.6745 39.4072 23.6537 38.7293 22.432 38.4645C20.2636 37.9939 18.1601 38.3102 16.0989 39.0304C15.5372 39.2271 14.9935 39.4798 14.4469 39.7189C14.0075 39.9111 13.6224 39.8172 13.4608 39.4601C13.3038 39.1106 13.4548 38.7626 13.864 38.5538C15.1007 37.9228 16.4039 37.484 17.7615 37.2086C18.0091 37.1587 18.1224 37.0876 18.1737 36.8288C18.3005 36.1873 18.4833 35.5563 18.6056 34.9132C18.6328 34.771 18.5437 34.5531 18.4349 34.4502C17.8415 33.8949 17.2254 33.3638 16.6138 32.8281C15.7259 32.0504 15.7108 31.1531 16.5776 30.3375C17.1589 29.7898 17.7343 29.2345 18.3277 28.6988C18.5271 28.5188 18.5678 28.3599 18.4772 28.1057C18.1918 27.3158 17.9276 26.5184 17.6663 25.721C17.3447 24.739 17.7675 23.9461 18.7657 23.6904C19.5766 23.4816 20.395 23.2985 21.2134 23.1139C21.4747 23.0549 21.6151 22.9474 21.6649 22.6478C21.8024 21.8202 21.9896 21.0001 22.1587 20.1769C22.3581 19.2025 23.1493 18.7107 24.1007 18.9831C24.9206 19.2176 25.7391 19.4521 26.55 19.7154C26.8097 19.8002 26.9667 19.7593 27.1404 19.5565C27.6765 18.9271 28.2306 18.3112 28.7758 17.6893C29.4825 16.8813 30.4081 16.8586 31.1466 17.6364C31.6962 18.2159 32.2549 18.7894 32.7789 19.3916C33.013 19.6609 33.2198 19.7003 33.549 19.5762C34.2935 19.2948 35.0531 19.0542 35.8081 18.8045C36.8032 18.4762 37.602 18.9104 37.8572 19.9303C38.0535 20.7171 38.2317 21.51 38.4084 22.3013C38.4718 22.5858 38.5609 22.7613 38.9127 22.8143C39.7267 22.9353 40.5285 23.1336 41.3364 23.2985C42.33 23.5012 42.8162 24.2972 42.5338 25.2807C42.3013 26.0872 42.0748 26.8967 41.8121 27.6941C41.7199 27.974 41.7773 28.1344 41.9917 28.316C42.6124 28.8411 43.2149 29.3873 43.8234 29.926C44.6449 30.6523 44.663 31.5707 43.8627 32.3318C43.2632 32.9023 42.6637 33.4742 42.0537 34.0311C41.8725 34.196 41.8196 34.3413 41.9087 34.5834C42.1941 35.3732 42.4538 36.1721 42.7166 36.9695C43.0609 38.0181 42.5565 38.8579 41.4829 39.0607C40.7716 39.1954 40.0574 39.3285 39.3582 39.5131C39.1 39.5812 38.8795 39.7915 38.6425 39.9368C38.6711 39.9867 38.6998 40.0366 38.7285 40.0851ZM19.5101 36.853C20.5354 36.9499 21.5185 36.9892 22.4819 37.1451C23.8394 37.3645 25.0308 38.0136 26.1573 38.7777C26.8384 39.2392 27.5602 39.5661 28.3892 39.6735C29.2333 39.7824 30.0774 39.9247 30.908 40.1123C31.965 40.3499 33.0115 40.6343 33.8027 41.4635C33.8707 41.5346 34.0655 41.5316 34.1802 41.4968C35.1331 41.2108 36.0784 40.9037 37.0312 40.6192C37.2441 40.5556 37.3076 40.4573 37.3242 40.2334C37.3997 39.215 37.9977 38.5023 38.9807 38.2602C39.698 38.0832 40.4198 37.9228 41.1476 37.7987C41.507 37.7367 41.5644 37.599 41.4511 37.2813C41.1718 36.4899 40.9075 35.6925 40.6433 34.8951C40.4243 34.2368 40.5496 33.6634 41.0661 33.1807C41.6822 32.6072 42.2802 32.0141 42.9038 31.4497C43.1575 31.2197 43.1681 31.0669 42.8993 30.8399C42.256 30.2982 41.6339 29.7308 41.0012 29.177C40.4726 28.714 40.3231 28.145 40.524 27.4762C40.7686 26.6576 40.9996 25.836 41.2609 25.0234C41.3545 24.7329 41.3077 24.6164 40.9921 24.5604C40.154 24.4106 39.3205 24.2275 38.4854 24.0581C37.8059 23.9204 37.3725 23.527 37.2109 22.84C37.0206 22.0229 36.8002 21.2104 36.6341 20.3888C36.5571 20.0059 36.403 19.9696 36.0739 20.0892C35.3128 20.3645 34.5427 20.6142 33.7755 20.873C33.0885 21.1045 32.495 20.988 31.9922 20.4357C31.4637 19.8546 30.9185 19.2902 30.3794 18.7213C29.9778 18.2976 29.9778 18.2991 29.5821 18.7546C29.0763 19.3356 28.5629 19.9106 28.0615 20.4947C27.5798 21.0545 26.9969 21.2149 26.2963 20.997C25.5503 20.7655 24.7998 20.5461 24.0523 20.3207C23.4951 20.1527 23.4906 20.1527 23.3728 20.7383C23.2188 21.5054 23.0723 22.2756 22.9198 23.0443C22.7839 23.7237 22.4003 24.1685 21.7117 24.3289C20.8827 24.5241 20.0567 24.736 19.2232 24.9145C18.9031 24.9826 18.8276 25.1173 18.9333 25.4184C19.2081 26.1976 19.4633 26.9829 19.7321 27.7622C19.9767 28.4703 19.8438 29.0726 19.2836 29.5855C18.6735 30.1439 18.0861 30.7279 17.4746 31.2847C17.2345 31.5026 17.2345 31.6524 17.4821 31.8628C18.1027 32.3878 18.6962 32.9446 19.3198 33.4667C19.8846 33.9403 20.0628 34.5183 19.8876 35.2264C19.7517 35.7742 19.6309 36.3295 19.5101 36.853Z" fill="#0377A3"/>
<path d="M30.5986 15.0264C30.5986 15.326 30.6152 15.6271 30.5941 15.9251C30.5654 16.3564 30.2996 16.6106 29.9206 16.603C29.5612 16.5955 29.2954 16.3473 29.2819 15.9373C29.2607 15.3244 29.2592 14.7086 29.2834 14.0958C29.2985 13.6903 29.5748 13.4391 29.9312 13.4361C30.2876 13.433 30.5443 13.6827 30.5956 14.0837C30.5986 14.1124 30.6001 14.1412 30.6001 14.1699C30.6001 14.4559 30.6001 14.7419 30.6001 15.0264C30.6001 15.0264 30.6001 15.0264 30.5986 15.0264Z" fill="#0377A3"/>
<path d="M22.1853 18.7913C22.0856 18.708 21.8622 18.5915 21.7429 18.4084C21.4257 17.9212 21.1464 17.4098 20.8655 16.8999C20.6496 16.508 20.7447 16.1312 21.0815 15.9451C21.4091 15.765 21.7534 15.8679 21.983 16.2462C22.2925 16.7561 22.5945 17.2691 22.8739 17.7956C23.1336 18.2828 22.8225 18.8124 22.1853 18.7913Z" fill="#0377A3"/>
<path d="M45.5882 22.6032C45.5127 22.694 45.3979 22.9164 45.2167 23.0359C44.7199 23.3628 44.199 23.6533 43.678 23.9408C43.305 24.1481 42.9456 24.0528 42.7554 23.729C42.5696 23.4127 42.6708 23.0329 43.0271 22.8165C43.536 22.5079 44.048 22.2037 44.5719 21.9223C45.0612 21.659 45.5897 21.9495 45.5882 22.6032Z" fill="#0377A3"/>
<path d="M39.1933 16.3336C39.1707 16.4002 39.145 16.5288 39.0846 16.6362C38.8007 17.1446 38.5138 17.65 38.2148 18.1493C37.9823 18.5367 37.6108 18.6426 37.2786 18.4399C36.96 18.2447 36.8739 17.8845 37.0823 17.5108C37.3782 16.9782 37.6833 16.4486 38.0019 15.9281C38.1635 15.6663 38.4111 15.5407 38.7297 15.6376C39.0423 15.7359 39.1903 15.9523 39.1933 16.3336Z" fill="#0377A3"/>
<path d="M17.4703 23.7183C17.4612 24.3281 16.9977 24.6489 16.5703 24.431C15.9784 24.1299 15.4045 23.7879 14.8398 23.4354C14.5242 23.2387 14.4683 22.874 14.6495 22.5744C14.8262 22.2809 15.1765 22.1643 15.4997 22.3384C16.0614 22.6395 16.6171 22.9542 17.1517 23.3007C17.3208 23.4096 17.4114 23.6366 17.4703 23.7183Z" fill="#0377A3"/>
<path d="M15.4086 36.3701C15.2471 36.1976 14.9994 36.0342 14.9058 35.8072C14.782 35.5061 14.9103 35.1762 15.238 35.0718C15.8979 34.86 16.5699 34.6845 17.2464 34.5347C17.5816 34.4605 17.8232 34.6663 17.9259 34.9856C18.0271 35.2973 17.9199 35.606 17.633 35.7073C16.9429 35.9555 16.2271 36.1325 15.4086 36.3701Z" fill="#0377A3"/>
<path d="M46.4318 30.3929C46.7444 30.3929 47.0585 30.3793 47.371 30.396C47.7591 30.4156 47.9856 30.6547 47.9932 31.0148C48.0022 31.384 47.7561 31.67 47.365 31.6821C46.7398 31.7018 46.1117 31.7003 45.4865 31.6836C45.0999 31.673 44.8281 31.3825 44.8281 31.033C44.8281 30.6819 45.0984 30.4217 45.491 30.3929C45.5197 30.3914 45.5484 30.3899 45.5771 30.3899C45.8625 30.3899 46.1464 30.3899 46.4318 30.3899C46.4318 30.3914 46.4318 30.3914 46.4318 30.3929Z" fill="#0377A3"/>
<path d="M13.9901 32.2019C13.6775 32.2019 13.3634 32.214 13.0508 32.1989C12.6537 32.1792 12.4015 31.9189 12.3985 31.5528C12.3954 31.173 12.622 30.9203 13.0402 30.9067C13.6654 30.887 14.2936 30.887 14.9187 30.9082C15.3098 30.9203 15.5756 31.2169 15.565 31.5634C15.5545 31.9129 15.2796 32.1807 14.8885 32.1989C14.588 32.2125 14.2891 32.2019 13.9901 32.2019Z" fill="#0377A3"/>
<path d="M19.3792 20.1045C19.6117 20.2392 19.7884 20.3027 19.9153 20.4207C20.2898 20.7703 20.6492 21.1349 21.004 21.5026C21.3151 21.8264 21.3302 22.2213 21.0614 22.4892C20.782 22.7676 20.4181 22.754 20.0829 22.4302C19.7039 22.0655 19.3052 21.7114 18.9821 21.3014C18.8431 21.1258 18.7812 20.7914 18.8461 20.5796C18.9035 20.392 19.1829 20.2694 19.3792 20.1045Z" fill="#0377A3"/>
<path d="M32.7714 18.1323C32.9058 17.6466 33.0477 17.0399 33.2455 16.4513C33.3603 16.1123 33.6653 15.9958 34.0096 16.0911C34.3388 16.1819 34.5321 16.4316 34.4611 16.763C34.3283 17.3849 34.1652 18.0022 33.9658 18.6044C33.8616 18.9176 33.5732 19.0508 33.2395 18.9585C32.8937 18.8617 32.7321 18.618 32.7714 18.1323Z" fill="#0377A3"/>
<path d="M45.251 27.3178C45.1619 27.4085 45.0215 27.6703 44.8116 27.7475C44.2559 27.9518 43.676 28.0955 43.0976 28.2241C42.7458 28.3028 42.4816 28.1121 42.3743 27.7762C42.2641 27.4328 42.394 27.1195 42.7277 27.006C43.3287 26.8033 43.9463 26.6368 44.5685 26.5067C44.9369 26.4311 45.251 26.7655 45.251 27.3178Z" fill="#0377A3"/>
<path d="M26.2487 16.1901C26.3438 16.2884 26.5975 16.4412 26.6761 16.6561C26.8693 17.1857 26.9992 17.741 27.1215 18.2933C27.2106 18.6973 27.0143 19.009 26.6745 19.0877C26.294 19.177 25.9845 18.9969 25.8652 18.5868C25.7096 18.0573 25.5646 17.5231 25.4393 16.986C25.3396 16.5638 25.6749 16.1719 26.2487 16.1901Z" fill="#0377A3"/>
<path d="M44.5721 35.5634C44.0799 35.4257 43.4562 35.2804 42.8537 35.0716C42.5139 34.9536 42.4082 34.6359 42.5185 34.2924C42.6227 33.9671 42.8809 33.784 43.2101 33.8551C43.8066 33.9852 44.3955 34.1486 44.9768 34.3347C45.297 34.4376 45.4404 34.7085 45.3845 35.0474C45.3287 35.3803 45.0523 35.5785 44.5721 35.5634Z" fill="#0377A3"/>
<path d="M17.9113 28.1259C17.9158 28.4724 17.5942 28.7887 17.1819 28.7054C16.5839 28.5859 15.9905 28.43 15.4106 28.2394C15.0829 28.132 14.9244 27.846 15.0195 27.4843C15.1132 27.1257 15.4484 26.9245 15.8123 27.0138C16.3499 27.1469 16.8844 27.2922 17.416 27.4465C17.7195 27.5358 17.8962 27.7431 17.9113 28.1259Z" fill="#0377A3"/>
<path d="M41.3317 20.4353C41.2094 20.6623 41.1535 20.8454 41.0357 20.9725C40.6794 21.3584 40.3049 21.7291 39.9243 22.0922C39.6042 22.3979 39.2569 22.4054 38.9805 22.1361C38.7027 21.8668 38.6997 21.5051 39.0002 21.1904C39.3822 20.7894 39.7582 20.3748 40.1871 20.0283C40.3502 19.8967 40.6778 19.8573 40.8817 19.9239C41.0614 19.9829 41.1762 20.2477 41.3317 20.4353Z" fill="#0377A3"/>
<path d="M25.5769 35.9585C25.7521 34.9311 25.9152 33.8023 26.1477 32.6872C26.261 32.1455 26.1749 31.7778 25.743 31.398C24.9306 30.6823 24.1847 29.8909 23.404 29.1374C23.1714 28.9134 22.9721 28.6381 23.1412 28.3521C23.265 28.1402 23.5489 27.9375 23.789 27.8951C25.0212 27.6787 26.264 27.5244 27.4992 27.3247C27.6442 27.302 27.8209 27.1628 27.8903 27.0296C28.4475 25.9386 28.9851 24.8371 29.5227 23.7355C29.6677 23.439 29.8398 23.1938 30.2188 23.2044C30.5752 23.215 30.7353 23.4511 30.8727 23.7325C31.4042 24.8204 31.9463 25.9038 32.4733 26.9948C32.5745 27.2036 32.6802 27.311 32.9354 27.3443C34.1193 27.4941 35.3001 27.6787 36.481 27.8527C36.8117 27.9012 37.1454 27.9647 37.2677 28.3385C37.3885 28.7077 37.1771 28.9573 36.9295 29.1964C36.0884 30.0089 35.2579 30.8351 34.4122 31.6431C34.2114 31.8353 34.1268 31.9987 34.1872 32.3043C34.4137 33.4498 34.5965 34.6043 34.7867 35.7573C34.8426 36.0962 34.9015 36.4488 34.5542 36.6924C34.2265 36.9224 33.9381 36.7711 33.6406 36.6107C32.5986 36.0539 31.5477 35.5137 30.5103 34.9508C30.2822 34.8267 30.1041 34.8328 29.8806 34.9538C28.7903 35.5409 27.697 36.1204 26.5962 36.6864C26.0164 36.9875 25.5513 36.6894 25.5769 35.9585ZM27.0719 34.9659C28.0066 34.4727 28.8432 34.049 29.6601 33.5905C30.0391 33.3787 30.3683 33.3847 30.7398 33.595C31.3453 33.9385 31.9674 34.2533 32.5835 34.5786C32.7995 34.6921 33.02 34.798 33.3129 34.9432C33.1362 33.8931 32.9898 32.9383 32.8071 31.9911C32.7391 31.6401 32.8206 31.3829 33.0668 31.1438C33.701 30.5295 34.3322 29.9091 34.9604 29.2887C35.0344 29.2161 35.0918 29.1283 35.1944 29.0012C34.2929 28.865 33.4564 28.691 32.6138 28.6275C31.9735 28.579 31.6171 28.3082 31.371 27.7256C31.0358 26.9358 30.6175 26.1807 30.1947 25.3273C29.725 26.2776 29.2886 27.134 28.8794 28.0041C28.7163 28.3506 28.4717 28.5336 28.1017 28.5821C27.6366 28.6411 27.173 28.7077 26.708 28.7757C26.2172 28.8484 25.7279 28.9271 25.2583 28.9997C25.8487 29.6216 26.3697 30.2541 26.9782 30.7837C27.5339 31.2663 27.688 31.7627 27.5083 32.4723C27.3089 33.2531 27.2244 34.0626 27.0719 34.9659Z" fill="#0377A3"/>
</svg>
