<svg width="22" height="11" viewBox="0 0 22 11" fill="none" xmlns="http://www.w3.org/2000/svg">
<path fill-rule="evenodd" clip-rule="evenodd" d="M20.9761 0.216553C21.3216 0.50529 21.3216 0.973425 20.9761 1.26216L12.5705 8.28606C12.2249 8.5748 11.6647 8.5748 11.3192 8.28606L7.52081 5.11208L1.51045 10.1345C1.16491 10.4232 0.604689 10.4232 0.259152 10.1345C-0.0863841 9.84571 -0.0863841 9.37758 0.259152 9.08884L6.89516 3.54366C7.2407 3.25492 7.80092 3.25492 8.14646 3.54366L11.9448 6.71764L19.7248 0.216553C20.0703 -0.0721843 20.6305 -0.0721843 20.9761 0.216553Z" fill="black"/>
<path fill-rule="evenodd" clip-rule="evenodd" d="M14.1562 0.739357C14.1562 0.331022 14.5524 0 15.0411 0H20.3499C20.8385 0 21.2347 0.331022 21.2347 0.739357V5.1755C21.2347 5.58384 20.8385 5.91486 20.3499 5.91486C19.8612 5.91486 19.4651 5.58384 19.4651 5.1755V1.47871H15.0411C14.5524 1.47871 14.1562 1.14769 14.1562 0.739357Z" fill="black"/>
</svg>
