<svg width="60" height="61" viewBox="0 0 60 61" fill="none" xmlns="http://www.w3.org/2000/svg">
<path d="M27.9214 0.33508C21.584 0.798035 15.689 3.1717 10.7746 7.24083C9.85504 8.00227 7.70941 10.1485 6.96646 11.0501C2.83962 16.0553 0.48288 21.9661 0.0626853 28.354C-0.412317 35.5765 1.82872 42.9351 6.22351 48.586C7.342 50.0256 8.88271 51.6724 10.1616 52.7952C18.1818 59.837 29.1698 62.1051 39.3113 58.8157C46.1278 56.6045 52.0227 51.8957 55.7557 45.6844C59.5598 39.3553 60.8772 31.7064 59.4218 24.4047C58.3865 19.2107 56.0338 14.4613 52.5017 10.4389C51.8136 9.6551 50.1369 8.0043 49.3838 7.37078C44.7149 3.43769 39.1875 1.08434 33.0632 0.424422C32.0015 0.306653 28.9993 0.25589 27.9214 0.33508ZM32.1822 2.53412C35.8807 2.82651 39.2321 3.73618 42.4638 5.32606C50.8392 9.4419 56.6509 17.5233 57.8628 26.7377C58.9792 35.2395 56.1962 43.6965 50.2485 49.8672C46.2252 54.042 40.8845 56.905 35.1905 57.9405C26.2629 59.5649 17.1892 56.8055 10.6833 50.4886C5.70588 45.656 2.79496 39.3919 2.25906 32.3663C2.16772 31.1785 2.21847 28.5469 2.35447 27.3733C2.9533 22.2036 4.80865 17.5659 7.91241 13.4806C9.01871 12.0227 10.801 10.1505 12.159 9.01955C16.6878 5.24687 22.128 3.01941 27.9823 2.54021C28.912 2.46508 31.2626 2.46305 32.1822 2.53412Z" fill="#0377A3"/>
<path d="M29.1 24.7387C26.4591 25.0037 24.1216 25.8667 22.1285 27.4861C17.6688 31.1078 16.0561 35.7804 17.1841 41.4065C17.1999 41.4903 17.2181 41.5719 17.2339 41.6557C17.3064 42.0407 17.2815 42.3872 16.8534 42.5571C16.4299 42.7247 16.1694 42.4937 15.952 42.1698C14.8489 40.5322 14.0494 38.7565 13.5579 36.8449C10.883 26.4352 18.1286 16.1568 28.8395 15.158C28.903 15.1512 28.9641 15.1376 29.1634 15.1036C29.1634 14.6484 29.1612 14.1704 29.1634 13.6925C29.168 12.884 29.1725 12.0754 29.1838 11.2668C29.1974 10.3087 29.6617 10.0437 30.4816 10.5465C33.0931 12.1433 35.7001 13.7492 38.3093 15.3528C40.5561 16.7344 42.803 18.1115 45.0475 19.4976C45.838 19.9868 45.8312 20.4919 45.0362 20.9698C40.1711 23.8962 35.3082 26.8247 30.4318 29.7329C30.1577 29.896 29.6844 30.0183 29.4556 29.8892C29.2336 29.7647 29.1249 29.2913 29.1159 28.9697C29.0796 27.5903 29.1 26.2087 29.1 24.7387ZM30.5133 12.1592C30.5133 13.3709 30.5179 14.4309 30.5111 15.4887C30.5066 16.2451 30.3367 16.415 29.5757 16.4581C27.5168 16.5781 25.5395 17.0401 23.6687 17.9099C17.3993 20.8226 13.721 27.2823 14.4616 34.1768C14.5975 35.4429 14.9577 36.6841 15.2136 37.9366C15.2838 37.9253 15.3563 37.914 15.4265 37.9026C15.4401 37.7645 15.4582 37.6263 15.4673 37.4881C15.619 35.0714 16.2373 32.7861 17.5035 30.7159C20.2033 26.297 24.1466 23.8327 29.3084 23.3526C30.2801 23.262 30.4839 23.4794 30.4794 24.4443C30.4771 25.4431 30.4658 26.4442 30.4635 27.4431C30.4635 27.6379 30.4907 27.8326 30.5111 28.1158C34.9232 25.4635 39.2402 22.8656 43.641 20.2201C39.2311 17.5135 34.9436 14.8794 30.5133 12.1592Z" fill="#0377A3"/>
<path d="M31.9032 39.4495C33.5815 39.3181 35.0741 38.8017 36.4694 38.0157C41.0015 35.4609 43.3118 30.2583 42.1952 25.1735C42.0932 24.7046 41.8464 24.1565 42.4715 23.896C43.1283 23.622 43.3593 24.2086 43.6266 24.6276C49.6695 34.154 43.5722 46.7494 32.3086 47.9929C31.9213 48.0359 31.8013 48.1741 31.8058 48.5432C31.8194 49.5013 31.8126 50.4594 31.799 51.4152C31.7877 52.26 31.3234 52.5364 30.6009 52.0924C26.2997 49.4651 22.0054 46.8264 17.7133 44.1832C17.0383 43.7687 17.0587 43.2319 17.7473 42.8174C22.028 40.2399 26.311 37.6624 30.5963 35.0917C31.4162 34.6002 31.8941 34.8765 31.8987 35.8346C31.9077 37.0237 31.9032 38.2083 31.9032 39.4495ZM30.4831 50.4367C30.4831 49.3903 30.4967 48.507 30.4785 47.6237C30.465 47.0031 30.7549 46.7335 31.3596 46.7177C31.7628 46.7086 32.1659 46.6588 32.5646 46.6067C40.9743 45.4923 46.4737 37.0463 44.0705 28.9355C44.023 28.7793 43.9573 28.6275 43.8622 28.3784C43.7399 29.1666 43.6651 29.8234 43.5337 30.4667C42.3514 36.1857 37.2802 40.6 31.6178 40.8537C30.6507 40.8968 30.5125 40.7631 30.5103 39.7779C30.508 38.8062 30.5103 37.8368 30.5103 36.7315C26.7074 39.0191 23.0065 41.2433 19.2172 43.5218C22.9997 45.8434 26.6666 48.0948 30.4831 50.4367Z" fill="#0377A3"/>
</svg>
