<svg width="31" height="31" viewBox="0 0 31 31" fill="none" xmlns="http://www.w3.org/2000/svg">
<path d="M10.1172 11.4842C10.1852 13.2013 11.3716 14.8619 12.3711 16.2037C13.2856 17.4259 14.3531 18.5352 15.5565 19.485C16.3214 20.0895 17.1373 20.6342 18.011 21.0792C18.5414 21.3516 18.8949 21.5176 19.5102 21.3449C20.4553 21.0825 22.6276 19.9932 22.2639 18.8042C22.0803 18.1997 21.3256 17.6085 20.8497 17.2233C20.2751 16.7616 19.2655 15.9446 18.5889 16.7052C18.1844 17.0838 17.7662 17.954 17.1339 18.0171C16.454 18.0802 15.8523 17.313 15.4307 16.8945C14.7372 16.207 14.1117 15.4564 13.5542 14.6593C13.0306 13.8257 13.6833 13.4836 14.3191 13.0286C14.608 12.8227 14.9786 12.6267 15.118 12.2846C15.3831 11.6503 14.761 10.8631 14.4041 10.3749C14.0675 9.91327 13.6799 9.49148 13.2482 9.11286C12.6907 8.618 12.0719 9.0099 11.5994 9.40513C10.9467 9.94981 10.3994 10.6838 10.1172 11.4842Z" fill="#0076A2"/>
<circle cx="15.7422" cy="15.5" r="14.6201" stroke="#0076A2" stroke-width="0.75982"/>
</svg>
