<svg width="81" height="81" viewBox="0 0 81 81" fill="none" xmlns="http://www.w3.org/2000/svg">
<path d="M4.29156 17.0864C4.29156 32.5887 4.29156 48.0124 4.29156 63.5203C4.98278 63.5203 5.63125 63.5203 6.27971 63.5203C12.2548 63.5214 18.2312 63.5247 24.2063 63.5247C30.0627 63.5247 35.9202 63.5248 41.7766 63.5214C45.298 63.5192 48.8194 63.5081 52.342 63.5081C53.8266 63.5081 54.4549 64.1107 54.4501 65.5109C54.4442 67.5036 54.481 69.4986 54.418 71.4892C54.266 76.3885 49.9263 80.2899 44.6673 80.2932C37.8989 80.2976 31.1315 80.2976 24.3631 80.2954C19.7145 80.2943 15.0649 80.2866 10.4163 80.2821C5.64194 80.2766 1.28797 76.6378 0.934043 72.187C0.745204 69.8187 0.833091 67.4294 0.831904 65.049C0.82359 55.3388 0.828341 45.6298 0.829528 35.9196C0.829528 27.1144 0.810526 18.3093 0.841405 9.50524C0.853282 6.18101 2.40556 3.57236 5.37828 1.73135C6.89492 0.79202 8.59328 0.303521 10.4175 0.302414C19.6801 0.29466 28.9415 0.304629 38.2041 0.305737C40.3217 0.305737 42.4393 0.297983 44.5569 0.296875C50.0724 0.295768 54.4335 4.34886 54.4477 9.49638C54.4537 11.7295 54.4572 13.9638 54.4466 16.1969C54.4406 17.3179 54.4097 18.4389 54.3753 19.5599C54.3432 20.6 53.7268 21.1362 52.589 21.1406C51.7874 21.1439 51.1009 20.4737 51.0605 19.5931C51.0285 18.8942 51.0534 18.1941 51.0593 17.494C51.0617 17.2248 51.0285 17.0554 50.6437 17.0565C41.8763 17.0742 33.109 17.0808 24.3417 17.0842C17.9152 17.0875 11.4876 17.0853 5.06117 17.0853C4.80939 17.0864 4.5576 17.0864 4.29156 17.0864ZM51.095 66.757C35.3834 66.757 19.8547 66.757 4.26781 66.757C4.26781 68.2469 4.2595 69.7002 4.27375 71.1535C4.27731 71.539 4.33432 71.9267 4.4032 72.3078C4.45546 72.5969 4.54929 72.8827 4.65499 73.1596C5.54217 75.4647 7.86762 77.0598 10.4959 77.0753C15.6421 77.1041 20.787 77.0908 25.9331 77.0908C32.2266 77.0908 38.5212 77.0975 44.8146 77.0797C47.6234 77.072 50.3372 75.1136 50.7707 72.5393C51.0867 70.6628 51 68.7276 51.095 66.757ZM4.16924 13.8364C19.8974 13.8364 35.4273 13.8364 50.9833 13.8364C50.9833 12.1637 51.0166 10.5609 50.9715 8.96025C50.9406 7.88577 50.5166 6.90213 49.8408 6.03479C48.4714 4.27908 46.6032 3.48596 44.2778 3.49261C37.4523 3.51365 30.6268 3.49925 23.8025 3.50036C19.3511 3.50147 14.901 3.48042 10.4496 3.51698C7.61702 3.54024 5.00416 5.41116 4.52316 8.00873C4.1728 9.89293 4.27256 11.8514 4.16924 13.8364Z" fill="#0076A2"/>
<path d="M44.436 56.5433C45.3054 56.5433 46.1083 56.5433 46.999 56.5433C46.999 56.2907 46.999 56.0581 46.999 55.8266C46.999 50.8053 47.0002 45.7841 47.0002 40.764C47.0002 39.4215 47.6095 38.8432 49.0489 38.8399C51.4634 38.8344 53.878 38.8333 56.2913 38.8355C57.549 38.8366 58.2296 39.4203 58.2319 40.5834C58.2367 43.202 58.1868 45.8207 58.1892 48.4404C58.1915 51.0789 58.2284 53.7164 58.2521 56.355C58.2521 56.407 58.2818 56.458 58.3079 56.5399C59.106 56.5399 59.9077 56.5399 60.7925 56.5399C60.7925 56.2818 60.7925 56.0492 60.7925 55.8166C60.7937 49.0607 60.7937 42.3037 60.7949 35.5478C60.7949 34.2983 61.4552 33.6791 62.7985 33.6769C65.2332 33.6713 67.6679 33.6713 70.1026 33.6725C71.3366 33.6736 72.0337 34.2917 72.0361 35.4404C72.048 42.142 72.0468 48.8425 72.0504 55.5441C72.0504 55.8576 72.0504 56.17 72.0504 56.5721C72.2867 56.5721 72.4946 56.5721 72.7024 56.5721C74.8402 56.5732 76.978 56.5654 79.1158 56.5798C79.8866 56.5854 80.5148 57.0395 80.7286 57.6787C80.9543 58.351 80.7476 59.0843 80.117 59.4421C79.7666 59.6415 79.3094 59.7656 78.8984 59.7678C74.0694 59.7911 69.2392 59.7844 64.4101 59.7844C58.8685 59.7844 53.3269 59.7822 47.7852 59.7811C40.6236 59.78 33.4608 59.7822 26.2992 59.7789C24.8313 59.7778 23.9785 58.5338 24.6603 57.3907C24.9988 56.8235 25.5391 56.571 26.2292 56.5721C28.3076 56.5743 30.3848 56.5721 32.4632 56.571C32.6782 56.571 32.8943 56.571 33.2293 56.571C33.2293 56.0393 33.2304 55.5496 33.2293 55.06C33.2233 51.9585 33.215 48.858 33.2114 45.7564C33.2103 44.6077 33.886 43.9797 35.1224 43.9774C37.5571 43.9741 39.9918 43.9752 42.4265 43.9763C43.7614 43.9774 44.4289 44.5811 44.4325 45.8428C44.4432 49.1837 44.436 52.5256 44.436 55.8676C44.436 56.0836 44.436 56.3007 44.436 56.5433ZM68.5777 56.5366C68.5777 49.9746 68.5777 43.4568 68.5777 36.9114C67.124 36.9114 65.7118 36.9114 64.2629 36.9114C64.2629 43.4635 64.2629 49.9812 64.2629 56.5366C65.7166 56.5366 67.1287 56.5366 68.5777 56.5366ZM54.7972 56.5566C54.7972 51.6926 54.7972 46.8962 54.7972 42.0777C53.3257 42.0777 51.9136 42.0777 50.4622 42.0777C50.4622 46.925 50.4622 51.7414 50.4622 56.5566C51.9159 56.5566 53.315 56.5566 54.7972 56.5566ZM36.6806 47.1987C36.6806 50.329 36.6806 53.414 36.6806 56.5156C38.1331 56.5156 39.5405 56.5156 40.9621 56.5156C40.9621 53.3841 40.9621 50.2991 40.9621 47.1987C39.5239 47.1987 38.1438 47.1987 36.6806 47.1987Z" fill="#0076A2"/>
<path d="M52.4704 29.852C50.8564 31.3596 49.3077 32.8084 47.7578 34.2562C46.7518 35.1966 45.753 36.1437 44.7364 37.0742C43.8587 37.8773 42.9109 37.864 42.0285 37.0509C41.2969 36.3775 40.576 35.694 39.804 34.9696C39.6365 35.1158 39.4821 35.2454 39.3361 35.3816C37.8087 36.8017 36.2956 38.2351 34.7517 39.6386C33.8562 40.4538 32.5806 40.2555 32.0046 39.2564C31.6578 38.6538 31.741 37.9305 32.2861 37.4165C34.3598 35.4636 36.4382 33.514 38.5403 31.5866C39.3218 30.8711 40.2719 30.9054 41.07 31.6354C41.8313 32.3321 42.5582 33.0632 43.4109 33.8851C44.4846 32.8483 45.487 31.8624 46.5095 30.8954C48.0214 29.4632 49.5428 28.0386 51.0702 26.6208C52.0155 25.7424 52.949 25.7712 53.9063 26.6695C54.8256 27.5324 55.7543 28.3887 56.6522 29.2228C58.9527 27.0594 61.2425 24.9061 63.6677 22.6253C63.6 22.5887 63.3791 22.5178 63.2318 22.3794C62.5204 21.7048 62.7378 20.8286 63.7045 20.5694C65.2806 20.1473 66.8661 19.7519 68.4576 19.3819C69.3091 19.1836 70.011 19.784 69.8103 20.5771C69.4172 22.1379 68.9718 23.6887 68.4849 25.2262C68.2604 25.934 67.353 26.1146 66.7378 25.6405C66.5407 25.4887 66.3649 25.3126 66.0905 25.0678C65.6107 25.5341 65.1452 26.0027 64.6618 26.4546C62.4539 28.5172 60.2461 30.5786 58.0287 32.6312C57.2472 33.3545 56.2365 33.3656 55.4479 32.6478C54.4609 31.7472 53.4989 30.8201 52.4704 29.852Z" fill="#0076A2"/>
<path d="M27.6788 69.1026C29.3914 69.1236 30.5755 70.3183 30.5387 71.9885C30.5031 73.6033 29.2442 74.7615 27.5684 74.7238C25.9033 74.6861 24.7156 73.5091 24.7346 71.9154C24.7548 70.2341 25.9615 69.0826 27.6788 69.1026Z" fill="#0076A2"/>
<path d="M27.5928 10.2854C26.1498 10.2854 24.7068 10.2909 23.2638 10.2832C22.2009 10.2765 21.4621 9.61266 21.4609 8.68724C21.4609 7.76625 22.208 7.08243 23.2638 7.08022C26.1712 7.07135 29.0774 7.07246 31.9848 7.08022C33.081 7.08354 33.8233 7.76181 33.8162 8.71605C33.8091 9.62042 33.0406 10.2821 31.9836 10.2854C30.5192 10.2887 29.056 10.2854 27.5928 10.2854Z" fill="#0076A2"/>
</svg>
