<svg width="146" height="20" viewBox="0 0 146 20" fill="none" xmlns="http://www.w3.org/2000/svg">
<path d="M9.40824 0.435547L12.1803 6.81507L18.5013 7.76968L13.8918 12.6707L15.0258 19.6324L9.40824 16.2796L3.78021 19.6324L4.91421 12.6707L0.304688 7.76968L6.62572 6.81507L9.40824 0.435547Z" fill="#FF7A00"/>
<path d="M41.2207 0.436035L43.9928 6.81556L50.3138 7.77017L45.7043 12.6712L46.8383 19.6328L41.2207 16.2801L35.5927 19.6328L36.7267 12.6712L32.1172 7.77017L38.4382 6.81556L41.2207 0.436035Z" fill="#FF7A00"/>
<path d="M73.0411 0.436035L75.8131 6.81556L82.1341 7.77017L77.5246 12.6712L78.6586 19.6328L73.0411 16.2801L67.413 19.6328L68.547 12.6712L63.9375 7.77017L70.2585 6.81556L73.0411 0.436035Z" fill="#FF7A00"/>
<path d="M104.854 0.436035L107.626 6.81556L113.947 7.77017L109.337 12.6712L110.471 19.6328L104.854 16.2801L99.2255 19.6328L100.36 12.6712L95.75 7.77017L102.071 6.81556L104.854 0.436035Z" fill="#FF7A00"/>
<path d="M136.656 0.436035L133.884 6.81556L127.562 7.77017L132.172 12.6712L131.038 19.6328L136.656 16.2801L136.876 16.4081V0.924975L136.656 0.436035Z" fill="#FF7A00"/>
<path d="M141.149 12.6689L145.758 7.76786L139.437 6.81325L136.875 0.922668V16.4058L142.283 19.6305L141.149 12.6689Z" fill="#FF7A00"/>
</svg>
