<svg width="81" height="81" viewBox="0 0 81 81" fill="none" xmlns="http://www.w3.org/2000/svg">
<path d="M16.7526 58.8282C18.2243 60.7004 19.5631 62.4021 20.9005 64.1024C21.3577 64.6826 21.8192 65.2598 22.2721 65.8428C22.5965 66.2597 22.6608 66.7052 22.1921 67.0275C21.0562 67.8081 19.9418 68.6432 18.7258 69.2749C17.3285 70.0012 15.9168 69.5786 14.8995 68.3539C12.752 65.7683 10.6073 63.1799 8.44267 60.6101C8.27693 60.4139 7.91973 60.2019 7.70684 60.2477C3.4104 61.1803 1.24432 58.1306 0.792814 54.9778C0.621356 53.7817 0.672793 52.4725 0.972844 51.3051C1.60581 48.8384 3.50756 47.8586 5.89939 47.5449C9.12993 47.1209 12.3633 46.694 15.5667 46.1096C17.237 45.8045 18.8859 45.2645 20.4733 44.6457C23.3495 43.5226 25.1198 41.2637 26.3257 38.4991C26.4586 38.1954 26.6114 37.8917 26.8043 37.6239C27.423 36.7601 28.2503 36.3017 29.329 36.5295C30.4307 36.7615 31.1779 37.4276 31.3522 38.5707C31.7866 41.3983 32.181 44.2331 32.5953 47.0636C33.2997 51.8752 34.0127 56.6867 34.71 61.4997C34.8585 62.5224 34.4213 63.3203 33.5969 63.8919C32.7253 64.4963 31.8023 64.4935 30.9207 63.9248C30.5464 63.6842 30.1949 63.369 29.9191 63.0209C27.2787 59.6934 23.7638 58.4543 19.6403 58.6463C18.7387 58.6878 17.8428 58.7594 16.7526 58.8282ZM18.5101 57.2683C18.9316 57.2683 19.2631 57.2826 19.5945 57.2654C24.1839 57.0377 28.0588 58.4844 31.0008 62.1371C31.1636 62.3391 31.3494 62.5969 31.5723 62.6585C31.9523 62.7631 32.4596 62.8834 32.7439 62.713C33.034 62.5396 33.2226 62.0354 33.2697 61.653C33.3226 61.2189 33.1725 60.7591 33.1054 60.3108C32.3524 55.2199 31.6009 50.129 30.845 45.0382C30.5378 42.964 30.2506 40.887 29.8791 38.8243C29.8206 38.4977 29.3905 38.0737 29.0676 38.0063C28.7375 37.939 28.2632 38.1782 27.9745 38.4275C27.7073 38.6581 27.5773 39.0678 27.4273 39.4158C25.867 43.0327 23.168 45.369 19.4517 46.5666C18.6472 46.8258 17.8414 47.0751 17.047 47.3258C17.5385 50.6691 18.02 53.9407 18.5101 57.2683ZM15.6596 47.6022C12.0461 48.1293 8.54412 48.6407 5.0421 49.1535C3.77903 49.3383 2.88888 50.0359 2.4288 51.2148C1.70297 53.0727 1.87014 54.9177 2.70742 56.6939C3.58328 58.5489 4.9278 59.2336 6.93242 58.9285C8.01403 58.7637 9.09564 58.6019 10.1758 58.4357C12.4505 58.0862 14.7237 57.7338 17.0927 57.3671C16.614 54.1055 16.1411 50.8853 15.6596 47.6022ZM9.83148 59.9398C9.90578 60.1117 9.92007 60.1876 9.96293 60.2377C12.0204 62.7058 14.0736 65.1782 16.1454 67.6348C16.6412 68.2235 17.3813 68.3954 18.0914 68.0072C19.0159 67.5002 19.8775 66.877 20.809 66.2754C18.9544 63.9234 17.1756 61.6601 15.381 59.4098C15.2867 59.2923 15.0538 59.2049 14.9009 59.225C13.2349 59.447 11.5718 59.692 9.83148 59.9398Z" fill="#0076A2"/>
<path d="M55.6074 25.2366C55.4531 25.1893 55.1731 25.1306 54.9159 25.0203C50.025 22.9103 45.1357 20.796 40.2463 18.6803C38.8932 18.0944 38.6288 17.4584 39.2175 16.0862C41.3036 11.2259 43.3982 6.37139 45.5 1.5183C46.0301 0.295001 46.7202 0.0242707 47.9561 0.555704C52.8927 2.68001 57.8249 4.8129 62.7572 6.95009C63.7531 7.38126 64.0531 8.15764 63.6202 9.16607C61.4755 14.1552 59.3195 19.1401 57.1777 24.1322C56.8976 24.7839 56.4633 25.1807 55.6074 25.2366ZM62.4614 8.35674C57.2963 6.12215 52.1797 3.90903 46.9931 1.66584C44.7513 6.86128 42.5409 11.9822 40.3148 17.139C45.5186 19.3879 50.6337 21.5996 55.7917 23.8299C58.0293 18.6373 60.2311 13.5278 62.4614 8.35674Z" fill="#0076A2"/>
<path d="M44.5469 72.0068C44.5926 71.8521 44.6483 71.5685 44.7598 71.3107C46.8773 66.3888 48.9991 61.4684 51.1251 56.5494C51.6081 55.4336 52.3582 55.1199 53.4841 55.6026C58.4635 57.7426 63.4386 59.8956 68.4123 62.0528C69.3896 62.4768 69.6568 63.279 69.191 64.3634C67.6993 67.8442 66.1948 71.3178 64.6946 74.7958C64.0716 76.2382 63.4486 77.6821 62.8271 79.1246C62.3413 80.2519 61.6069 80.5599 60.4867 80.0757C55.5316 77.9371 50.5822 75.7885 45.6256 73.6556C44.9369 73.3605 44.5512 72.8949 44.5469 72.0068ZM68.038 63.5125C67.9451 63.4237 67.9308 63.4008 67.9094 63.3922C62.9585 61.2435 58.0063 59.0992 53.0597 56.9433C52.6082 56.7457 52.4939 56.9792 52.3439 57.3272C50.8122 60.894 49.2677 64.455 47.7288 68.0189C47.1373 69.3898 46.5515 70.7649 45.9271 72.2231C51.108 74.4635 56.2231 76.6766 61.3954 78.914C63.6258 73.7444 65.829 68.6334 68.038 63.5125Z" fill="#0076A2"/>
<path d="M63.0094 27.6418C64.0453 27.8395 65.1669 28.0472 66.2857 28.2693C70.5535 29.1144 74.8228 29.961 79.0893 30.8161C80.4695 31.0926 80.8939 31.7243 80.6238 33.1052C79.6179 38.2505 78.6063 43.3958 77.5876 48.5396C77.2932 50.0222 76.6246 50.4319 75.1357 50.1354C70.0992 49.1298 65.0612 48.1285 60.0203 47.1416C58.3629 46.8164 57.9786 46.2377 58.3143 44.5431C59.3288 39.4236 60.3261 34.2998 61.3377 29.1788C61.5435 28.136 62.0721 27.6447 63.0094 27.6418ZM62.8051 29.0528C62.7237 29.335 62.6508 29.5341 62.6108 29.7389C61.6106 34.8097 60.6204 39.882 59.606 44.95C59.5003 45.4771 59.6303 45.6418 60.1546 45.7435C64.191 46.5185 68.2217 47.3307 72.2553 48.1271C73.484 48.3692 74.7142 48.5969 76.0216 48.8447C77.1104 43.3127 78.1891 37.8365 79.2807 32.293C73.7455 31.2043 68.3189 30.1371 62.8051 29.0528Z" fill="#0076A2"/>
<path d="M23.2203 10.4463C25.1921 10.336 27.1653 10.2329 29.1356 10.1126C30.3101 10.0395 30.9874 10.6211 31.0517 11.7914C31.3474 17.1745 31.6418 22.5576 31.939 27.9407C32.0032 29.1081 31.4674 29.7255 30.2787 29.7914C26.5723 29.9962 22.8646 30.1881 19.1582 30.3887C17.4479 30.4804 15.7377 30.5978 14.0274 30.6694C12.9886 30.7124 12.3828 30.1323 12.3242 29.0852C12.0285 23.7264 11.7355 18.3663 11.4526 13.0061C11.3783 11.5966 11.8613 11.0909 13.2415 11.015C16.5692 10.8302 19.8955 10.6354 23.2203 10.4463ZM30.5744 28.3589C30.2572 22.6922 29.9458 17.1329 29.6314 11.5164C23.9848 11.8329 18.4438 12.1423 12.8286 12.4575C13.1458 18.1227 13.4573 23.6792 13.7716 29.3043C19.4068 28.9863 24.9349 28.6755 30.5744 28.3589Z" fill="#0076A2"/>
<path d="M46.7437 49.3796C46.7022 53.101 45.622 56.0017 43.416 58.4712C43.0916 58.8351 42.7444 59.1602 42.2758 58.7505C41.7828 58.3194 42.06 57.9269 42.4029 57.5287C47.2237 51.9207 45.9778 43.6498 39.7196 39.7479C39.251 39.4557 38.9381 39.109 39.251 38.5962C39.5567 38.0948 40.0211 38.261 40.4383 38.5246C44.5804 41.1345 46.5708 44.9505 46.7437 49.3796Z" fill="#0076A2"/>
<path d="M40.8519 49.3683C40.7918 51.6812 39.9474 53.6085 38.5215 55.3037C38.2228 55.6591 37.8614 55.8196 37.4684 55.5072C37.0384 55.1662 37.197 54.8036 37.447 54.3809C38.0614 53.3434 38.7844 52.3246 39.1459 51.1954C39.8617 48.9513 39.2459 46.8964 37.6899 45.1654C37.1241 44.5349 36.364 44.0806 35.771 43.4716C35.5667 43.261 35.4538 42.7709 35.551 42.5C35.6996 42.0859 36.1253 42.0558 36.5111 42.3023C39.1244 43.9688 40.7104 46.2631 40.8519 49.3683Z" fill="#0076A2"/>
<path d="M56.2616 10.7264C57.1804 11.109 58.1005 11.4916 59.1035 11.91C58.9507 12.0132 58.8606 12.1163 58.8149 12.0992C57.9462 11.7853 57.3832 12.2697 56.8031 12.8099C55.2315 14.2701 53.6412 15.7088 52.0409 17.139C51.8509 17.3095 51.5623 17.3697 51.3194 17.48C51.2536 17.2393 51.1451 17 51.1293 16.7549C51.0708 15.908 51.0422 15.0597 50.995 14.0523C50.2606 14.7172 49.6434 15.2976 49.0004 15.8478C48.7989 16.0198 48.5303 16.1115 48.2917 16.2405C48.2088 15.9825 48.0674 15.726 48.0545 15.4652C47.9517 13.2943 47.8774 11.1233 47.7816 8.95232C47.7502 8.25302 47.9045 7.46918 46.8672 7.15249C46.9529 7.07368 47.0372 6.99629 47.1229 6.91748C48.0502 7.29722 48.9775 7.67839 49.9048 8.05814C49.8963 8.11259 49.8863 8.16847 49.8777 8.22293C49.7548 8.24872 49.6277 8.30604 49.5076 8.29601C49.049 8.25732 48.9118 8.51812 48.9261 8.90789C48.9975 10.8854 49.0761 12.8615 49.1619 15.0554C49.8248 14.4478 50.3663 13.9692 50.8807 13.4619C50.9765 13.3673 50.9922 13.1538 50.9879 12.9976C50.9522 11.9 50.9564 10.7966 50.8293 9.7075C50.7721 9.22172 50.4378 8.77033 50.1777 8.18854C51.1122 8.57401 52.0381 8.95518 53.1097 9.39654C51.9995 9.76912 52.0023 9.76912 52.0223 10.8582C52.0309 11.3067 52.0238 11.7538 52.1924 12.3012C52.7353 11.7968 53.3011 11.311 53.8026 10.7679C53.8941 10.669 53.7798 10.2979 53.664 10.113C53.5412 9.91528 53.3026 9.79061 53.1154 9.63299C53.1511 9.57137 53.1854 9.51118 53.2211 9.44956C54.1298 9.83504 55.0386 10.2191 55.9787 10.6174C55.8744 10.7521 55.8344 10.8252 55.8201 10.8195C54.95 10.5257 54.4013 11.0258 53.7441 11.5059C52.4281 12.4674 51.7809 13.6109 52.1681 15.2574C52.2309 15.5225 52.1767 15.8163 52.1767 16.2691C52.4653 16.0542 52.6339 15.9496 52.7768 15.8192C53.997 14.7172 55.2129 13.6095 56.4302 12.5033C57.1846 11.8169 57.1832 11.8169 56.3588 11.1391C56.2773 11.0717 56.2216 10.9714 56.153 10.8868C56.1902 10.8338 56.2259 10.7794 56.2616 10.7264Z" fill="#0076A2"/>
<path d="M59.0628 72.2622C58.9413 72.2292 58.6541 72.1905 58.3984 72.0802C56.4795 71.2548 54.562 70.4222 52.6503 69.5782C51.4672 69.0552 51.12 68.1624 51.6201 66.9644C52.0045 66.0416 52.3931 65.1216 52.796 64.2074C53.3375 62.975 54.2277 62.5924 55.4522 63.1111C57.3754 63.9265 59.2914 64.7619 61.1989 65.616C62.3119 66.1147 62.6548 67.0003 62.1947 68.1352C61.7732 69.1712 61.3246 70.1958 60.8631 71.2132C60.5487 71.9011 59.9944 72.2636 59.0628 72.2622ZM58.5298 68.2713C57.7668 67.3298 57.1196 66.5331 56.4023 65.6504C55.9723 66.6664 55.5979 67.5477 55.1793 68.5364C56.3223 68.4461 57.3282 68.3659 58.5298 68.2713Z" fill="#0076A2"/>
<path d="M69.528 37.4657C69.7566 37.0057 69.8938 36.5859 70.1453 36.2549C70.8068 35.3836 72.1299 35.1658 72.9429 35.8909C73.5201 36.4053 74.0674 36.5085 74.8161 36.381C74.5689 36.6432 74.3231 36.9054 74.0331 37.2121C74.2988 37.1935 74.5317 37.1763 74.7646 37.1591C73.6687 37.5259 73.7202 38.6035 73.353 39.406C71.8198 42.7534 67.6606 43.8826 64.6715 41.7489C64.5215 41.6414 64.39 41.5096 64.25 41.3892C64.7387 41.3892 65.203 41.4322 65.656 41.3763C66.0875 41.3233 66.5061 41.1657 66.859 41.0725C66.3704 40.5122 65.9246 40.0007 65.343 39.3343C65.776 39.2956 65.9446 39.2799 66.2032 39.257C65.5316 38.6881 65.0516 38.0891 65.2373 37.1462C65.4302 37.2006 65.6117 37.2522 65.8946 37.331C65.4016 36.4168 65.2445 35.557 66.0232 34.6943C66.7647 36.2076 68.0035 37.0086 69.528 37.4657Z" fill="#0076A2"/>
<path d="M21.7494 20.4965C21.7022 19.8631 21.6594 19.277 21.6094 18.6078C22.1395 18.5477 22.6224 18.4932 23.1582 18.433C23.1811 17.086 23.2196 15.7333 24.397 14.7975C25.0085 14.3118 25.9801 14.1341 27.3375 14.2473C27.3746 14.8162 27.4118 15.3965 27.4475 15.9597C25.6543 16.4555 25.33 16.8625 25.5486 18.3169C26.0044 18.3169 26.4688 18.3169 27.0103 18.3169C27.0431 18.9475 27.0746 19.5335 27.1089 20.2028C26.6231 20.2644 26.1644 20.3231 25.6515 20.389C25.7444 22.272 25.8344 24.1234 25.9301 26.0665C25.1885 26.1167 24.4699 26.1668 23.6754 26.2213C23.5568 24.281 23.4425 22.4138 23.3268 20.4979C22.7767 20.4965 22.2881 20.4965 21.7494 20.4965Z" fill="#0076A2"/>
<path d="M10.7765 51.9077L5.41555 52.7504C5.01977 52.812 4.6497 52.5411 4.58684 52.1441C4.5254 51.7471 4.79544 51.3759 5.19122 51.3129L10.5521 50.4702C10.9479 50.4085 11.318 50.6794 11.3808 51.0764C11.4437 51.4734 11.1722 51.846 10.7765 51.9077Z" fill="#0076A2"/>
<path d="M11.1515 55.3266L5.79055 56.1693C5.39477 56.2309 5.0247 55.9601 4.96184 55.5631C4.9004 55.1661 5.17044 54.7949 5.56622 54.7318L10.9271 53.8891C11.3229 53.8275 11.693 54.0984 11.7558 54.4954C11.8173 54.8923 11.5472 55.2635 11.1515 55.3266Z" fill="#0076A2"/>
</svg>
