<svg width="394" height="64" viewBox="0 0 394 64" fill="none" xmlns="http://www.w3.org/2000/svg">
<path d="M118.669 62.6082C100.901 62.6082 86.4922 48.7236 86.4922 31.6018C86.4922 14.4801 100.901 0.595459 118.669 0.595459C136.438 0.595459 150.846 14.4801 150.846 31.6018C150.846 48.7308 136.438 62.6082 118.669 62.6082Z" stroke="white" stroke-width="1.10919" stroke-miterlimit="10"/>
<path d="M126.476 14.8848H110.862C105.566 14.8848 101.266 19.0219 101.266 24.1315V39.1774C101.266 44.2799 105.559 48.4242 110.862 48.4242H126.476C131.771 48.4242 136.071 44.2871 136.071 39.1774V24.1315C136.071 19.0219 131.778 14.8848 126.476 14.8848ZM133.262 39.1339C133.262 42.7629 130.212 45.7097 126.438 45.7097H110.907C107.141 45.7097 104.083 42.7702 104.083 39.1339V24.1678C104.083 20.5388 107.133 17.592 110.907 17.592H126.438C130.204 17.592 133.262 20.5315 133.262 24.1678V39.1339Z" fill="white"/>
<path d="M118.667 22.8096C113.605 22.8096 109.5 26.7652 109.5 31.6499C109.5 36.5273 113.605 40.4829 118.667 40.4829C123.728 40.4829 127.841 36.5273 127.841 31.6499C127.833 26.7652 123.728 22.8096 118.667 22.8096ZM118.667 37.4128C115.36 37.4128 112.686 34.8289 112.686 31.6499C112.686 28.4636 115.368 25.887 118.667 25.887C121.966 25.887 124.647 28.4709 124.647 31.6499C124.647 34.8289 121.966 37.4128 118.667 37.4128Z" fill="white"/>
<path d="M130.207 22.5195C130.207 23.6155 129.288 24.501 128.15 24.501C127.013 24.501 126.094 23.6155 126.094 22.5195C126.094 21.4236 127.013 20.5381 128.15 20.5381C129.288 20.5381 130.207 21.4236 130.207 22.5195Z" fill="white"/>
<path d="M360.826 62.6082C343.057 62.6082 328.648 48.7236 328.648 31.6018C328.648 14.4801 343.057 0.595459 360.826 0.595459C378.594 0.595459 393.003 14.4801 393.003 31.6018C393.003 48.7236 378.594 62.6082 360.826 62.6082Z" stroke="white" stroke-width="1.10919" stroke-miterlimit="10"/>
<path fill-rule="evenodd" clip-rule="evenodd" d="M377.476 25.6426C377.476 22.9717 375.231 20.8015 372.452 20.8015H348.907C346.135 20.8015 343.883 22.9644 343.883 25.6426V38.62C343.883 41.291 346.127 43.4611 348.907 43.4611H372.46C375.231 43.4611 377.484 41.291 377.484 38.62V25.6426H377.476ZM357.32 37.6039V25.4104L366.916 31.5071L357.32 37.6039Z" fill="white"/>
<path d="M282.49 62.6082C264.721 62.6082 250.312 48.7236 250.312 31.6018C250.312 14.4801 264.721 0.595459 282.49 0.595459C300.258 0.595459 314.667 14.4801 314.667 31.6018C314.667 48.7236 300.258 62.6082 282.49 62.6082Z" stroke="white" stroke-width="1.10919" stroke-miterlimit="10"/>
<path d="M298.063 33.7122V44.4686H291.593V34.438C291.593 31.9195 290.659 30.1993 288.316 30.1993C286.531 30.1993 285.469 31.3606 284.995 32.4783C284.821 32.8775 284.784 33.4364 284.784 33.9953V44.4686H278.314C278.314 44.4686 278.404 27.4775 278.314 25.7138H284.784V28.3703C284.769 28.3921 284.754 28.4138 284.739 28.4283H284.784V28.3703C285.642 27.0929 287.179 25.2711 290.614 25.2711C294.877 25.2783 298.063 27.9566 298.063 33.7122ZM268.273 44.4686H274.744V25.7138H268.273V44.4686ZM274.932 19.3558C274.932 21.1267 273.44 22.5638 271.603 22.5638C269.765 22.5638 268.273 21.1267 268.273 19.3558C268.273 17.5848 269.765 16.1477 271.603 16.1477C273.44 16.1405 274.932 17.5776 274.932 19.3558Z" fill="white"/>
<path d="M197.372 62.6045C179.604 62.6045 165.195 48.7199 165.195 31.5982C165.195 14.4764 179.604 0.591797 197.372 0.591797C215.141 0.591797 229.55 14.4764 229.55 31.5982C229.55 48.7199 215.141 62.6045 197.372 62.6045Z" stroke="white" stroke-width="1.10919" stroke-miterlimit="10"/>
<path d="M215.434 22.7312C214.214 23.2538 212.896 23.6094 211.517 23.7691C212.926 22.9562 214.01 21.6643 214.523 20.1328C213.204 20.8877 211.743 21.432 210.192 21.7296C208.949 20.4522 207.171 19.6538 205.205 19.6538C201.439 19.6538 198.381 22.6006 198.381 26.2296C198.381 26.7449 198.442 27.2457 198.562 27.732C192.89 27.4562 187.859 24.8361 184.492 20.8586C183.905 21.8312 183.566 22.9635 183.566 24.1683C183.566 26.4473 184.771 28.4651 186.601 29.6409C185.486 29.6046 184.432 29.3143 183.513 28.8207C183.513 28.8498 183.513 28.8788 183.513 28.9006C183.513 32.0868 185.863 34.7433 188.989 35.3457C188.416 35.4981 187.814 35.578 187.189 35.578C186.752 35.578 186.322 35.5344 185.901 35.4618C186.767 38.0747 189.29 39.9763 192.28 40.0271C189.945 41.7908 187 42.8433 183.807 42.8433C183.257 42.8433 182.714 42.8142 182.18 42.7489C185.2 44.6142 188.785 45.7029 192.642 45.7029C205.198 45.7029 212.06 35.6796 212.06 26.9917C212.06 26.7086 212.052 26.4256 212.037 26.1425C213.363 25.2135 214.515 24.0522 215.434 22.7312Z" fill="white"/>
<path d="M33.1772 62.6082C15.4089 62.6082 1 48.7236 1 31.6018C1 14.4801 15.4089 0.595459 33.1772 0.595459C50.9454 0.595459 65.3543 14.4801 65.3543 31.6018C65.3543 48.7236 50.9454 62.6082 33.1772 62.6082Z" stroke="white" stroke-width="1.10919" stroke-miterlimit="10"/>
<path d="M38.7409 32.9961H33.6643V48.7461H26.1322V32.9961H22.5469V26.8268H26.1322V22.8348C26.1322 19.9824 27.5407 15.5115 33.7321 15.5115L39.3133 15.5332V21.5211H35.2686C34.6058 21.5211 33.6718 21.8405 33.6718 23.205V26.834H39.4113L38.7409 32.9961Z" fill="white"/>
</svg>
