<svg width="50" height="51" viewBox="0 0 50 51" fill="none" xmlns="http://www.w3.org/2000/svg">
<circle cx="25" cy="25.5449" r="24" fill="white" stroke="#0076A2" stroke-width="2"/>
<path d="M17.7182 38.4649C16.4319 38.4649 15.2394 38.4649 13.977 38.4649C13.977 39.1337 13.9759 39.7613 13.977 40.3889C13.9781 41.4964 13.9694 42.604 13.9869 43.7104C13.9934 44.1482 13.799 44.3001 13.3622 44.2948C12.0158 44.2811 10.6683 44.3075 9.32181 44.2842C7.73294 44.2568 6.48697 43.1546 6.29259 41.6325C6.25437 41.3371 6.25109 41.0365 6.25109 40.738C6.25 34.2342 6.25 27.7313 6.25 21.2275C6.25 19.0092 7.49598 17.8078 9.79028 17.8089C10.404 17.8089 11.0177 17.8089 11.6467 17.8089C11.7635 17.2108 11.4698 16.4735 12.1425 16.194C12.6644 15.9767 13.2956 16.0052 13.9224 15.9187C13.9224 15.6814 13.9224 15.4134 13.9224 15.078C13.181 15.078 12.457 15.078 11.734 15.078C11.0788 15.078 10.4236 15.078 9.76844 15.078C8.30843 15.078 7.43919 14.3513 7.21642 12.9463C6.93687 11.1879 8.04307 9.82408 9.87109 9.64477C10.0207 9.63 10.2446 9.49288 10.2828 9.36841C10.7174 7.97608 11.6412 7.0795 13.1307 6.84639C14.6945 6.60274 15.8902 7.23456 16.7638 8.52036C16.9691 8.48133 17.1777 8.43597 17.3874 8.40433C18.6836 8.20603 19.8597 8.82414 20.4362 9.96332C20.5301 10.149 20.754 10.3335 20.9571 10.3968C22.1692 10.7713 22.9489 11.8641 22.7764 13.0043C22.5864 14.2553 21.5817 15.0749 20.2342 15.0749C18.855 15.0759 17.4747 15.0749 16.0573 15.0749C16.0573 15.3966 16.0573 15.6655 16.0573 16.0052C16.9036 16.0052 17.7346 16.0052 18.5667 16.0052C19.7417 16.0052 19.9765 16.2225 20.0093 17.3342C20.0136 17.4713 20.0355 17.6085 20.0551 17.8099C20.7584 17.8099 21.4431 17.8089 22.1288 17.8099C24.1414 17.8131 25.4376 19.0557 25.442 21.007C25.4485 24.4351 25.4442 27.8621 25.4442 31.2902C25.4442 31.4991 25.4442 31.7079 25.4442 31.9547C27.9918 31.9547 30.4947 31.9547 33.0817 31.9547C33.0817 31.1447 33.0806 30.3441 33.0817 29.5435C33.0827 28.8948 33.1625 28.8167 33.8286 28.8083C35.2995 28.7882 35.1324 28.8041 35.1335 30.0614C35.1346 30.6753 35.1335 31.2881 35.1335 31.9611C35.377 31.9727 35.5856 31.9927 35.7953 31.9927C38.1791 31.9959 40.563 31.9948 42.9479 31.998C43.6785 31.999 43.7484 32.0592 43.7484 32.7342C43.7505 36.3553 43.7505 39.9765 43.7484 43.5965C43.7484 44.2252 43.6763 44.2927 43.0255 44.2927C34.8354 44.2937 26.6465 44.2937 18.4564 44.2927C17.7783 44.2927 17.7204 44.2326 17.7204 43.5575C17.7193 42.0639 17.7193 40.5714 17.7193 39.0778C17.7182 38.8869 17.7182 38.697 17.7182 38.4649ZM42.9042 32.7901C42.7612 32.7796 42.6727 32.768 42.5832 32.768C40.053 32.7669 37.5228 32.7596 34.9938 32.7722C34.5024 32.7743 34.2992 32.6034 34.3145 32.1225C34.3375 31.402 34.3265 30.6805 34.308 29.9601C34.3047 29.8378 34.1879 29.7196 34.1234 29.5983C34.0383 29.7217 33.8843 29.843 33.8799 29.9686C33.8548 30.6711 33.869 31.3746 33.8657 32.0771C33.8624 32.7047 33.8024 32.7627 33.1417 32.7627C30.5941 32.7638 28.0453 32.7638 25.4977 32.7627C24.6874 32.7627 24.659 32.7342 24.659 31.9695C24.659 28.3305 24.6612 24.6914 24.659 21.0524C24.6579 19.5187 23.7013 18.5863 22.1179 18.5747C21.335 18.5683 20.5531 18.5715 19.7701 18.5757C19.3868 18.5778 19.1968 18.4175 19.2143 18.0336C19.2274 17.735 19.2449 17.4323 19.2034 17.1391C19.1848 17.0072 19.0286 16.79 18.9293 16.7878C17.9727 16.7615 17.015 16.772 16.018 16.772C16.018 17.0547 16.0158 17.2646 16.018 17.4745C16.0322 18.9607 16.1403 18.8268 14.5449 18.8341C14.1299 18.8363 13.9454 18.6675 13.9585 18.2635C13.9738 17.7793 13.9617 17.2941 13.9617 16.8564C13.8602 16.8037 13.8449 16.79 13.8285 16.7878C12.4864 16.6686 12.4657 16.6697 12.4952 17.966C12.5061 18.4502 12.2964 18.5852 11.8498 18.5778C11.104 18.5652 10.357 18.5704 9.61119 18.5768C8.0125 18.5894 7.069 19.4976 7.06245 21.0397C7.0559 22.6219 7.06027 24.2041 7.06027 25.7863C7.06027 30.8135 7.06027 35.8417 7.06027 40.8688C7.06027 42.6894 7.94152 43.5322 9.84379 43.5322C10.7534 43.5322 11.6642 43.5343 12.5738 43.5301C12.7671 43.529 12.9604 43.5111 13.1919 43.4984C13.1919 43.2548 13.1919 43.0649 13.1919 42.874C13.1962 41.3445 13.2137 39.8161 13.1973 38.2867C13.1919 37.83 13.3622 37.657 13.8318 37.6601C15.1782 37.6717 16.5236 37.6622 17.87 37.6496C18.3571 37.6454 18.5427 37.8489 18.5361 38.3247C18.5154 39.8362 18.5285 41.3477 18.5285 42.8582C18.5285 43.0628 18.5285 43.2674 18.5285 43.4974C26.6901 43.4974 34.7797 43.4974 42.9021 43.4974C42.9042 39.9227 42.9042 36.3807 42.9042 32.7901ZM16.0213 14.2722C17.609 14.2722 19.1335 14.3302 20.6503 14.2489C21.4758 14.2046 22.0109 13.4283 21.9738 12.633C21.9367 11.8419 21.3273 11.1922 20.4996 11.1352C20.0912 11.1078 19.8957 10.9728 19.7778 10.5825C19.4076 9.3547 18.1692 8.81359 16.9702 9.34942C16.5542 9.53507 16.327 9.4971 16.1119 9.07307C15.5593 7.98346 14.4226 7.41282 13.2956 7.60057C12.0409 7.81048 11.1793 8.69229 11.0308 9.96648C10.9806 10.3979 10.8124 10.5445 10.357 10.4654C9.44193 10.3051 8.56396 10.7491 8.18285 11.5212C7.79737 12.3029 7.99284 13.4821 8.63712 14.0053C8.8315 14.1635 9.1187 14.2922 9.36549 14.2975C10.7654 14.3249 12.1665 14.308 13.5675 14.3154C13.834 14.3165 13.9497 14.2468 13.9683 13.9631C14.0535 12.7121 14.0633 12.7279 15.3868 12.7322C15.8717 12.7343 16.0409 12.9357 16.0224 13.3692C16.0114 13.6614 16.0213 13.9547 16.0213 14.2722ZM15.009 18.0747C15.0996 18.0831 15.1771 18.0547 15.1913 17.9492C15.1913 16.5811 15.1968 15.213 15.1815 13.846C15.1804 13.7374 15.0352 13.6308 14.9566 13.5232C14.8648 13.4832 14.7655 13.7279 14.7644 13.8312C14.7513 15.1308 14.7491 16.4303 14.7655 17.7298C14.7665 17.8458 14.8026 18.0304 15.009 18.0747Z" fill="#0076A2"/>
<path d="M38.4059 23.175C38.301 23.3016 38.2279 23.4715 38.1077 23.5116C37.9843 23.5528 37.7572 23.5158 37.6753 23.4272C36.1072 21.7302 34.1448 21.8304 32.1454 22.3602C31.5917 22.5069 31.1407 23.0019 30.6275 23.3121C30.4571 23.4156 30.1907 23.539 30.0466 23.4789C29.7495 23.3554 29.7823 23.0557 29.9843 22.8636C30.3425 22.5217 30.6941 22.1259 31.1342 21.9222C33.1216 21.0009 35.1418 21.0062 37.126 21.9434C37.5049 22.1228 37.8118 22.452 38.1329 22.7338C38.2442 22.833 38.2977 22.9955 38.4059 23.175Z" fill="#0076A2"/>
<path d="M34.1416 23.5259C35.0797 23.7686 36.0221 23.9945 36.9514 24.2625C37.2386 24.3448 37.5836 24.5169 37.3762 24.9052C37.1938 25.2461 36.9011 25.0931 36.6216 24.9738C34.9333 24.2541 33.2407 24.2604 31.558 24.9875C31.2915 25.1026 31.0218 25.2292 30.8471 24.9232C30.6527 24.5855 30.9246 24.4082 31.1987 24.2773C32.1127 23.8393 33.0879 23.6715 34.1012 23.6789C34.1143 23.6272 34.1285 23.5765 34.1416 23.5259Z" fill="#0076A2"/>
<path d="M34.0646 26.988C33.5699 27.0535 33.1058 27.1516 32.6395 27.1611C32.4386 27.1653 32.2344 26.9891 32.0312 26.8952C32.1841 26.7337 32.3097 26.4709 32.4921 26.4266C33.5601 26.1659 34.6455 26.1649 35.7135 26.4287C35.8904 26.472 36.0083 26.739 36.1525 26.9036C35.9505 26.9933 35.7462 27.1632 35.5464 27.1569C35.0463 27.1432 34.545 27.0482 34.0646 26.988Z" fill="#0076A2"/>
<path d="M11.9179 30.1436C11.9179 30.7925 11.9091 31.4415 11.9212 32.0904C11.9288 32.4925 11.7486 32.6613 11.3337 32.656C10.4448 32.6444 9.55478 32.6476 8.66588 32.656C8.24874 32.6602 8.08275 32.4735 8.08603 32.0778C8.09586 30.7978 8.09913 29.5179 8.08603 28.2379C8.08166 27.8422 8.23345 27.648 8.65278 27.6491C9.56024 27.6533 10.4677 27.6523 11.3751 27.647C11.7672 27.6449 11.9288 27.8264 11.9233 28.1978C11.9135 28.8468 11.9201 29.4957 11.9201 30.1447C11.919 30.1436 11.919 30.1436 11.9179 30.1436ZM11.0945 31.8372C11.0945 30.6965 11.0945 29.5875 11.0945 28.4795C10.3465 28.4795 9.63558 28.4795 8.93561 28.4795C8.93561 29.6234 8.93561 30.7187 8.93561 31.8372C9.67053 31.8372 10.3672 31.8372 11.0945 31.8372Z" fill="#0076A2"/>
<path d="M23.6186 30.1963C23.6197 30.8115 23.6087 31.4278 23.6229 32.0429C23.6328 32.4566 23.4755 32.6644 23.0202 32.6571C22.1291 32.6423 21.2369 32.6455 20.3447 32.6518C19.9538 32.6539 19.7813 32.4787 19.7835 32.1073C19.7878 30.8062 19.79 29.5052 19.7813 28.2031C19.7791 27.8274 19.9494 27.647 20.3338 27.647C21.2435 27.648 22.1542 27.6544 23.0638 27.648C23.4548 27.6449 23.6251 27.8158 23.6208 28.1925C23.6109 28.8605 23.6175 29.5284 23.6186 30.1963ZM22.7919 31.8393C22.7919 30.6997 22.7919 29.5907 22.7919 28.4616C22.0581 28.4616 21.3603 28.4616 20.6352 28.4616C20.6352 29.5991 20.6352 30.7081 20.6352 31.8393C21.3701 31.8393 22.0679 31.8393 22.7919 31.8393Z" fill="#0076A2"/>
<path d="M13.9425 30.1264C13.9436 29.4933 13.9567 28.8602 13.9381 28.227C13.9261 27.8261 14.0899 27.6414 14.5103 27.6446C15.42 27.652 16.3307 27.6467 17.2403 27.6467C17.5941 27.6467 17.7765 27.8029 17.7743 28.1606C17.7689 29.4796 17.7689 30.7986 17.7732 32.1176C17.7743 32.4637 17.6149 32.6483 17.2523 32.6483C16.3241 32.6504 15.3959 32.6483 14.4677 32.6504C14.103 32.6515 13.9381 32.4784 13.9414 32.1302C13.9458 31.4633 13.9425 30.7954 13.9425 30.1264ZM14.7571 31.8337C15.5106 31.8337 16.2106 31.8337 16.928 31.8337C16.928 30.6867 16.928 29.5766 16.928 28.4645C16.1866 28.4645 15.4877 28.4645 14.7571 28.4645C14.7571 29.5935 14.7571 30.6899 14.7571 31.8337Z" fill="#0076A2"/>
<path d="M32.2679 36.9292C32.2679 36.2802 32.2745 35.6313 32.2657 34.9823C32.2614 34.6383 32.4055 34.4484 32.7735 34.4484C33.7192 34.4473 34.6649 34.4495 35.6094 34.4463C35.9491 34.4452 36.1139 34.6098 36.1129 34.9306C36.1107 36.2655 36.1107 37.6013 36.0954 38.9362C36.0921 39.2263 35.9578 39.4311 35.5942 39.4258C34.6681 39.4131 33.7421 39.4015 32.8161 39.4216C32.3869 39.4311 32.2821 39.2337 32.2865 38.8771C32.2952 38.2281 32.2887 37.5781 32.2887 36.9292C32.2821 36.9292 32.2755 36.9292 32.2679 36.9292ZM33.0989 38.6629C33.7661 38.6629 34.3973 38.6734 35.0274 38.6523C35.1257 38.6492 35.2993 38.5035 35.3004 38.4212C35.319 37.3713 35.3124 36.3214 35.3124 35.2514C34.5273 35.2514 33.8164 35.2514 33.0989 35.2514C33.0989 36.4016 33.0989 37.5011 33.0989 38.6629Z" fill="#0076A2"/>
<path d="M11.9189 23.3632C11.9189 24.0133 11.9113 24.6643 11.9222 25.3143C11.9287 25.6931 11.7551 25.8556 11.3642 25.8514C10.4545 25.8419 9.54488 25.8419 8.63524 25.8493C8.23993 25.8525 8.08378 25.6741 8.08596 25.3006C8.0936 23.9995 8.09251 22.6995 8.08705 21.3985C8.08596 21.0239 8.25631 20.8571 8.65053 20.8624C9.56017 20.873 10.4698 20.873 11.3794 20.8624C11.7857 20.8571 11.9287 21.0481 11.9244 21.4132C11.9167 22.0632 11.9222 22.7143 11.9222 23.3643C11.92 23.3633 11.9189 23.3632 11.9189 23.3632ZM11.0901 25.0611C11.0901 23.9014 11.0901 22.7913 11.0901 21.6633C10.3508 21.6633 9.6519 21.6633 8.93991 21.6633C8.93991 22.8124 8.93991 23.9246 8.93991 25.0611C9.66609 25.0611 10.3508 25.0611 11.0901 25.0611Z" fill="#0076A2"/>
<path d="M23.6141 23.3912C23.6141 24.0063 23.5999 24.6215 23.6185 25.2367C23.6327 25.6926 23.4296 25.8624 22.9655 25.8519C22.1115 25.8329 21.2554 25.8392 20.4004 25.8519C19.9723 25.8582 19.7681 25.7073 19.7735 25.2663C19.7888 23.9831 19.7856 22.7 19.7757 21.4169C19.7725 21.0085 19.957 20.8513 20.3709 20.8576C21.2434 20.8713 22.1181 20.8777 22.9906 20.8555C23.4776 20.8429 23.6294 21.0528 23.6152 21.4918C23.5945 22.1239 23.6098 22.757 23.6098 23.3901C23.6119 23.3912 23.613 23.3912 23.6141 23.3912ZM22.7951 21.6617C22.0427 21.6617 21.3438 21.6617 20.633 21.6617C20.633 22.8119 20.633 23.924 20.633 25.0478C21.3722 25.0478 22.07 25.0478 22.7951 25.0478C22.7951 23.9103 22.7951 22.8108 22.7951 21.6617Z" fill="#0076A2"/>
<path d="M11.9189 36.9234C11.9189 37.5723 11.9102 38.2223 11.9222 38.8713C11.9298 39.2406 11.7868 39.4274 11.3849 39.4253C10.4589 39.42 9.53178 39.4242 8.60576 39.4316C8.22465 39.4348 8.09142 39.2279 8.09142 38.8987C8.08924 37.5987 8.0947 36.2998 8.08596 34.9998C8.08378 34.6294 8.2312 34.4426 8.62869 34.4447C9.53833 34.4511 10.448 34.4542 11.3565 34.4416C11.7879 34.4352 11.9309 34.6347 11.9222 35.0251C11.9091 35.6582 11.9189 36.2903 11.9189 36.9234ZM11.1043 35.2076C10.4316 35.2076 9.83317 35.195 9.23693 35.2182C9.12227 35.2224 8.91916 35.3659 8.91698 35.4493C8.89514 36.5097 8.90278 37.5702 8.90278 38.6413C9.67374 38.6413 10.3704 38.6413 11.1043 38.6413C11.1043 37.4921 11.1043 36.381 11.1043 35.2076Z" fill="#0076A2"/>
<path d="M23.6109 36.9812C23.6109 37.5954 23.5978 38.2105 23.6153 38.8247C23.6273 39.2404 23.4788 39.4367 23.0191 39.4272C22.1116 39.4092 21.2041 39.4251 20.2956 39.4293C19.9582 39.4303 19.7878 39.2636 19.7867 38.9481C19.7823 37.6133 19.7856 36.2785 19.7813 34.9436C19.7802 34.6186 19.9298 34.4509 20.2694 34.4509C21.2151 34.4509 22.1596 34.454 23.1053 34.4487C23.4853 34.4466 23.6186 34.6482 23.6186 34.9806C23.6186 35.6485 23.6186 36.3154 23.6186 36.9833C23.6164 36.9812 23.6131 36.9812 23.6109 36.9812ZM22.7821 38.6453C22.7821 37.4846 22.7821 36.3629 22.7821 35.2475C22.0297 35.2475 21.3319 35.2475 20.6134 35.2475C20.6134 36.3998 20.6134 37.5099 20.6134 38.6453C21.3548 38.6453 22.0537 38.6453 22.7821 38.6453Z" fill="#0076A2"/>
<path d="M17.7804 23.3386C17.7804 23.9717 17.7673 24.6048 17.7848 25.2369C17.7968 25.6537 17.6407 25.8552 17.1853 25.8478C16.2942 25.8331 15.4021 25.8362 14.511 25.8478C14.1211 25.8531 13.9442 25.7033 13.9453 25.3202C13.9519 24.0023 13.9497 22.6833 13.9464 21.3654C13.9453 21.0119 14.1124 20.8567 14.4782 20.8599C15.4064 20.8684 16.3335 20.8652 17.2617 20.861C17.6352 20.8589 17.7837 21.0477 17.7826 21.3865C17.7815 22.0365 17.7826 22.6875 17.7826 23.3375C17.7815 23.3386 17.7815 23.3386 17.7804 23.3386ZM14.7512 25.0491C15.5134 25.0491 16.2254 25.0491 16.9385 25.0491C16.9385 23.901 16.9385 22.7888 16.9385 21.6777C16.1872 21.6777 15.4774 21.6777 14.7512 21.6777C14.7512 22.8152 14.7512 23.8989 14.7512 25.0491Z" fill="#0076A2"/>
<path d="M41.9469 36.9577C41.9469 37.6077 41.9425 38.2577 41.9491 38.9077C41.9523 39.2538 41.8016 39.43 41.4304 39.4279C40.5032 39.4237 39.5761 39.4226 38.649 39.4321C38.2734 39.4363 38.1194 39.2506 38.1183 38.9161C38.1161 37.5992 38.1238 36.2824 38.1172 34.9655C38.115 34.613 38.2723 34.4453 38.6359 34.4463C39.563 34.4495 40.4901 34.4526 41.4183 34.4463C41.8224 34.4442 41.9567 34.6394 41.9491 35.0077C41.9349 35.6577 41.9447 36.3077 41.9447 36.9577C41.9447 36.9577 41.9458 36.9577 41.9469 36.9577ZM41.1126 38.6386C41.1126 37.46 41.1126 36.3478 41.1126 35.2461C40.3657 35.2461 39.6679 35.2461 38.9417 35.2461C38.9417 36.4005 38.9417 37.5138 38.9417 38.6386C39.6875 38.6386 40.3864 38.6386 41.1126 38.6386Z" fill="#0076A2"/>
<path d="M30.2494 36.9513C30.2494 37.5845 30.2385 38.2165 30.2537 38.8496C30.2625 39.239 30.1271 39.4363 29.6903 39.4289C28.7817 39.4142 27.8743 39.4237 26.9657 39.4311C26.6108 39.4342 26.4219 39.3023 26.423 38.9362C26.4284 37.6182 26.4295 36.3013 26.4219 34.9834C26.4197 34.6046 26.5922 34.4442 26.9821 34.4473C27.8917 34.4558 28.8014 34.4495 29.7099 34.4463C30.0615 34.4452 30.245 34.574 30.233 34.9496C30.2122 35.6165 30.2275 36.2834 30.2275 36.9513C30.2352 36.9513 30.2417 36.9513 30.2494 36.9513ZM29.4216 38.6734C29.4216 37.4631 29.4216 36.353 29.4216 35.2451C28.6703 35.2451 27.9725 35.2451 27.2158 35.2451C27.2158 36.3108 27.2081 37.3397 27.2278 38.3685C27.23 38.4719 27.3992 38.6555 27.4975 38.6597C28.1254 38.6871 28.7555 38.6734 29.4216 38.6734Z" fill="#0076A2"/>
</svg>
