<svg width="81" height="81" viewBox="0 0 81 81" fill="none" xmlns="http://www.w3.org/2000/svg">
<path d="M35.5634 34.7479C35.5634 32.4542 35.5612 30.2869 35.5634 28.1172C35.5657 26.6437 35.9886 26.1788 37.3333 26.1764C39.722 26.1717 42.1085 26.1717 44.4972 26.1764C45.7906 26.1788 46.2269 26.6581 46.2292 28.0672C46.2336 30.2607 46.2292 32.4542 46.2292 34.7455C48.2617 34.7455 50.2252 34.7455 52.1865 34.7455C53.8873 34.7455 54.2279 35.1103 54.2279 36.9319C54.2279 39.3996 54.2324 41.8697 54.2257 44.3374C54.2235 45.6797 53.7693 46.1661 52.5226 46.1709C50.4679 46.1757 48.4153 46.1733 46.2269 46.1733C46.2269 46.4856 46.2269 46.767 46.2269 47.0483C46.2269 49.0106 46.2314 50.9752 46.2247 52.9375C46.2203 54.2297 45.7617 54.7376 44.5773 54.7423C42.1062 54.7495 39.6352 54.7519 37.1641 54.7423C36.0376 54.7376 35.5657 54.2154 35.5612 52.9828C35.5545 50.7558 35.559 48.5266 35.559 46.2162C35.254 46.1995 34.9869 46.1757 34.7219 46.1757C32.8341 46.1709 30.9463 46.1852 29.0585 46.1685C28.0745 46.159 27.5714 45.6201 27.5647 44.5639C27.5513 41.8268 27.5513 39.092 27.5647 36.3549C27.5714 35.27 28.0856 34.755 29.1409 34.7503C31.2491 34.7383 33.3551 34.7479 35.5634 34.7479ZM38.2304 29.0685C38.2304 31.2764 38.2304 33.3841 38.2304 35.4941C38.2304 37.2013 37.8587 37.6018 36.2847 37.6042C34.2945 37.6042 32.3043 37.6042 30.2807 37.6042C30.2807 39.5426 30.2807 41.3952 30.2807 43.3169C30.599 43.3169 30.8706 43.3169 31.1444 43.3169C32.9766 43.3169 34.8065 43.3098 36.6387 43.3193C37.7318 43.3265 38.2171 43.8415 38.2282 45.0002C38.2416 46.3092 38.2304 47.6158 38.2304 48.9247C38.2304 49.8927 38.2304 50.8631 38.2304 51.8192C40.0693 51.8192 41.799 51.8192 43.5644 51.8192C43.5644 49.5232 43.5577 47.2963 43.5666 45.0694C43.5711 43.8391 44.043 43.3265 45.1762 43.3217C47.0351 43.3122 48.8939 43.3193 50.755 43.3193C51.0177 43.3193 51.2782 43.3193 51.5164 43.3193C51.5164 41.3404 51.5164 39.5069 51.5164 37.6066C51.198 37.6066 50.9265 37.6066 50.6526 37.6066C48.8205 37.6066 46.9905 37.6138 45.1584 37.6042C44.0631 37.5971 43.58 37.0821 43.5666 35.9257C43.5555 34.9148 43.5644 33.9038 43.5644 32.8929C43.5644 31.6269 43.5644 30.3608 43.5644 29.0733C41.7456 29.0685 40.0359 29.0685 38.2304 29.0685Z" fill="#0078A5"/>
<path d="M38.9767 80.3338C36.2295 80.3338 33.4802 80.4172 30.7353 80.3075C28.6048 80.2216 26.6168 79.4131 24.7067 78.4185C21.7392 76.8729 18.7717 75.3273 15.8019 73.7864C13.313 72.496 10.6839 71.864 7.91671 71.8854C6.11126 71.8997 4.30581 71.895 2.50036 71.8854C1.51193 71.8807 0.917534 71.3416 0.906403 70.4782C0.895272 69.61 1.49412 69.0113 2.46474 69.0399C5.51241 69.1282 8.58457 69.0495 11.6011 69.4382C13.4844 69.6815 15.3455 70.5044 17.1087 71.3345C20.1029 72.7417 23.0148 74.3517 25.9556 75.8878C28.1373 77.0279 30.428 77.617 32.8613 77.6099C37.1378 77.5956 41.4143 77.6123 45.6909 77.5956C46.0938 77.5932 46.5235 77.5169 46.8975 77.3547C50.3637 75.8425 53.8121 74.2849 57.2849 72.7918C57.9417 72.508 58.0908 72.1263 57.9795 71.4394C57.7547 70.0655 57.049 69.2593 55.7667 69.0256C54.097 68.7227 52.5164 69.226 50.9358 69.6815C50.0809 69.9296 49.2417 70.2444 48.3957 70.5306C47.3672 70.8789 46.6593 70.6117 46.3899 69.7674C46.1116 68.9016 46.4968 68.1383 47.5141 67.8497C49.7047 67.2272 51.8975 66.5665 54.1282 66.1658C55.1456 65.9821 56.3054 66.2039 57.3072 66.5474C59.8005 67.4061 61.1763 70.3971 60.4751 73.0995C60.2124 74.1084 59.667 74.8264 58.7431 75.2318C54.9452 76.8967 51.1584 78.5878 47.3561 80.2431C46.9843 80.4053 46.548 80.4506 46.1406 80.453C43.7519 80.4721 41.3631 80.4626 38.9744 80.4626C38.9767 80.4172 38.9767 80.3767 38.9767 80.3338Z" fill="#0078A5"/>
<path d="M42.7583 0.595154C45.5344 0.595154 48.3105 0.516443 51.0821 0.621391C53.0968 0.700102 54.9958 1.42997 56.8079 2.36735C60.0047 4.01789 63.1904 5.69706 66.3961 7.32853C68.7136 8.50681 71.1736 9.04347 73.7359 9.04109C75.5681 9.0387 77.4025 9.03632 79.2346 9.04347C80.281 9.04824 80.8932 9.5873 80.8887 10.477C80.8843 11.3643 80.272 11.9224 79.2213 11.8914C76.227 11.8031 73.2105 11.8914 70.2519 11.5002C68.3418 11.2474 66.4518 10.4245 64.6642 9.58253C61.5942 8.13949 58.6133 6.47463 55.5902 4.91472C53.5064 3.839 51.307 3.31665 48.9917 3.32142C44.6862 3.33096 40.383 3.31665 36.0775 3.33573C35.6746 3.33812 35.2471 3.42398 34.8754 3.58856C31.4359 5.09123 28.012 6.64159 24.5636 8.11802C23.8824 8.40902 23.6798 8.77156 23.8111 9.51574C24.0516 10.8825 24.7573 11.6791 26.044 11.9105C27.687 12.2038 29.2408 11.7101 30.7947 11.2712C31.7053 11.0136 32.5913 10.6606 33.4929 10.3625C34.4502 10.0453 35.1581 10.3577 35.4074 11.183C35.6612 12.0273 35.2961 12.7858 34.3344 13.0577C32.0614 13.697 29.7929 14.4316 27.4777 14.7989C24.764 15.2306 22.4509 13.8592 21.625 11.4597C21.2666 10.4197 21.2243 9.19136 21.2933 8.06555C21.3623 6.9469 22.0435 6.14309 23.0743 5.69468C26.8232 4.06321 30.5588 2.38881 34.3077 0.752576C34.7062 0.578458 35.1625 0.485436 35.5922 0.480665C37.9809 0.454428 40.3696 0.468739 42.7561 0.468739C42.7583 0.509288 42.7583 0.552221 42.7583 0.595154Z" fill="#0078A5"/>
<path d="M40.7521 10.6185C40.3402 12.5307 40.8077 14.1114 42.0789 15.306C42.9182 16.0952 43.9111 16.7628 44.9329 17.2539C47.5353 18.508 50.2001 19.612 52.8181 20.8256C53.2143 21.0091 53.6373 21.3811 53.8221 21.7864C55.307 25.0386 57.8204 26.6909 61.055 27.2512C63.3547 27.6493 65.5831 27.2869 67.7648 26.4643C68.1499 26.3189 68.5662 26.1925 68.9692 26.1902C72.4109 26.1687 75.8548 26.183 79.2965 26.1735C80.0045 26.1711 80.5543 26.4095 80.8103 27.1582C81.1443 28.1429 80.4519 29.0251 79.321 29.0298C76.1286 29.0417 72.9363 29.0227 69.7439 29.0465C69.2586 29.0489 68.7555 29.1538 68.2902 29.3135C63.4994 30.9611 58.9023 30.7775 54.7771 27.4014C53.6373 26.4691 52.827 25.0791 51.8475 23.9179C51.5825 23.6032 51.2887 23.2527 50.9392 23.0906C48.4993 21.9581 46.0282 20.8947 43.5883 19.7574C41.834 18.9396 40.2846 17.7975 39.1759 16.0832C37.5308 13.5345 37.6087 10.845 38.6995 8.11262C39.0401 7.26382 39.728 7.07546 40.6719 7.49271C43.6951 8.8279 46.7116 10.1774 49.7326 11.5221C51.6271 12.3638 53.5193 13.2078 55.4161 14.0423C56.0617 14.326 56.5114 14.7671 56.478 15.5658C56.4334 16.6245 55.4851 17.1657 54.441 16.7055C51.3377 15.3417 48.2455 13.9565 45.1466 12.5784C43.7218 11.9394 42.2904 11.3028 40.7521 10.6185Z" fill="#0078A5"/>
<path d="M41.0353 70.2679C41.456 68.4153 41.0064 66.8202 39.7241 65.64C38.7935 64.7817 37.6982 64.0688 36.5784 63.5252C34.0806 62.3116 31.5161 61.2601 28.9938 60.1014C28.6175 59.9273 28.1879 59.6102 28.0187 59.2359C26.2778 55.3829 23.239 53.7854 19.4411 53.5184C17.6491 53.392 15.9126 53.7687 14.2074 54.372C13.6152 54.5818 12.9718 54.7201 12.3507 54.7272C9.10267 54.7606 5.85465 54.7463 2.60439 54.7415C1.50688 54.7391 0.874635 54.1884 0.899124 53.2728C0.923612 52.3906 1.52914 51.8876 2.59549 51.8876C5.76115 51.8828 8.9268 51.8971 12.0902 51.8756C12.5488 51.8732 13.0275 51.7779 13.4638 51.6205C17.6268 50.1351 21.7007 50.1566 25.6211 52.4669C27.4065 53.5208 28.789 55.0396 29.8932 56.8802C30.1536 57.3142 30.5966 57.7123 31.0397 57.9198C33.2992 58.9784 35.59 59.9607 37.8607 60.9907C39.6217 61.7894 41.2134 62.8671 42.3888 64.517C44.2277 67.0992 44.2277 69.8983 43.099 72.7761C42.7584 73.644 42.0705 73.8586 41.1444 73.4509C37.6092 71.8868 34.0806 70.3084 30.5477 68.7324C29.1919 68.1268 27.8362 67.5236 26.4804 66.9156C25.463 66.4602 25.0712 65.7139 25.4096 64.8747C25.7324 64.0736 26.496 63.8399 27.4666 64.2715C31.8455 66.2122 36.2222 68.1602 40.6012 70.1034C40.7281 70.1606 40.8572 70.2011 41.0353 70.2679Z" fill="#0078A5"/>
<path d="M68.8834 40.5751C68.821 47.0341 67.0712 52.9065 63.496 58.1233C63.2266 58.5167 62.7502 58.9101 62.3294 58.9721C61.9577 59.027 61.3566 58.7218 61.1651 58.3784C60.9536 57.9993 60.9559 57.3389 61.1117 56.9026C61.3232 56.3089 61.784 55.8225 62.1113 55.2717C65.7444 49.1942 66.9599 42.6017 65.7867 35.4966C65.7533 35.2916 65.7199 35.0865 65.7066 34.8791C65.6465 33.954 66.085 33.315 66.8486 33.2101C67.541 33.1147 68.1999 33.6011 68.3157 34.4618C68.5494 36.1928 68.7008 37.9381 68.8767 39.6786C68.9101 39.9766 68.8834 40.2771 68.8834 40.5751Z" fill="#0078A5"/>
<path d="M12.875 41.2693C12.9752 33.8733 14.7227 28.0343 18.2557 22.8246C18.8412 21.9591 19.4913 21.7279 20.1591 22.1237C20.9227 22.5743 21.0696 23.5208 20.4619 24.4173C18.77 26.9137 17.4743 29.6222 16.6484 32.5787C15.4663 36.8084 15.2415 41.0977 16.0028 45.4418C16.0073 45.4704 16.0139 45.499 16.0206 45.53C16.2544 46.8652 15.9204 47.6425 15.05 47.7998C14.1462 47.962 13.5673 47.3969 13.4004 46.0617C13.1622 44.1471 12.9774 42.2302 12.875 41.2693Z" fill="#0078A5"/>
<path d="M23.8074 17.5167C24.5376 17.5287 25.1031 18.1537 25.0986 18.9457C25.0942 19.7567 24.3729 20.5392 23.6182 20.5511C22.8702 20.5631 22.2335 19.8689 22.2669 19.0816C22.298 18.2944 23.0772 17.5048 23.8074 17.5167Z" fill="#0078A5"/>
<path d="M59.7359 61.9076C59.7403 62.6566 59.0034 63.4057 58.2643 63.4009C57.5475 63.3961 56.9397 62.7521 56.9375 61.9935C56.9331 61.2062 57.6232 60.5073 58.4046 60.5049C59.1081 60.5049 59.7314 61.1609 59.7359 61.9076Z" fill="#0078A5"/>
</svg>
