<svg width="81" height="81" viewBox="0 0 81 81" fill="none" xmlns="http://www.w3.org/2000/svg">
<path d="M66.669 22.1843C66.669 25.0336 66.5173 27.8871 66.7043 30.7281C66.9874 34.95 65.0567 38.4543 61.9434 41.6081C56.6569 46.9605 49.6116 50.3313 42.2125 53.2516C41.6212 53.4852 40.6609 53.4977 40.0746 53.2683C32.9181 50.4231 26.0851 47.1733 20.8339 42.0921C17.3416 38.7129 15.3048 34.9583 15.4968 30.3318C15.7597 24.0199 15.6181 17.6913 15.5272 11.371C15.5019 9.65641 16.1994 9.15162 18.2766 9.03898C21.6931 8.85125 25.145 8.50082 28.4554 7.81248C33.1203 6.83628 37.1584 4.87971 39.7764 1.3462C40.6356 0.182276 41.5454 0.16976 42.4349 1.317C46.0434 5.98106 51.7141 7.7207 57.9002 8.64266C59.9572 8.9472 62.0799 9.06818 64.1723 9.07236C66.0069 9.07653 66.7347 9.598 66.6993 11.1457C66.6083 14.8169 66.669 18.5006 66.669 22.1843ZM41.1208 3.83259C35.1116 9.61052 26.9948 10.9789 18.1805 11.3668C18.1805 12.2638 18.1805 13.0064 18.1805 13.7531C18.1805 19.3808 18.2867 25.0086 18.1401 30.628C18.0542 33.9237 19.3228 36.7397 21.6223 39.3262C25.2309 43.3895 30.2193 46.0594 35.2278 48.7836C39.1346 50.907 42.3843 51.3117 46.5135 48.9046C51.1885 46.1762 56.1262 43.8025 59.7803 40.0521C62.5651 37.1944 64.056 34.0447 63.8994 30.2734C63.682 25.1379 63.8337 19.9941 63.8286 14.8545C63.8286 13.7072 63.8286 12.56 63.8286 11.3126C55.1761 11.0081 47.1857 9.5396 41.1208 3.83259Z" fill="#0078A5"/>
<path d="M0.898438 58.0283C0.903492 54.0526 4.87091 51.7206 9.05565 53.1766C14.0794 54.9245 18.8908 57.098 23.7326 59.1839C24.2127 59.3925 24.2632 60.2769 24.5109 60.8485C23.7528 60.8944 22.8582 61.178 22.2669 60.9444C18.1681 59.3341 14.14 57.607 10.0816 55.9341C7.02393 54.6701 4.97199 54.7869 4.00162 56.2428C2.96554 57.7989 4.19872 59.7471 7.05425 60.9945C15.6764 64.7658 24.2835 68.5705 32.9612 72.2583C34.3915 72.8674 36.1352 73.1886 37.7575 73.2387C45.4144 73.4807 53.0864 73.4806 60.7382 73.7685C65.0443 73.9312 67.8038 76.4009 70.2802 78.9958C70.5582 79.2836 70.2449 79.9594 70.2044 80.4517C69.5373 80.41 68.5164 80.581 68.2637 80.2932C64.271 75.7251 58.4538 75.8502 52.5608 75.8711C47.0064 75.8878 41.447 75.6959 35.8976 75.4789C34.6038 75.4289 33.2342 75.0826 32.0768 74.5862C22.9138 70.6313 13.8115 66.5889 4.65864 62.6131C2.16195 61.516 0.994464 59.8431 0.898438 58.0283Z" fill="#0078A5"/>
<path d="M40.5339 67.7205C37.9311 67.7205 35.308 67.875 32.7204 67.683C29.5464 67.4451 27.0497 65.2165 26.8122 62.7667C26.5848 60.4213 28.9147 58.0341 32.0735 57.3664C32.3969 57.2996 32.7305 57.1827 33.0539 57.1869C41.5548 57.3705 49.985 56.7779 58.4201 55.8806C62.6756 55.4299 66.4358 56.8739 69.5744 59.4197C72.9909 62.195 76.6248 64.7908 80.0464 67.5661C80.6377 68.0461 80.6326 69.0226 80.9005 69.7697C80.0362 69.5777 78.9395 69.6027 78.3431 69.1604C74.6941 66.4852 71.0856 63.7683 67.6033 60.9471C64.4445 58.3847 60.654 57.7753 56.4693 58.0424C49.4442 58.489 42.4241 59.0065 35.394 59.3529C31.6641 59.5365 29.5313 60.5465 29.6172 62.4996C29.693 64.2566 31.9067 65.3292 35.49 65.3334C39.4473 65.3375 43.4046 65.2749 47.3518 65.3876C48.1352 65.4085 48.8882 66.0846 49.6564 66.4602C48.8882 66.9234 48.1604 67.7205 47.3417 67.7873C45.0926 67.9709 42.8032 67.8499 40.5339 67.8499C40.5339 67.8082 40.5339 67.7623 40.5339 67.7205Z" fill="#0078A5"/>
<path d="M24.0379 26.4152C23.9419 23.9872 24.8769 21.2797 27.0501 18.9477C27.0906 18.9018 27.1411 18.8601 27.1917 18.8225C28.1671 18.0591 29.8096 18.9978 29.284 20.0198C29.2588 20.0699 29.2284 20.12 29.1931 20.1659C23.9065 27.2746 27.4039 35.6682 36.8196 38.2881C42.6772 39.9193 49.2727 38.1087 52.9369 33.866C56.6466 29.5732 56.5758 23.7578 52.7701 19.6652C48.8583 15.4601 42.0404 13.8539 36.0059 15.7229C35.5359 15.8689 35.0911 16.0817 34.611 16.1985C32.8623 16.6198 31.8414 14.9595 33.6457 14.1627C40.7163 11.0463 50.2482 13.0404 55.0343 18.226C60.0985 23.7077 59.7043 31.2837 54.0892 36.4567C48.5096 41.588 39.5892 42.8562 32.4883 39.2142C27.1007 36.4442 24.0026 32.3683 24.0379 26.4152Z" fill="#0078A5"/>
<path d="M47.407 22.4551C47.3261 22.5469 47.2402 22.6303 47.1644 22.7263C46.8814 23.085 46.5933 23.4438 46.3204 23.8109C46.2446 23.911 46.1587 23.9444 46.0222 23.9444C45.3298 23.9402 44.6374 23.9402 43.9399 23.9402C43.8894 24.1322 43.854 24.2865 43.8085 24.4409C43.4952 25.4504 42.7674 26.2097 41.7414 26.7896C40.6902 27.382 39.5075 27.6907 38.2643 27.8534C38.143 27.8701 38.0217 27.8826 37.8498 27.9034C40.2353 30.419 42.6006 32.9179 44.9912 35.4419C44.8952 35.446 44.8396 35.4502 44.7789 35.4502C43.8692 35.4502 42.9645 35.4502 42.0548 35.4544C41.9183 35.4544 41.8274 35.421 41.7414 35.3334C39.457 32.9638 37.1625 30.5984 34.8781 28.2288C34.8073 28.1579 34.7669 28.0453 34.7669 27.9535C34.7568 27.5238 34.7618 27.0983 34.7618 26.6477C34.969 26.6561 35.1206 26.6644 35.2723 26.6728C36.3286 26.7103 37.3798 26.7187 38.4159 26.5184C39.9877 26.2139 40.9378 25.4087 41.2866 24.1113C41.3017 24.0612 41.3017 24.0112 41.3118 23.9277C38.9516 23.9277 36.6065 23.9277 34.2261 23.9277C34.2766 23.8443 34.3019 23.8026 34.3322 23.7567C34.6456 23.3187 34.969 22.8848 35.2773 22.4426C35.343 22.3466 35.4188 22.3091 35.5553 22.3132C37.2888 22.3383 39.0224 22.3591 40.7559 22.38C40.8368 22.38 40.9176 22.38 41.0541 22.38C40.9227 22.2173 40.8317 22.0796 40.7104 21.9586C40.2252 21.4539 39.553 21.2077 38.8253 21.0534C38.0469 20.8865 37.2534 20.8323 36.4549 20.8197C35.7221 20.8072 34.9842 20.8281 34.2514 20.8323C34.216 20.8323 34.1856 20.8323 34.125 20.8323C34.1503 20.7822 34.1654 20.7488 34.1907 20.7196C34.5546 20.2732 34.9185 19.8269 35.2874 19.3847C35.3329 19.3304 35.439 19.2762 35.5149 19.2762C39.452 19.2678 43.3941 19.2678 47.3312 19.2637C47.3565 19.2637 47.3868 19.2678 47.4121 19.2678C47.4121 19.2804 47.4121 19.2887 47.4121 19.3012C47.3716 19.3429 47.3211 19.3805 47.2857 19.4264C46.9623 19.8394 46.6388 20.2524 46.3254 20.6696C46.2496 20.7697 46.1688 20.8072 46.0273 20.8072C45.072 20.8031 44.1168 20.8031 43.1616 20.8031C43.0909 20.8031 43.0201 20.8072 42.9595 20.8114C43.1869 21.0784 43.4345 21.3162 43.6114 21.5832C43.7883 21.8502 43.8945 22.1464 44.0309 22.4259C45.1327 22.4259 46.2749 22.4259 47.4171 22.4259C47.407 22.4301 47.407 22.4426 47.407 22.4551Z" fill="#0078A5"/>
</svg>
