<svg width="50" height="51" viewBox="0 0 50 51" fill="none" xmlns="http://www.w3.org/2000/svg">
<circle cx="25" cy="25.5449" r="24" fill="white" stroke="#0076A2" stroke-width="2"/>
<path d="M13.39 16.3204C12.963 15.709 12.4755 15.0211 12.0007 14.3236C11.2742 13.2567 11.4303 12.3236 12.4787 11.5752C13.6003 10.7726 14.7315 9.98597 15.8691 9.2089C17.3731 8.18022 18.0614 8.35539 19.2022 9.77578C19.7853 10.4987 19.9192 11.7376 21.5283 11.3968C23.0069 11.0847 23.4976 10.4127 23.6761 9.04329C23.9597 6.8904 24.5396 6.54327 26.6682 6.93499C27.9205 7.16429 29.1664 7.41589 30.4219 7.61971C31.7985 7.84264 32.3019 8.63246 32.1012 9.9796C31.7156 12.5688 31.7284 12.572 34.1629 13.9669C34.644 13.6357 35.1666 13.2822 35.686 12.9255C37.4768 11.6898 38.1205 11.7949 39.3409 13.5338C39.889 14.314 40.4307 15.1007 40.9756 15.8841C42.5466 18.1453 42.5243 18.5816 40.2523 20.0498C39.239 20.7058 39.0669 21.3428 39.2485 22.5052C39.478 23.9638 40.4371 24.0307 41.4759 24.209C43.6204 24.5817 43.9805 25.0753 43.6364 27.1963C43.4579 28.2951 43.2412 29.3874 43.0469 30.483C42.6995 32.4735 42.1323 32.8429 40.1248 32.5531C39.1721 32.4129 38.2161 31.8429 37.394 33.2123C36.6961 34.3779 36.7535 35.0945 37.5119 36.1168C38.9809 38.0945 38.8311 38.6296 36.7631 40.0659C35.8931 40.671 35.0296 41.2856 34.1469 41.878C32.5218 42.964 31.9196 42.8175 30.7246 41.2156C30.151 40.4481 29.928 39.2952 28.3666 39.7219C27.1047 40.0659 26.5312 40.5117 26.3655 41.8525C26.0691 44.2475 25.4701 44.5723 23.0451 44.1233C22.1593 43.9576 21.2734 43.7825 20.3844 43.636C17.9658 43.2379 17.5357 42.7188 18.0646 40.3589C18.3323 39.1678 18.1379 38.5054 17.0545 37.7601C15.8914 36.9608 15.2477 37.4958 14.4161 38.0786C12.4787 39.4385 11.8637 39.3207 10.5413 37.4098C9.96769 36.5818 9.38774 35.7569 8.81736 34.9257C7.53957 33.0658 7.60648 32.3875 9.5152 31.2059C10.6719 30.4894 11.0862 29.7823 10.6783 28.3874C10.3979 27.432 9.98999 27.1422 9.09458 26.9989C6.12794 26.5212 5.96543 26.2505 6.47209 23.2472C6.64097 22.2536 6.87996 21.2727 7.01379 20.2759C7.20817 18.8141 8.05897 18.0752 9.41961 18.5243C11.5896 19.2408 12.6985 18.3459 13.39 16.3204ZM18.6796 41.7984C18.9345 42.0149 19.2691 42.4831 19.7184 42.6423C20.4067 42.8908 21.1683 42.9322 21.9012 43.05C25.0399 43.5595 25.1259 43.5755 25.7537 40.5691C26.1233 38.8015 27.5572 39.1519 28.6183 38.9289C29.2238 38.8015 30.202 39.1041 30.594 39.5659C32.5919 41.929 32.5441 41.9704 35.036 40.2188C35.2973 40.0372 35.5554 39.8525 35.8167 39.671C37.9293 38.2028 38.0536 38.1041 36.438 36.0977C35.1762 34.534 36.3138 33.6327 36.916 32.4512C37.4705 31.3588 38.2384 31.3269 39.29 31.518C41.9666 32.0021 41.973 31.9607 42.4382 29.2027C42.4733 28.9925 42.4924 28.7823 42.5275 28.5721C43.0564 25.5052 43.0437 25.5498 39.9878 24.7313C39.4652 24.5912 38.7833 23.9288 38.7132 23.432C38.5602 22.3364 37.4864 21.1708 38.7992 20.0593C41.358 17.8969 41.3389 17.8746 39.376 15.0625C39.3441 15.0179 39.3186 14.9733 39.29 14.9287C37.684 12.6484 37.8943 12.2885 35.3387 14.2153C34.5867 14.7822 33.8442 15.0529 33.0571 14.3332C32.2 13.5529 30.6258 13.4637 30.919 11.607C31.3906 8.61335 31.2886 8.59743 28.2264 8.03691C28.1754 8.02736 28.1212 8.0178 28.0703 8.00825C24.9602 7.4541 25.0112 7.47003 24.1859 10.5369C24.0361 11.0879 23.3096 11.7599 22.752 11.865C21.7164 12.0624 20.5724 13.0433 19.5272 11.7758C18.8421 10.9478 18.1252 9.61973 17.3317 9.54966C16.4522 9.47323 15.4676 10.5688 14.5308 11.1611C14.3077 11.3013 14.0974 11.4637 13.8807 11.6166C12.0676 12.9032 11.9656 12.9892 13.339 14.6484C14.5021 16.0529 14.107 17.0593 13.2625 18.4287C12.4564 19.7345 11.5705 19.8236 10.3405 19.4606C10.0378 19.3714 9.70639 19.3905 9.3973 19.3173C8.46366 19.0943 7.99842 19.4893 7.85184 20.4033C7.68615 21.4511 7.4854 22.4893 7.30058 23.5339C6.90545 25.7728 6.89589 25.9447 9.18381 26.1103C11.2805 26.26 11.306 27.6868 11.7203 29.1199C12.1281 30.5403 11.2359 31.0244 10.3501 31.6168C10.0856 31.7919 9.83385 31.9926 9.56619 32.1614C8.76319 32.6677 8.70583 33.2792 9.24754 34.0276C9.92945 34.9735 10.6528 35.9002 11.2264 36.9098C12.0071 38.2856 12.8897 38.3748 13.9891 37.3429C15.2063 36.1996 16.3088 36.1582 17.7587 37.1901C18.8899 37.9958 19.4316 38.6901 18.9728 40.034C18.823 40.4863 18.8103 40.9799 18.6796 41.7984Z" fill="#0076A2"/>
<path d="M24.9911 34.4631C20.052 34.4599 16.0689 30.4885 16.0625 25.5617C16.0593 20.6381 20.0425 16.6253 24.9497 16.6094C29.978 16.5935 33.9643 20.584 33.9325 25.6031C33.9006 30.5682 29.9684 34.4663 24.9911 34.4631ZM25.0325 17.4597C20.565 17.4502 16.9165 21.0713 16.9165 25.5235C16.9165 29.9917 20.5077 33.5969 24.9975 33.6383C29.414 33.6765 33.1103 30.0108 33.1358 25.5617C33.1581 21.1381 29.4936 17.4725 25.0325 17.4597Z" fill="#0076A2"/>
</svg>
