<svg width="50" height="51" viewBox="0 0 50 51" fill="none" xmlns="http://www.w3.org/2000/svg">
<circle cx="25" cy="25.5449" r="24" fill="white" stroke="#0076A2" stroke-width="2"/>
<path d="M12.3381 28.2305C15.7329 31.6155 19.0236 34.8964 22.3898 38.2549C22.2204 38.4346 22.0183 38.6449 21.8529 38.8184C18.4765 35.4334 15.196 32.1443 11.8359 28.7756C11.9543 28.647 12.1646 28.4183 12.3381 28.2305Z" fill="#0076A2"/>
<path d="M27.8478 41.5276C27.8009 43.1145 26.5148 44.3298 24.9266 44.293C23.2997 44.2542 22.0932 42.945 22.1504 41.2825C22.2035 39.7466 23.5732 38.5007 25.1328 38.5702C26.7271 38.6376 27.8968 39.912 27.8478 41.5276ZM26.8333 41.4173C26.8333 40.4451 25.9841 39.6016 25.0022 39.6016C24.0182 39.6016 23.167 40.4369 23.1609 41.4112C23.1547 42.3813 24.0101 43.233 24.9899 43.235C25.9494 43.2371 26.8312 42.367 26.8333 41.4173Z" fill="#0076A2"/>
<path d="M33.375 36.7685C33.375 35.153 34.5937 33.9275 36.2043 33.9214C37.8231 33.9153 39.0582 35.1203 39.0786 36.7257C39.099 38.3821 37.8497 39.6361 36.1962 39.6239C34.5876 39.6136 33.375 38.3861 33.375 36.7685ZM38.0518 36.8053C38.062 35.8331 37.223 34.961 36.2554 34.9406C35.3082 34.9202 34.4059 35.7902 34.3896 36.7379C34.3753 37.6958 35.2347 38.5863 36.19 38.6006C37.1679 38.6129 38.0416 37.7714 38.0518 36.8053Z" fill="#0076A2"/>
<path d="M13.7454 33.9215C15.35 33.9052 16.5931 35.1184 16.6197 36.7258C16.6462 38.3373 15.4377 39.5974 13.8393 39.626C12.1756 39.6567 10.912 38.421 10.9141 36.7687C10.9161 35.1552 12.1246 33.9379 13.7454 33.9215ZM13.7863 34.9407C12.8227 34.9326 11.947 35.7883 11.9327 36.7503C11.9184 37.7205 12.7574 38.5762 13.7434 38.5967C14.6988 38.6171 15.5765 37.7633 15.599 36.7871C15.6215 35.8496 14.7355 34.9489 13.7863 34.9407Z" fill="#0076A2"/>
<path d="M13.7638 11.4653C15.3826 11.4674 16.6013 12.6744 16.6156 14.29C16.6299 15.8994 15.4112 17.1514 13.8149 17.1678C12.1512 17.1862 10.908 15.9505 10.9141 14.288C10.9223 12.6806 12.1491 11.4633 13.7638 11.4653ZM13.7455 12.4804C12.786 12.4886 11.9368 13.3423 11.9286 14.3063C11.9205 15.2561 12.7779 16.1343 13.7271 16.1527C14.7172 16.1711 15.6337 15.252 15.597 14.2818C15.5602 13.3178 14.6906 12.4722 13.7455 12.4804Z" fill="#0076A2"/>
<path d="M36.1516 17.1673C34.5511 17.1326 33.3529 15.8785 33.3753 14.2609C33.3978 12.6188 34.692 11.4076 36.3577 11.4648C37.9459 11.52 39.1299 12.8047 39.083 14.4182C39.036 16.0174 37.7704 17.204 36.1516 17.1673ZM38.0582 14.3508C38.0888 13.3888 37.2457 12.5106 36.2659 12.482C35.3187 12.4554 34.4307 13.3091 34.398 14.2793C34.3654 15.2209 35.233 16.1256 36.1904 16.1481C37.1518 16.1726 38.0276 15.3291 38.0582 14.3508Z" fill="#0076A2"/>
<path d="M40.9207 22.6934C42.5007 22.7016 43.7521 23.9699 43.748 25.5569C43.7439 27.1827 42.4476 28.4326 40.8003 28.402C39.208 28.3714 37.9934 27.103 38.024 25.4977C38.0526 23.9291 39.3386 22.6832 40.9207 22.6934ZM42.6926 25.4997C42.6702 24.5234 41.7964 23.6799 40.835 23.7065C39.8694 23.731 39.0406 24.6072 39.059 25.5835C39.0773 26.5638 39.949 27.4094 40.9085 27.3767C41.8679 27.344 42.7151 26.4535 42.6926 25.4997Z" fill="#0076A2"/>
<path d="M27.8483 9.71021C27.834 11.3033 26.5826 12.5247 24.9761 12.5145C23.3614 12.5042 22.1366 11.2788 22.1406 9.67754C22.1468 8.07219 23.4818 6.75891 25.072 6.79568C26.648 6.83244 27.8626 8.10691 27.8483 9.71021ZM24.972 11.4851C25.9315 11.4932 26.8092 10.6375 26.8276 9.67754C26.846 8.73189 25.9723 7.84957 25.0067 7.83935C24.0309 7.82914 23.1634 8.67879 23.1593 9.64486C23.1572 10.6293 23.9922 11.4769 24.972 11.4851Z" fill="#0076A2"/>
<path d="M9.09567 28.3992C7.49728 28.389 6.25204 27.1451 6.25 25.5561C6.24796 23.9998 7.53606 22.7008 9.08954 22.6886C10.739 22.6763 11.9903 23.9365 11.9679 25.5908C11.9475 27.188 10.6981 28.4074 9.09567 28.3992ZM10.937 25.5868C10.9656 24.6146 10.1408 23.7404 9.16303 23.7077C8.20563 23.6751 7.31764 24.5186 7.28498 25.4908C7.25231 26.4487 8.10356 27.3514 9.05892 27.3759C10.0102 27.4004 10.9104 26.5426 10.937 25.5868Z" fill="#0076A2"/>
<path d="M27.851 25.5665C27.8429 27.1698 26.6119 28.3953 25.0054 28.3973C23.36 28.3993 22.1066 27.1228 22.1413 25.4787C22.174 23.9142 23.4743 22.6683 25.0523 22.6887C26.6507 22.7112 27.8592 23.955 27.851 25.5665ZM25.036 27.372C25.9954 27.3455 26.8487 26.4509 26.8242 25.495C26.8018 24.5289 25.9117 23.6813 24.9502 23.712C23.9724 23.7426 23.1416 24.6127 23.1641 25.5849C23.1865 26.553 24.0745 27.4006 25.036 27.372Z" fill="#0076A2"/>
<path d="M32.1641 15.4619C32.3315 15.8459 32.4356 16.0869 32.5785 16.4137C29.988 17.488 27.4567 18.5398 24.9234 19.5897C24.3906 19.8102 23.8333 19.9818 23.323 20.2473C22.6595 20.5925 22.241 20.4087 21.9062 19.6959C25.3051 18.2927 28.6836 16.8977 32.1641 15.4619Z" fill="#0076A2"/>
<path d="M26.6562 37.5149C26.8971 36.4451 27.0257 35.3344 27.4034 34.3157C28.1709 32.2454 29.0998 30.2365 29.9061 28.1805C30.1654 27.5211 30.494 27.223 31.331 27.5088C29.9286 30.8959 28.5282 34.2748 27.1278 37.6558C26.9706 37.6088 26.8134 37.5619 26.6562 37.5149Z" fill="#0076A2"/>
<path d="M29.2031 26.0334C29.2031 25.6678 29.2031 25.4043 29.2031 25.0713C31.6997 25.0713 34.1596 25.0713 36.6541 25.0713C36.6541 25.3961 36.6541 25.6882 36.6541 26.0334C34.18 26.0334 31.7487 26.0334 29.2031 26.0334Z" fill="#0076A2"/>
<path d="M25.5003 29.7075C25.5003 32.2748 25.5003 34.6808 25.5003 37.1624C25.1757 37.1624 24.8634 37.1624 24.5 37.1624C24.5 34.7176 24.5 32.283 24.5 29.7708C24.8266 29.7504 25.1124 29.732 25.5003 29.7075Z" fill="#0076A2"/>
<path d="M19.9435 23.2633C18.9411 25.6918 17.9388 28.1223 16.9243 30.5834C16.1669 30.2852 16.0546 29.8563 16.3629 29.1598C17.0468 27.6137 17.6183 26.0145 18.3349 24.4847C18.6023 23.9128 19.1432 23.4696 19.5597 22.9692C19.6862 23.0673 19.8148 23.1653 19.9435 23.2633Z" fill="#0076A2"/>
<path d="M16.4375 17.5338C16.6008 17.3418 16.7886 17.1191 16.9499 16.9292C18.7912 18.7776 20.5121 20.5055 22.3187 22.3192C22.1697 22.4785 21.9594 22.7031 21.7798 22.8951C19.9915 21.1019 18.2706 19.374 16.4375 17.5338Z" fill="#0076A2"/>
<path d="M12.7812 23.4681C14.4715 22.7696 16.0821 22.065 17.7295 21.4563C18.0194 21.3501 18.4583 21.6442 18.8278 21.7545C18.8257 21.8689 18.8257 21.9812 18.8237 22.0956C16.9783 22.8615 15.1309 23.6274 13.2283 24.4158C13.0589 24.0604 12.9384 23.8031 12.7812 23.4681Z" fill="#0076A2"/>
<path d="M31.8594 23.4874C32.6106 21.6737 33.3639 19.8621 34.1437 17.979C34.4784 18.1301 34.7397 18.2466 35.0909 18.4038C34.3907 20.0929 33.7517 21.733 33.0107 23.3281C32.8903 23.5855 32.3289 23.6386 31.9696 23.7856C31.9329 23.6876 31.8961 23.5875 31.8594 23.4874Z" fill="#0076A2"/>
<path d="M22.9254 13.311C23.2806 13.4663 23.5235 13.5725 23.8889 13.7318C23.2928 15.1635 22.76 16.5871 22.0946 17.9473C21.9149 18.3129 21.3331 18.4825 20.9371 18.7418C20.8799 18.6785 20.8228 18.6132 20.7656 18.5499C21.4719 16.8363 22.1762 15.1247 22.9254 13.311Z" fill="#0076A2"/>
<path d="M32.9422 27.4794C33.5873 29.0357 34.2242 30.5961 34.8815 32.1463C35.1898 32.8714 34.6794 32.9163 34.1323 33.0776C33.5587 31.6908 32.9361 30.3469 32.4625 28.9499C32.3196 28.5292 32.5932 27.9675 32.6748 27.4712C32.7646 27.4753 32.8544 27.4773 32.9422 27.4794Z" fill="#0076A2"/>
<path d="M18.8827 32.7406C18.5867 32.4567 18.3744 32.2545 18.1172 32.0094C19.3624 30.7023 20.524 29.483 21.7386 28.2085C22.006 28.4577 22.2367 28.6742 22.5061 28.9254C21.2997 30.1958 20.1381 31.4192 18.8827 32.7406Z" fill="#0076A2"/>
<path d="M28.5078 19.5381C28.8712 19.3993 29.1406 19.2971 29.5407 19.146C29.8102 20.6696 31.3412 21.8175 30.3042 23.7803C29.6693 22.2852 29.1182 20.9821 28.5078 19.5381Z" fill="#0076A2"/>
<path d="M29.0618 10.7793C30.2886 11.292 31.3787 11.7475 32.477 12.2072C32.4198 13.0426 32.0993 13.2428 31.3583 12.8853C30.5071 12.4727 29.615 12.1459 28.6719 11.7516C28.8066 11.4207 28.9128 11.1531 29.0618 10.7793Z" fill="#0076A2"/>
<path d="M39.76 21.4789C39.4171 21.6362 39.1782 21.7465 38.819 21.9119C38.329 20.7396 37.8575 19.6101 37.3594 18.4153C37.7023 18.2539 37.9595 18.1334 38.2984 17.9741C38.7904 19.1485 39.2517 20.2576 39.76 21.4789Z" fill="#0076A2"/>
<path d="M32.5287 38.8648C31.3815 39.3407 30.2669 39.8044 29.087 40.2926C28.9318 39.9556 28.8134 39.6941 28.6562 39.353C29.6831 38.922 30.6466 38.5175 31.6101 38.109C32.3348 37.8025 32.3817 38.3255 32.5287 38.8648Z" fill="#0076A2"/>
<path d="M38.2943 33.1226C37.9534 32.9531 37.6982 32.8265 37.3594 32.659C37.8371 31.505 38.2902 30.4144 38.774 29.2461C39.0843 29.3503 39.3538 29.4401 39.7682 29.577C39.2701 30.7779 38.7985 31.9155 38.2943 33.1226Z" fill="#0076A2"/>
<path d="M11.189 21.8879C10.8277 21.7245 10.5889 21.6162 10.25 21.461C10.7236 20.3111 11.1849 19.1939 11.6504 18.0645C12.4833 18.1094 12.6976 18.4178 12.3383 19.1653C11.928 20.017 11.5973 20.9075 11.189 21.8879Z" fill="#0076A2"/>
<path d="M17.4219 12.2405C18.612 11.7462 19.7041 11.2927 20.8677 10.8086C21.029 11.0905 21.1698 11.3356 21.3821 11.7094C20.2043 12.2079 19.0958 12.6756 17.8873 13.1863C17.7199 12.8472 17.5831 12.5715 17.4219 12.2405Z" fill="#0076A2"/>
<path d="M17.4766 38.8748C17.6031 38.1006 17.8971 37.786 18.5238 38.1823C19.4057 38.742 20.2651 39.3365 21.1327 39.9166C21.0592 40.0412 20.9836 40.1678 20.9101 40.2924C19.7772 39.8267 18.6442 39.3589 17.4766 38.8748Z" fill="#0076A2"/>
<path d="M10.6277 29.4316C11.3319 30.4447 12.0382 31.4577 12.8099 32.5688C12.2995 32.8241 12.0464 32.9528 11.6994 33.1264C11.1972 31.9214 10.7236 30.7878 10.25 29.6522C10.3745 29.5807 10.5011 29.5052 10.6277 29.4316Z" fill="#0076A2"/>
<path d="M27.0191 13.333C27.1232 13.5311 27.209 13.672 27.2743 13.8232C27.5254 14.4114 27.7683 15.0037 28.0418 15.6634C27.752 15.8146 27.4948 15.9473 27.1151 16.1434C26.7742 15.3203 26.4598 14.5585 26.125 13.7497C26.4618 13.5924 26.7211 13.4719 27.0191 13.333Z" fill="#0076A2"/>
</svg>
