<svg width="50" height="51" viewBox="0 0 50 51" fill="none" xmlns="http://www.w3.org/2000/svg">
<circle cx="25" cy="25.5449" r="24" fill="white" stroke="#0076A2" stroke-width="2"/>
<path d="M24.5739 37.0278C23.0042 36.962 21.5223 36.5864 20.0868 35.9059C20.0821 36.0083 20.0761 36.0778 20.0761 36.1473C20.0761 37.7059 20.0737 39.2632 20.0797 40.8217C20.0797 40.9815 20.0393 41.0291 19.8814 41.0278C18.941 41.0205 18.0006 41.0278 17.0602 41.0205C16.9011 41.0193 16.8251 41.0608 16.7645 41.2217C16.4748 41.9998 15.7256 42.451 14.9075 42.362C14.1286 42.2766 13.4933 41.6461 13.3687 40.8352C13.2571 40.1095 13.637 39.3413 14.277 38.9973C14.9479 38.6376 15.785 38.7437 16.3145 39.2522C16.5378 39.4669 16.6969 39.7205 16.8049 40.0132C16.8239 40.0656 16.8963 40.1315 16.9438 40.1327C17.6776 40.14 18.4114 40.1364 19.1452 40.1352C19.1607 40.1352 19.1761 40.1266 19.2093 40.1181C19.2129 40.0571 19.2188 39.9925 19.2188 39.9266C19.2188 38.4912 19.2177 37.0559 19.2224 35.6217C19.2224 35.4803 19.1773 35.4022 19.0609 35.3303C17.6741 34.4656 16.5259 33.3424 15.6069 31.9705C15.5439 31.8754 15.4763 31.8424 15.367 31.8424C14.0134 31.8461 12.6598 31.8473 11.3062 31.8412C11.1614 31.84 11.121 31.8839 11.1245 32.029C11.1329 32.4754 11.1376 32.9229 11.1234 33.3693C11.1174 33.5534 11.1685 33.6363 11.3418 33.7034C12.0934 33.9937 12.5625 34.7985 12.4532 35.5717C12.3274 36.4668 11.6957 37.0815 10.8158 37.1608C10.0357 37.2315 9.27463 36.7144 9.02053 35.9412C8.71775 35.0205 9.17133 34.0388 10.0714 33.6937C10.2281 33.6339 10.2673 33.5571 10.2661 33.3949C10.2566 32.6412 10.2625 31.8876 10.2625 31.1339C10.2625 31.0839 10.2625 31.0339 10.2625 30.9607C11.8346 30.9607 13.3972 30.9607 14.9859 30.9607C14.9574 30.8863 14.9431 30.8412 14.9218 30.7985C14.1915 29.3558 13.7831 27.8229 13.6964 26.1997C13.6881 26.0412 13.6311 26.0083 13.4898 26.0083C12.2989 26.0131 11.1079 26.0131 9.91818 26.0083C9.77926 26.007 9.72227 26.0558 9.67596 26.1863C9.37674 27.0217 8.5159 27.5095 7.67406 27.3302C6.80015 27.1436 6.20409 26.357 6.25278 25.4522C6.29671 24.6278 6.93076 23.9229 7.75005 23.7887C8.55865 23.6558 9.37793 24.1302 9.66171 24.9119C9.72108 25.0753 9.79113 25.1302 9.96212 25.129C11.1364 25.1204 12.3107 25.1217 13.485 25.1278C13.637 25.129 13.6881 25.0875 13.6964 24.9253C13.7771 23.3546 14.1666 21.8656 14.8505 20.4594C14.8719 20.4168 14.8873 20.3704 14.9158 20.3009C13.0861 20.3009 11.2789 20.3009 9.44324 20.3009C9.44324 20.2168 9.44324 20.1521 9.44324 20.0875C9.44324 18.9985 9.44086 17.9094 9.44561 16.8204C9.44561 16.6899 9.41474 16.6289 9.28532 16.5826C8.46009 16.285 7.9899 15.4606 8.13238 14.585C8.26893 13.7448 8.98847 13.1106 9.82201 13.0948C10.7018 13.0789 11.4368 13.6765 11.6102 14.5472C11.78 15.4033 11.3074 16.2594 10.4786 16.5716C10.3385 16.6241 10.3053 16.6924 10.3065 16.835C10.3136 17.6338 10.3124 18.4326 10.3076 19.2302C10.3065 19.3655 10.3409 19.4131 10.4798 19.4131C12.0839 19.4082 13.6881 19.4094 15.291 19.4131C15.3979 19.4131 15.4573 19.3729 15.5154 19.2851C16.457 17.8448 17.6444 16.668 19.0894 15.7692C19.1844 15.7106 19.2236 15.6436 19.2236 15.5289C19.22 14.6692 19.2188 13.8094 19.2236 12.9497C19.2248 12.807 19.1761 12.7716 19.0443 12.7728C18.3699 12.7789 17.6954 12.7789 17.0222 12.7716C16.8845 12.7704 16.8275 12.8155 16.78 12.9484C16.5021 13.7362 15.7672 14.1948 14.9265 14.1192C14.1666 14.0509 13.5302 13.4484 13.3841 12.6594C13.2214 11.7765 13.7368 10.8996 14.5798 10.6277C15.443 10.3496 16.3941 10.7667 16.7277 11.6057C16.8227 11.8448 16.9391 11.8936 17.1647 11.8899C18.0612 11.8777 18.9588 11.885 19.8565 11.885C19.9206 11.885 19.9859 11.885 20.0773 11.885C20.0773 12.9911 20.0773 14.0862 20.0773 15.2045C20.1521 15.1765 20.1984 15.1619 20.24 15.1423C21.5663 14.5253 22.9567 14.1741 24.4112 14.0997C24.5323 14.0936 24.581 14.0606 24.5798 13.9241C24.5751 12.7789 24.5751 11.635 24.5798 10.4899C24.581 10.3594 24.5216 10.3228 24.4183 10.285C23.6157 9.9911 23.1312 9.17403 23.2547 8.335C23.3794 7.49231 24.0776 6.83743 24.8897 6.79719C25.7743 6.7545 26.5247 7.31914 26.7289 8.18134C26.9379 9.06427 26.4594 9.96427 25.6009 10.2801C25.4703 10.3277 25.4288 10.3887 25.4288 10.5289C25.4347 11.6509 25.4347 12.774 25.4288 13.896C25.4276 14.0521 25.4798 14.0923 25.6235 14.0997C27.0448 14.1728 28.4043 14.5155 29.7033 15.1082C29.7484 15.1289 29.7924 15.1497 29.8375 15.168C29.8517 15.1741 29.8695 15.1741 29.9087 15.1814C29.9135 15.1094 29.923 15.0423 29.923 14.9741C29.9242 13.4606 29.9265 11.9472 29.9194 10.4338C29.9182 10.2643 29.9621 10.2167 30.1272 10.2179C31.0628 10.2253 31.9973 10.2179 32.9329 10.2253C33.0944 10.2265 33.1764 10.1874 33.2393 10.0167C33.5314 9.21915 34.3079 8.77646 35.1652 8.8972C35.9263 9.00451 36.5568 9.67647 36.6387 10.4704C36.7313 11.3643 36.1673 12.1936 35.3196 12.407C34.4421 12.6289 33.5444 12.1655 33.2357 11.3155C33.1752 11.1484 33.1004 11.0996 32.9329 11.1021C32.2751 11.1118 31.6173 11.1094 30.9595 11.1033C30.8289 11.1021 30.7791 11.1362 30.7791 11.2801C30.7838 12.6984 30.7826 14.1167 30.7802 15.535C30.7802 15.6363 30.8123 15.696 30.8978 15.7497C32.3594 16.6546 33.5587 17.8424 34.5133 19.2948C34.5513 19.3521 34.6416 19.4033 34.7081 19.4046C36.1163 19.4107 37.5245 19.4082 38.9327 19.4119C39.0621 19.4119 39.1001 19.3668 39.0989 19.2375C39.093 18.7631 39.0918 18.2887 39.0989 17.8131C39.1013 17.6753 39.0633 17.6131 38.9292 17.5643C38.1871 17.2972 37.7133 16.5631 37.7596 15.7765C37.8071 14.9667 38.3663 14.2997 39.1453 14.1216C40.0417 13.918 40.9453 14.4545 41.2148 15.3497C41.4856 16.2509 41.0379 17.207 40.1676 17.5436C39.9954 17.6107 39.9562 17.6924 39.9586 17.8668C39.9681 18.6033 39.9622 19.3412 39.9622 20.0777C39.9622 20.1375 39.9622 20.1985 39.9622 20.2875C38.339 20.2875 36.7301 20.2875 35.088 20.2875C35.145 20.4119 35.1842 20.5009 35.2258 20.5899C35.8657 21.9485 36.2315 23.3802 36.3158 24.8863C36.3288 25.1204 36.33 25.1204 36.5556 25.1204C37.724 25.1204 38.8935 25.118 40.0619 25.1241C40.2127 25.1253 40.278 25.079 40.3302 24.9326C40.6283 24.0936 41.4951 23.6168 42.3535 23.8058C43.2132 23.9948 43.8175 24.7948 43.7439 25.6875C43.6822 26.4241 43.3034 26.9595 42.6314 27.2266C41.9569 27.4949 41.3276 27.3717 40.7791 26.8753C40.5582 26.6753 40.4003 26.4302 40.3101 26.1424C40.278 26.0412 40.2293 26.0022 40.1248 26.0034C38.9066 26.007 37.6895 26.0058 36.4713 26.0034C36.3728 26.0034 36.3253 26.0253 36.3193 26.14C36.2362 27.8095 35.8099 29.3839 35.056 30.8644C35.0488 30.8778 35.0476 30.8961 35.0358 30.9412C36.8762 30.9412 38.7071 30.9412 40.5582 30.9412C40.5582 31.0412 40.5582 31.1119 40.5582 31.1827C40.5582 32.2607 40.5606 33.3376 40.5559 34.4156C40.5547 34.5546 40.595 34.6168 40.7268 34.6644C41.5497 34.9632 42.0163 35.7912 41.8679 36.6668C41.7218 37.5266 40.9904 38.1437 40.1189 38.1412C39.2628 38.1388 38.5349 37.5169 38.3865 36.662C38.2381 35.8071 38.7119 34.9644 39.5205 34.6681C39.657 34.6181 39.6986 34.5534 39.6974 34.4071C39.6891 33.6254 39.6938 32.8437 39.6926 32.0619C39.6926 31.9949 39.6926 31.929 39.6926 31.8437C39.6238 31.84 39.5656 31.8351 39.5086 31.8351C37.8878 31.8351 36.2683 31.8351 34.6475 31.8327C34.5395 31.8327 34.4718 31.8619 34.4065 31.9583C33.4768 33.3437 32.3143 34.4766 30.9109 35.3461C30.8135 35.4071 30.7791 35.4729 30.7791 35.5864C30.7826 36.4851 30.7838 37.3839 30.7779 38.2839C30.7767 38.4327 30.8206 38.4742 30.9631 38.473C31.6423 38.4656 32.3226 38.4669 33.0018 38.4717C33.1182 38.473 33.1716 38.4315 33.212 38.3181C33.4934 37.5217 34.2307 37.0376 35.0298 37.1144C35.8491 37.1925 36.4772 37.7851 36.6245 38.6181C36.824 39.7461 35.8954 40.7803 34.7413 40.6876C34.0016 40.6291 33.4886 40.2205 33.2191 39.5083C33.1728 39.3864 33.1158 39.3498 32.9947 39.3498C32.0543 39.3534 31.1139 39.3522 30.1735 39.351C29.8885 39.351 29.9242 39.373 29.9242 39.0876C29.923 38.1047 29.923 37.1217 29.923 36.1388C29.923 36.0729 29.923 36.0071 29.923 35.9254C29.8672 35.9376 29.8304 35.94 29.7983 35.9546C28.4578 36.5839 27.0507 36.9327 25.5808 37.0132C25.4537 37.0205 25.4288 37.0693 25.4288 37.1851C25.4312 38.3193 25.4323 39.4522 25.4276 40.5864C25.4264 40.7217 25.4822 40.7632 25.5938 40.8047C26.3264 41.073 26.8204 41.8083 26.7764 42.5522C26.7266 43.3901 26.1887 44.0571 25.4122 44.2462C24.5086 44.4657 23.58 43.9242 23.3105 43.0218C23.0386 42.1083 23.5076 41.1449 24.3946 40.8157C24.5276 40.7656 24.5774 40.7071 24.5774 40.5571C24.5703 39.451 24.5739 38.3461 24.5739 37.24C24.5739 37.1803 24.5739 37.1144 24.5739 37.0278ZM14.5454 25.557C14.5454 25.7022 14.5406 25.8473 14.5465 25.9924C14.6154 27.6436 15.0286 29.1985 15.8194 30.6388C16.9617 32.7193 18.5978 34.2571 20.7256 35.2217C22.9448 36.2278 25.2459 36.4205 27.5957 35.8168C30.0856 35.1766 32.0959 33.7742 33.5801 31.6229C35.2804 29.1595 35.8361 26.418 35.2649 23.4607C34.809 21.1021 33.6608 19.1302 31.8726 17.5802C29.2806 15.3326 26.2872 14.5643 22.9638 15.1777C21.1673 15.5094 19.5691 16.3106 18.1846 17.535C15.798 19.6436 14.5988 22.3302 14.5454 25.557ZM16.0236 40.5827C16.0248 40.0778 15.6069 39.6571 15.1129 39.662C14.6166 39.6681 14.22 40.0742 14.22 40.5778C14.22 41.0839 14.6166 41.4852 15.1165 41.4876C15.6092 41.49 16.0236 41.0766 16.0236 40.5827ZM40.1296 35.451C39.6321 35.4522 39.2236 35.8571 39.2212 36.3534C39.2189 36.8547 39.6356 37.2717 40.1367 37.2693C40.6259 37.2669 41.0367 36.8486 41.0379 36.3547C41.0379 35.862 40.6235 35.4498 40.1296 35.451ZM14.2212 12.3289C14.22 12.8436 14.6213 13.2545 15.1212 13.2521C15.6164 13.2484 16.0213 12.8399 16.0236 12.3423C16.026 11.8448 15.6211 11.4338 15.126 11.4289C14.6285 11.424 14.2224 11.8277 14.2212 12.3289ZM35.7779 10.6777C35.7791 10.1704 35.3872 9.76793 34.8874 9.76183C34.3875 9.75574 33.9731 10.1704 33.9743 10.6765C33.9755 11.1728 34.3851 11.5838 34.8779 11.585C35.3765 11.5838 35.7767 11.1801 35.7779 10.6777ZM7.11362 25.5668C7.11362 26.0631 7.51732 26.4729 8.01364 26.479C8.50047 26.4851 8.92079 26.068 8.92317 25.5765C8.92554 25.0729 8.51234 24.6534 8.01483 24.6546C7.52207 24.657 7.11362 25.0704 7.11362 25.5668ZM9.86356 15.7997C10.3587 15.8009 10.7695 15.3972 10.7778 14.9009C10.7861 14.4021 10.3694 13.9814 9.86713 13.9826C9.37318 13.9838 8.96235 14.3948 8.96116 14.8887C8.95879 15.3814 9.37199 15.7984 9.86356 15.7997ZM38.6204 15.8802C38.6204 16.3753 39.0301 16.7899 39.5217 16.7911C40.0192 16.7924 40.4395 16.3704 40.4336 15.8728C40.4276 15.3802 40.0097 14.9655 39.5228 14.9704C39.0253 14.9753 38.6193 15.385 38.6204 15.8802ZM41.0759 25.5485C41.0652 26.0436 41.463 26.4631 41.9581 26.479C42.4461 26.4948 42.8724 26.0887 42.8843 25.5948C42.8973 25.0875 42.4984 24.6668 41.9961 24.6558C41.5093 24.6448 41.0866 25.0534 41.0759 25.5485ZM35.7779 38.9193C35.7791 38.4083 35.3908 38.0071 34.8921 38.0022C34.3863 37.9973 33.9755 38.4034 33.9743 38.9095C33.9731 39.4059 34.3803 39.8193 34.8731 39.8217C35.3718 39.8242 35.7767 39.4205 35.7779 38.9193ZM25.0073 43.4108C25.5 43.4096 25.9108 42.9986 25.9132 42.5059C25.9144 42.0144 25.5024 41.5974 25.0108 41.5949C24.5109 41.5925 24.0894 42.0144 24.0965 42.5096C24.1037 43.0071 24.5121 43.412 25.0073 43.4108ZM10.6888 36.279C11.1839 36.2803 11.5947 35.8742 11.5983 35.3778C11.6031 34.8766 11.1863 34.4559 10.6888 34.4571C10.1996 34.4583 9.78757 34.8754 9.7852 35.3693C9.7852 35.862 10.1972 36.2778 10.6888 36.279ZM24.9978 9.5033C25.4917 9.50574 25.9073 9.09842 25.9132 8.60695C25.9192 8.11427 25.5095 7.69231 25.0203 7.68743C24.5145 7.68378 24.1001 8.08987 24.0977 8.5911C24.0942 9.08256 24.5062 9.50086 24.9978 9.5033Z" fill="#0076A2"/>
<path d="M25.0073 31.9775C23.7404 31.9775 22.4747 31.9775 21.2078 31.9775C20.4229 31.9775 19.8233 31.3665 19.8221 30.558C19.8197 28.9116 19.8197 27.264 19.8221 25.6177C19.8233 24.7982 20.4182 24.1909 21.2161 24.186C21.5082 24.1835 21.4856 24.2262 21.488 23.9091C21.4927 23.4128 21.4737 22.914 21.5082 22.4201C21.6305 20.6786 23.0375 19.264 24.7378 19.1518C26.6839 19.0225 28.3177 20.425 28.5006 22.4067C28.5457 22.8933 28.5136 23.3884 28.5172 23.8799C28.5196 24.2433 28.4934 24.1848 28.8093 24.1872C29.5003 24.1933 30.0548 24.6713 30.17 25.3677C30.1831 25.4494 30.1854 25.5348 30.1854 25.6177C30.1866 27.2762 30.1866 28.9336 30.1854 30.5921C30.1854 31.3555 29.5811 31.9799 28.8378 31.9811C27.5614 31.9787 26.2849 31.9775 25.0073 31.9775ZM24.999 31.0885C26.2553 31.0885 27.5103 31.0885 28.7665 31.0885C29.1192 31.0885 29.3246 30.8824 29.3341 30.5226C29.3377 30.4055 29.3341 30.2885 29.3341 30.1714C29.3341 28.6811 29.3353 27.1897 29.3341 25.6994C29.3341 25.297 29.1358 25.0738 28.7725 25.0738C26.2612 25.0726 23.7487 25.0726 21.2374 25.0738C20.886 25.0738 20.6841 25.286 20.6841 25.6518C20.6829 27.2714 20.6829 28.8909 20.6841 30.5092C20.6841 30.8885 20.8824 31.0897 21.2469 31.0897C22.4984 31.0872 23.7487 31.0872 24.999 31.0885ZM25.0109 24.1628C25.8207 24.1628 26.6293 24.1628 27.4391 24.1628C27.6564 24.1628 27.6564 24.1616 27.6564 23.9457C27.6564 23.5555 27.6516 23.164 27.6575 22.7738C27.6658 22.2213 27.5162 21.7201 27.2289 21.2555C26.6566 20.3299 25.5226 19.8482 24.4493 20.0835C23.3842 20.3164 22.5198 21.2201 22.3951 22.3055C22.3322 22.8506 22.3678 23.4079 22.3476 23.9592C22.3417 24.1238 22.3963 24.1665 22.5507 24.1652C23.37 24.1592 24.1904 24.1628 25.0109 24.1628Z" fill="#0076A2"/>
<path d="M25.3344 28.6992C25.3344 28.8944 25.3368 29.0896 25.3332 29.2848C25.3296 29.5019 25.199 29.6508 25.0138 29.6569C24.8286 29.663 24.6825 29.5044 24.6801 29.2823C24.6754 28.9139 24.6766 28.5454 24.6801 28.1782C24.6813 28.0697 24.6564 27.9965 24.5614 27.9281C24.2705 27.7159 24.1672 27.3718 24.2776 27.0424C24.3845 26.724 24.6742 26.5203 25.0174 26.5215C25.351 26.5227 25.6395 26.7386 25.744 27.0632C25.8461 27.3804 25.7357 27.7244 25.4496 27.9318C25.3629 27.994 25.3284 28.0575 25.3332 28.1648C25.3403 28.3417 25.3344 28.521 25.3344 28.6992Z" fill="#0076A2"/>
</svg>
