<svg width="80" height="81" viewBox="0 0 80 81" fill="none" xmlns="http://www.w3.org/2000/svg">
<path d="M80 40.3036C79.8091 62.5956 62.1035 80.1185 40.1834 80.2955C30.3311 80.3741 21.5063 77.1611 14.0377 70.6928C4.70199 62.604 -0.107673 52.2458 0.0018287 39.9076C0.201178 18.0987 17.7496 0.157263 40.2733 0.297694C62.1961 0.435316 79.8259 18.0622 80 40.3036ZM1.46185 40.8148C1.75947 50.9145 5.2158 59.7617 12.2801 67.0079C20.6472 75.591 30.9572 79.4838 42.9013 78.6777C52.6751 78.0177 61.0169 73.9929 67.7639 66.9124C75.5862 58.7028 79.0875 48.8053 78.3883 37.509C77.2596 19.3148 61.9097 1.48574 39.3355 1.8003C18.3673 2.08959 1.34954 19.0986 1.46185 40.8148Z" fill="#0076A2"/>
<path d="M50.4835 31.2666C52.2327 31.3508 53.4232 30.4521 54.0016 29.0225C54.8944 26.8121 55.5486 24.5006 56.259 22.22C56.3236 22.0122 56.127 21.6218 55.9333 21.4533C54.1195 19.858 54.375 17.055 56.4668 15.8557C57.6741 15.162 59.3643 15.3389 60.3723 16.3191C60.7149 16.6533 60.9423 16.6842 61.3241 16.3837C62.3377 15.5861 63.5732 15.4653 64.7945 15.4035C65.1764 15.3838 65.5975 15.6141 65.6031 16.1281C65.6088 16.659 65.2634 16.8275 64.7861 16.9033C64.0477 17.0185 63.298 17.1308 62.5876 17.3555C61.8997 17.5746 61.5572 18.1026 61.5067 18.875C61.3691 20.9 60.2319 22.015 58.2244 22.2453C58.0194 22.2678 57.7359 22.5205 57.6741 22.7228C57.0817 24.6214 56.6015 26.5565 55.9417 28.4299C55.4532 29.8173 54.6698 31.0531 53.3979 31.935C51.9716 32.9236 50.4413 32.8675 48.8494 32.6175C48.5573 32.5726 48.2008 32.6512 47.9312 32.786C46.6846 33.4095 45.4351 33.6118 44.2053 32.8113C42.9671 32.0052 42.4533 30.8509 42.7088 29.3764C42.779 28.9719 43.0429 28.3877 42.8717 28.1996C42.3298 27.5985 41.6924 26.9862 40.9652 26.6745C39.9629 26.2476 38.851 26.065 37.77 25.8403C37.5875 25.801 37.2141 26.0369 37.1355 26.2279C36.2342 28.4636 33.5303 28.9775 31.8316 27.7024C31.6772 27.5873 31.301 27.5929 31.1241 27.7024C28.8442 29.1152 26.7861 30.806 24.9948 32.8057C24.8404 32.977 24.7926 33.3871 24.8853 33.6118C25.4328 34.9599 25.4019 36.2069 24.4192 37.3528C23.4589 38.4707 22.2544 38.7178 20.8562 38.4342C20.6231 38.3864 20.2441 38.5325 20.0897 38.7178C18.5594 40.5687 17.0657 42.4505 15.5495 44.3126C15.3895 44.5092 15.1621 44.7255 14.9375 44.7676C14.7213 44.8069 14.3226 44.6861 14.2608 44.5345C14.1569 44.2705 14.1401 43.8576 14.2861 43.6329C14.7044 42.9813 15.2126 42.3859 15.7012 41.7764C16.7456 40.476 17.7873 39.1728 18.8514 37.8921C19.135 37.5494 19.1799 37.2967 18.9301 36.8978C18.04 35.4767 18.3432 34.0724 19.2136 32.9939C20.1683 31.8114 21.4851 31.4576 22.9395 31.9491C23.4365 32.1176 23.7173 31.9912 24.0373 31.6485C25.9129 29.6404 27.9822 27.8625 30.3267 26.4133C30.4811 26.3178 30.5906 25.9948 30.5682 25.7954C30.3267 23.835 31.1774 22.3015 32.98 21.7173C34.6731 21.1668 36.4588 22.1105 37.1242 23.8406C37.2562 24.186 37.4106 24.3096 37.7869 24.3265C40.0471 24.4248 42.0209 25.2224 43.6775 26.7896C43.8319 26.9357 44.225 27.0199 44.3963 26.9301C46.5891 25.7561 49.6917 27.2924 49.4165 30.3762C49.3379 31.2609 49.366 31.2638 50.2729 31.2694C50.3599 31.2694 50.4498 31.2666 50.4835 31.2666ZM56.2197 18.8075C56.259 19.9787 57.0452 20.7989 58.0981 20.768C59.2071 20.7343 60.0719 19.8748 60.0466 18.8272C60.027 17.9987 59.0976 16.8106 58.4855 16.8584C56.9076 16.9819 56.1776 17.7094 56.2197 18.8075ZM46.0051 31.7974C47.0805 31.8339 47.8695 31.1374 47.9116 30.1178C47.9593 28.9073 47.2433 28.0928 46.0978 28.0479C45.0392 28.0058 44.0593 28.8736 44.0425 29.896C44.0257 30.7722 44.8961 31.9603 46.0051 31.7974ZM33.8869 26.8542C35.0521 26.8627 35.8327 26.1465 35.8523 25.0539C35.872 23.9333 35.0156 23.0794 33.8701 23.0738C32.8761 23.0682 32.031 23.8996 32.0282 24.8854C32.0226 26.0622 32.7638 26.8486 33.8869 26.8542ZM21.7883 37.0186C23.0266 36.9933 23.7566 36.2603 23.7313 35.0694C23.706 33.9713 22.9283 33.2635 21.7687 33.2832C20.6737 33.3 19.8987 34.1005 19.9015 35.2071C19.9043 36.2266 20.7495 37.0383 21.7883 37.0186Z" fill="#0076A2"/>
<path d="M53.3906 48.5136C53.3906 44.194 53.3906 39.8743 53.3906 35.5547C53.3906 34.7374 53.6349 34.479 54.466 34.4762C56.847 34.4706 59.2307 34.4734 61.6117 34.4734C62.6899 34.4734 62.9004 34.684 62.9004 35.7513C62.9004 42.3431 62.9004 48.9321 62.9004 55.5239C62.9004 57.4169 62.9033 59.3099 62.9004 61.2029C62.9004 62.3152 62.6646 62.5595 61.5836 62.5623C59.2251 62.5651 56.8638 62.5651 54.5053 62.5595C53.5984 62.5567 53.3934 62.3545 53.3934 61.4726C53.3934 57.1529 53.3934 52.8333 53.3934 48.5136C53.3934 48.5136 53.3934 48.5136 53.3906 48.5136ZM54.8843 35.9591C54.8843 36.122 54.8843 36.2063 54.8843 36.2905C54.8703 44.326 54.8619 52.3642 54.8366 60.3997C54.8338 60.908 54.9686 61.0934 55.5133 61.0822C57.2035 61.0457 58.8966 61.0372 60.5869 61.085C61.2551 61.1046 61.4067 60.8687 61.4067 60.2452C61.3871 52.7209 61.3927 45.1938 61.3899 37.6696C61.3899 37.2679 61.3871 36.8691 61.3955 36.4675C61.4039 36.1164 61.2804 35.9479 60.8901 35.9507C58.9106 35.9675 56.934 35.9591 54.8843 35.9591Z" fill="#0076A2"/>
<path d="M29.2059 51.2596C29.2059 47.8528 29.2031 44.4487 29.2087 41.0419C29.2087 40.2892 29.4053 40.087 30.1578 40.087C32.6735 40.0841 35.1864 40.087 37.7022 40.0982C38.4434 40.101 38.7158 40.365 38.7158 41.0952C38.7214 47.8837 38.7214 54.6749 38.7158 61.4633C38.7158 62.1739 38.362 62.5475 37.6544 62.5503C35.2285 62.5615 32.8026 62.5671 30.3768 62.5446C29.4137 62.5362 29.2031 62.2778 29.2031 61.3426C29.2059 57.9835 29.2031 54.6215 29.2059 51.2596ZM37.2613 41.612C37.0704 41.5896 36.8542 41.539 36.6352 41.539C34.9225 41.5446 33.2098 41.5699 31.4971 41.5699C30.6351 41.5699 30.6323 41.5502 30.6323 42.4293C30.6323 47.9483 30.6323 53.47 30.6351 58.9889C30.6351 59.4776 30.6519 59.9691 30.6463 60.4578C30.6407 60.8819 30.826 61.0476 31.2528 61.0448C33.0329 61.0336 34.813 61.028 36.5931 61.0505C37.0929 61.0561 37.2417 60.851 37.2417 60.3764C37.2248 54.4783 37.2164 48.5802 37.2108 42.6821C37.2108 42.3535 37.2417 42.0277 37.2613 41.612Z" fill="#0076A2"/>
<path d="M41.25 53.863C41.25 51.2809 41.25 48.6988 41.25 46.1139C41.25 45.6166 41.6262 45.1783 42.1766 45.1755C44.7148 45.1586 47.253 45.1558 49.7883 45.1783C50.4903 45.1839 50.7458 45.4901 50.7486 46.1841C50.7542 51.3287 50.757 56.476 50.7542 61.6206C50.7542 62.2921 50.4819 62.559 49.8277 62.5618C47.3119 62.5675 44.7962 62.5703 42.2804 62.5618C41.5392 62.559 41.2837 62.2752 41.2837 61.5475C41.2865 58.9851 41.2837 56.4255 41.2837 53.863C41.2725 53.863 41.2612 53.863 41.25 53.863ZM49.2577 61.0727C49.2577 60.6428 49.2577 60.2691 49.2577 59.8954C49.2577 55.6865 49.2577 51.4748 49.2633 47.2659C49.2633 46.9343 49.3026 46.6646 48.8056 46.673C46.9357 46.6955 45.0657 46.6843 43.1958 46.6702C42.8195 46.6674 42.6876 46.8079 42.6932 47.1844C42.7184 49.7019 42.7297 52.2165 42.7381 54.734C42.7437 56.6502 42.7381 58.5664 42.7381 60.4798C42.7381 60.7749 42.7072 61.0783 43.1508 61.0783C45.1696 61.0699 47.1912 61.0727 49.2577 61.0727Z" fill="#0076A2"/>
<path d="M26.5685 56.6587C26.5685 58.2181 26.5685 59.7774 26.5685 61.3368C26.5685 62.2724 26.3186 62.5562 25.4033 62.559C23.0195 62.5675 20.6385 62.5675 18.2548 62.559C17.4068 62.5562 17.0615 62.1938 17.0587 61.3256C17.0559 58.1619 17.053 54.9981 17.0559 51.8344C17.0559 51.0084 17.3142 50.7499 18.1256 50.7499C20.5964 50.7471 23.0672 50.7471 25.5408 50.7527C26.3776 50.7555 26.5488 50.9297 26.5516 51.781C26.5544 53.4079 26.5516 55.0347 26.5516 56.6615C26.5601 56.6587 26.5657 56.6587 26.5685 56.6587ZM18.544 56.6306C18.5271 56.6306 18.5103 56.6306 18.4962 56.6306C18.4962 57.9652 18.4794 59.2998 18.5187 60.6316C18.5215 60.7777 18.8332 61.0362 19.0044 61.039C20.7845 61.0643 22.5646 61.0277 24.3419 61.0558C24.9456 61.0643 25.0888 60.8395 25.0832 60.2719C25.0579 57.7573 25.0579 55.2398 25.0888 52.7251C25.0944 52.2446 24.9063 52.1547 24.5104 52.1547C22.7078 52.1632 20.9081 52.1716 19.1055 52.1604C18.6675 52.1575 18.5299 52.3205 18.5383 52.756C18.558 54.0485 18.544 55.3409 18.544 56.6306Z" fill="#0076A2"/>
</svg>
