<svg width="81" height="81" viewBox="0 0 81 81" fill="none" xmlns="http://www.w3.org/2000/svg">
<path d="M75.3637 80.8369C52.0684 80.8369 28.8209 80.8369 5.55126 80.8369C5.55126 61.5797 5.55126 42.3368 5.55126 23.041C4.91284 23.041 4.2917 23.0867 3.67956 23.0267C3.19746 22.9795 2.68838 22.8837 2.25954 22.6656C0.909367 21.9777 0.246733 20.4366 0.589117 18.9507C0.955018 17.3632 2.20005 16.3478 3.82136 16.3228C4.38301 16.3142 4.94535 16.3213 5.54711 16.3213C5.54711 16.1504 5.54711 16.0117 5.54711 15.8723C5.54711 12.2261 5.54711 8.57913 5.54711 4.93291C5.54711 2.55383 7.13107 0.854791 9.42815 0.84478C13.5658 0.826903 17.7035 0.84907 21.8411 0.84907C25.1142 0.84907 28.3872 0.839774 31.6603 0.839059C38.564 0.837629 45.4677 0.839059 52.3721 0.838344C58.7224 0.838344 65.0721 0.836914 71.4224 0.836914C73.3778 0.836914 74.8746 2.04684 75.2897 3.97899C75.3491 4.25501 75.3602 4.54605 75.3602 4.82994C75.3651 8.53622 75.363 12.2418 75.363 15.9481C75.363 16.0546 75.363 16.1619 75.363 16.3399C75.9115 16.3399 76.4475 16.3485 76.9836 16.3385C78.0896 16.317 79.0635 16.6503 79.7545 17.5727C80.5568 18.6439 80.7332 19.846 80.1778 21.0938C79.6161 22.3538 78.6326 23.0074 77.2845 23.0381C76.6281 23.0531 75.971 23.041 75.2592 23.041C75.2592 23.6066 75.2551 24.1608 75.2599 24.7143C75.2703 25.7983 75.2786 26.8824 75.3063 27.9658C75.3111 28.156 75.3699 28.3662 75.4654 28.5285C76.0989 29.6054 76.756 30.6681 77.3917 31.7435C77.9208 32.6388 78.2542 33.6021 78.0605 34.6632C77.8143 36.0133 76.9234 36.7677 75.7144 37.1603C75.428 37.2533 75.3547 37.3791 75.3554 37.6752C75.3623 39.164 75.3353 40.6535 75.3353 42.1423C75.3388 50.4101 75.3471 58.6779 75.3533 66.9457C75.3568 71.3907 75.3595 75.8349 75.3623 80.2799C75.3637 80.4572 75.3637 80.6345 75.3637 80.8369ZM7.29016 16.3078C29.4261 16.3078 51.513 16.3078 73.6068 16.3078C73.613 16.1876 73.622 16.1054 73.622 16.0224C73.6227 14.4621 73.6227 12.9011 73.6234 11.3408C73.6234 9.15977 73.6262 6.97948 73.622 4.79848C73.6199 3.5857 72.7996 2.67039 71.6306 2.65537C69.3142 2.62677 66.9977 2.63893 64.6806 2.63893C57.7306 2.63821 50.7805 2.63964 43.8305 2.63893C39.4735 2.63821 35.1173 2.63106 30.7604 2.63106C24.9745 2.63106 19.1885 2.63535 13.4026 2.63893C12.031 2.63964 10.6594 2.61604 9.28912 2.65537C8.09113 2.6897 7.29085 3.6 7.29085 4.83709C7.29085 8.5069 7.29085 12.1774 7.29085 15.8472C7.29016 15.9888 7.29016 16.1297 7.29016 16.3078ZM69.124 36.0913C69.124 47.1865 69.124 58.1995 69.124 69.2111C60.7131 69.2111 52.3742 69.2111 44.0228 69.2111C44.067 58.3189 44.1113 47.4496 44.1563 36.5275C42.4312 37.3591 40.6847 37.6244 38.833 37.3162C38.7826 51.2639 38.7321 65.1573 38.6816 79.0392C50.351 79.0392 61.972 79.0392 73.622 79.0392C73.622 78.0238 73.622 77.0491 73.622 76.0745C73.622 69.1753 73.6227 62.2762 73.6227 55.3771C73.6227 55.1747 73.6248 54.9723 73.6248 54.7707C73.6262 51.0773 73.6282 47.3831 73.6282 43.6897C73.6282 41.6997 73.6227 39.7096 73.6262 37.7202C73.6268 37.51 73.5674 37.417 73.3516 37.422C73.1337 37.4263 72.9144 37.4034 72.6979 37.377C71.4591 37.224 70.3088 36.7978 69.124 36.0913ZM46.5246 34.7305C46.3233 35.0916 45.8924 35.1881 45.9021 35.6987C45.9242 36.9243 45.8751 38.1514 45.8689 39.3778C45.8433 44.7145 45.8204 50.0511 45.8025 55.3885C45.7893 59.2964 45.7859 63.2044 45.7796 67.1123C45.7796 67.2146 45.7921 67.3168 45.799 67.4262C52.9987 67.4262 60.1722 67.4262 67.3948 67.4262C67.3948 56.6056 67.3948 45.8071 67.3948 34.9814C66.8746 35.9532 66.1055 36.5868 65.1454 36.9851C63.9938 37.4635 62.7909 37.5465 61.5798 37.377C59.7302 37.1181 58.1615 36.3094 57.0714 34.7705C56.6128 35.2153 56.1909 35.713 55.6873 36.0963C54.2756 37.171 52.6584 37.5372 50.9278 37.4242C49.0478 37.2998 47.4936 36.594 46.5246 34.7305ZM36.924 79.037C36.9316 78.9133 36.9434 78.8089 36.9441 78.7052C36.9641 75.2507 36.9897 71.7961 37.0008 68.3415C37.0125 64.7575 37.0028 61.1735 37.0153 57.5888C37.0243 54.968 37.0637 52.3473 37.0727 49.7265C37.0872 45.4395 37.0858 41.1526 37.0976 36.8657C37.0983 36.6354 37.045 36.4695 36.8763 36.3072C36.0421 35.5049 35.8055 34.5002 36.0324 33.3761C36.1223 32.9313 36.2953 32.5044 36.4357 32.0518C36.3368 32.0518 36.2455 32.0525 36.1535 32.0518C33.4109 32.0332 30.6684 32.0117 27.9259 31.996C23.2362 31.9695 18.5459 31.9574 13.8563 31.9123C13.1058 31.9052 12.5131 32.3893 12.5144 33.291C12.5324 43.7048 12.5262 54.1185 12.5262 64.5323C12.5262 69.2268 12.5255 73.922 12.5255 78.6166C12.5255 78.7546 12.5255 78.8926 12.5255 79.0385C20.6839 79.037 28.7939 79.037 36.924 79.037ZM10.7963 79.0363C10.7963 78.8568 10.7963 78.7267 10.7963 78.5973C10.7991 70.9116 10.8032 63.2265 10.8032 55.5408C10.8032 48.0696 10.7984 40.5991 10.7963 33.128C10.7956 31.3953 12.0144 30.1239 13.6917 30.131C16.1112 30.1418 18.5307 30.1718 20.9495 30.1882C24.3139 30.2104 27.6789 30.229 31.0433 30.2447C33.0831 30.2547 35.1228 30.2483 37.1626 30.2705C37.4718 30.2741 37.6309 30.1646 37.7872 29.9022C38.943 27.9565 40.1154 26.02 41.2809 24.08C41.4774 23.7525 41.6641 23.4193 41.8751 23.056C30.3246 23.056 18.8281 23.056 7.31506 23.056C7.31506 41.7254 7.31506 60.3755 7.31506 79.037C8.48193 79.0363 9.61837 79.0363 10.7963 79.0363ZM40.5021 21.2533C45.4234 21.2533 50.3448 21.2533 55.2661 21.2533C59.2315 21.2533 63.1969 21.254 67.1624 21.254C70.5053 21.254 73.8482 21.2547 77.1918 21.2526C78.0439 21.2518 78.6485 20.6941 78.7356 19.8431C78.8193 19.0236 78.3358 18.3236 77.5183 18.1756C77.0936 18.099 76.6495 18.1198 76.2144 18.1198C69.6787 18.1169 63.143 18.1183 56.6073 18.1183C49.3134 18.1183 42.0196 18.1176 34.7258 18.1176C28.1901 18.1176 21.6544 18.1183 15.1186 18.1183C12.1444 18.1183 9.17015 18.1176 6.19591 18.1176C5.43506 18.1176 4.67421 18.1169 3.91335 18.1176C3.20853 18.1183 2.64411 18.3851 2.3619 19.0844C1.93721 20.1349 2.66832 21.249 3.77709 21.2511C7.09579 21.2561 10.4152 21.2526 13.7339 21.2526C22.6573 21.2526 31.58 21.2526 40.5021 21.2533ZM56.0705 23.5558C55.928 23.5494 55.827 23.5408 55.7254 23.5408C54.1822 23.5401 52.6391 23.5473 51.0959 23.533C50.8372 23.5308 50.7501 23.6238 50.6788 23.8662C49.8329 26.7365 48.9724 29.6012 48.1217 32.4701C47.7876 33.5963 48.1521 34.596 49.1793 35.1109C50.9361 35.9919 52.693 35.8252 54.3641 34.8556C55.484 34.2049 56.074 33.2145 56.0463 31.8129C56.0048 29.7191 56.0588 27.6232 56.0705 25.528C56.074 24.8766 56.0705 24.2244 56.0705 23.5558ZM57.9892 23.558C57.9892 23.696 57.9886 23.8118 57.9892 23.9277C58.0017 26.6421 58.0245 29.3566 58.0218 32.0711C58.0211 32.9656 58.3282 33.7086 58.9618 34.2821C60.5609 35.7301 62.416 35.9633 64.3873 35.3447C65.5549 34.9786 66.4389 33.8874 65.8738 32.2212C65.3121 30.5651 64.8674 28.8675 64.3687 27.1892C64.0083 25.9771 63.6431 24.7672 63.2806 23.558C61.512 23.558 59.7655 23.558 57.9892 23.558ZM48.7767 23.5401C47.1706 23.5401 45.6046 23.5501 44.0387 23.5315C43.7482 23.528 43.5877 23.6159 43.4369 23.8698C41.9913 26.301 40.5311 28.723 39.0814 31.1515C38.6705 31.8394 38.2361 32.5166 37.891 33.2395C37.4524 34.1591 37.6599 34.8156 38.4741 35.2954C38.6975 35.4269 38.9638 35.5027 39.219 35.5492C41.0312 35.8796 42.6843 35.4126 44.2074 34.408C45.0859 33.8287 45.8398 33.0929 46.1704 32.0403C47.053 29.2329 47.899 26.4126 48.7767 23.5401ZM65.2976 23.5401C65.3183 23.6252 65.3287 23.6803 65.3453 23.7339C66.129 26.3003 66.9182 28.8646 67.6929 31.4339C67.8935 32.0982 68.1293 32.7361 68.5817 33.2645C69.6787 34.546 71.0725 35.2703 72.6862 35.5507C73.6248 35.7137 74.5668 35.7337 75.4702 35.3461C76.2352 35.0179 76.525 34.4101 76.2919 33.5935C76.2054 33.2896 76.0726 32.9914 75.9136 32.7204C75.096 31.3324 74.2625 29.9544 73.4346 28.5729C72.489 26.9968 71.5366 25.4244 70.6028 23.8404C70.4624 23.6023 70.3102 23.5287 70.0515 23.5337C69.2222 23.5501 68.3929 23.5401 67.5635 23.5401C66.8158 23.5401 66.0688 23.5401 65.2976 23.5401ZM73.5072 25.2749C73.5072 24.4869 73.5072 23.7732 73.5072 23.0653C73.0638 23.0653 72.6474 23.0653 72.1778 23.0653C72.6281 23.8133 73.0521 24.5176 73.5072 25.2749Z" fill="#0078A5"/>
<path d="M57.1144 59.422C54.4431 59.422 51.7711 59.422 49.0998 59.4213C48.8813 59.4213 48.662 59.4184 48.4434 59.4077C47.9129 59.3819 47.5546 59.0249 47.547 58.5205C47.5394 58.0254 47.8942 57.6255 48.4199 57.6205C49.6172 57.6083 50.8145 57.6276 52.0118 57.6376C54.7523 57.6598 57.4927 57.6813 60.2339 57.707C62.0751 57.7242 63.9157 57.7478 65.757 57.7664C66.3615 57.7729 66.7025 58.0848 66.708 58.6429C66.7136 59.2045 66.3504 59.5672 65.7494 59.5622C63.9531 59.5479 62.1574 59.5172 60.3611 59.5014C59.2787 59.4921 58.1962 59.5 57.1144 59.5C57.1144 59.4742 57.1144 59.4485 57.1144 59.422Z" fill="#0078A5"/>
<path d="M57.167 46.9922C58.3768 46.9922 59.5872 46.9857 60.797 46.9936C62.4674 47.005 64.1385 47.0258 65.8089 47.0451C66.3636 47.0515 66.6998 47.3742 66.7067 47.8979C66.7136 48.4539 66.3623 48.8273 65.7992 48.8345C65.223 48.8416 64.6469 48.8288 64.0707 48.8237C61.6512 48.8009 59.231 48.7758 56.8115 48.7558C54.2183 48.7336 51.6252 48.7164 49.0321 48.6964C48.8709 48.695 48.7105 48.6814 48.5493 48.6828C47.9538 48.6892 47.5567 48.3387 47.5471 47.7921C47.5374 47.2562 47.9268 46.8806 48.5237 46.8827C50.3221 46.8891 52.1198 46.9092 53.9182 46.9185C55.0013 46.9242 56.0845 46.9192 57.167 46.9192C57.167 46.9428 57.167 46.9678 57.167 46.9922Z" fill="#0078A5"/>
<path d="M33.6727 73.1521C28.0424 73.1521 22.446 73.1521 16.8046 73.1521C16.8046 72.9969 16.8046 72.8589 16.8046 72.7202C16.8046 68.7172 16.8039 64.7134 16.8039 60.7104C16.8039 55.2915 16.8212 49.8719 16.797 44.453C16.7866 42.1504 17.5198 40.1467 18.9799 38.4541C20.4207 36.7837 22.2564 35.8226 24.4346 35.6581C27.5471 35.4229 30.0981 36.5663 32.0147 39.117C33.2252 40.7274 33.6845 42.5973 33.6782 44.626C33.6596 51.1433 33.6672 57.6605 33.6665 64.1778C33.6665 66.9888 33.6706 69.8005 33.6727 72.6115C33.6734 72.7774 33.6727 72.9426 33.6727 73.1521ZM31.931 71.353C31.931 71.1949 31.931 71.0648 31.931 70.9346C31.931 68.1229 31.9297 65.3112 31.931 62.4995C31.9324 60.0689 31.938 57.6377 31.94 55.2071C31.9435 51.6324 31.9608 48.0577 31.9345 44.4837C31.929 43.755 31.8543 42.997 31.6488 42.3041C30.5629 38.6379 26.9682 36.6442 23.3957 37.6768C20.6192 38.4791 18.5878 41.0592 18.5601 44.0082C18.5137 49.0088 18.5456 54.0108 18.5449 59.0113C18.5442 62.3601 18.5442 65.7081 18.5435 69.0568C18.5435 69.8155 18.5435 70.5742 18.5435 71.3537C23.018 71.353 27.451 71.353 31.931 71.353Z" fill="#0078A5"/>
</svg>
