<svg width="81" height="81" viewBox="0 0 81 81" fill="none" xmlns="http://www.w3.org/2000/svg">
<path d="M75.3637 80.4648C52.0684 80.4648 28.8209 80.4648 5.55126 80.4648C5.55126 61.2076 5.55126 41.9647 5.55126 22.6689C4.91284 22.6689 4.2917 22.7147 3.67956 22.6546C3.19746 22.6074 2.68838 22.5116 2.25954 22.2935C0.909367 21.6056 0.246733 20.0646 0.589117 18.5786C0.955018 16.9911 2.20005 15.9757 3.82136 15.9507C4.38301 15.9421 4.94535 15.9493 5.54711 15.9493C5.54711 15.7784 5.54711 15.6396 5.54711 15.5002C5.54711 11.854 5.54711 8.20706 5.54711 4.56084C5.54711 2.18176 7.13107 0.482721 9.42815 0.47271C13.5658 0.454833 17.7035 0.477 21.8411 0.477C25.1142 0.477 28.3872 0.467704 31.6603 0.466989C38.564 0.465559 45.4677 0.466989 52.3721 0.466274C58.7224 0.466274 65.0721 0.464844 71.4224 0.464844C73.3778 0.464844 74.8746 1.67477 75.2897 3.60692C75.3491 3.88294 75.3602 4.17398 75.3602 4.45787C75.3651 8.16415 75.363 11.8697 75.363 15.576C75.363 15.6825 75.363 15.7898 75.363 15.9679C75.9115 15.9679 76.4475 15.9764 76.9836 15.9664C78.0896 15.945 79.0635 16.2782 79.7545 17.2007C80.5568 18.2719 80.7332 19.4739 80.1778 20.7217C79.6161 21.9817 78.6326 22.6353 77.2845 22.666C76.6281 22.6811 75.971 22.6689 75.2592 22.6689C75.2592 23.2345 75.2551 23.7887 75.2599 24.3422C75.2703 25.4263 75.2786 26.5103 75.3063 27.5937C75.3111 27.7839 75.3699 27.9941 75.4654 28.1565C76.0989 29.2334 76.756 30.296 77.3917 31.3715C77.9208 32.2668 78.2542 33.23 78.0605 34.2912C77.8143 35.6412 76.9234 36.3957 75.7144 36.7882C75.428 36.8812 75.3547 37.0071 75.3554 37.3031C75.3623 38.7919 75.3353 40.2814 75.3353 41.7702C75.3388 50.038 75.3471 58.3058 75.3533 66.5736C75.3568 71.0186 75.3595 75.4628 75.3623 79.9078C75.3637 80.0851 75.3637 80.2625 75.3637 80.4648ZM7.29016 15.9357C29.4261 15.9357 51.513 15.9357 73.6068 15.9357C73.613 15.8155 73.622 15.7333 73.622 15.6504C73.6227 14.0901 73.6227 12.529 73.6234 10.9687C73.6234 8.7877 73.6262 6.60741 73.622 4.42641C73.6199 3.21363 72.7996 2.29832 71.6306 2.2833C69.3142 2.2547 66.9977 2.26685 64.6806 2.26685C57.7306 2.26614 50.7805 2.26757 43.8305 2.26685C39.4735 2.26614 35.1173 2.25899 30.7604 2.25899C24.9745 2.25899 19.1885 2.26328 13.4026 2.26685C12.031 2.26757 10.6594 2.24397 9.28912 2.2833C8.09113 2.31763 7.29085 3.22793 7.29085 4.46502C7.29085 8.13483 7.29085 11.8054 7.29085 15.4752C7.29016 15.6168 7.29016 15.7576 7.29016 15.9357ZM69.124 35.7192C69.124 46.8144 69.124 57.8274 69.124 68.839C60.7131 68.839 52.3742 68.839 44.0228 68.839C44.067 57.9469 44.1113 47.0776 44.1563 36.1554C42.4312 36.987 40.6847 37.2523 38.833 36.9441C38.7826 50.8918 38.7321 64.7852 38.6816 78.6671C50.351 78.6671 61.972 78.6671 73.622 78.6671C73.622 77.6517 73.622 76.677 73.622 75.7024C73.622 68.8033 73.6227 61.9041 73.6227 55.005C73.6227 54.8026 73.6248 54.6003 73.6248 54.3986C73.6262 50.7052 73.6282 47.0111 73.6282 43.3177C73.6282 41.3276 73.6227 39.3375 73.6262 37.3481C73.6268 37.1379 73.5674 37.045 73.3516 37.05C73.1337 37.0543 72.9144 37.0314 72.6979 37.0049C71.4591 36.8519 70.3088 36.4257 69.124 35.7192ZM46.5246 34.3584C46.3233 34.7195 45.8924 34.816 45.9021 35.3266C45.9242 36.5523 45.8751 37.7793 45.8689 39.0057C45.8433 44.3424 45.8204 49.6791 45.8025 55.0164C45.7893 58.9244 45.7859 62.8323 45.7796 66.7402C45.7796 66.8425 45.7921 66.9448 45.799 67.0542C52.9987 67.0542 60.1722 67.0542 67.3948 67.0542C67.3948 56.2335 67.3948 45.435 67.3948 34.6094C66.8746 35.5812 66.1055 36.2147 65.1454 36.613C63.9938 37.0914 62.7909 37.1744 61.5798 37.0049C59.7302 36.746 58.1615 35.9373 57.0714 34.3984C56.6128 34.8432 56.1909 35.3409 55.6873 35.7242C54.2756 36.799 52.6584 37.1651 50.9278 37.0521C49.0478 36.9277 47.4936 36.2219 46.5246 34.3584ZM36.924 78.665C36.9316 78.5413 36.9434 78.4369 36.9441 78.3332C36.9641 74.8786 36.9897 71.424 37.0008 67.9695C37.0125 64.3855 37.0028 60.8015 37.0153 57.2168C37.0243 54.596 37.0637 51.9752 37.0727 49.3544C37.0872 45.0675 37.0858 40.7806 37.0976 36.4936C37.0983 36.2634 37.045 36.0975 36.8763 35.9351C36.0421 35.1328 35.8055 34.1281 36.0324 33.004C36.1223 32.5592 36.2953 32.1323 36.4357 31.6797C36.3368 31.6797 36.2455 31.6804 36.1535 31.6797C33.4109 31.6611 30.6684 31.6396 27.9259 31.6239C23.2362 31.5974 18.5459 31.5853 13.8563 31.5402C13.1058 31.5331 12.5131 32.0172 12.5144 32.9189C12.5324 43.3327 12.5262 53.7465 12.5262 64.1602C12.5262 68.8547 12.5255 73.55 12.5255 78.2445C12.5255 78.3825 12.5255 78.5205 12.5255 78.6664C20.6839 78.665 28.7939 78.665 36.924 78.665ZM10.7963 78.6643C10.7963 78.4848 10.7963 78.3546 10.7963 78.2252C10.7991 70.5395 10.8032 62.8545 10.8032 55.1688C10.8032 47.6976 10.7984 40.2271 10.7963 32.7559C10.7956 31.0232 12.0144 29.7518 13.6917 29.759C16.1112 29.7697 18.5307 29.7997 20.9495 29.8162C24.3139 29.8383 27.6789 29.8569 31.0433 29.8727C33.0831 29.8827 35.1228 29.8762 37.1626 29.8984C37.4718 29.902 37.6309 29.7926 37.7872 29.5301C38.943 27.5844 40.1154 25.6479 41.2809 23.7079C41.4774 23.3804 41.6641 23.0472 41.8751 22.6839C30.3246 22.6839 18.8281 22.6839 7.31506 22.6839C7.31506 41.3533 7.31506 60.0034 7.31506 78.665C8.48193 78.6643 9.61837 78.6643 10.7963 78.6643ZM40.5021 20.8812C45.4234 20.8812 50.3448 20.8812 55.2661 20.8812C59.2315 20.8812 63.1969 20.8819 67.1624 20.8819C70.5053 20.8819 73.8482 20.8826 77.1918 20.8805C78.0439 20.8798 78.6485 20.322 78.7356 19.4711C78.8193 18.6516 78.3358 17.9515 77.5183 17.8035C77.0936 17.727 76.6495 17.7477 76.2144 17.7477C69.6787 17.7448 63.143 17.7463 56.6073 17.7463C49.3134 17.7463 42.0196 17.7456 34.7258 17.7456C28.1901 17.7456 21.6544 17.7463 15.1186 17.7463C12.1444 17.7463 9.17015 17.7456 6.19591 17.7456C5.43506 17.7456 4.67421 17.7448 3.91335 17.7456C3.20853 17.7463 2.64411 18.013 2.3619 18.7124C1.93721 19.7628 2.66832 20.8769 3.77709 20.8791C7.09579 20.8841 10.4152 20.8805 13.7339 20.8805C22.6573 20.8805 31.58 20.8805 40.5021 20.8812ZM56.0705 23.1838C55.928 23.1773 55.827 23.1688 55.7254 23.1688C54.1822 23.168 52.6391 23.1752 51.0959 23.1609C50.8372 23.1587 50.7501 23.2517 50.6788 23.4941C49.8329 26.3645 48.9724 29.2291 48.1217 32.098C47.7876 33.2243 48.1521 34.2239 49.1793 34.7388C50.9361 35.6198 52.693 35.4532 54.3641 34.4835C55.484 33.8328 56.074 32.8424 56.0463 31.4408C56.0048 29.3471 56.0588 27.2512 56.0705 25.156C56.074 24.5045 56.0705 23.8524 56.0705 23.1838ZM57.9892 23.1859C57.9892 23.3239 57.9886 23.4398 57.9892 23.5556C58.0017 26.2701 58.0245 28.9845 58.0218 31.699C58.0211 32.5936 58.3282 33.3365 58.9618 33.91C60.5609 35.3581 62.416 35.5912 64.3873 34.9726C65.5549 34.6065 66.4389 33.5153 65.8738 31.8492C65.3121 30.193 64.8674 28.4954 64.3687 26.8171C64.0083 25.605 63.6431 24.3951 63.2806 23.1859C61.512 23.1859 59.7655 23.1859 57.9892 23.1859ZM48.7767 23.168C47.1706 23.168 45.6046 23.178 44.0387 23.1595C43.7482 23.1559 43.5877 23.2438 43.4369 23.4977C41.9913 25.929 40.5311 28.351 39.0814 30.7794C38.6705 31.4673 38.2361 32.1445 37.891 32.8674C37.4524 33.787 37.6599 34.4435 38.4741 34.9233C38.6975 35.0549 38.9638 35.1307 39.219 35.1772C41.0312 35.5075 42.6843 35.0406 44.2074 34.0359C45.0859 33.4567 45.8398 32.7208 46.1704 31.6682C47.053 28.8608 47.899 26.0405 48.7767 23.168ZM65.2976 23.168C65.3183 23.2531 65.3287 23.3082 65.3453 23.3618C66.129 25.9283 66.9182 28.4926 67.6929 31.0618C67.8935 31.7262 68.1293 32.364 68.5817 32.8925C69.6787 34.1739 71.0725 34.8983 72.6862 35.1786C73.6248 35.3416 74.5668 35.3616 75.4702 34.9741C76.2352 34.6458 76.525 34.038 76.2919 33.2214C76.2054 32.9175 76.0726 32.6193 75.9136 32.3483C75.096 30.9603 74.2625 29.5823 73.4346 28.2008C72.489 26.6248 71.5366 25.0523 70.6028 23.4684C70.4624 23.2303 70.3102 23.1566 70.0515 23.1616C69.2222 23.178 68.3929 23.168 67.5635 23.168C66.8158 23.168 66.0688 23.168 65.2976 23.168ZM73.5072 24.9028C73.5072 24.1148 73.5072 23.4012 73.5072 22.6932C73.0638 22.6932 72.6474 22.6932 72.1778 22.6932C72.6281 23.4412 73.0521 24.1456 73.5072 24.9028Z" fill="#0078A5"/>
<path d="M57.1144 59.0496C54.4431 59.0496 51.7711 59.0496 49.0998 59.0488C48.8813 59.0488 48.662 59.046 48.4434 59.0353C47.9129 59.0095 47.5546 58.6525 47.547 58.1481C47.5394 57.653 47.8942 57.253 48.4199 57.248C49.6172 57.2359 50.8145 57.2552 52.0118 57.2652C54.7523 57.2874 57.4927 57.3088 60.2339 57.3346C62.0751 57.3518 63.9157 57.3754 65.757 57.394C66.3615 57.4004 66.7025 57.7124 66.708 58.2704C66.7136 58.8321 66.3504 59.1948 65.7494 59.1898C63.9531 59.1755 62.1574 59.1447 60.3611 59.129C59.2787 59.1197 58.1962 59.1276 57.1144 59.1276C57.1144 59.1018 57.1144 59.076 57.1144 59.0496Z" fill="#0078A5"/>
<path d="M57.167 46.6202C58.3768 46.6202 59.5872 46.6138 60.797 46.6216C62.4674 46.6331 64.1385 46.6538 65.8089 46.6732C66.3636 46.6796 66.6998 47.0023 66.7067 47.526C66.7136 48.0819 66.3623 48.4554 65.7992 48.4625C65.223 48.4697 64.6469 48.4568 64.0707 48.4518C61.6512 48.4289 59.231 48.4039 56.8115 48.3838C54.2183 48.3616 51.6252 48.3445 49.0321 48.3244C48.8709 48.323 48.7105 48.3094 48.5493 48.3109C47.9538 48.3173 47.5567 47.9667 47.5471 47.4201C47.5374 46.8842 47.9268 46.5086 48.5237 46.5108C50.3221 46.5172 52.1198 46.5372 53.9182 46.5465C55.0013 46.5522 56.0845 46.5472 57.167 46.5472C57.167 46.5709 57.167 46.5959 57.167 46.6202Z" fill="#0078A5"/>
<path d="M33.6727 72.7799C28.0424 72.7799 22.446 72.7799 16.8046 72.7799C16.8046 72.6247 16.8046 72.4867 16.8046 72.348C16.8046 68.345 16.8039 64.3412 16.8039 60.3382C16.8039 54.9193 16.8212 49.4997 16.797 44.0808C16.7866 41.7782 17.5198 39.7745 18.9799 38.0819C20.4207 36.4115 22.2564 35.4504 24.4346 35.286C27.5471 35.0507 30.0981 36.1941 32.0147 38.7448C33.2252 40.3552 33.6845 42.2251 33.6782 44.2538C33.6596 50.7711 33.6672 57.2884 33.6665 63.8056C33.6665 66.6166 33.6706 69.4283 33.6727 72.2393C33.6734 72.4052 33.6727 72.5704 33.6727 72.7799ZM31.931 70.9808C31.931 70.8227 31.931 70.6926 31.931 70.5624C31.931 67.7507 31.9297 64.939 31.931 62.1273C31.9324 59.6968 31.938 57.2655 31.94 54.8349C31.9435 51.2602 31.9608 47.6855 31.9345 44.1115C31.929 43.3828 31.8543 42.6249 31.6488 41.9319C30.5629 38.2657 26.9682 36.2721 23.3957 37.3046C20.6192 38.107 18.5878 40.687 18.5601 43.636C18.5137 48.6366 18.5456 53.6386 18.5449 58.6391C18.5442 61.9879 18.5442 65.3359 18.5435 68.6846C18.5435 69.4433 18.5435 70.202 18.5435 70.9815C23.018 70.9808 27.451 70.9808 31.931 70.9808Z" fill="#0078A5"/>
</svg>
