<svg width="147" height="20" viewBox="0 0 147 20" fill="none" xmlns="http://www.w3.org/2000/svg">
<path d="M9.62879 0.935547L12.4014 7.15753L18.7237 8.08857L14.1132 12.8686L15.2474 19.6583L9.62879 16.3883L3.99964 19.6583L5.13388 12.8686L0.523438 8.08857L6.84572 7.15753L9.62879 0.935547Z" fill="#FF7A00"/>
<path d="M41.4491 0.936096L44.2217 7.15808L50.544 8.08912L45.9335 12.8691L47.0678 19.6588L41.4491 16.3889L35.82 19.6588L36.9542 12.8691L32.3438 8.08912L38.666 7.15808L41.4491 0.936096Z" fill="#FF7A00"/>
<path d="M73.2694 0.936096L76.042 7.15808L82.3643 8.08912L77.7538 12.8691L78.8881 19.6588L73.2694 16.3889L67.6403 19.6588L68.7745 12.8691L64.1641 8.08912L70.4863 7.15808L73.2694 0.936096Z" fill="#FF7A00"/>
<path d="M105.098 0.936096L107.87 7.15808L114.192 8.08912L109.582 12.8691L110.716 19.6588L105.098 16.3889L99.4684 19.6588L100.603 12.8691L95.9922 8.08912L102.314 7.15808L105.098 0.936096Z" fill="#FF7A00"/>
<path d="M136.9 0.936096L134.127 7.15808L127.805 8.08912L132.415 12.8691L131.281 19.6588L136.9 16.3889L137.12 16.5138V1.41296L136.9 0.936096Z" fill="#FF7A00"/>
<path d="M141.399 12.8668L146.01 8.0868L139.688 7.15577L137.125 1.41064V16.5115L142.534 19.6565L141.399 12.8668Z" fill="#FF7A00"/>
</svg>
