<svg width="81" height="81" viewBox="0 0 81 81" fill="none" xmlns="http://www.w3.org/2000/svg">
<path d="M40.5749 0.303383C52.8202 0.303383 65.0663 0.303383 77.3116 0.303383C78.9175 0.303383 80.2097 1.67177 80.516 3.70286C80.5561 3.97031 80.5757 4.24742 80.5757 4.52131C80.5781 28.3542 80.5781 52.187 80.5781 76.0199C80.5781 78.4441 79.1707 80.2969 77.3328 80.2969C52.8185 80.2969 28.3034 80.2969 3.78914 80.2969C2.02721 80.2969 0.618967 78.4795 0.581392 76.1563C0.578942 76.0242 0.580576 75.8921 0.580576 75.7599C0.580576 52.1086 0.580576 28.4594 0.578125 4.80917C0.578125 4.01327 0.654091 3.24208 0.953873 2.54177C1.56977 1.1025 2.50833 0.33668 3.7679 0.307679C4.74974 0.286198 5.73241 0.303383 6.71507 0.303383C18.0022 0.303383 29.2885 0.303383 40.5749 0.303383ZM40.5789 77.8877C52.7475 77.8877 64.916 77.8877 77.0837 77.8877C77.1923 77.8877 77.3001 77.892 77.4088 77.8845C78.059 77.8437 78.5883 77.2712 78.7092 76.4495C78.7468 76.1928 78.737 75.9232 78.737 75.659C78.7378 52.0807 78.7378 28.5024 78.7378 4.92302C78.7378 4.7705 78.7386 4.61798 78.737 4.46546C78.7304 3.96064 78.5809 3.53852 78.304 3.19374C77.9773 2.78667 77.5754 2.70718 77.1441 2.70718C52.7687 2.71041 28.3933 2.71041 4.01785 2.71041C3.92473 2.71041 3.83161 2.70718 3.73931 2.71363C2.99108 2.76733 2.44216 3.50845 2.42092 4.49553C2.41766 4.63731 2.41929 4.78017 2.41929 4.92302C2.41929 28.5121 2.41929 52.1 2.41929 75.6891C2.41929 75.8716 2.41439 76.0564 2.42664 76.2379C2.4634 76.7846 2.65209 77.2239 2.99026 77.5483C3.27943 77.8243 3.60861 77.8909 3.95741 77.8909C16.1651 77.8866 28.372 77.8877 40.5789 77.8877Z" fill="#0076A2"/>
<path d="M43.6937 69.6845C44.4052 69.6845 45.0889 69.6845 45.8061 69.6845C45.8061 69.5556 45.8061 69.4364 45.8061 69.3182C45.8061 64.6803 45.8061 60.0414 45.8061 55.4035C45.8061 54.1167 46.368 53.3745 47.345 53.3745C48.567 53.3745 49.7898 53.3735 51.0118 53.3745C51.9691 53.3756 52.5442 54.1307 52.5442 55.3884C52.5442 60.0167 52.5442 64.6449 52.5442 69.2731C52.5442 69.4031 52.5442 69.5341 52.5442 69.6845C53.245 69.6845 53.9222 69.6845 54.6427 69.6845C54.6427 69.5599 54.6427 69.4332 54.6427 69.3075C54.6427 65.7469 54.6427 62.1874 54.6427 58.6268C54.6427 57.339 55.2038 56.6011 56.1824 56.6C57.4199 56.5989 58.6575 56.5979 59.8958 56.6C60.7968 56.6011 61.3775 57.3648 61.3775 58.5473C61.3784 62.1283 61.3775 65.7082 61.3775 69.2892C61.3775 69.4106 61.3775 69.532 61.3775 69.6791C62.0759 69.6791 62.7605 69.6791 63.4752 69.6791C63.4793 69.5631 63.4883 69.4364 63.4883 69.3096C63.4891 63.6234 63.4883 57.9372 63.4907 52.251C63.4907 51.9976 63.4907 51.7376 63.5307 51.4927C63.6672 50.6721 64.2136 50.0943 64.8769 50.0878C66.1994 50.0749 67.5227 50.0706 68.8451 50.0889C69.6587 50.1007 70.2248 50.9106 70.2256 52.0169C70.2272 57.7643 70.2264 63.5107 70.2264 69.2581C70.2264 69.3891 70.2264 69.5202 70.2264 69.6877C70.3236 69.6942 70.4053 69.7028 70.4862 69.7028C70.9191 69.7038 71.3528 69.6974 71.7858 69.7049C72.3028 69.7146 72.699 70.2441 72.6974 70.91C72.6957 71.5631 72.3069 72.0829 71.8005 72.1066C71.7621 72.1087 71.7229 72.1076 71.6845 72.1076C59.6246 72.1076 47.5647 72.1076 35.504 72.1076C34.9224 72.1076 34.5303 71.6844 34.4879 71.0153C34.4429 70.301 34.8358 69.7178 35.3815 69.7049C35.8144 69.6952 36.2482 69.7028 36.6811 69.7028C36.7644 69.7028 36.8477 69.7028 36.958 69.7028C36.958 69.5481 36.958 69.4299 36.958 69.3107C36.958 66.8489 36.958 64.3871 36.958 61.9264C36.958 60.6246 37.52 59.8899 38.5149 59.8889C39.7369 59.8878 40.9597 59.8878 42.1817 59.8889C43.1162 59.8899 43.6904 60.6396 43.6912 61.8619C43.6921 64.3442 43.6912 66.8264 43.6912 69.3075C43.6937 69.4278 43.6937 69.547 43.6937 69.6845ZM65.3376 52.5163C65.3376 58.2552 65.3376 63.9629 65.3376 69.6759C66.3587 69.6759 67.3642 69.6759 68.3656 69.6759C68.3656 63.9403 68.3656 58.2337 68.3656 52.5163C67.3511 52.5163 66.3554 52.5163 65.3376 52.5163ZM50.6875 55.8149C49.6624 55.8149 48.6609 55.8149 47.6546 55.8149C47.6546 60.4484 47.6546 65.0595 47.6546 69.6856C48.6707 69.6856 49.6714 69.6856 50.6875 69.6856C50.6875 65.0573 50.6875 60.4463 50.6875 55.8149ZM56.4912 69.6856C57.5098 69.6856 58.5112 69.6856 59.5192 69.6856C59.5192 66.1261 59.5192 62.5848 59.5192 59.0478C58.4965 59.0478 57.4959 59.0478 56.4912 59.0478C56.4912 62.6052 56.4912 66.14 56.4912 69.6856ZM41.846 62.3324C40.8298 62.3324 39.8284 62.3324 38.8212 62.3324C38.8212 64.7931 38.8212 67.2356 38.8212 69.6781C39.8406 69.6781 40.8405 69.6781 41.846 69.6781C41.846 67.2163 41.846 64.7802 41.846 62.3324Z" fill="#0076A2"/>
<path d="M23.588 48.2995C15.1762 48.2888 8.34162 39.2192 8.46252 28.1024C8.58096 17.2273 15.3559 8.4628 23.6354 8.48858C32.0554 8.51436 38.8711 17.628 38.738 28.7146C38.6089 39.4652 31.9174 48.3038 23.588 48.2995ZM36.905 28.3871C36.8789 18.6344 30.8457 10.8097 23.4671 10.9053C16.1204 10.9998 10.2873 18.9083 10.298 28.4289C10.3086 38.0688 16.2822 45.885 23.6623 45.8796C30.9371 45.8764 36.9091 37.9872 36.905 28.3871Z" fill="#0076A2"/>
<path d="M57.9234 48.8537C58.4307 48.2874 58.9371 47.7233 59.4428 47.1571C61.6891 44.6481 63.9354 42.1392 66.1793 39.627C66.4308 39.3455 66.7053 39.194 67.0329 39.2907C67.3947 39.3981 67.6398 39.6904 67.7329 40.1675C67.8285 40.6564 67.719 41.0765 67.429 41.4021C66.4946 42.4529 65.556 43.4995 64.6191 44.546C62.6562 46.7402 60.6942 48.9332 58.7305 51.1262C58.2444 51.6689 57.912 51.699 57.3655 51.2552C54.7214 49.104 52.0781 46.954 49.434 44.8028C49.3629 44.7448 49.2894 44.6911 49.1857 44.6105C48.7519 45.1907 48.3222 45.7742 47.8861 46.348C45.6071 49.3501 43.3248 52.3479 41.0466 55.3522C40.8008 55.6767 40.5222 55.8605 40.1734 55.7799C39.8165 55.6982 39.5681 55.4232 39.4571 54.9665C39.3435 54.5002 39.4211 54.0768 39.6817 53.7276C40.2077 53.0238 40.7411 52.3297 41.2713 51.6313C43.6287 48.5303 45.9853 45.4293 48.3427 42.3283C48.7511 41.791 49.1636 41.7309 49.6594 42.1338C52.3428 44.3161 55.0269 46.4984 57.7102 48.6807C57.7764 48.7366 57.8434 48.7892 57.9234 48.8537Z" fill="#0076A2"/>
<path d="M65.1798 21.1274C63.0062 21.1274 60.8325 21.1263 58.6589 21.1285C58.2873 21.1285 57.9924 20.9436 57.8078 20.5181C57.6338 20.1172 57.6371 19.696 57.8176 19.2973C58.0038 18.8857 58.2962 18.7083 58.6557 18.7083C59.1817 18.7083 59.7078 18.7073 60.2338 18.7073C64.0395 18.7073 67.8451 18.7073 71.65 18.7073C72.1671 18.7073 72.5142 18.9996 72.6474 19.5412C72.8434 20.3407 72.4048 21.1209 71.7464 21.1252C70.6633 21.1328 69.5809 21.1274 68.4978 21.1274C67.3926 21.1274 66.2866 21.1274 65.1798 21.1274Z" fill="#0076A2"/>
<path d="M65.1964 27.1838C67.3545 27.1838 69.5126 27.1827 71.6707 27.1838C72.1951 27.1838 72.5513 27.5169 72.6648 28.1026C72.7922 28.7603 72.4835 29.4288 71.9787 29.5663C71.8439 29.6028 71.7026 29.6071 71.5637 29.6071C67.3096 29.6093 63.0555 29.6093 58.8005 29.6082C58.6927 29.6082 58.5832 29.6093 58.4771 29.5889C57.9992 29.4943 57.6733 28.9817 57.688 28.3552C57.7027 27.7351 58.058 27.2451 58.5367 27.1892C58.629 27.1784 58.7221 27.1827 58.8152 27.1827C60.9423 27.1838 63.0693 27.1838 65.1964 27.1838Z" fill="#0076A2"/>
<path d="M65.1994 12.6527C63.0257 12.6527 60.8521 12.6537 58.6793 12.6516C58.0708 12.6505 57.6566 12.1078 57.6893 11.3663C57.7154 10.7806 58.052 10.3132 58.4963 10.2487C58.5576 10.2401 58.6197 10.239 58.6818 10.239C63.0208 10.239 67.3599 10.2379 71.699 10.239C72.167 10.239 72.5068 10.5313 72.6408 11.0418C72.8475 11.8273 72.4284 12.629 71.7897 12.6484C71.3183 12.6634 70.8462 12.6516 70.3741 12.6516C68.6497 12.6527 66.9245 12.6527 65.1994 12.6527Z" fill="#0076A2"/>
<path d="M19.7144 61.2256C21.888 61.2256 24.0608 61.2235 26.2345 61.2267C26.8847 61.2278 27.316 61.9349 27.1632 62.7312C27.0701 63.2191 26.7523 63.5802 26.3709 63.6243C26.2557 63.6371 26.1389 63.6318 26.0229 63.6318C21.7459 63.6318 17.4689 63.6318 13.1919 63.6318C12.6716 63.6318 12.3106 63.2857 12.2109 62.7C12.0835 61.9478 12.4911 61.246 13.0784 61.2288C13.5268 61.2149 13.9753 61.2256 14.4237 61.2256C16.1873 61.2246 17.9509 61.2246 19.7144 61.2256Z" fill="#0076A2"/>
<path d="M19.6956 69.7051C21.8692 69.7051 24.042 69.7041 26.2156 69.7062C26.7343 69.7062 27.0937 70.0834 27.1795 70.7024C27.2726 71.3751 26.9051 72.0264 26.3896 72.1016C26.321 72.1113 26.2508 72.1102 26.1813 72.1102C21.8578 72.1102 17.5342 72.1102 13.2107 72.1102C12.6805 72.1102 12.3211 71.7814 12.2149 71.2011C12.0753 70.4359 12.4845 69.7191 13.0833 69.7084C13.8102 69.6955 14.5372 69.7051 15.2642 69.7051C16.7411 69.7051 18.2187 69.7051 19.6956 69.7051Z" fill="#0076A2"/>
<path d="M54.8779 12.6509C54.3584 12.6477 53.9451 12.1007 53.9532 11.4279C53.9606 10.7595 54.3715 10.2351 54.8804 10.2415C55.3876 10.249 55.7969 10.7896 55.7944 11.4494C55.792 12.1168 55.3827 12.6541 54.8779 12.6509Z" fill="#0076A2"/>
<path d="M54.8721 21.1278C54.3673 21.1267 53.9539 20.5861 53.9531 19.9274C53.9523 19.2643 54.3607 18.7227 54.8647 18.7173C55.3802 18.712 55.8 19.26 55.7959 19.9328C55.7918 20.5915 55.3769 21.1288 54.8721 21.1278Z" fill="#0076A2"/>
<path d="M55.7944 28.4023C55.7936 29.06 55.3778 29.6037 54.8762 29.6048C54.3763 29.607 53.9597 29.0653 53.9532 28.4044C53.9467 27.7467 54.3592 27.1933 54.8591 27.189C55.3729 27.1847 55.796 27.7328 55.7944 28.4023Z" fill="#0076A2"/>
<path d="M9.37044 72.1108C8.86318 72.1087 8.45476 71.5724 8.45313 70.9083C8.4515 70.2248 8.86155 69.6971 9.38842 69.7047C9.89813 69.7122 10.3 70.2506 10.2943 70.9169C10.2894 71.5842 9.87934 72.113 9.37044 72.1108Z" fill="#0076A2"/>
<path d="M9.38815 63.632C8.87681 63.6363 8.46757 63.1151 8.46103 62.4499C8.45368 61.7707 8.86537 61.2248 9.38243 61.2258C9.88724 61.2269 10.2973 61.7642 10.2981 62.4273C10.3006 63.0968 9.8995 63.6277 9.38815 63.632Z" fill="#0076A2"/>
<path d="M34.5388 28.3846C34.5412 36.3296 29.6304 42.7612 23.562 42.7601C17.5729 42.759 12.6735 36.2984 12.6719 28.4007C12.6702 20.4997 17.5754 14.0144 23.5498 14.0198C29.6271 14.023 34.5363 20.4417 34.5388 28.3846ZM22.6847 16.5202C19.9148 16.8006 16.578 19.242 15.1404 24.0249C13.7967 28.4931 14.7565 33.1814 16.5682 35.9085C16.6082 35.8624 16.6507 35.8183 16.6883 35.7689C18.6463 33.1954 20.6051 30.623 22.5565 28.0409C22.6357 27.9367 22.6798 27.7391 22.6798 27.5844C22.6864 24.0055 22.6847 20.4256 22.6847 16.8468C22.6847 16.7469 22.6847 16.647 22.6847 16.5202ZM32.6698 29.6251C32.5555 29.6155 32.495 29.6069 32.4346 29.6069C29.6745 29.6058 26.9135 29.6047 24.1534 29.6144C24.0464 29.6144 23.9149 29.6971 23.8373 29.7981C21.8973 32.3372 19.963 34.8828 18.0279 37.4284C17.9756 37.4971 17.9283 37.5712 17.8523 37.6808C20.6524 40.4186 23.6854 41.1812 26.9242 39.4885C30.2781 37.7345 32.1152 34.3275 32.6698 29.6251ZM32.6216 27.1623C32.3104 21.6834 28.7032 16.9477 24.5382 16.5267C24.5382 20.0701 24.5382 23.6124 24.5382 27.1623C27.2435 27.1623 29.9318 27.1623 32.6216 27.1623Z" fill="#0076A2"/>
</svg>
