<svg width="101" height="101" viewBox="0 0 101 101" fill="none" xmlns="http://www.w3.org/2000/svg">
<circle cx="50.1797" cy="50.2969" r="50" fill="white"/>
<circle cx="50.1797" cy="50.2969" r="49" stroke="#0076A2" stroke-opacity="0.5" stroke-width="2"/>
<path d="M40.1182 61.1111C37.9612 63.3172 35.8251 65.4532 33.7591 67.6627C33.423 68.0234 33.3039 68.6887 33.2899 69.221C33.2409 70.9473 32.6666 72.299 30.9158 72.8733C29.361 73.3845 28.1424 72.7647 27.288 71.5076C26.4091 70.2155 26.4966 68.8428 27.4596 67.6067C28.4786 66.3041 30.0333 66.1115 31.9032 66.9694C32.0538 67.0394 32.2149 67.092 32.348 67.141C34.631 64.8439 36.8861 62.5748 39.2323 60.2147C34.1688 53.4179 34.0778 46.5266 39.3723 39.6948C37.0962 37.3592 34.8341 34.95 32.439 32.6809C32.0608 32.3238 31.0803 32.5304 30.387 32.5864C28.5101 32.7334 27.0849 31.6724 26.7628 29.82C26.4861 28.2443 27.5331 26.595 29.0739 26.1713C30.7932 25.7021 32.551 26.6335 33.1043 28.3423C33.2269 28.7205 33.3915 29.2248 33.2409 29.5259C32.4495 31.1192 33.4685 31.9596 34.4525 32.9085C36.4169 34.8099 38.3288 36.7709 40.3213 38.7704C43.3327 36.2141 46.6838 34.8695 50.5812 34.866C54.4891 34.8625 57.8507 36.1931 60.8937 38.8019C63.1873 36.4908 65.4774 34.2532 67.6589 31.9071C67.9951 31.5464 67.9111 30.6815 67.8375 30.0722C67.6204 28.2933 68.7164 26.567 70.3797 26.2238C71.9345 25.9017 73.8254 27.0432 74.2316 28.5559C74.7078 30.3278 73.6678 32.1382 71.868 32.6494C71.5913 32.7299 71.2342 32.898 71.0241 32.7965C68.9756 31.816 67.9146 33.2902 66.7625 34.4843C65.1447 36.1581 63.5655 37.8704 61.8531 39.6843C67.0461 46.383 67.1442 53.3654 61.7516 60.4563C64.0277 62.7184 66.2302 64.963 68.5098 67.1165C68.8215 67.4106 69.5709 67.4246 70.0576 67.3126C71.6789 66.9379 72.9675 67.3336 73.8044 68.7903C74.6308 70.2295 74.3892 71.6337 73.2756 72.8067C72.2391 73.8993 70.926 74.0953 69.5919 73.4125C68.1142 72.6562 67.4839 71.3605 67.9251 69.7638C68.1807 68.8323 67.9461 68.2966 67.2948 67.6662C65.1587 65.6003 63.0892 63.4642 60.9042 61.2652C57.8577 63.8389 54.4331 65.1801 50.4937 65.145C46.5928 65.1065 43.2452 63.6708 40.1182 61.1111ZM50.4447 35.955C42.6324 35.997 36.3959 42.3176 36.4484 50.1438C36.5009 57.9771 42.8495 64.084 50.8999 64.049C58.2709 64.0175 64.7035 57.5114 64.679 50.1193C64.6545 42.188 58.3515 35.9165 50.4447 35.955ZM71.1746 68.216C69.802 68.251 68.6954 69.312 68.79 70.4641C68.8985 71.7842 69.6934 72.6001 71.0136 72.7157C72.2286 72.8242 73.3212 71.6232 73.2406 70.345C73.1566 68.9584 72.3162 68.3106 71.1746 68.216ZM32.2079 29.5259C32.2254 28.1883 31.2064 27.1237 30.0298 27.0607C28.8077 26.9942 27.6102 28.1112 27.7082 29.3333C27.8168 30.6675 28.5836 31.4483 29.9563 31.4623C31.3535 31.4763 32.0188 30.6394 32.2079 29.5259ZM29.9878 67.4947C28.6047 67.5717 27.8168 68.2966 27.7117 69.6447C27.6137 70.8913 28.7202 71.9348 30.0263 71.9348C31.2029 71.9348 32.2849 70.8703 32.1974 69.6972C32.0993 68.3596 31.3255 67.6172 29.9878 67.4947ZM73.2616 29.3298C73.09 28.1217 72.4107 27.2673 71.0276 27.2988C69.6444 27.3303 68.9511 28.2163 68.881 29.5329C68.8215 30.692 69.963 31.8125 71.1116 31.7005C72.4282 31.5779 73.1986 30.818 73.2616 29.3298Z" fill="#0076A2"/>
<path d="M58.8612 33.0802C56.8862 33.0802 55.1459 33.0802 53.4091 33.0802C50.2611 33.0802 47.1165 33.0417 43.972 33.0977C42.778 33.1187 42.3262 32.7371 42.3613 31.494C42.4383 28.5841 42.4138 25.6672 42.3718 22.7538C42.3542 21.7313 42.6484 21.2866 43.7514 21.2971C48.3526 21.3426 52.9574 21.3251 57.5586 21.3076C58.385 21.3041 58.8787 21.4826 58.8717 22.4526C58.8437 25.8843 58.8612 29.3159 58.8612 33.0802ZM57.7161 23.2265C56.0143 24.7742 54.6066 26.0769 53.171 27.3515C50.3206 29.8832 51.21 30.1493 48.1986 27.3655C46.7454 26.0208 45.2641 24.7042 43.5903 23.1915C43.5903 26.35 43.5903 29.0603 43.5903 31.8476C48.3526 31.8476 53.0169 31.8476 57.7161 31.8476C57.7161 29.0008 57.7161 26.2975 57.7161 23.2265ZM50.6182 28.0973C52.6247 26.2729 54.5716 24.5011 56.7182 22.5472C52.5056 22.5472 48.6363 22.5472 44.4518 22.5472C46.6438 24.5186 48.5802 26.2624 50.6182 28.0973Z" fill="#0076A2"/>
<path d="M20.1588 59.4622C20.0572 58.114 19.9522 56.7694 19.8506 55.4212C19.7666 55.3547 19.6861 55.2392 19.595 55.2287C17.1999 54.9835 17.1999 54.9835 17.2034 52.5989C17.2034 50.4419 17.2489 48.2848 17.1824 46.1313C17.1438 44.9477 17.515 44.4575 18.7651 44.4715C23.2508 44.524 27.7399 44.5135 32.2291 44.4785C33.2656 44.4715 33.6928 44.8076 33.6718 45.8897C33.6193 48.5124 33.6123 51.1352 33.6753 53.7579C33.7033 54.931 33.1991 55.3092 32.117 55.2812C30.7199 55.2462 29.3087 55.3792 27.922 55.2497C25.835 55.0536 24.2172 55.6629 22.9391 57.3787C22.3053 58.2331 21.4124 58.8914 20.635 59.6408C20.4809 59.5777 20.3199 59.5217 20.1588 59.4622ZM32.4392 54.0766C32.4392 51.1807 32.4392 48.4774 32.4392 45.7426C27.6979 45.7426 23.0757 45.7426 18.4605 45.7426C18.4605 48.5895 18.4605 51.2893 18.4605 53.6844C19.462 54.1396 20.565 54.2937 20.9152 54.8925C21.3038 55.5543 21.0027 56.6188 21.0027 57.9355C21.6925 57.1441 22.0812 56.7904 22.3578 56.3632C23.65 54.3812 25.4113 53.7054 27.7574 54.0416C29.2387 54.2482 30.7724 54.0766 32.4392 54.0766Z" fill="#0076A2"/>
<path d="M50.6325 79.8103C48.416 79.8103 46.1994 79.7613 43.9828 79.8313C42.8098 79.8699 42.309 79.5547 42.337 78.2731C42.4141 74.95 42.3931 71.6234 42.3441 68.3003C42.33 67.2288 42.7292 66.8681 43.7762 66.8751C48.2689 66.9101 52.7581 66.9031 57.2507 66.8821C58.3082 66.8786 58.879 67.2043 58.8615 68.3843C58.8195 71.7074 58.8195 75.034 58.8615 78.3571C58.879 79.5302 58.3818 79.8593 57.2752 79.8278C55.0657 79.7648 52.8491 79.8103 50.6325 79.8103ZM43.5031 78.5672C48.3284 78.5672 52.9962 78.5672 57.6534 78.5672C57.6534 75.0025 57.6534 71.5919 57.6534 68.1392C52.8806 68.1392 48.2129 68.1392 43.5031 68.1392C43.5031 71.6654 43.5031 75.0375 43.5031 78.5672Z" fill="#0076A2"/>
<path d="M75.6608 43.5499C77.8738 43.5499 80.0904 43.5885 82.3035 43.5359C83.5431 43.5079 84.0893 43.9036 84.0578 45.2448C83.9808 48.4488 84.0053 51.6563 84.0473 54.8604C84.0613 55.9774 83.6761 56.4081 82.5241 56.3976C78.0384 56.3521 73.5493 56.3521 69.0601 56.3976C67.9151 56.4081 67.5299 55.9914 67.5474 54.8639C67.5999 51.6003 67.6209 48.3368 67.5404 45.0732C67.5089 43.7846 68.0446 43.4799 69.1897 43.5114C71.3432 43.5675 73.5002 43.5289 75.6573 43.5289C75.6608 43.5324 75.6608 43.5429 75.6608 43.5499ZM82.8427 55.1965C82.8427 51.6563 82.8427 48.2492 82.8427 44.737C78.0909 44.737 73.4267 44.737 68.773 44.737C68.773 48.2947 68.773 51.7089 68.773 55.1965C73.4582 55.1965 78.0419 55.1965 82.8427 55.1965Z" fill="#0076A2"/>
<path d="M54.9542 42.1043C56.8066 45.2978 58.659 48.4914 60.6795 51.9755C58.9111 52.5603 57.4124 53.0891 55.8927 53.5443C54.8702 53.8524 54.0263 54.1606 53.6271 55.3757C53.2174 56.6188 50.7557 57.7008 49.8488 57.004C47.5516 55.2391 45.5802 56.3176 43.6052 57.4487C42.8034 57.9074 42.2606 57.8724 41.9384 57.0425C41.6058 56.1776 40.2051 55.4422 41.3887 54.3322C44.9079 51.0336 48.4936 47.805 51.9813 44.4784C52.8112 43.6871 53.3714 42.6085 54.0578 41.6631C54.3589 41.8067 54.6566 41.9537 54.9542 42.1043ZM52.9232 44.8181C49.8593 48.0467 46.9704 51.0756 44.1165 54.1361C43.9064 54.3602 43.7908 54.945 43.9344 55.1621C44.0955 55.4072 44.6488 55.5963 44.9464 55.5122C48.9523 54.3882 52.9442 53.2116 57.0867 52.0071C55.6861 49.5909 54.3799 47.3358 52.9232 44.8181ZM59.2017 51.6184C57.5279 48.7085 56.0537 46.1452 54.4745 43.3929C53.9352 44.8636 57.3669 50.9881 59.2017 51.6184Z" fill="#0076A2"/>
<path d="M47.8359 76.9034C47.8359 74.3612 47.8359 72.3792 47.8359 69.7915C49.9334 71.0101 51.6703 72.0221 53.9009 73.3212C51.7403 74.5993 50.0035 75.6253 47.8359 76.9034ZM48.995 71.77C48.995 72.929 48.995 73.885 48.995 75.037C50.007 74.4207 50.8089 73.934 51.7928 73.3352C50.7493 72.7504 49.9229 72.2917 48.995 71.77Z" fill="#0076A2"/>
<path d="M77.1355 48.6208C77.7308 48.6208 78.1895 48.5822 78.6377 48.6348C78.9704 48.6733 79.5692 48.8344 79.5692 48.9429C79.5727 50.172 79.6112 51.4326 79.3591 52.6197C79.254 53.1204 78.5187 53.7612 77.9934 53.8418C76.3336 54.0974 74.6318 54.0799 72.9545 54.241C71.7674 54.3565 71.3787 53.8348 71.4523 52.7317C71.5013 52.0349 71.5223 51.3276 71.4488 50.6377C71.2947 49.2371 71.6098 48.4492 73.2872 48.5262C73.7599 48.5472 74.4217 47.7313 74.7368 47.1571C75.0695 46.5513 74.8804 45.3992 75.9975 45.8229C76.4982 46.012 76.7643 46.8944 77.0655 47.5002C77.1775 47.7313 77.1075 48.064 77.1355 48.6208ZM75.5983 49.041C75.4442 48.8589 75.2936 48.6768 75.1395 48.4947C74.7859 49.8393 74.4322 51.1875 74.068 52.5812C78.2105 53.1975 78.5957 52.9348 78.6867 49.8639C77.6502 49.5907 76.6243 49.3141 75.5983 49.041Z" fill="#0076A2"/>
</svg>
