<svg width="101" height="101" viewBox="0 0 101 101" fill="none" xmlns="http://www.w3.org/2000/svg">
<circle cx="50.1797" cy="50.2969" r="50" fill="white"/>
<circle cx="50.1797" cy="50.2969" r="49" stroke="#0076A2" stroke-opacity="0.5" stroke-width="2"/>
<path d="M42.9941 81.9404C42.8594 81.4962 42.6169 81.0551 42.6049 80.6049C42.56 78.8552 42.587 77.1026 42.587 75.2779C42.2278 75.2449 41.9404 75.2479 41.665 75.1878C41.234 75.0918 40.7611 75.0378 40.3959 74.8187C38.4412 73.6423 39.0219 71.6855 39.0399 69.9569C39.0549 68.6694 39.887 67.8891 41.2639 67.5049C41.4375 67.4569 41.6142 67.4089 41.8925 67.3309C40.77 64.0896 39.6416 60.9024 38.5879 57.6942C38.4412 57.244 38.5011 56.5928 38.7256 56.1756C42.1799 49.7742 45.6701 43.3908 49.1723 37.0163C49.4656 36.4821 49.8308 35.6868 50.2768 35.5998C51.2885 35.3987 51.1029 36.5602 51.4053 37.1004C54.9194 43.4268 58.3827 49.7802 61.816 56.1516C62.0555 56.5958 62.1003 57.298 61.9387 57.7842C60.897 60.9624 59.7746 64.1166 58.682 67.2708C61.1605 68.3422 62.2021 71.1243 61.0976 73.5702C60.5558 74.7707 59.5411 75.2089 58.1761 75.2389C58.1761 77.0456 58.2031 78.8312 58.1582 80.6169C58.1462 81.0611 57.8977 81.5023 57.7601 81.9434C52.8361 81.9404 47.9151 81.9404 42.9941 81.9404ZM49.723 39.1861C49.6482 39.1711 49.5734 39.1531 49.4985 39.1381C46.4094 44.7953 43.3173 50.4554 40.1055 56.3407C41.5812 56.3407 42.7995 56.2897 44.0058 56.3707C44.4219 56.3977 44.814 56.7608 45.2151 56.9679C44.817 57.193 44.4279 57.5832 44.0178 57.6102C42.7277 57.6942 41.4286 57.6402 40.1265 57.6402C40.1145 57.8743 40.0726 57.9943 40.1055 58.0873C41.1083 61.0135 42.1021 63.9426 43.1587 66.8477C43.2515 67.1028 43.7514 67.3609 44.0627 67.3639C48.1994 67.3969 52.3332 67.3699 56.4699 67.4059C57.1345 67.4119 57.3709 67.1388 57.5505 66.5746C58.0564 65.014 58.6072 63.4714 59.14 61.9198C59.6069 60.5543 60.0739 59.1888 60.6037 57.6372C59.134 57.6372 57.8379 57.6882 56.5508 57.6072C56.1317 57.5802 55.4163 57.238 55.3864 56.9769C55.2996 56.1936 56.0269 56.3497 56.5148 56.3437C57.7541 56.3257 58.9963 56.3377 60.457 56.3377C57.3081 50.5755 54.2878 45.0504 51.2676 39.5253C51.0341 43.8949 51.0191 48.1806 51.067 52.4662C51.07 52.7573 51.51 53.1595 51.8363 53.3095C53.6652 54.1468 54.7069 56.0076 54.3118 57.8503C53.8927 59.801 52.2823 61.1035 50.3127 61.0855C48.4149 61.0675 46.8405 59.747 46.4364 57.8382C46.0472 56.0046 47.0829 54.0388 48.9478 53.3515C49.6392 53.0964 49.738 52.7453 49.735 52.1271C49.714 48.7988 49.723 45.4765 49.723 42.1513C49.723 41.1639 49.723 40.1735 49.723 39.1861ZM50.1361 73.8794C50.1361 73.8764 50.1361 73.8764 50.1361 73.8734C52.3332 73.8734 54.5303 73.8734 56.7244 73.8734C60.0739 73.8764 60.0888 73.8613 60.02 70.5211C59.9931 69.2456 59.4124 68.7324 58.1372 68.7414C53.2252 68.7804 48.3102 68.8254 43.3982 68.8134C40.351 68.8044 40.2672 68.8434 40.3001 71.8956C40.3151 73.4142 40.779 73.8764 42.3146 73.8794C44.9218 73.8824 47.5289 73.8794 50.1361 73.8794ZM43.928 80.5179C48.2892 80.5179 52.5457 80.5179 56.8022 80.5179C56.8022 78.7232 56.8022 77.0215 56.8022 75.2959C52.4769 75.2959 48.2204 75.2959 43.928 75.2959C43.928 77.0666 43.928 78.7412 43.928 80.5179ZM53.0665 57.079C53.0636 55.6024 51.8393 54.3659 50.3756 54.3659C48.9118 54.3659 47.6786 55.6024 47.6786 57.073C47.6786 58.5585 48.8819 59.765 50.3696 59.768C51.8602 59.771 53.0695 58.5645 53.0665 57.079Z" fill="#0076A2"/>
<path d="M20.1797 25.4285C20.3024 25.2124 20.4401 25.0023 20.5509 24.7802C21.3471 23.1416 22.6552 22.2623 24.4691 22.3283C26.2351 22.3913 27.5103 23.3247 28.1269 24.9783C28.3724 25.6386 28.6867 25.8156 29.3332 25.8126C34.6613 25.7946 39.9894 25.7916 45.3175 25.8126C46.0329 25.8156 46.2843 25.6026 46.2963 24.8613C46.3382 22.3103 46.3651 22.3103 48.9663 22.3103C50.4211 22.3103 51.8728 22.3403 53.3246 22.2983C54.1268 22.2743 54.456 22.5504 54.48 23.3847C54.5488 25.8036 54.5728 25.8036 56.9734 25.8036C61.7418 25.8036 66.5131 25.7886 71.2814 25.8186C72.0118 25.8216 72.38 25.6476 72.6584 24.9003C73.3468 23.0426 75.2895 22.0132 77.1453 22.3703C79.1119 22.7485 80.5188 24.4111 80.5457 26.3919C80.5727 28.3666 79.1927 30.0953 77.2591 30.5094C75.3643 30.9176 73.3708 29.8912 72.6584 27.9975C72.38 27.2532 72.0118 27.0731 71.2814 27.0791C67.6685 27.1121 64.0526 27.0911 60.4367 27.0971C60.1553 27.0971 59.8739 27.1361 59.3681 27.1752C60.8707 27.9044 62.2087 28.4386 63.424 29.1769C64.9147 30.0833 66.3305 31.1247 67.7104 32.1931C68.0068 32.4242 68.0097 33.0334 68.1474 33.4655C67.7314 33.3695 67.2045 33.3995 66.9142 33.1564C63.4719 30.2663 59.5656 28.3756 55.1595 27.5233C54.9829 27.4903 54.8003 27.4903 54.462 27.4603C54.462 28.1805 54.4441 28.8408 54.468 29.495C54.492 30.2243 54.2435 30.5965 53.4413 30.5845C51.3909 30.5514 49.3435 30.5574 47.2931 30.5845C46.5807 30.5935 46.2574 30.3143 46.2753 29.6001C46.2933 28.9398 46.2783 28.2796 46.2783 27.2622C44.0872 28.0125 42.0308 28.4716 40.2169 29.405C38.0168 30.5364 36.0203 32.067 33.9399 33.4265C33.8172 33.5076 33.7304 33.6756 33.6017 33.7116C33.2245 33.8227 32.8324 33.8887 32.4463 33.9697C32.5391 33.5616 32.4912 33.0064 32.7426 32.7663C34.8649 30.7405 37.3074 29.1799 39.9864 27.9945C40.5132 27.7604 41.046 27.5443 41.5519 27.1511C41.3094 27.1301 41.067 27.0881 40.8245 27.0881C36.9871 27.0851 33.1467 27.0731 29.3093 27.1181C28.9411 27.1211 28.3724 27.4242 28.2437 27.7334C27.5013 29.498 26.2621 30.5364 24.3374 30.5544C22.4127 30.5724 21.1256 29.5611 20.4102 27.7904C20.3653 27.6673 20.2605 27.5623 20.1797 27.4483C20.1797 26.776 20.1797 26.1037 20.1797 25.4285ZM53.1031 23.6728C51.2532 23.6728 49.4812 23.6728 47.6373 23.6728C47.6373 25.5305 47.6373 27.3342 47.6373 29.1889C49.4842 29.1889 51.2772 29.1889 53.1031 29.1889C53.1031 27.3102 53.1031 25.5035 53.1031 23.6728ZM21.5117 26.3739C21.4728 27.8924 22.6791 29.1949 24.1847 29.2579C25.7442 29.321 27.0763 28.0785 27.1182 26.5209C27.1571 24.9633 25.8789 23.6338 24.3344 23.6248C22.8228 23.6158 21.5506 24.8553 21.5117 26.3739ZM76.4958 29.2579C78.0044 29.2309 79.2436 27.9645 79.2406 26.4459C79.2376 24.8823 77.9326 23.5918 76.382 23.6278C74.8704 23.6608 73.6372 24.9273 73.6342 26.4459C73.6342 28.0065 74.9333 29.285 76.4958 29.2579Z" fill="#0076A2"/>
<path d="M76.7925 48.5347C77.0918 48.5527 77.2744 48.5737 77.457 48.5707C79.9564 48.5467 79.8337 48.4176 79.8247 50.9416C79.8217 52.025 79.8037 53.1084 79.8307 54.1918C79.8486 54.9751 79.5613 55.3713 78.7292 55.3532C77.2026 55.3232 75.673 55.3202 74.1464 55.3502C73.2993 55.3683 73.0479 54.9511 73.0628 54.1768C73.0868 52.7963 73.1227 51.4097 73.0508 50.0322C72.994 48.9008 73.425 48.4296 74.5445 48.5647C74.793 48.5947 75.0534 48.5437 75.4036 48.5256C74.8857 44.9393 73.6226 41.7191 71.7248 38.7389C71.2638 38.0156 70.728 37.3434 70.2341 36.6411C69.9288 36.206 69.3182 35.7288 70.0186 35.2606C70.2192 35.1255 70.9585 35.4857 71.2159 35.8068C73.9309 39.1771 75.6909 43.0065 76.5291 47.2592C76.6039 47.6613 76.6937 48.0605 76.7925 48.5347ZM78.5166 54.0568C78.5166 52.7663 78.5555 51.6498 78.4867 50.5424C78.4717 50.3143 78.0796 49.9512 77.8312 49.9212C74.4547 49.528 74.2332 49.7441 74.3589 53.1234C74.3619 53.2344 74.317 53.3875 74.3739 53.4535C74.5625 53.6726 74.775 54.0177 74.9935 54.0297C76.101 54.0868 77.2145 54.0568 78.5166 54.0568Z" fill="#0076A2"/>
<path d="M24.36 48.5761C25.0455 44.2724 26.5391 40.494 28.9278 37.0817C29.0775 36.8686 29.1942 36.5895 29.4007 36.4665C29.7061 36.2834 30.0772 36.2114 30.4215 36.0913C30.4185 36.4845 30.4873 36.8956 30.3885 37.2618C30.3047 37.5649 30.0174 37.811 29.8288 38.0871C27.7095 41.2143 26.3296 44.6356 25.7399 48.345C25.8357 48.438 25.8806 48.528 25.9375 48.534C27.6856 48.7141 27.6856 48.7111 27.6856 50.5358C27.6856 51.8053 27.6736 53.0748 27.6886 54.3413C27.6976 55.0495 27.3743 55.3556 26.6768 55.3496C25.0754 55.3376 23.477 55.3406 21.8756 55.3436C21.22 55.3466 20.9297 55.0195 20.9297 54.3803C20.9327 52.7747 20.9327 51.172 20.9327 49.5664C20.9327 48.8612 21.2919 48.5581 21.9803 48.5731C22.7496 48.5881 23.5249 48.5761 24.36 48.5761ZM26.3745 50.0286C22.4473 49.4344 22.0013 49.8005 22.2258 53.2548C22.2288 53.2909 22.2108 53.3449 22.2318 53.3659C22.4443 53.6 22.6478 54.0081 22.8783 54.0231C23.8422 54.0952 24.815 54.0802 25.7818 54.0261C25.9884 54.0141 26.3446 53.72 26.3506 53.543C26.3985 52.3635 26.3745 51.1781 26.3745 50.0286Z" fill="#0076A2"/>
</svg>
