<svg width="1350" height="36" viewBox="0 0 1350 36" fill="none" xmlns="http://www.w3.org/2000/svg">
<path d="M34.6826 17.7969C34.6826 26.9047 27.2593 34.2969 18.0913 34.2969C8.92326 34.2969 1.5 26.9047 1.5 17.7969C1.5 8.68908 8.92326 1.29688 18.0913 1.29688C27.2593 1.29688 34.6826 8.68908 34.6826 17.7969Z" stroke="#494848" stroke-opacity="0.2" stroke-width="2"/>
<g clip-path="url(#clip0_765_21795)">
<path d="M22.019 13.7069L20.6016 12.2969L14.5703 18.2969L20.6016 24.2969L22.019 22.8869L17.4151 18.2969L22.019 13.7069Z" fill="#323232" fill-opacity="0.2"/>
</g>
<path d="M1348.5 17.7969C1348.5 26.9047 1341.08 34.2969 1331.91 34.2969C1322.74 34.2969 1315.32 26.9047 1315.32 17.7969C1315.32 8.68908 1322.74 1.29688 1331.91 1.29688C1341.08 1.29688 1348.5 8.68908 1348.5 17.7969Z" stroke="#494848" stroke-opacity="0.2" stroke-width="2"/>
<g clip-path="url(#clip1_765_21795)">
<path d="M1330.4 12.2969L1328.98 13.7069L1333.59 18.2969L1328.98 22.8869L1330.4 24.2969L1336.43 18.2969L1330.4 12.2969Z" fill="#323232" fill-opacity="0.2"/>
</g>
<defs>
<clipPath id="clip0_765_21795">
<rect width="24.1252" height="24" fill="white" transform="translate(6.53125 6.29688)"/>
</clipPath>
<clipPath id="clip1_765_21795">
<rect width="24.1252" height="24" fill="white" transform="translate(1320.35 6.29688)"/>
</clipPath>
</defs>
</svg>
