<svg width="60" height="61" viewBox="0 0 60 61" fill="none" xmlns="http://www.w3.org/2000/svg">
<g clip-path="url(#clip0_1482_2119)">
<path d="M30.0046 0.464844H30.0621C33.3408 0.47463 36.5693 1.27019 39.4771 2.78484C42.3696 1.2954 45.5762 0.518825 48.8296 0.519844H50.5196V60.4648L48.8796 60.4598C43.7002 60.4618 38.5714 59.4415 33.7872 57.4574C29.0029 55.4732 24.6574 52.5643 20.9996 48.8973C17.3238 45.2529 14.4114 40.9122 12.433 36.129C10.4545 31.3457 9.44966 26.216 9.47711 21.0398V0.517344H11.1696C14.4221 0.517344 17.6346 1.29484 20.5221 2.78234C23.4511 1.25999 26.7036 0.465099 30.0046 0.464844ZM30.0046 2.09984C26.6752 2.09668 23.4046 2.97752 20.5271 4.65234C17.6819 3.01318 14.4557 2.15102 11.1721 2.15234H11.1171V21.0398C11.0546 41.9148 28.0271 58.7648 48.8846 58.8223V2.15234H48.8296C45.5454 2.14959 42.3182 3.01092 39.4721 4.64984C36.6133 2.985 33.3653 2.10529 30.0571 2.09984H30.0046ZM38.1346 8.98484C39.3924 8.98527 40.6327 9.27859 41.7575 9.84156C42.8822 10.4045 43.8604 11.2217 44.6145 12.2283C45.3686 13.2349 45.8779 14.4033 46.1021 15.6409C46.3263 16.8785 46.2593 18.1514 45.9062 19.3585C45.5532 20.5657 44.9238 21.6741 44.0681 22.5959C43.2123 23.5176 42.1537 24.2275 40.976 24.6691C39.7983 25.1107 38.534 25.272 37.2832 25.1403C36.0323 25.0085 34.8294 24.5872 33.7696 23.9098L29.9796 27.6798L26.2121 23.8898C24.7163 24.8282 22.9548 25.2519 21.1959 25.0965C19.437 24.941 17.7771 24.2148 16.4691 23.0286C15.1611 21.8424 14.2767 20.2611 13.9507 18.5257C13.6246 16.7903 13.8747 14.9959 14.6629 13.4158C15.4511 11.8357 16.7342 10.5566 18.3167 9.77328C19.8992 8.98996 21.6944 8.74539 23.4288 9.07683C25.1632 9.40827 26.7417 10.2976 27.9239 11.6092C29.106 12.9208 29.8271 14.583 29.9771 16.3423L30.0171 16.2923L30.0546 16.3373C30.2411 14.3246 31.1735 12.4543 32.6685 11.0939C34.1636 9.73349 36.1132 8.98121 38.1346 8.98484ZM21.8996 22.4373C22.7459 22.4401 23.581 22.244 24.3375 21.8647C25.094 21.4855 25.7508 20.9337 26.2549 20.254C26.759 19.5742 27.0963 18.7855 27.2395 17.9515C27.3828 17.1174 27.328 16.2613 27.0796 15.4523C26.7693 16.0775 26.2291 16.5584 25.5722 16.7943C24.9153 17.0302 24.1927 17.0027 23.5555 16.7178C22.9184 16.4328 22.4162 15.9124 22.1541 15.2655C21.8921 14.6186 21.8905 13.8954 22.1496 13.2473C22.4235 12.6392 22.911 12.1527 23.5196 11.8798C22.7782 11.6499 21.9959 11.5825 21.2261 11.6822C20.4563 11.7819 19.717 12.0464 19.0586 12.4577C18.4003 12.869 17.8384 13.4174 17.4112 14.0656C16.984 14.7137 16.7015 15.4463 16.5831 16.2135C16.4646 16.9806 16.513 17.7643 16.7248 18.5111C16.9366 19.2579 17.307 19.9503 17.8107 20.541C18.3143 21.1317 18.9394 21.6068 19.6433 21.9341C20.3472 22.2613 21.1134 22.433 21.8896 22.4373H21.8996ZM38.0946 22.4848C38.8721 22.4872 39.641 22.3216 40.3486 21.9994C41.0562 21.6772 41.6859 21.206 42.1946 20.618C42.7033 20.03 43.0791 19.3391 43.2961 18.5925C43.5132 17.8459 43.5665 17.0613 43.4524 16.2922C43.3382 15.5231 43.0594 14.7877 42.6348 14.1363C42.2103 13.485 41.6501 12.9329 40.9925 12.518C40.335 12.1031 39.5956 11.8351 38.8249 11.7323C38.0542 11.6295 37.2704 11.6943 36.5271 11.9223C37.8896 12.5323 38.4996 14.1298 37.8946 15.4923C37.6002 16.145 37.0595 16.6546 36.3906 16.9099C35.7217 17.1652 34.979 17.1454 34.3246 16.8548C33.7121 16.5793 33.2232 16.0868 32.9521 15.4723C32.7005 16.28 32.642 17.1353 32.7813 17.9697C32.9205 18.804 33.2537 19.5941 33.7539 20.2762C34.2541 20.9583 34.9075 21.5135 35.6614 21.8971C36.4153 22.2807 37.2487 22.482 38.0946 22.4848Z" fill="black"/>
</g>
<defs>
<clipPath id="clip0_1482_2119">
<rect width="60" height="60" fill="white" transform="translate(0 0.464844)"/>
</clipPath>
</defs>
</svg>
