<svg width="61" height="61" viewBox="0 0 61 61" fill="none" xmlns="http://www.w3.org/2000/svg">
<g clip-path="url(#clip0_1482_2097)">
<path d="M45.9138 20.2898V13.1748C46.8555 12.7345 47.6529 12.0362 48.2136 11.1609C48.7742 10.2856 49.0751 9.26923 49.0813 8.22978V8.06228C49.0774 6.60922 48.4986 5.21676 47.4713 4.18905C46.4441 3.16134 45.0519 2.5819 43.5988 2.57728H43.4313C41.9787 2.58189 40.5869 3.161 39.5597 4.18817C38.5325 5.21533 37.9534 6.60715 37.9488 8.05978V8.22728C37.9534 9.2607 38.2496 10.2718 38.8033 11.1444C39.357 12.017 40.1458 12.7155 41.0788 13.1598L41.1113 13.1748V20.3048C38.391 20.7204 35.8296 21.8506 33.6888 23.5798L33.7188 23.5548L14.1488 8.31728C14.5214 6.92142 14.3983 5.43955 13.8005 4.1243C13.2027 2.80906 12.1672 1.74188 10.8706 1.10473C9.57394 0.467572 8.09644 0.299886 6.68999 0.63026C5.28355 0.960634 4.03523 1.76861 3.15789 2.91644C2.28054 4.06426 1.82848 5.48086 1.87879 6.92471C1.92909 8.36857 2.47865 9.75027 3.43375 10.8343C4.38886 11.9182 5.69038 12.6374 7.11641 12.8691C8.54244 13.1007 10.0047 12.8306 11.2538 12.1048L11.2238 12.1198L30.4663 27.0973C28.7653 29.6476 27.8619 32.6467 27.8713 35.7123C27.8672 38.943 28.8694 42.0948 30.7388 44.7298L30.7063 44.6798L24.8513 50.5373C24.3826 50.386 23.8938 50.3059 23.4013 50.2998H23.3963C22.3911 50.2998 21.4085 50.5979 20.5726 51.1563C19.7368 51.7148 19.0854 52.5086 18.7007 53.4373C18.316 54.366 18.2154 55.3879 18.4115 56.3738C18.6076 57.3597 19.0917 58.2654 19.8025 58.9762C20.5133 59.687 21.4189 60.171 22.4048 60.3671C23.3907 60.5632 24.4126 60.4626 25.3413 60.0779C26.27 59.6932 27.0638 59.0418 27.6223 58.206C28.1807 57.3702 28.4788 56.3875 28.4788 55.3823C28.4721 54.8766 28.3877 54.3749 28.2288 53.8948L28.2413 53.9298L34.0338 48.1373C35.9218 49.5779 38.1135 50.569 40.4422 51.0351C42.7709 51.5013 45.1752 51.4302 47.4722 50.8273C49.7693 50.2245 51.8986 49.1057 53.6982 47.556C55.4978 46.0064 56.9204 44.0668 57.8576 41.8847C58.7948 39.7025 59.222 37.3354 59.1067 34.9634C58.9914 32.5913 58.3367 30.2768 57.1923 28.1958C56.048 26.1149 54.4441 24.3223 52.5027 22.9545C50.5613 21.5866 48.3335 20.6796 45.9888 20.3023L45.8988 20.2898H45.9138ZM43.5038 43.7348C41.9197 43.7303 40.3724 43.2565 39.0573 42.3733C37.7423 41.49 36.7185 40.2368 36.1152 38.772C35.512 37.3072 35.3563 35.6965 35.6679 34.1433C35.9795 32.5901 36.7444 31.1641 37.8659 30.0453C38.9875 28.9265 40.4154 28.1652 41.9694 27.8575C43.5234 27.5498 45.1337 27.7094 46.597 28.3163C48.0603 28.9233 49.3109 29.9502 50.1909 31.2674C51.0709 32.5847 51.5408 34.1331 51.5413 35.7173V35.7223C51.5417 36.7752 51.3345 37.818 50.9317 38.7908C50.5289 39.7637 49.9384 40.6477 49.1938 41.3922C48.4492 42.1368 47.5653 42.7274 46.5924 43.1302C45.6195 43.533 44.5768 43.7401 43.5238 43.7398L43.5038 43.7348Z" fill="black"/>
</g>
<defs>
<clipPath id="clip0_1482_2097">
<rect width="60" height="60" fill="white" transform="translate(0.5 0.464844)"/>
</clipPath>
</defs>
</svg>
