<svg width="108" height="96" viewBox="0 0 108 96" fill="none" xmlns="http://www.w3.org/2000/svg">
<path d="M107.678 71.0765C106.926 73.9431 105.163 75.8532 102.331 76.7534C102.233 76.7843 102.143 76.8434 102.048 76.8884C95.2724 80.0644 88.466 83.1842 81.7326 86.4474C78.9062 87.8174 75.8777 88.2815 72.8857 88.951C68.7907 89.8681 64.676 90.6924 60.5781 91.6038C58.3383 92.1017 56.1547 92.0342 53.9457 91.4097C43.8555 88.5488 33.7568 85.7188 23.658 82.8831C23.3325 82.7903 22.9957 82.7312 22.5438 82.6272C22.5438 83.803 22.5522 84.8833 22.541 85.9663C22.5157 88.4362 21.146 89.8118 18.6957 89.8287C17.5113 89.8372 16.3296 89.8315 15.0132 89.8315C15.0132 91.0637 15.0217 92.2086 15.0104 93.3536C14.9964 94.777 14.4603 95.3312 13.0401 95.3368C9.36325 95.3509 5.6864 95.3509 2.00955 95.3368C0.659499 95.3312 0.109375 94.7601 0.109375 93.3986C0.109375 77.2204 0.109375 61.0421 0.112182 44.8639C0.112182 43.508 0.676339 42.9229 2.01797 42.9172C5.7285 42.9004 9.44183 42.9004 13.1524 42.92C14.421 42.9257 14.988 43.5333 15.0076 44.8189C15.0245 45.9751 15.0104 47.1313 15.0104 48.4534C16.2089 48.4534 17.3485 48.4506 18.4908 48.4534C21.1769 48.4619 22.4989 49.77 22.5157 52.4453C22.5241 53.9024 22.5185 55.3625 22.5185 56.9012C24.3064 56.1726 25.9315 55.4553 27.5987 54.8505C29.2351 54.2569 30.9163 53.7787 32.6425 53.2273C32.6425 49.2271 32.6425 45.1705 32.6425 41.3757C31.3177 41.491 29.962 41.8426 28.6821 41.6682C26.7623 41.4066 25.5105 40.0788 24.9744 38.2137C24.4383 36.343 24.8762 34.6354 26.2852 33.2908C28.8197 30.8715 31.4131 28.5113 33.9841 26.1314C42.6036 18.159 51.2288 10.1923 59.8483 2.21992C62.3604 -0.103711 64.937 -0.129029 67.4827 2.19742C69.6804 4.20879 71.8613 6.23986 74.0421 8.27093C74.9739 9.14018 75.1087 10.0066 74.4603 10.7493C73.8035 11.5032 72.8464 11.4554 71.8893 10.5721C69.672 8.52974 67.4715 6.47054 65.257 4.4254C64.109 3.36486 63.2585 3.35079 62.1415 4.38321C51.052 14.6398 39.9597 24.8964 28.8983 35.184C28.4323 35.6172 27.9945 36.3374 27.9748 36.9394C27.9271 38.3431 29.4905 39.1252 30.703 38.4022C31.0286 38.2081 31.3121 37.9324 31.5955 37.6708C41.015 28.9642 50.4345 20.2548 59.8512 11.5426C62.3464 9.23583 65.0072 9.22176 67.4883 11.5201C76.7506 20.0888 86.0157 28.6548 95.2808 37.2207C95.6401 37.5526 95.9909 37.9015 96.3755 38.2053C97.2231 38.8776 98.2476 38.8213 98.9268 38.0956C99.6678 37.3051 99.6593 36.2895 98.8089 35.4766C97.0603 33.8056 95.2724 32.1796 93.4957 30.5339C88.2218 25.6532 82.9423 20.778 77.6881 15.8776C77.3035 15.5175 76.919 15.0055 76.8292 14.5076C76.6131 13.3345 77.8902 12.4428 78.9736 12.9548C79.3104 13.1151 79.6079 13.3852 79.8886 13.6468C86.7848 20.0269 93.6725 26.4127 100.566 32.7957C102.792 34.8577 103.221 37.4204 101.745 39.6709C100.296 41.882 97.1613 42.5206 94.9496 41.1225C94.8991 41.0915 94.8205 41.1056 94.6998 41.0943C94.6998 49.1511 94.6998 57.205 94.6998 65.3996C95.9376 64.9749 97.1389 64.5641 98.3402 64.1506C102.809 62.6175 106.143 64.2997 107.563 68.8035C107.583 68.8654 107.642 68.916 107.681 68.9723C107.678 69.6728 107.678 70.3732 107.678 71.0765ZM75.0441 71.3691C77.0117 70.9949 78.7911 70.8205 80.4611 70.3029C83.8321 69.2564 87.1356 67.999 90.4841 66.885C91.2335 66.6346 91.4973 66.3027 91.4945 65.4897C91.4608 56.6818 91.4636 47.8739 91.4945 39.0661C91.4973 38.284 91.2447 37.7805 90.6862 37.2657C82.2098 29.448 73.753 21.6107 65.2906 13.7818C64.0781 12.6622 63.2894 12.6453 62.0994 13.7452C53.5556 21.6445 45.0146 29.5437 36.5018 37.4739C36.1313 37.8199 35.8702 38.4753 35.8646 38.9929C35.8141 43.2042 35.8366 47.4154 35.8366 51.6238C35.8366 51.967 35.8366 52.3074 35.8366 52.614C37.5908 52.614 39.2299 52.5578 40.8635 52.6253C43.7207 52.7434 46.0363 54.2063 48.2957 55.7732C49.5476 56.6424 50.8106 57.4948 52.2392 58.4709C52.2392 57.8943 52.2392 57.5539 52.2392 57.2135C52.2392 53.9503 52.2392 50.6871 52.2392 47.4238C52.2392 47.1791 52.2308 46.9316 52.242 46.6868C52.2869 45.5588 52.9129 44.8695 53.8671 44.892C54.7962 44.9117 55.3828 45.5588 55.3856 46.6587C55.3996 50.7293 55.4473 54.7998 55.3575 58.8704C55.3295 60.0941 55.7505 60.5836 56.8704 60.8762C60.2834 61.7735 63.6683 62.7806 67.0729 63.7062C68.9843 64.2266 70.5112 65.228 71.5188 66.9666C71.5778 67.0678 71.6704 67.1466 71.8556 67.3632C71.8753 67.0284 71.8921 66.8625 71.8921 66.6965C71.8921 58.2037 71.8949 49.7137 71.8865 41.2209C71.8865 40.6274 71.8304 40.0282 71.7462 39.4402C71.1231 35.1193 66.8203 31.7604 62.6579 32.3371C59.1467 32.821 56.2894 35.6763 55.5568 39.429C55.3239 40.6246 54.5969 41.2716 53.6735 41.1028C52.736 40.9312 52.2533 40.1801 52.4301 39.0155C53.4798 32.0277 60.9065 27.3129 67.2806 29.7884C72.0942 31.6592 75.0301 35.9435 75.0413 41.415C75.0581 50.853 75.0469 60.2938 75.0469 69.7318C75.0441 70.1426 75.0441 70.5561 75.0441 71.3691ZM22.5438 69.9063C22.5438 72.7137 22.569 75.5212 22.5269 78.3287C22.5157 79.0517 22.7234 79.3527 23.4391 79.5524C34.0122 82.4978 44.5684 85.5106 55.1554 88.4025C56.4887 88.7682 58.0268 88.8048 59.3908 88.5544C63.6178 87.7808 67.8167 86.8328 72.01 85.8847C74.7943 85.2546 77.6263 84.8805 80.2731 83.6117C87.5903 80.1066 94.9693 76.7337 102.326 73.3129C104.043 72.514 104.944 70.5111 104.307 68.8541C103.639 67.1156 101.778 66.2914 99.8951 66.9384C96.193 68.2099 92.5021 69.5209 88.7944 70.7839C83.7815 72.4915 78.895 74.7448 73.3937 74.3594C72.7706 74.3144 72.1307 74.3679 71.5076 74.4522C71.1568 74.5001 70.747 74.6182 70.5 74.8517C68.5689 76.6802 66.3291 77.1894 63.8031 76.4861C58.313 74.9558 52.8286 73.4114 47.3471 71.8614C46.1373 71.5182 45.649 70.8093 45.8932 69.8219C46.1289 68.8654 46.9569 68.4856 48.1779 68.812C49.4942 69.1664 50.8022 69.5546 52.1129 69.9231C56.3203 71.1018 60.5276 72.289 64.7405 73.448C66.7923 74.0106 68.5858 73.0344 69.1219 71.1187C69.6411 69.262 68.5184 67.4504 66.4975 66.8878C66.1607 66.795 65.8183 66.7218 65.4815 66.629C52.548 63.076 55.3856 64.3841 45.5816 57.717C43.4569 56.2711 41.1918 55.6128 38.6686 55.7057C33.0944 55.9138 27.9889 57.7452 23.1051 60.2938C22.8132 60.4458 22.5774 61.0027 22.5718 61.3741C22.5241 64.2209 22.5438 67.0622 22.5438 69.9063ZM3.3203 46.127C3.3203 61.5232 3.3203 76.804 3.3203 92.0989C6.186 92.0989 8.99275 92.0989 11.8641 92.0989C11.8641 91.5954 11.8641 91.179 11.8641 90.7627C11.8641 82.3796 11.8641 73.9965 11.8641 65.6106C11.8641 65.2956 11.8416 64.9749 11.8809 64.6654C11.9848 63.8299 12.4535 63.3151 13.3039 63.2476C14.2133 63.1745 14.7578 63.6696 14.9683 64.5191C15.0497 64.8511 15.016 65.2168 15.016 65.5656C15.0189 72.1961 15.0189 78.8266 15.0189 85.4543C15.0189 85.8285 15.0189 86.2026 15.0189 86.6752C16.1388 86.6752 17.152 86.6049 18.1512 86.6949C19.1981 86.7878 19.4198 86.3714 19.417 85.3896C19.3862 74.5845 19.3974 63.7821 19.3974 52.9769C19.3974 52.7322 19.4648 52.4537 19.3721 52.2483C19.2655 52.012 19.0241 51.6745 18.8276 51.666C17.587 51.6126 16.3408 51.6379 15.0189 51.6379C15.0189 52.9685 15.0189 54.1556 15.0189 55.3428C15.0189 58.7016 14.7101 59.5005 13.4134 59.4837C12.156 59.4668 11.8669 58.7044 11.8669 55.4047C11.8669 52.8447 11.8669 50.282 11.8669 47.722C11.8669 47.2072 11.8669 46.6924 11.8669 46.1242C8.95627 46.127 6.17477 46.127 3.3203 46.127Z" fill="#0078A5"/>
</svg>
