<svg width="61" height="61" viewBox="0 0 61 61" fill="none" xmlns="http://www.w3.org/2000/svg">
<path d="M28.1167 0.47424C21.7793 0.937195 15.8844 3.31086 10.9699 7.37999C10.0504 8.14143 7.90473 10.2877 7.16177 11.1892C3.03494 16.1944 0.678192 22.1052 0.257998 28.4932C-0.217005 35.7157 2.02403 43.0742 6.41882 48.7251C7.53731 50.1648 9.07802 51.8115 10.3569 52.9344C18.3771 59.9762 29.3651 62.2443 39.5066 58.9548C46.3231 56.7436 52.218 52.0349 55.951 45.8236C59.7551 39.4945 61.0725 31.8455 59.6171 24.5439C58.5818 19.3498 56.2291 14.6005 52.6971 10.578C52.0089 9.79426 50.3322 8.14346 49.5791 7.50994C44.9103 3.57685 39.3828 1.2235 33.2585 0.563582C32.1968 0.445813 29.1946 0.39505 28.1167 0.47424ZM32.3775 2.67328C36.076 2.96567 39.4274 3.87534 42.6591 5.46522C51.0345 9.58106 56.8462 17.6625 58.0581 26.8769C59.1745 35.3786 56.3915 43.8357 50.4438 50.0064C46.4205 54.1811 41.0798 57.0441 35.3859 58.0797C26.4582 59.7041 17.3845 56.9446 10.8786 50.6277C5.90119 45.7951 2.99028 39.531 2.45438 32.5055C2.36303 31.3176 2.41378 28.6861 2.54978 27.5125C3.14861 22.3428 5.00396 17.7051 8.10772 13.6197C9.21403 12.1618 10.9963 10.2897 12.3543 9.15871C16.8831 5.38603 22.3233 3.15857 28.1776 2.67937C29.1073 2.60424 31.4579 2.60221 32.3775 2.67328Z" fill="#0377A3"/>
<path d="M14.2334 38.6013C15.3314 41.2734 17.0244 43.4528 19.2748 45.1834C29.9006 53.3583 45.9936 47.2209 47.9226 33.5974C48.0248 32.8751 48.0916 32.1465 48.1292 31.418C48.1605 30.8063 48.2127 30.18 48.9914 30.1926C49.793 30.2051 49.6824 30.8898 49.6699 31.4138C49.555 36.1129 47.9226 40.2442 44.8163 43.7409C40.4219 48.6884 34.8439 50.9597 28.2806 50.2771C21.7444 49.5965 16.7301 46.2815 13.3127 40.6304C13.0518 40.2004 12.8117 39.7599 12.4986 39.215C11.9078 40.4989 11.365 41.6617 10.8411 42.8328C10.6052 43.3589 10.3275 43.8891 9.66158 43.6115C8.98103 43.3296 9.18144 42.7535 9.41525 42.2358C10.2148 40.4718 11.0268 38.7161 11.8097 36.9438C12.0957 36.2945 12.4777 36.0962 13.152 36.4052C14.9682 37.2402 16.7948 38.0502 18.6214 38.8602C19.1141 39.0794 19.4627 39.3862 19.2122 39.9582C18.945 40.5678 18.4565 40.4008 17.9972 40.2046C16.7405 39.6701 15.488 39.1357 14.2334 38.6013Z" fill="#0377A3"/>
<path d="M47.921 22.6588C48.5744 21.2267 49.0837 19.9992 49.7038 18.8281C49.877 18.5003 50.4386 18.0912 50.7121 18.1601C51.3905 18.3312 51.3237 18.9095 51.0649 19.4711C50.2403 21.258 49.4198 23.0471 48.6245 24.8466C48.326 25.5208 47.9251 25.6357 47.2676 25.3371C45.4493 24.5084 43.6164 23.7109 41.7793 22.9239C41.2387 22.6922 40.9589 22.283 41.2825 21.8258C41.4516 21.5879 42.08 21.4605 42.3952 21.5753C43.6936 22.0492 44.9504 22.6358 46.4096 23.2621C45.1591 20.5587 43.4557 18.4607 41.2783 16.7739C30.6985 8.58021 15.3904 14.1999 12.6348 27.2827C12.4198 28.3036 12.353 29.3599 12.2486 30.4016C12.1901 30.9715 12.2882 31.6583 11.424 31.6061C10.543 31.5518 10.7393 30.8128 10.758 30.2868C10.8937 26.0928 12.2381 22.3122 14.8142 19.0034C18.0478 14.8513 22.3002 12.2564 27.4983 11.6051C36.051 10.5342 43.3847 14.6342 47.3156 21.5482C47.4847 21.8446 47.6433 22.1494 47.921 22.6588Z" fill="#0377A3"/>
<path d="M30.1422 38.9624C25.7186 38.9269 22.0737 35.1881 22.1176 30.729C22.1593 26.5142 25.9524 22.7921 30.186 22.815C34.6388 22.8401 38.3443 26.5727 38.2816 30.9712C38.2211 35.3906 34.5449 38.9979 30.1422 38.9624ZM36.6992 30.8689C36.645 27.0319 33.8142 24.2847 29.9877 24.3557C26.4764 24.4204 23.6561 27.3618 23.6812 30.9294C23.7083 34.6954 26.5558 37.4593 30.3363 37.3884C34.0731 37.3174 36.7535 34.5702 36.6992 30.8689Z" fill="#0377A3"/>
<path d="M29.8998 32.6894C30.6889 31.3763 31.4696 30.0778 32.2483 28.7773C32.5217 28.3201 32.8224 27.8713 33.4424 28.2282C34.0311 28.5664 33.7868 29.0466 33.5509 29.4662C32.7451 30.9024 31.9122 32.322 31.1085 33.7582C30.7056 34.4763 30.1878 34.6371 29.4655 34.2321C28.8873 33.9064 28.2861 33.6204 27.6974 33.3157C27.2485 33.0839 26.8268 32.8042 27.1045 32.2176C27.4093 31.5704 27.9228 31.7729 28.4051 31.99C28.8915 32.2092 29.3695 32.441 29.8998 32.6894Z" fill="#0377A3"/>
</svg>
