<svg width="61" height="61" viewBox="0 0 61 61" fill="none" xmlns="http://www.w3.org/2000/svg">
<path d="M28.1167 0.97424C21.7793 1.4372 15.8844 3.81086 10.9699 7.87999C10.0504 8.64143 7.90473 10.7877 7.16177 11.6892C3.03494 16.6944 0.678192 22.6052 0.257998 28.9932C-0.217005 36.2157 2.02403 43.5742 6.41882 49.2251C7.53731 50.6648 9.07802 52.3115 10.3569 53.4344C18.3771 60.4762 29.3651 62.7443 39.5066 59.4548C46.3231 57.2436 52.218 52.5349 55.951 46.3236C59.7551 39.9945 61.0725 32.3455 59.6171 25.0439C58.5818 19.8498 56.2291 15.1005 52.6971 11.078C52.0089 10.2943 50.3322 8.64346 49.5791 8.00994C44.9103 4.07685 39.3828 1.7235 33.2585 1.06358C32.1968 0.945813 29.1946 0.89505 28.1167 0.97424ZM32.3775 3.17328C36.076 3.46567 39.4274 4.37534 42.6591 5.96522C51.0345 10.0811 56.8462 18.1625 58.0581 27.3769C59.1745 35.8786 56.3915 44.3357 50.4438 50.5064C46.4205 54.6811 41.0798 57.5441 35.3859 58.5797C26.4582 60.2041 17.3845 57.4446 10.8786 51.1277C5.90119 46.2951 2.99028 40.031 2.45438 33.0055C2.36303 31.8176 2.41378 29.1861 2.54978 28.0125C3.14861 22.8428 5.00396 18.2051 8.10772 14.1197C9.21403 12.6618 10.9963 10.7897 12.3543 9.65871C16.8831 5.88603 22.3233 3.65857 28.1776 3.17937C29.1073 3.10424 31.4579 3.10221 32.3775 3.17328Z" fill="#0377A3"/>
<path d="M23.9062 25.3656C23.9062 21.2442 27.2144 17.936 31.3358 17.936C35.4531 17.936 38.7598 21.2498 38.7584 25.3741C38.757 29.4871 35.4376 32.7882 31.3077 32.7854C27.2144 32.784 23.9062 29.4688 23.9062 25.3656ZM32.9878 27.0625C32.9878 25.9093 32.9878 24.7911 32.9878 23.6701C31.857 23.6701 30.7824 23.6701 29.6754 23.6701C29.6754 24.8122 29.6754 25.9317 29.6754 27.0625C30.7978 27.0625 31.8626 27.0625 32.9878 27.0625ZM28.5039 27.0597C28.5039 25.9121 28.5039 24.7995 28.5039 23.6687C27.4419 23.6687 26.3673 23.6687 25.2927 23.6687C24.9766 24.8094 24.9738 25.9275 25.2969 27.0597C26.3729 27.0597 27.4363 27.0597 28.5039 27.0597ZM37.3705 27.0569C37.6838 25.9093 37.6922 24.7925 37.3677 23.6757C36.2762 23.6757 35.2059 23.6757 34.1579 23.6757C34.1579 24.8164 34.1579 25.9275 34.1579 27.0569C35.2129 27.0569 36.2777 27.0569 37.3705 27.0569ZM32.8122 22.4916C32.7939 22.3708 32.7827 22.2654 32.7616 22.1614C32.5748 21.2301 32.3697 20.3016 31.8289 19.4967C31.4707 18.9629 31.1954 18.9601 30.8386 19.4925C30.2331 20.3957 30.0294 21.4338 29.8468 22.4916C30.8582 22.4916 31.8303 22.4916 32.8122 22.4916ZM32.815 28.2355C31.8219 28.2355 30.84 28.2355 29.8468 28.2355C30.0027 29.1823 30.1952 30.101 30.6588 30.9269C30.8119 31.2008 31.0942 31.4017 31.3176 31.6363C31.5508 31.3989 31.8486 31.198 32.0073 30.9185C32.4722 30.0939 32.6633 29.1738 32.815 28.2355ZM25.7521 22.4887C26.7607 22.4887 27.7088 22.4887 28.598 22.4887C28.893 21.4296 29.1796 20.4027 29.4675 19.3689C27.8437 19.8956 26.6047 20.9183 25.7521 22.4887ZM34.061 22.4775C34.9684 22.4775 35.9194 22.4775 36.907 22.4775C36.0501 20.9169 34.8167 19.89 33.1985 19.3717C33.4851 20.3999 33.7674 21.4212 34.061 22.4775ZM25.7507 28.2355C26.6089 29.8074 27.8479 30.8328 29.4647 31.3512C29.1768 30.3145 28.893 29.2904 28.5994 28.2355C27.7116 28.2355 26.7635 28.2355 25.7507 28.2355ZM33.1985 31.3554C34.8266 30.8188 36.0669 29.7989 36.9056 28.2355C35.8942 28.2355 34.9474 28.2355 34.0638 28.2355C33.7702 29.2932 33.4865 30.3159 33.1985 31.3554Z" fill="#0377A3"/>
<path d="M24.1408 36.761C23.8416 36.0924 23.5494 35.435 23.2544 34.779C22.0618 32.1282 20.8664 29.4775 19.6808 26.824C19.5755 26.588 19.4589 26.4939 19.1864 26.4967C17.7592 26.5136 16.3306 26.5051 14.9019 26.5037C14.4412 26.5037 14.1982 26.3085 14.1954 25.9404C14.1912 25.5682 14.4342 25.3645 14.8879 25.3631C16.5188 25.3617 18.1483 25.3687 19.7791 25.3575C20.1374 25.3547 20.3509 25.4923 20.4927 25.8196C20.8861 26.7229 21.3047 27.6149 21.6994 28.5167C21.7879 28.719 21.8932 28.8061 22.1222 28.7948C22.5141 28.7752 22.9075 28.785 23.2994 28.7906C23.6674 28.7962 23.8992 29.0154 23.9048 29.3469C23.9118 29.6967 23.6758 29.9214 23.2881 29.9284C22.9932 29.9341 22.6982 29.9298 22.368 29.9298C22.4158 30.0633 22.4453 30.163 22.4875 30.2571C23.4272 32.346 24.3726 34.432 25.3053 36.5236C25.3994 36.7343 25.5118 36.7891 25.7296 36.7891C29.4661 36.7821 33.2027 36.7835 36.9393 36.7863C37.1275 36.7863 37.2567 36.7708 37.3551 36.5601C38.3566 34.4081 39.3736 32.2631 40.3836 30.1167C40.4033 30.0745 40.4117 30.0282 40.4426 29.9284C40.083 29.9284 39.7459 29.9312 39.4102 29.927C38.9887 29.9228 38.7528 29.7079 38.7598 29.3413C38.7668 28.9971 39.0028 28.7906 39.4031 28.7864C39.8189 28.7822 40.2375 28.7695 40.6519 28.792C40.9118 28.8061 41.0621 28.7386 41.159 28.4802C41.2883 28.1374 41.4611 27.8101 41.6226 27.4786C41.8052 27.1035 42.1129 26.9743 42.4317 27.1246C42.7534 27.2777 42.8517 27.591 42.6705 27.9745C41.1773 31.1548 39.6785 34.3322 38.1853 37.5125C38.0392 37.823 37.8102 37.9283 37.4745 37.9283C33.2139 37.9213 28.9534 37.9227 24.6943 37.9269C24.4836 37.9269 24.2616 37.9494 24.065 38.0154C23.6042 38.1714 23.2839 38.708 23.3429 39.1701C23.4146 39.732 23.8332 40.1408 24.4063 40.2012C24.5355 40.2152 24.6676 40.2082 24.7982 40.2082C29.5588 40.2082 34.318 40.2082 39.0787 40.2082C39.1854 40.2082 39.2936 40.2012 39.4003 40.2124C39.6925 40.2433 39.8948 40.4723 39.9018 40.7645C39.9088 41.0721 39.7009 41.3151 39.3947 41.3474C39.2894 41.3587 39.1812 41.3517 39.073 41.3517C34.2661 41.3517 29.4577 41.3348 24.6507 41.3643C23.5382 41.3713 22.4088 40.6971 22.2135 39.4159C22.0014 38.0267 22.9833 37.0111 23.9877 36.8284C24.0312 36.8242 24.072 36.7933 24.1408 36.761Z" fill="#0377A3"/>
<path d="M36.7631 49.3508C34.7894 49.3508 32.8144 49.348 30.8407 49.3536C30.5443 49.355 30.2901 49.2539 30.2353 48.9701C30.1988 48.7805 30.2817 48.5318 30.3926 48.3633C30.4615 48.2593 30.6848 48.2144 30.8379 48.2144C34.7866 48.2073 38.7353 48.2073 42.6826 48.2087C43.0998 48.2087 43.34 48.4321 43.3302 48.7945C43.3217 49.1387 43.0843 49.348 42.684 49.348C40.7103 49.3522 38.7367 49.3508 36.7631 49.3508Z" fill="#0377A3"/>
<path d="M30.1932 44.7724C30.1946 46.0521 29.1902 47.0649 27.9189 47.0677C26.6406 47.0691 25.6264 46.0647 25.625 44.7934C25.6236 43.5123 26.6252 42.5009 27.8993 42.4995C29.179 42.4967 30.1904 43.4997 30.1932 44.7724ZM27.9245 43.6416C27.3219 43.6289 26.7811 44.1543 26.767 44.7639C26.7544 45.3638 27.284 45.9088 27.8894 45.9228C28.4906 45.9355 29.0343 45.4087 29.0469 44.7991C29.061 44.1992 28.5314 43.6542 27.9245 43.6416Z" fill="#0377A3"/>
<path d="M34.7508 42.498C36.0319 42.4966 37.0447 43.4982 37.0461 44.7709C37.0489 46.0506 36.0446 47.0648 34.7719 47.0662C33.4936 47.069 32.478 46.0632 32.4766 44.792C32.4752 43.5123 33.4767 42.5009 34.7508 42.498ZM35.9013 44.7934C35.9097 44.1921 35.3759 43.6499 34.7705 43.6429C34.1664 43.6359 33.6284 44.164 33.62 44.7723C33.6116 45.3735 34.144 45.9157 34.7494 45.9242C35.352 45.9312 35.8943 45.3988 35.9013 44.7934Z" fill="#0377A3"/>
<path d="M23.0655 49.3507C22.0555 49.3507 21.0455 49.3521 20.0341 49.3507C19.579 49.3507 19.3359 49.1484 19.3359 48.779C19.3373 48.4109 19.579 48.2114 20.0369 48.21C22.0456 48.2086 24.0544 48.2086 26.0632 48.21C26.5183 48.21 26.7627 48.4123 26.7613 48.7818C26.7599 49.1498 26.5169 49.3507 26.0604 49.3507C25.0616 49.3521 24.0642 49.3507 23.0655 49.3507Z" fill="#0377A3"/>
<path d="M17.0553 48.7532C17.0679 48.4358 17.3137 48.2068 17.6354 48.211C17.9669 48.2166 18.21 48.4737 18.1959 48.808C18.1833 49.1241 17.9346 49.3558 17.6158 49.3516C17.2828 49.346 17.0412 49.0875 17.0553 48.7532Z" fill="#0377A3"/>
<path d="M29.0469 48.773C29.0512 49.1045 28.7983 49.3559 28.4654 49.3517C28.1465 49.3475 27.9105 49.1101 27.9063 48.7898C27.9021 48.4527 28.1479 48.2069 28.4836 48.2125C28.8039 48.2153 29.0427 48.4555 29.0469 48.773Z" fill="#0377A3"/>
<path d="M45.6173 48.7658C45.6244 49.1001 45.3771 49.353 45.0442 49.3516C44.7254 49.3502 44.4837 49.1142 44.4767 48.7953C44.4697 48.4596 44.7141 48.2095 45.0498 48.2109C45.3687 48.2123 45.6103 48.4483 45.6173 48.7658Z" fill="#0377A3"/>
</svg>
