<svg width="22" height="21" viewBox="0 0 22 21" fill="none" xmlns="http://www.w3.org/2000/svg">
<rect width="21.0742" height="20.1256" fill="#E9EEF4"/>
<path fill-rule="evenodd" clip-rule="evenodd" d="M9.42808 1.05927C4.83368 1.05927 1.10919 4.61614 1.10919 9.00376C1.10919 13.3914 4.83368 16.9482 9.42808 16.9482C14.0225 16.9482 17.747 13.3914 17.747 9.00376C17.747 4.61614 14.0225 1.05927 9.42808 1.05927ZM0 9.00376C0 4.03112 4.22109 0 9.42808 0C14.6351 0 18.8562 4.03112 18.8562 9.00376C18.8562 13.9764 14.6351 18.0075 9.42808 18.0075C4.22109 18.0075 0 13.9764 0 9.00376Z" fill="#494848"/>
<path fill-rule="evenodd" clip-rule="evenodd" d="M15.3031 14.6141C15.5196 14.4073 15.8708 14.4073 16.0874 14.6141L20.9123 19.2219C21.1289 19.4287 21.1289 19.7641 20.9123 19.9709C20.6957 20.1778 20.3446 20.1778 20.128 19.9709L15.3031 15.3631C15.0865 15.1563 15.0865 14.8209 15.3031 14.6141Z" fill="#494848"/>
</svg>
