<svg width="60" height="61" viewBox="0 0 60 61" fill="none" xmlns="http://www.w3.org/2000/svg">
<path d="M27.9214 0.33508C21.584 0.798035 15.689 3.1717 10.7746 7.24083C9.85504 8.00227 7.70941 10.1485 6.96646 11.0501C2.83962 16.0553 0.48288 21.9661 0.0626853 28.354C-0.412317 35.5765 1.82872 42.9351 6.22351 48.586C7.342 50.0256 8.88271 51.6724 10.1616 52.7952C18.1818 59.837 29.1698 62.1051 39.3113 58.8157C46.1278 56.6045 52.0227 51.8957 55.7557 45.6844C59.5598 39.3553 60.8772 31.7064 59.4218 24.4047C58.3865 19.2107 56.0338 14.4613 52.5017 10.4389C51.8136 9.6551 50.1369 8.0043 49.3838 7.37078C44.7149 3.43769 39.1875 1.08434 33.0632 0.424422C32.0015 0.306653 28.9993 0.25589 27.9214 0.33508ZM32.1822 2.53412C35.8807 2.82651 39.2321 3.73618 42.4638 5.32606C50.8392 9.4419 56.6509 17.5233 57.8628 26.7377C58.9792 35.2395 56.1962 43.6965 50.2485 49.8672C46.2252 54.042 40.8845 56.905 35.1905 57.9405C26.2629 59.5649 17.1892 56.8055 10.6833 50.4886C5.70588 45.656 2.79496 39.3919 2.25906 32.3663C2.16772 31.1785 2.21847 28.5469 2.35447 27.3733C2.9533 22.2036 4.80865 17.5659 7.91241 13.4806C9.01871 12.0227 10.801 10.1505 12.159 9.01955C16.6878 5.24687 22.128 3.01941 27.9823 2.54021C28.912 2.46508 31.2626 2.46305 32.1822 2.53412Z" fill="#0377A3"/>
<path d="M38.3301 39.9459C39.4158 39.6191 40.5 39.2907 41.5873 38.9684C42.3589 38.7399 43.1381 38.5886 43.9354 38.8428C45.1555 39.2302 45.6357 40.4377 44.9109 41.4938C44.5847 41.969 44.106 42.4002 43.6017 42.6816C41.2792 43.9784 38.9432 45.257 36.5694 46.4584C35.0246 47.2407 33.3998 47.8641 31.8218 48.5813C30.2105 49.3136 28.5359 49.3954 26.8084 49.1971C22.3749 48.6918 18.0501 47.6659 13.76 46.472C13.6649 46.4448 13.5683 46.4206 13.4746 46.3858C13.0911 46.2465 12.9205 45.9454 13.0201 45.5899C13.1228 45.2222 13.4565 45.0391 13.8567 45.145C14.805 45.3947 15.7488 45.6579 16.6971 45.9046C19.6553 46.6748 22.6391 47.3269 25.6698 47.74C26.6695 47.8762 27.6857 47.9942 28.6899 47.973C29.4117 47.9579 30.1622 47.7914 30.8402 47.5327C35.0774 45.9167 39.0942 43.8407 42.9961 41.5392C43.274 41.3758 43.5367 41.1594 43.7451 40.9158C44.0864 40.5164 43.9384 40.1139 43.4174 40.0654C43.0158 40.0276 42.5794 40.0458 42.1958 40.1608C39.5291 40.9582 36.8699 41.7859 34.2137 42.6181C34.0989 42.6544 33.9645 42.836 33.9524 42.9616C33.8679 43.7998 33.3982 44.3067 32.6402 44.5927C31.633 44.971 30.579 44.9422 29.5567 44.8045C28.0678 44.6033 26.5955 44.2704 25.1202 43.9663C24.5418 43.8467 24.3228 43.3156 24.643 42.9116C24.8408 42.6604 25.096 42.6256 25.4086 42.6922C26.6166 42.9525 27.8201 43.2536 29.0418 43.4155C29.9493 43.535 30.8825 43.4896 31.8021 43.4624C32.1208 43.4533 32.5285 43.3807 32.613 42.9646C32.7021 42.5273 32.5073 42.1233 32.1177 41.9614C31.3627 41.6467 30.5835 41.3698 29.7922 41.173C28.9527 40.9642 28.0693 40.9294 27.2357 40.7055C26.5743 40.5269 25.922 40.241 25.3316 39.8914C24.276 39.268 23.2552 38.5902 22.0336 38.3254C19.8652 37.8548 17.7617 38.171 15.7005 38.8913C15.1387 39.088 14.5951 39.3407 14.0485 39.5797C13.609 39.7719 13.224 39.6781 13.0624 39.321C12.9054 38.9715 13.0564 38.6234 13.4656 38.4146C14.7023 37.7837 16.0055 37.3449 17.363 37.0695C17.6107 37.0195 17.7239 36.9484 17.7753 36.6897C17.9021 36.0481 18.0848 35.4171 18.2071 34.7741C18.2343 34.6318 18.1452 34.4139 18.0365 34.311C17.4431 33.7557 16.827 33.2246 16.2154 32.689C15.3275 31.9112 15.3124 31.0139 16.1791 30.1984C16.7605 29.6506 17.3358 29.0953 17.9293 28.5597C18.1286 28.3796 18.1694 28.2207 18.0788 27.9665C17.7934 27.1767 17.5291 26.3793 17.2679 25.5818C16.9463 24.5998 17.3691 23.8069 18.3672 23.5512C19.1781 23.3424 19.9966 23.1593 20.815 22.9747C21.0762 22.9157 21.2167 22.8083 21.2665 22.5087C21.4039 21.681 21.5912 20.8609 21.7603 20.0378C21.9596 19.0633 22.7509 18.5715 23.7022 18.8439C24.5222 19.0784 25.3406 19.313 26.1515 19.5763C26.4112 19.661 26.5683 19.6201 26.742 19.4174C27.278 18.7879 27.8322 18.1721 28.3773 17.5502C29.084 16.7422 30.0097 16.7195 30.7481 17.4972C31.2978 18.0768 31.8565 18.6502 32.3805 19.2524C32.6145 19.5218 32.8214 19.5611 33.1506 19.437C33.8951 19.1556 34.6546 18.915 35.4097 18.6654C36.4048 18.337 37.2036 18.7713 37.4588 19.7911C37.6551 20.5779 37.8333 21.3708 38.01 22.1622C38.0734 22.4466 38.1625 22.6222 38.5143 22.6751C39.3282 22.7962 40.1301 22.9944 40.9379 23.1593C41.9316 23.3621 42.4178 24.158 42.1354 25.1415C41.9029 25.948 41.6764 26.7575 41.4136 27.5549C41.3215 27.8349 41.3789 27.9953 41.5933 28.1768C42.2139 28.7019 42.8164 29.2481 43.425 29.7868C44.2465 30.5131 44.2646 31.4316 43.4643 32.1927C42.8648 32.7631 42.2653 33.3351 41.6552 33.8919C41.474 34.0568 41.4211 34.2021 41.5102 34.4442C41.7956 35.234 42.0554 36.033 42.3181 36.8304C42.6624 37.879 42.1581 38.7188 41.0844 38.9215C40.3732 39.0562 39.6589 39.1893 38.9598 39.3739C38.7016 39.442 38.4811 39.6524 38.244 39.7976C38.2727 39.8476 38.3014 39.8975 38.3301 39.9459ZM19.1117 36.7139C20.137 36.8107 21.12 36.8501 22.0834 37.0059C23.441 37.2253 24.6324 37.8744 25.7589 38.6386C26.4399 39.1001 27.1618 39.4269 27.9908 39.5343C28.8349 39.6433 29.679 39.7855 30.5095 39.9731C31.5666 40.2107 32.613 40.4952 33.4043 41.3244C33.4723 41.3955 33.667 41.3925 33.7818 41.3577C34.7347 41.0717 35.6799 40.7645 36.6328 40.48C36.8457 40.4165 36.9091 40.3181 36.9257 40.0942C37.0012 39.0759 37.5992 38.3632 38.5823 38.1211C39.2995 37.944 40.0213 37.7837 40.7492 37.6596C41.1086 37.5975 41.166 37.4598 41.0527 37.1421C40.7734 36.3507 40.5091 35.5533 40.2448 34.7559C40.0259 34.0977 40.1512 33.5242 40.6676 33.0415C41.2837 32.4681 41.8817 31.8749 42.5054 31.3105C42.7591 31.0805 42.7696 30.9277 42.5008 30.7007C41.8576 30.159 41.2354 29.5916 40.6027 29.0378C40.0742 28.5748 39.9247 28.0059 40.1255 27.3371C40.3702 26.5185 40.6012 25.6968 40.8624 24.8843C40.9561 24.5938 40.9093 24.4773 40.5936 24.4213C39.7556 24.2715 38.922 24.0884 38.087 23.9189C37.4074 23.7812 36.9741 23.3878 36.8125 22.7009C36.6222 21.8838 36.4017 21.0712 36.2356 20.2496C36.1586 19.8668 36.0046 19.8305 35.6754 19.95C34.9144 20.2254 34.1442 20.4751 33.3771 20.7338C32.69 20.9653 32.0966 20.8488 31.5937 20.2965C31.0652 19.7155 30.5201 19.1511 29.981 18.5821C29.5793 18.1585 29.5793 18.16 29.1837 18.6154C28.6778 19.1965 28.1644 19.7714 27.6631 20.3555C27.1814 20.9154 26.5985 21.0758 25.8978 20.8579C25.1519 20.6264 24.4014 20.407 23.6539 20.1815C23.0967 20.0135 23.0921 20.0135 22.9744 20.5991C22.8203 21.3663 22.6739 22.1365 22.5213 22.9051C22.3854 23.5845 22.0019 24.0294 21.3133 24.1898C20.4843 24.385 19.6583 24.5968 18.8247 24.7753C18.5046 24.8434 18.4291 24.9781 18.5348 25.2792C18.8097 26.0585 19.0648 26.8438 19.3336 27.623C19.5783 28.3312 19.4454 28.9334 18.8852 29.4464C18.2751 30.0047 17.6877 30.5888 17.0761 31.1456C16.836 31.3635 16.836 31.5133 17.0837 31.7236C17.7043 32.2487 18.2977 32.8055 18.9214 33.3275C19.4862 33.8011 19.6643 34.3791 19.4892 35.0873C19.3533 35.635 19.2325 36.1903 19.1117 36.7139Z" fill="#0377A3"/>
<path d="M30.2002 14.8872C30.2002 15.1868 30.2168 15.4879 30.1957 15.786C30.167 16.2172 29.9012 16.4714 29.5222 16.4639C29.1628 16.4563 28.897 16.2081 28.8834 15.7981C28.8623 15.1853 28.8608 14.5694 28.8849 13.9566C28.9 13.5511 29.1764 13.2999 29.5327 13.2969C29.8891 13.2939 30.1458 13.5435 30.1972 13.9445C30.2002 13.9733 30.2017 14.002 30.2017 14.0308C30.2017 14.3167 30.2017 14.6027 30.2017 14.8872C30.2017 14.8872 30.2017 14.8872 30.2002 14.8872Z" fill="#0377A3"/>
<path d="M21.7869 18.6521C21.6872 18.5689 21.4637 18.4524 21.3444 18.2693C21.0273 17.782 20.7479 17.2706 20.4671 16.7607C20.2511 16.3688 20.3463 15.992 20.683 15.8059C21.0107 15.6258 21.355 15.7287 21.5845 16.107C21.8941 16.6169 22.1961 17.1299 22.4754 17.6565C22.7352 18.1437 22.4241 18.6733 21.7869 18.6521Z" fill="#0377A3"/>
<path d="M45.1898 22.464C45.1143 22.5548 44.9995 22.7773 44.8183 22.8968C44.3215 23.2236 43.8005 23.5141 43.2796 23.8016C42.9066 24.0089 42.5472 23.9136 42.3569 23.5898C42.1712 23.2736 42.2723 22.8938 42.6287 22.6774C43.1376 22.3687 43.6495 22.0646 44.1735 21.7831C44.6628 21.5198 45.1913 21.8104 45.1898 22.464Z" fill="#0377A3"/>
<path d="M38.7949 16.1944C38.7722 16.261 38.7466 16.3896 38.6862 16.4971C38.4023 17.0055 38.1154 17.5108 37.8164 18.0102C37.5838 18.3975 37.2123 18.5035 36.8801 18.3007C36.5615 18.1055 36.4754 17.7454 36.6838 17.3716C36.9798 16.839 37.2848 16.3094 37.6034 15.7889C37.765 15.5271 38.0127 15.4016 38.3313 15.4984C38.6439 15.5967 38.7919 15.8131 38.7949 16.1944Z" fill="#0377A3"/>
<path d="M17.0719 23.5792C17.0628 24.189 16.5992 24.5097 16.1719 24.2918C15.5799 23.9907 15.0061 23.6488 14.4413 23.2962C14.1257 23.0995 14.0699 22.7348 14.2511 22.4352C14.4278 22.1417 14.7781 22.0252 15.1012 22.1992C15.663 22.5003 16.2187 22.815 16.7532 23.1615C16.9224 23.2705 17.013 23.4975 17.0719 23.5792Z" fill="#0377A3"/>
<path d="M15.0102 36.2309C14.8486 36.0584 14.601 35.895 14.5074 35.668C14.3835 35.3669 14.5119 35.0371 14.8396 34.9327C15.4994 34.7208 16.1714 34.5453 16.8479 34.3955C17.1832 34.3214 17.4248 34.5272 17.5275 34.8464C17.6286 35.1581 17.5214 35.4668 17.2345 35.5682C16.5444 35.8163 15.8286 35.9934 15.0102 36.2309Z" fill="#0377A3"/>
<path d="M46.0334 30.2538C46.3459 30.2538 46.66 30.2402 46.9726 30.2568C47.3607 30.2765 47.5872 30.5156 47.5947 30.8757C47.6038 31.2449 47.3577 31.5309 46.9666 31.543C46.3414 31.5626 45.7132 31.5611 45.0881 31.5445C44.7015 31.5339 44.4297 31.2434 44.4297 30.8938C44.4297 30.5428 44.7 30.2825 45.0926 30.2538C45.1213 30.2523 45.15 30.2508 45.1787 30.2508C45.4641 30.2508 45.748 30.2508 46.0334 30.2508C46.0334 30.2523 46.0334 30.2523 46.0334 30.2538Z" fill="#0377A3"/>
<path d="M13.5916 32.0627C13.279 32.0627 12.9649 32.0748 12.6524 32.0597C12.2552 32.04 12.003 31.7798 12 31.4136C11.997 31.0338 12.2235 30.7811 12.6418 30.7675C13.267 30.7478 13.8951 30.7478 14.5203 30.769C14.9114 30.7811 15.1772 31.0777 15.1666 31.4242C15.156 31.7737 14.8812 32.0415 14.4901 32.0597C14.1896 32.0733 13.8906 32.0627 13.5916 32.0627Z" fill="#0377A3"/>
<path d="M18.9808 19.9653C19.2133 20.1 19.39 20.1636 19.5168 20.2816C19.8913 20.6311 20.2507 20.9958 20.6056 21.3635C20.9166 21.6873 20.9318 22.0822 20.663 22.35C20.3836 22.6284 20.0197 22.6148 19.6845 22.291C19.3054 21.9263 18.9068 21.5723 18.5836 21.1622C18.4447 20.9867 18.3828 20.6523 18.4477 20.4405C18.5051 20.2528 18.7845 20.1303 18.9808 19.9653Z" fill="#0377A3"/>
<path d="M32.373 17.9932C32.5074 17.5075 32.6493 16.9007 32.8471 16.3121C32.9619 15.9732 33.2669 15.8566 33.6112 15.952C33.9404 16.0428 34.1337 16.2924 34.0627 16.6238C33.9298 17.2457 33.7667 17.863 33.5674 18.4653C33.4632 18.7785 33.1748 18.9116 32.8411 18.8193C32.4953 18.7225 32.3337 18.4789 32.373 17.9932Z" fill="#0377A3"/>
<path d="M44.8525 27.1786C44.7635 27.2694 44.623 27.5312 44.4131 27.6083C43.8574 27.8126 43.2776 27.9563 42.6992 28.085C42.3474 28.1636 42.0831 27.973 41.9759 27.6371C41.8657 27.2936 41.9955 26.9804 42.3293 26.8669C42.9303 26.6641 43.5479 26.4977 44.17 26.3676C44.5385 26.2919 44.8525 26.6263 44.8525 27.1786Z" fill="#0377A3"/>
<path d="M25.8503 16.0509C25.9454 16.1493 26.1991 16.3021 26.2776 16.5169C26.4709 17.0465 26.6008 17.6019 26.7231 18.1541C26.8122 18.5581 26.6159 18.8698 26.2761 18.9485C25.8956 19.0378 25.586 18.8577 25.4667 18.4477C25.3112 17.9181 25.1662 17.384 25.0409 16.8468C24.9412 16.4246 25.2764 16.0327 25.8503 16.0509Z" fill="#0377A3"/>
<path d="M44.1737 35.4242C43.6814 35.2865 43.0578 35.1413 42.4553 34.9325C42.1155 34.8145 42.0098 34.4967 42.12 34.1532C42.2242 33.8279 42.4825 33.6448 42.8116 33.7159C43.4081 33.8461 43.997 34.0095 44.5784 34.1956C44.8985 34.2985 45.042 34.5693 44.9861 34.9083C44.9302 35.2412 44.6539 35.4394 44.1737 35.4242Z" fill="#0377A3"/>
<path d="M17.5128 27.9867C17.5174 28.3333 17.1957 28.6495 16.7835 28.5663C16.1855 28.4467 15.592 28.2909 15.0122 28.1002C14.6845 27.9928 14.526 27.7068 14.6211 27.3452C14.7147 26.9866 15.0499 26.7853 15.4139 26.8746C15.9514 27.0078 16.486 27.153 17.0175 27.3074C17.3211 27.3966 17.4977 27.6039 17.5128 27.9867Z" fill="#0377A3"/>
<path d="M40.9333 20.2962C40.8109 20.5232 40.7551 20.7062 40.6373 20.8333C40.2809 21.2192 39.9064 21.5899 39.5259 21.9531C39.2058 22.2587 38.8584 22.2663 38.5821 21.9969C38.3043 21.7276 38.3012 21.366 38.6017 21.0512C38.9838 20.6503 39.3598 20.2357 39.7886 19.8892C39.9517 19.7575 40.2794 19.7182 40.4833 19.7848C40.663 19.8438 40.7777 20.1086 40.9333 20.2962Z" fill="#0377A3"/>
<path d="M25.1785 35.8194C25.3537 34.792 25.5167 33.6632 25.7493 32.548C25.8625 32.0063 25.7765 31.6386 25.3446 31.2588C24.5322 30.5431 23.7862 29.7518 23.0055 28.9982C22.773 28.7743 22.5737 28.4989 22.7428 28.2129C22.8666 28.0011 23.1505 27.7983 23.3906 27.756C24.6228 27.5396 25.8656 27.3852 27.1008 27.1855C27.2457 27.1628 27.4224 27.0236 27.4919 26.8904C28.0491 25.7995 28.5867 24.6979 29.1243 23.5964C29.2692 23.2998 29.4414 23.0547 29.8204 23.0653C30.1768 23.0759 30.3368 23.3119 30.4742 23.5934C31.0058 24.6813 31.5479 25.7647 32.0749 26.8556C32.1761 27.0645 32.2818 27.1719 32.537 27.2052C33.7208 27.355 34.9017 27.5396 36.0826 27.7136C36.4133 27.762 36.747 27.8256 36.8693 28.1993C36.9901 28.5685 36.7787 28.8182 36.531 29.0572C35.6899 29.8698 34.8594 30.6959 34.0138 31.504C33.813 31.6961 33.7284 31.8595 33.7888 32.1652C34.0153 33.3106 34.198 34.4651 34.3883 35.6181C34.4442 35.9571 34.503 36.3096 34.1557 36.5532C33.8281 36.7832 33.5396 36.6319 33.2421 36.4715C32.2002 35.9147 31.1492 35.3745 30.1118 34.8116C29.8838 34.6876 29.7056 34.6936 29.4821 34.8147C28.3919 35.4018 27.2986 35.9813 26.1978 36.5472C25.6179 36.8483 25.1528 36.5502 25.1785 35.8194ZM26.6734 34.8268C27.6081 34.3335 28.4447 33.9098 29.2617 33.4513C29.6407 33.2395 29.9699 33.2456 30.3413 33.4559C30.9469 33.7994 31.569 34.1141 32.1851 34.4394C32.401 34.5529 32.6215 34.6588 32.9145 34.8041C32.7378 33.754 32.5913 32.7992 32.4086 31.852C32.3407 31.5009 32.4222 31.2437 32.6683 31.0046C33.3026 30.3903 33.9337 29.7699 34.5619 29.1495C34.6359 29.0769 34.6933 28.9891 34.796 28.862C33.8945 28.7259 33.0579 28.5519 32.2153 28.4883C31.5751 28.4399 31.2187 28.169 30.9726 27.5865C30.6373 26.7966 30.219 26.0416 29.7962 25.1882C29.3266 26.1384 28.8902 26.9949 28.481 27.8649C28.3179 28.2114 28.0733 28.3945 27.7033 28.4429C27.2382 28.5019 26.7746 28.5685 26.3095 28.6366C25.8187 28.7092 25.3295 28.7879 24.8599 28.8605C25.4503 29.4824 25.9713 30.1149 26.5798 30.6445C27.1355 31.1272 27.2895 31.6235 27.1098 32.3331C26.9105 33.1139 26.8259 33.9234 26.6734 34.8268Z" fill="#0377A3"/>
</svg>
