<svg width="30" height="31" viewBox="0 0 30 31" fill="none" xmlns="http://www.w3.org/2000/svg">
<path d="M9.375 11.4842C9.44299 13.2013 10.6294 14.8619 11.6289 16.2037C12.5434 17.4259 13.6109 18.5352 14.8143 19.485C15.5792 20.0895 16.3951 20.6342 17.2688 21.0792C17.7992 21.3516 18.1527 21.5176 18.768 21.3449C19.7131 21.0825 21.8855 19.9932 21.5217 18.8042C21.3381 18.1997 20.5834 17.6085 20.1075 17.2233C19.533 16.7616 18.5233 15.9446 17.8468 16.7052C17.4422 17.0838 17.0241 17.954 16.3917 18.0171C15.7118 18.0802 15.1101 17.313 14.6885 16.8945C13.995 16.207 13.3695 15.4564 12.812 14.6593C12.2884 13.8257 12.9412 13.4836 13.5769 13.0286C13.8658 12.8227 14.2364 12.6267 14.3758 12.2846C14.641 11.6503 14.0188 10.8631 13.6619 10.3749C13.3253 9.91327 12.9378 9.49148 12.506 9.11286C11.9485 8.618 11.3298 9.0099 10.8572 9.40513C10.2045 9.94981 9.65717 10.6838 9.375 11.4842Z" fill="#0076A2"/>
<circle cx="15" cy="15.5" r="14.6201" stroke="#0076A2" stroke-width="0.75982"/>
</svg>
