<svg width="60" height="61" viewBox="0 0 60 61" fill="none" xmlns="http://www.w3.org/2000/svg">
<path d="M27.9214 0.33508C21.584 0.798035 15.689 3.1717 10.7746 7.24083C9.85504 8.00227 7.70941 10.1485 6.96646 11.0501C2.83962 16.0553 0.48288 21.9661 0.0626853 28.354C-0.412317 35.5765 1.82872 42.9351 6.22351 48.586C7.342 50.0256 8.88271 51.6724 10.1616 52.7952C18.1818 59.837 29.1698 62.1051 39.3113 58.8157C46.1278 56.6045 52.0227 51.8957 55.7557 45.6844C59.5598 39.3553 60.8772 31.7064 59.4218 24.4047C58.3865 19.2107 56.0338 14.4613 52.5017 10.4389C51.8136 9.6551 50.1369 8.0043 49.3838 7.37078C44.7149 3.43769 39.1875 1.08434 33.0632 0.424422C32.0015 0.306653 28.9993 0.25589 27.9214 0.33508ZM32.1822 2.53412C35.8807 2.82651 39.2321 3.73618 42.4638 5.32606C50.8392 9.4419 56.6509 17.5233 57.8628 26.7377C58.9792 35.2395 56.1962 43.6965 50.2485 49.8672C46.2252 54.042 40.8845 56.905 35.1905 57.9405C26.2629 59.5649 17.1892 56.8055 10.6833 50.4886C5.70588 45.656 2.79496 39.3919 2.25906 32.3663C2.16772 31.1785 2.21847 28.5469 2.35447 27.3733C2.9533 22.2036 4.80865 17.5659 7.91241 13.4806C9.01871 12.0227 10.801 10.1505 12.159 9.01955C16.6878 5.24687 22.128 3.01941 27.9823 2.54021C28.912 2.46508 31.2626 2.46305 32.1822 2.53412Z" fill="#0377A3"/>
<path d="M14.038 38.4621C15.1361 41.1342 16.8291 43.3137 19.0795 45.0442C29.7053 53.2192 45.7983 47.0817 47.7272 33.4582C47.8295 32.7359 47.8963 32.0074 47.9339 31.2788C47.9652 30.6672 48.0174 30.0409 48.7961 30.0534C49.5977 30.0659 49.4871 30.7507 49.4745 31.2746C49.3597 35.9738 47.7272 40.1051 44.6209 43.6017C40.2266 48.5493 34.6486 50.8206 28.0853 50.1379C21.5491 49.4574 16.5348 46.1423 13.1174 40.4913C12.8565 40.0612 12.6164 39.6207 12.3033 39.0759C11.7125 40.3597 11.1697 41.5225 10.6457 42.6936C10.4098 43.2197 10.1322 43.75 9.46627 43.4723C8.78572 43.1905 8.98613 42.6143 9.21994 42.0966C10.0195 40.3326 10.8315 38.577 11.6144 36.8046C11.9004 36.1554 12.2824 35.9571 12.9567 36.266C14.7729 37.101 16.5995 37.911 18.4261 38.721C18.9188 38.9402 19.2674 39.2471 19.0169 39.8191C18.7497 40.4286 18.2612 40.2616 17.8019 40.0654C16.5452 39.531 15.2927 38.9966 14.038 38.4621Z" fill="#0377A3"/>
<path d="M47.7257 22.5196C48.3791 21.0875 48.8884 19.8601 49.5084 18.6889C49.6817 18.3612 50.2433 17.952 50.5167 18.0209C51.1952 18.1921 51.1284 18.7703 50.8695 19.3319C50.0449 21.1189 49.2245 22.9079 48.4292 24.7074C48.1306 25.3817 47.7298 25.4965 47.0722 25.198C45.254 24.3692 43.4211 23.5718 41.584 22.7847C41.0433 22.553 40.7636 22.1439 41.0872 21.6867C41.2563 21.4487 41.8846 21.3214 42.1999 21.4362C43.4983 21.91 44.755 22.4967 46.2143 23.1229C44.9638 20.4195 43.2603 18.3215 41.083 16.6348C30.5032 8.44105 15.1951 14.0608 12.4395 27.1436C12.2244 28.1644 12.1576 29.2207 12.0533 30.2624C11.9948 30.8323 12.0929 31.5191 11.2287 31.4669C10.3477 31.4127 10.5439 30.6737 10.5627 30.1476C10.6984 25.9537 12.0428 22.1731 14.6189 18.8643C17.8525 14.7121 22.1049 12.1173 27.303 11.4659C35.8557 10.395 43.1894 14.495 47.1203 21.409C47.2894 21.7055 47.448 22.0103 47.7257 22.5196Z" fill="#0377A3"/>
<path d="M29.9469 38.8232C25.5233 38.7877 21.8784 35.0489 21.9223 30.5899C21.964 26.3751 25.7571 22.6529 29.9907 22.6759C34.4435 22.7009 38.1489 26.4335 38.0863 30.832C38.0258 35.2514 34.3496 38.8587 29.9469 38.8232ZM36.5039 30.7297C36.4497 26.8928 33.6189 24.1455 29.7924 24.2165C26.2811 24.2812 23.4608 27.2226 23.4859 30.7903C23.513 34.5562 26.3604 37.3202 30.141 37.2492C33.8778 37.1782 36.5582 34.431 36.5039 30.7297Z" fill="#0377A3"/>
<path d="M29.7044 32.5502C30.4935 31.2371 31.2743 29.9387 32.053 28.6381C32.3264 28.1809 32.627 27.7321 33.247 28.0891C33.8357 28.4273 33.5915 28.9074 33.3556 29.327C32.5498 30.7633 31.7169 32.1828 30.9131 33.6191C30.5102 34.3372 29.9925 34.4979 29.2702 34.0929C28.692 33.7673 28.0908 33.4813 27.5021 33.1765C27.0532 32.9448 26.6315 32.665 26.9092 32.0784C27.214 31.4313 27.7275 31.6338 28.2097 31.8509C28.6961 32.0701 29.1742 32.3018 29.7044 32.5502Z" fill="#0377A3"/>
</svg>
