<svg width="60" height="61" viewBox="0 0 60 61" fill="none" xmlns="http://www.w3.org/2000/svg">
<path d="M27.9214 0.33508C21.584 0.798035 15.689 3.1717 10.7746 7.24083C9.85504 8.00227 7.70941 10.1485 6.96646 11.0501C2.83962 16.0553 0.48288 21.9661 0.0626853 28.354C-0.412317 35.5765 1.82872 42.9351 6.22351 48.586C7.342 50.0256 8.88271 51.6724 10.1616 52.7952C18.1818 59.837 29.1698 62.1051 39.3113 58.8157C46.1278 56.6045 52.0227 51.8957 55.7557 45.6844C59.5598 39.3553 60.8772 31.7064 59.4218 24.4047C58.3865 19.2107 56.0338 14.4613 52.5017 10.4389C51.8136 9.6551 50.1369 8.0043 49.3838 7.37078C44.7149 3.43769 39.1875 1.08434 33.0632 0.424422C32.0015 0.306653 28.9993 0.25589 27.9214 0.33508ZM32.1822 2.53412C35.8807 2.82651 39.2321 3.73618 42.4638 5.32606C50.8392 9.4419 56.6509 17.5233 57.8628 26.7377C58.9792 35.2395 56.1962 43.6965 50.2485 49.8672C46.2252 54.042 40.8845 56.905 35.1905 57.9405C26.2629 59.5649 17.1892 56.8055 10.6833 50.4886C5.70588 45.656 2.79496 39.3919 2.25906 32.3663C2.16772 31.1785 2.21847 28.5469 2.35447 27.3733C2.9533 22.2036 4.80865 17.5659 7.91241 13.4806C9.01871 12.0227 10.801 10.1505 12.159 9.01955C16.6878 5.24687 22.128 3.01941 27.9823 2.54021C28.912 2.46508 31.2626 2.46305 32.1822 2.53412Z" fill="#0377A3"/>
<path d="M33.2685 47.3658C31.7808 46.5056 31.012 45.0291 30.1229 43.6584C29.85 43.238 29.6221 42.787 29.3349 42.2846C28.9657 42.5061 28.6078 42.7083 28.2596 42.9282C26.8938 43.7901 25.5488 43.7162 24.2489 42.803C23.005 41.9299 22.1946 40.7279 21.8383 39.2593C21.5702 38.1552 21.697 37.0638 22.4915 36.1843C23.8797 34.6484 25.3306 33.1671 26.7188 31.6295C28.5725 29.5752 29.9672 27.2513 30.7328 24.5647C31.2784 22.65 32.2221 22.2632 34.002 23.2245C36.0531 24.3319 37.5858 26.0348 39.0254 27.8162C40.8149 30.0342 42.4359 32.3694 43.1773 35.1748C43.3667 35.8938 43.3523 36.6899 43.3089 37.4426C43.2656 38.1937 42.744 38.6543 42.0154 38.7345C41.0701 38.8389 40.1151 38.8806 39.1634 38.8902C37.2584 38.9095 35.4272 39.2738 33.6698 39.9944C33.4387 40.0891 33.0904 40.3459 33.1048 40.5016C33.1337 40.8258 33.3472 41.1451 33.5205 41.4453C33.7452 41.8336 33.9811 42.2188 34.254 42.5719C34.4754 42.8576 34.7146 43.2187 35.0243 43.331C35.907 43.652 36.1831 44.0661 35.883 44.9488C35.5427 45.9503 34.981 46.7945 34.0646 47.3642C33.7998 47.3658 33.5333 47.3658 33.2685 47.3658ZM39.4459 37.7523C35.6165 34.7607 32.9604 31.0758 31.2848 26.5804C31.1436 26.9207 31.0329 27.1614 30.9414 27.4086C30.1903 29.4308 29.0765 31.1994 27.5052 32.7C26.1234 34.0209 24.801 35.4091 23.5154 36.8247C23.1671 37.2083 22.8911 37.7892 22.8558 38.2996C22.7563 39.7489 24.1638 41.7855 25.5488 42.2092C26.0367 42.3585 26.6578 42.3151 27.1474 42.1482C27.7877 41.9299 28.3767 41.5319 28.9497 41.1548C29.5387 40.7664 29.8805 40.9092 30.2208 41.4966C30.8981 42.6666 31.5962 43.8286 32.3618 44.9408C32.694 45.4223 33.2156 45.7721 33.6505 46.1814C34.0453 45.6742 34.4417 45.1671 34.8301 44.6551C34.851 44.6262 34.8189 44.5572 34.7948 44.4015C33.7275 44.4577 33.2798 43.8238 33.1674 42.8094C33.145 42.6072 32.8721 42.4082 32.6779 42.2525C31.9076 41.6282 31.9332 40.7712 31.9878 39.9142C32.0295 39.2529 32.6266 39.2176 33.0743 39.0298C35.0644 38.1889 37.1509 37.7941 39.4459 37.7523ZM32.3601 23.7237C32.2671 23.8119 32.174 23.9002 32.0809 23.9885C31.9814 26.2675 33.1305 28.142 34.1191 30.1016C35.5475 29.5817 36.8186 29.7373 37.7928 30.8736C38.8922 32.1559 38.3208 33.5089 37.7045 35.0047C38.8489 35.8007 39.99 36.6546 41.192 37.4089C41.9239 37.8679 42.3155 37.587 42.3299 36.7091C42.3331 36.4732 42.2978 36.2325 42.2529 35.9997C41.8982 34.138 40.9802 32.5283 39.9611 30.9747C38.3802 28.5657 36.5955 26.3285 34.2187 24.6497C33.6601 24.2549 32.9829 24.0286 32.3601 23.7237Z" fill="#0377A3"/>
<path d="M10 26.2836C10.4317 25.2228 11.1925 24.7605 12.3576 24.8215C13.6175 24.8873 14.176 24.4042 14.42 23.162C14.4537 22.9887 14.3012 22.7062 14.1487 22.5794C12.4668 21.1751 12.3287 20.0164 14.2595 18.336C14.6398 18.0054 14.9688 17.617 15.3396 17.2752C16.2175 16.4631 17.1564 16.4599 18.031 17.2559C18.2862 17.4886 18.5559 17.7149 18.7677 17.9829C19.1208 18.4291 19.461 18.3697 19.9923 18.2413C21.0306 17.9894 21.2505 17.4308 21.2104 16.4454C21.1542 15.0732 21.9663 14.3285 23.3177 14.3093C24.141 14.298 24.9643 14.2868 25.786 14.3125C26.9913 14.351 27.6847 15.0748 27.7216 16.2801C27.7248 16.3604 27.7232 16.439 27.7232 16.5193C27.7376 18.1226 27.805 18.2269 29.3458 18.6971C29.4998 18.7437 29.7486 18.6634 29.8802 18.5543C30.2076 18.2863 30.4756 17.946 30.7966 17.67C31.5557 17.02 32.5251 16.9734 33.2602 17.6331C34.0241 18.32 34.7142 19.0919 35.4124 19.8671C34.4799 19.4531 33.334 19.5702 32.6246 18.5976C32.3101 18.1659 31.7756 18.1611 31.4691 18.6217C30.4451 20.1512 29.2976 20.2154 27.7697 19.2829C26.6768 18.6153 26.5869 18.7645 26.5869 17.4036C26.5869 15.4375 26.5869 15.444 24.6353 15.4359C22.2616 15.4231 22.2793 15.2786 22.3419 17.7246C22.3595 18.3842 22.1685 18.7453 21.4897 18.909C20.8798 19.055 20.2876 19.3134 19.7194 19.5895C19.2604 19.8126 18.9298 19.7532 18.5896 19.3937C18.1707 18.9491 17.7197 18.535 17.2864 18.1049C16.8899 17.7117 16.4887 17.7229 16.1035 18.1033C15.4792 18.7196 14.8629 19.3439 14.2547 19.9731C13.8935 20.347 13.924 20.7274 14.29 21.0901C14.6864 21.4833 15.0684 21.8909 15.4744 22.2729C15.8451 22.6212 15.8756 22.9646 15.6188 23.4044C15.3396 23.8826 15.0395 24.377 14.903 24.905C14.6719 25.8086 14.1391 26.0092 13.2773 25.9803C11.0849 25.9065 11.1042 25.8118 11.1234 28.1453C11.1411 30.2478 11.1283 30.2863 13.2291 30.2301C14.0556 30.2077 14.5114 30.4067 14.6495 31.2797C14.7265 31.766 14.9351 32.2571 15.1903 32.6808C15.5707 33.3132 15.4263 33.761 14.9014 34.2007C14.5564 34.4896 14.2723 34.8507 13.9353 35.1492C13.4089 35.613 13.3623 36.056 13.8855 36.5583C14.4216 37.0735 14.9367 37.6112 15.4503 38.1504C15.9511 38.6768 16.4374 38.7138 16.9397 38.1552C17.1355 37.9386 17.3297 37.7155 17.5544 37.5309C17.954 37.2019 18.1707 36.5792 18.9234 36.8408C19.7355 37.1249 19.7002 37.7203 19.6504 38.3671C19.6055 38.3864 19.5397 38.4361 19.5172 38.4201C18.8271 37.929 18.3809 38.2483 17.8706 38.7876C16.6765 40.0523 15.7151 40.0202 14.4906 38.778C13.9497 38.2291 13.388 37.6978 12.8792 37.1217C12.1522 36.2983 12.096 35.2263 12.9611 34.5779C14.2049 33.6454 14.1921 32.668 13.4827 31.4884C13.4698 31.4675 13.4506 31.4499 13.3896 31.376C12.08 31.4306 10.6789 31.5397 10.0032 29.9541C10 28.7327 10 27.5082 10 26.2836Z" fill="#0377A3"/>
<path d="M28.0761 25.5097C25.4216 23.0125 22.3883 22.9788 20.3901 25.3701C18.8285 27.2398 18.583 30.7803 21.9886 32.841C21.3419 33.8313 21.313 33.8361 20.4062 33.1123C17.8752 31.0933 17.4242 27.2944 19.4143 24.7634C21.4349 22.1939 25.1519 21.7077 27.7327 23.6769C28.6844 24.4023 28.6844 24.4023 28.0761 25.5097Z" fill="#0377A3"/>
<path d="M37.1037 22.4553C36.4714 22.4505 36.1343 21.8968 36.4457 21.4474C37.2161 20.3352 38.0121 19.2359 38.8579 18.1814C39.0007 18.0033 39.5593 17.9359 39.7326 18.0691C39.9107 18.2055 40.0006 18.7512 39.8706 18.9454C39.1211 20.072 38.3026 21.1521 37.4889 22.2355C37.3926 22.3655 37.184 22.412 37.1037 22.4553Z" fill="#0377A3"/>
<path d="M43.0807 21.3611C42.9074 21.6018 42.7966 21.8105 42.6361 21.9693C41.8497 22.7542 41.0489 23.5245 40.2544 24.3013C39.9222 24.6255 39.5531 24.847 39.1647 24.4313C38.7988 24.0429 38.948 23.6738 39.3043 23.3367C40.1501 22.5375 40.9702 21.711 41.8321 20.9294C41.991 20.7865 42.3312 20.7127 42.5286 20.7801C42.7356 20.8507 42.8737 21.13 43.0807 21.3611Z" fill="#0377A3"/>
<path d="M48.9983 32.0425C48.7384 32.1629 48.4864 32.3121 48.2151 32.3972C47.058 32.7567 45.9008 33.1274 44.726 33.4195C44.5174 33.4709 44.0472 33.2045 44.0086 33.0199C43.9573 32.7727 44.1435 32.28 44.3409 32.2078C45.506 31.7889 46.6937 31.423 47.8958 31.1357C48.1526 31.0747 48.504 31.4118 48.8122 31.5658C48.8748 31.7231 48.9374 31.8836 48.9983 32.0425Z" fill="#0377A3"/>
<path d="M45.6928 24.7088C45.5997 24.8131 45.4617 25.0394 45.2611 25.1774C44.3463 25.805 43.4122 26.4052 42.4894 27.0215C42.0978 27.2831 41.6532 27.304 41.4895 26.8706C41.3916 26.609 41.5585 26.0682 41.7896 25.8932C42.6707 25.224 43.616 24.6334 44.5581 24.0476C45.1375 23.6849 45.7089 23.9641 45.6928 24.7088Z" fill="#0377A3"/>
<path d="M47.3515 28.3366C47.2359 28.4554 47.0835 28.7266 46.8588 28.8261C45.8653 29.2563 44.8639 29.6719 43.8367 30.009C43.612 30.0828 43.1193 29.8806 43.0326 29.6832C42.9428 29.4745 43.1113 28.9465 43.3071 28.855C44.331 28.3719 45.3903 27.9547 46.4576 27.5727C46.9358 27.401 47.2841 27.6192 47.3515 28.3366Z" fill="#0377A3"/>
</svg>
