<svg width="60" height="61" viewBox="0 0 60 61" fill="none" xmlns="http://www.w3.org/2000/svg">
<path d="M27.9214 0.33508C21.584 0.798035 15.689 3.1717 10.7746 7.24083C9.85504 8.00227 7.70941 10.1485 6.96646 11.0501C2.83962 16.0553 0.48288 21.9661 0.0626853 28.354C-0.412317 35.5765 1.82872 42.9351 6.22351 48.586C7.342 50.0256 8.88271 51.6724 10.1616 52.7952C18.1818 59.837 29.1698 62.1051 39.3113 58.8157C46.1278 56.6045 52.0227 51.8957 55.7557 45.6844C59.5598 39.3553 60.8772 31.7064 59.4218 24.4047C58.3865 19.2107 56.0338 14.4613 52.5017 10.4389C51.8136 9.6551 50.1369 8.0043 49.3838 7.37078C44.7149 3.43769 39.1875 1.08434 33.0632 0.424422C32.0015 0.306653 28.9993 0.25589 27.9214 0.33508ZM32.1822 2.53412C35.8807 2.82651 39.2321 3.73618 42.4638 5.32606C50.8392 9.4419 56.6509 17.5233 57.8628 26.7377C58.9792 35.2395 56.1962 43.6965 50.2485 49.8672C46.2252 54.042 40.8845 56.905 35.1905 57.9405C26.2629 59.5649 17.1892 56.8055 10.6833 50.4886C5.70588 45.656 2.79496 39.3919 2.25906 32.3663C2.16772 31.1785 2.21847 28.5469 2.35447 27.3733C2.9533 22.2036 4.80865 17.5659 7.91241 13.4806C9.01871 12.0227 10.801 10.1505 12.159 9.01955C16.6878 5.24687 22.128 3.01941 27.9823 2.54021C28.912 2.46508 31.2626 2.46305 32.1822 2.53412Z" fill="#0377A3"/>
<path d="M44.7987 33.4096C44.3638 33.8536 43.9634 34.3436 43.4776 34.7219C43.2643 34.8879 42.8737 34.8255 42.5636 34.8682C42.5997 34.5574 42.5209 34.1447 42.6916 33.9539C43.453 33.0955 44.2834 32.298 45.0941 31.4824C45.4994 31.0729 45.8654 31.1387 46.1739 31.6041C46.7794 32.5151 47.4063 33.4146 47.9577 34.3568C48.0792 34.564 47.9249 34.9323 47.897 35.2267C47.5967 35.1313 47.216 35.1198 47.0125 34.9225C46.6892 34.6117 46.4841 34.1776 46.1361 33.6563C46.0114 34.2877 45.9179 34.758 45.8243 35.23C44.4459 42.1348 38.9024 47.4561 31.9377 48.5595C23.7209 49.8618 15.5271 44.4633 13.4036 36.358C13.2887 35.9173 13.2149 35.4865 13.7285 35.3385C14.2684 35.1839 14.3833 35.6411 14.5129 36.0538C16.4018 42.1003 20.3518 46.0139 26.5895 47.267C34.5798 48.8719 42.3486 43.8927 44.4705 35.9913C44.6887 35.1774 44.8151 34.3404 44.9841 33.5132C44.9185 33.4787 44.8594 33.4442 44.7987 33.4096Z" fill="#0377A3"/>
<path d="M12.8574 30.1578C13.2053 27.0664 14.1473 24.4403 15.7752 22.0822C17.8085 19.1387 20.5081 17.0438 23.8739 15.8253C24.0774 15.7513 24.3055 15.6312 24.4975 15.6658C24.7043 15.7036 25.0193 15.8779 25.0407 16.0275C25.0702 16.2364 24.9291 16.5488 24.7568 16.6886C24.5352 16.8678 24.2086 16.9139 23.9329 17.029C18.1236 19.4479 14.9432 23.8713 14.1489 30.1381C14.4772 29.8109 14.766 29.4211 15.1467 29.1761C15.3765 29.0281 15.749 29.1071 16.0591 29.0824C16.028 29.3702 16.1018 29.75 15.9459 29.9276C15.301 30.6692 14.5887 31.3533 13.8962 32.0522C13.4695 32.483 13.0954 32.4123 12.7426 31.9338C12.1912 31.1856 11.5807 30.4769 11.0785 29.6991C10.9243 29.4606 11.0457 29.0429 11.0408 28.7075C11.3575 28.816 11.73 28.8538 11.9762 29.0512C12.2831 29.2978 12.4849 29.6744 12.8574 30.1578Z" fill="#0377A3"/>
<path d="M45.6594 27.5858C45.538 27.7173 45.4001 27.9985 45.2311 28.0183C45.0128 28.0446 44.7224 27.9097 44.5517 27.7502C44.4122 27.6203 44.4024 27.3506 44.3351 27.1434C42.7055 22.1445 39.4595 18.6912 34.5281 16.8495C34.451 16.8216 34.3476 16.8133 34.3033 16.7591C34.0916 16.4993 33.6977 16.1918 33.7371 15.9648C33.8192 15.4978 34.2442 15.5307 34.661 15.6688C36.6024 16.3102 38.3583 17.2869 39.9354 18.5844C42.6038 20.7813 44.4434 23.5406 45.4592 26.8491C45.5232 27.0579 45.5741 27.2701 45.6594 27.5858Z" fill="#0377A3"/>
<path d="M28.4381 16.6362C26.9546 15.5756 26.5 14.5446 26.9054 13.2258C27.2549 12.0895 28.3183 11.2936 29.4786 11.2969C30.6536 11.3002 31.6792 12.0714 32.0468 13.2291C32.4587 14.5232 31.9812 15.6036 30.6109 16.5655C31.1984 16.9289 31.8679 17.2348 32.4029 17.6969C33.5238 18.6654 33.6862 20.0073 33.5435 21.3803C33.5205 21.6023 33.0938 21.9509 32.8476 21.9559C30.6076 22.0003 28.3659 21.9772 26.1259 21.9871C25.5975 21.9888 25.4219 21.7355 25.3907 21.2323C25.2463 18.8249 26.0865 17.5209 28.4381 16.6362ZM32.3504 20.8064C32.4768 19.5616 32.032 18.6506 31.0884 18.1211C30.094 17.562 28.361 17.6558 27.5257 18.3546C26.7708 18.9844 26.4016 19.777 26.633 20.8081C28.5563 20.8064 30.4287 20.8064 32.3504 20.8064ZM31.0228 14.0151C31.0113 13.1583 30.286 12.4315 29.4556 12.4447C28.6433 12.4578 27.9064 13.2291 27.9163 14.0578C27.9261 14.903 28.6597 15.6233 29.4983 15.6118C30.3467 15.6003 31.0359 14.8784 31.0228 14.0151Z" fill="#0377A3"/>
<path d="M37.5839 34.9217C36.2004 33.9252 35.7623 32.9188 36.1282 31.6789C36.4351 30.6397 37.4165 29.8832 38.4996 29.8504C39.6385 29.8158 40.6493 30.5081 41.0252 31.5753C41.4584 32.807 41.058 33.8002 39.645 34.9348C41.0957 35.4479 42.0935 36.372 42.4201 37.9095C42.4365 37.9901 42.4676 38.0691 42.4709 38.1496C42.5776 40.1163 42.5087 40.0259 40.8725 40.0111C39.1248 39.9946 37.3771 39.9946 35.6277 40.0144C34.9713 40.0226 34.6923 39.7628 34.6808 39.0952C34.6431 37.0429 35.5571 35.6551 37.5839 34.9217ZM35.9067 38.7942C37.7447 38.7942 39.5252 38.7942 41.3025 38.7942C41.3238 37.1219 40.2063 36.0103 38.5849 36.0168C36.9602 36.0218 35.8771 37.1252 35.9067 38.7942ZM40.029 32.4222C40.006 31.6263 39.3168 30.9702 38.5406 31.0014C37.7529 31.0343 37.1194 31.7398 37.1654 32.5324C37.2097 33.2855 37.8874 33.94 38.6111 33.9285C39.3792 33.9186 40.052 33.2016 40.029 32.4222Z" fill="#0377A3"/>
<path d="M30.6375 34.8363C31.2267 35.2654 31.8995 35.6437 32.4296 36.1682C33.3355 37.0628 33.4618 38.2517 33.3158 39.4488C33.2895 39.6576 32.8891 39.9766 32.6561 39.9816C30.5292 40.0227 28.3991 40.0276 26.2723 39.9717C26.0409 39.9651 25.6487 39.5277 25.6225 39.263C25.4223 37.2289 26.269 35.8722 28.148 35.0698C28.2449 35.0287 28.3319 34.9596 28.432 34.9004C27.0896 33.9318 26.6416 32.9173 27.0108 31.7103C27.3489 30.6036 28.3072 29.8685 29.433 29.8505C30.5325 29.8324 31.5139 30.5099 31.893 31.5458C32.3541 32.8038 31.9487 33.825 30.6375 34.8363ZM32.1867 38.8223C32.2392 37.7304 31.8372 36.9164 30.9346 36.4017C29.9024 35.813 28.8307 35.8377 27.8494 36.5053C27.0666 37.0381 26.6859 37.8159 26.7679 38.8223C28.6059 38.8223 30.3668 38.8223 32.1867 38.8223ZM30.8886 32.4601C30.8886 31.6346 30.2568 30.9884 29.4609 30.9999C28.6765 31.0114 28.0381 31.6922 28.0578 32.4963C28.0775 33.256 28.7192 33.917 29.456 33.9335C30.2191 33.9499 30.8886 33.2626 30.8886 32.4601Z" fill="#0377A3"/>
<path d="M19.5558 34.9733C17.8639 33.6726 17.557 31.9937 18.7238 30.7341C19.7659 29.6077 21.4677 29.611 22.4999 30.739C23.6421 31.9871 23.3336 33.6414 21.663 34.9783C21.9009 35.0851 22.1126 35.1739 22.321 35.2726C23.8948 36.0126 24.8384 37.8231 24.4528 39.4872C24.4003 39.7125 24.0261 40.0167 23.7963 40.0216C21.6663 40.0627 19.5345 40.0446 17.4044 40.0446C16.9219 40.0446 16.7513 39.7832 16.7201 39.3211C16.5708 37.2163 17.3978 35.9106 19.5558 34.9733ZM17.9312 38.8558C19.7118 38.8558 21.4972 38.8558 23.2778 38.8558C23.3779 37.1998 22.2619 36.0767 20.5618 36.0849C18.9339 36.0915 17.8229 37.2426 17.9312 38.8558ZM22.0142 32.51C22.0158 31.701 21.3577 31.0235 20.5848 31.0366C19.8118 31.0498 19.1718 31.7437 19.1899 32.5511C19.2063 33.3306 19.8217 33.9554 20.5831 33.967C21.3741 33.9785 22.0125 33.3289 22.0142 32.51Z" fill="#0377A3"/>
</svg>
