<svg width="60" height="61" viewBox="0 0 60 61" fill="none" xmlns="http://www.w3.org/2000/svg">
<path d="M27.9214 0.97424C21.584 1.4372 15.689 3.81086 10.7746 7.87999C9.85504 8.64143 7.70941 10.7877 6.96646 11.6892C2.83962 16.6944 0.48288 22.6052 0.0626853 28.9932C-0.412317 36.2157 1.82872 43.5742 6.22351 49.2251C7.342 50.6648 8.88271 52.3115 10.1616 53.4344C18.1818 60.4762 29.1698 62.7443 39.3113 59.4548C46.1278 57.2436 52.0227 52.5349 55.7557 46.3236C59.5598 39.9945 60.8772 32.3455 59.4218 25.0439C58.3865 19.8498 56.0338 15.1005 52.5017 11.078C51.8136 10.2943 50.1369 8.64346 49.3838 8.00994C44.7149 4.07685 39.1875 1.7235 33.0632 1.06358C32.0015 0.945813 28.9993 0.89505 27.9214 0.97424ZM32.1822 3.17328C35.8807 3.46567 39.2321 4.37534 42.4638 5.96522C50.8392 10.0811 56.6509 18.1625 57.8628 27.3769C58.9792 35.8786 56.1962 44.3357 50.2485 50.5064C46.2252 54.6811 40.8845 57.5441 35.1905 58.5797C26.2629 60.2041 17.1892 57.4446 10.6833 51.1277C5.70588 46.2951 2.79496 40.031 2.25906 33.0055C2.16772 31.8176 2.21847 29.1861 2.35447 28.0125C2.9533 22.8428 4.80865 18.2051 7.91241 14.1197C9.01871 12.6618 10.801 10.7897 12.159 9.65871C16.6878 5.88603 22.128 3.65857 27.9823 3.17937C28.912 3.10424 31.2626 3.10221 32.1822 3.17328Z" fill="#0377A3"/>
<path d="M44.7987 34.0488C44.3638 34.4928 43.9634 34.9828 43.4776 35.361C43.2643 35.5271 42.8737 35.4646 42.5636 35.5074C42.5997 35.1966 42.5209 34.7838 42.6916 34.5931C43.453 33.7347 44.2834 32.9372 45.0941 32.1216C45.4994 31.7121 45.8654 31.7779 46.1739 32.2432C46.7794 33.1542 47.4063 34.0537 47.9577 34.996C48.0792 35.2032 47.9249 35.5715 47.897 35.8658C47.5967 35.7705 47.216 35.759 47.0125 35.5616C46.6892 35.2508 46.4841 34.8167 46.1361 34.2954C46.0114 34.9269 45.9179 35.3972 45.8243 35.8691C44.4459 42.774 38.9024 48.0952 31.9377 49.1986C23.7209 50.501 15.5271 45.1024 13.4036 36.9972C13.2887 36.5565 13.2149 36.1257 13.7285 35.9777C14.2684 35.8231 14.3833 36.2802 14.5129 36.693C16.4018 42.7394 20.3518 46.6531 26.5895 47.9061C34.5798 49.5111 42.3486 44.5318 44.4705 36.6305C44.6887 35.8165 44.8151 34.9795 44.9841 34.1524C44.9185 34.1179 44.8594 34.0833 44.7987 34.0488Z" fill="#0377A3"/>
<path d="M12.8574 30.797C13.2053 27.7055 14.1473 25.0794 15.7752 22.7214C17.8085 19.7779 20.5081 17.6829 23.8739 16.4644C24.0774 16.3904 24.3055 16.2704 24.4975 16.3049C24.7043 16.3428 25.0193 16.5171 25.0407 16.6667C25.0702 16.8755 24.9291 17.188 24.7568 17.3277C24.5352 17.507 24.2086 17.553 23.9329 17.6681C18.1236 20.087 14.9432 24.5105 14.1489 30.7773C14.4772 30.45 14.766 30.0603 15.1467 29.8153C15.3765 29.6673 15.749 29.7462 16.0591 29.7216C16.028 30.0093 16.1018 30.3892 15.9459 30.5668C15.301 31.3084 14.5887 31.9925 13.8962 32.6913C13.4695 33.1222 13.0954 33.0515 12.7426 32.5729C12.1912 31.8247 11.5807 31.116 11.0785 30.3382C10.9243 30.0998 11.0457 29.6821 11.0408 29.3466C11.3575 29.4552 11.73 29.493 11.9762 29.6903C12.2831 29.937 12.4849 30.3135 12.8574 30.797Z" fill="#0377A3"/>
<path d="M45.6594 28.2249C45.538 28.3565 45.4001 28.6377 45.2311 28.6574C45.0128 28.6837 44.7224 28.5489 44.5517 28.3894C44.4122 28.2595 44.4024 27.9898 44.3351 27.7826C42.7055 22.7836 39.4595 19.3304 34.5281 17.4887C34.451 17.4607 34.3476 17.4525 34.3033 17.3982C34.0916 17.1384 33.6977 16.8309 33.7371 16.604C33.8192 16.137 34.2442 16.1699 34.661 16.308C36.6024 16.9493 38.3583 17.9261 39.9354 19.2235C42.6038 21.4204 44.4434 24.1797 45.4592 27.4883C45.5232 27.6971 45.5741 27.9092 45.6594 28.2249Z" fill="#0377A3"/>
<path d="M28.4381 17.2754C26.9546 16.2148 26.5 15.1837 26.9054 13.8649C27.2549 12.7286 28.3183 11.9328 29.4786 11.936C30.6536 11.9393 31.6792 12.7106 32.0468 13.8682C32.4587 15.1624 31.9812 16.2427 30.6109 17.2047C31.1984 17.5681 31.8679 17.874 32.4029 18.336C33.5238 19.3046 33.6862 20.6464 33.5435 22.0195C33.5205 22.2415 33.0938 22.5901 32.8476 22.595C30.6076 22.6394 28.3659 22.6164 26.1259 22.6263C25.5975 22.6279 25.4219 22.3747 25.3907 21.8715C25.2463 19.4641 26.0865 18.1601 28.4381 17.2754ZM32.3504 21.4456C32.4768 20.2008 32.032 19.2898 31.0884 18.7603C30.094 18.2012 28.361 18.2949 27.5257 18.9938C26.7708 19.6236 26.4016 20.4162 26.633 21.4472C28.5563 21.4456 30.4287 21.4456 32.3504 21.4456ZM31.0228 14.6542C31.0113 13.7975 30.286 13.0707 29.4556 13.0838C28.6433 13.097 27.9064 13.8682 27.9163 14.697C27.9261 15.5422 28.6597 16.2625 29.4983 16.2509C30.3467 16.2394 31.0359 15.5175 31.0228 14.6542Z" fill="#0377A3"/>
<path d="M37.5839 35.5608C36.2004 34.5643 35.7623 33.558 36.1282 32.3181C36.4351 31.2788 37.4165 30.5224 38.4996 30.4895C39.6385 30.455 40.6493 31.1473 41.0252 32.2145C41.4584 33.4461 41.058 34.4394 39.645 35.574C41.0957 36.087 42.0935 37.0112 42.4201 38.5487C42.4365 38.6293 42.4676 38.7082 42.4709 38.7888C42.5776 40.7555 42.5087 40.665 40.8725 40.6502C39.1248 40.6338 37.3771 40.6338 35.6277 40.6535C34.9713 40.6618 34.6923 40.4019 34.6808 39.7343C34.6431 37.6821 35.5571 36.2942 37.5839 35.5608ZM35.9067 39.4334C37.7447 39.4334 39.5252 39.4334 41.3025 39.4334C41.3238 37.761 40.2063 36.6494 38.5849 36.656C36.9602 36.6609 35.8771 37.7643 35.9067 39.4334ZM40.029 33.0614C40.006 32.2655 39.3168 31.6094 38.5406 31.6406C37.7529 31.6735 37.1194 32.3789 37.1654 33.1715C37.2097 33.9247 37.8874 34.5791 38.6111 34.5676C39.3792 34.5578 40.052 33.8408 40.029 33.0614Z" fill="#0377A3"/>
<path d="M30.6375 35.4754C31.2267 35.9046 31.8995 36.2828 32.4296 36.8074C33.3355 37.7019 33.4618 38.8908 33.3158 40.088C33.2895 40.2968 32.8891 40.6158 32.6561 40.6207C30.5292 40.6619 28.3991 40.6668 26.2723 40.6109C26.0409 40.6043 25.6487 40.1669 25.6225 39.9021C25.4223 37.868 26.269 36.5114 28.148 35.7089C28.2449 35.6678 28.3319 35.5988 28.432 35.5396C27.0896 34.571 26.6416 33.5564 27.0108 32.3494C27.3489 31.2427 28.3072 30.5077 29.433 30.4896C30.5325 30.4715 31.5139 31.149 31.893 32.185C32.3541 33.4429 31.9487 34.4641 30.6375 35.4754ZM32.1867 39.4614C32.2392 38.3696 31.8372 37.5556 30.9346 37.0409C29.9024 36.4522 28.8307 36.4769 27.8494 37.1445C27.0666 37.6773 26.6859 38.4551 26.7679 39.4614C28.6059 39.4614 30.3668 39.4614 32.1867 39.4614ZM30.8886 33.0993C30.8886 32.2738 30.2568 31.6275 29.4609 31.639C28.6765 31.6506 28.0381 32.3313 28.0578 33.1354C28.0775 33.8952 28.7192 34.5562 29.456 34.5726C30.2191 34.5891 30.8886 33.9017 30.8886 33.0993Z" fill="#0377A3"/>
<path d="M19.5558 35.6125C17.8639 34.3118 17.557 32.6328 18.7238 31.3732C19.7659 30.2468 21.4677 30.2501 22.4999 31.3782C23.6421 32.6263 23.3336 34.2805 21.663 35.6174C21.9009 35.7243 22.1126 35.8131 22.321 35.9118C23.8948 36.6518 24.8384 38.4622 24.4528 40.1264C24.4003 40.3516 24.0261 40.6559 23.7963 40.6608C21.6663 40.7019 19.5345 40.6838 17.4044 40.6838C16.9219 40.6838 16.7513 40.4224 16.7201 39.9603C16.5708 37.8554 17.3978 36.5498 19.5558 35.6125ZM17.9312 39.4949C19.7118 39.4949 21.4972 39.4949 23.2778 39.4949C23.3779 37.839 22.2619 36.7159 20.5618 36.7241C18.9339 36.7307 17.8229 37.8818 17.9312 39.4949ZM22.0142 33.1492C22.0158 32.3401 21.3577 31.6626 20.5848 31.6758C19.8118 31.689 19.1718 32.3829 19.1899 33.1903C19.2063 33.9697 19.8217 34.5946 20.5831 34.6061C21.3741 34.6176 22.0125 33.9681 22.0142 33.1492Z" fill="#0377A3"/>
</svg>
