<svg width="145" height="17" viewBox="0 0 145 17" fill="none" xmlns="http://www.w3.org/2000/svg">
<path d="M9.38229 0L12.1321 5.48848L18.4026 6.30976L13.8299 10.5263L14.9549 16.5155L9.38229 13.6311L3.79928 16.5155L4.92421 10.5263L0.351562 6.30976L6.62203 5.48848L9.38229 0Z" fill="#FF7A00"/>
<path d="M40.9448 0.000488281L43.6946 5.48897L49.9651 6.31024L45.3924 10.5268L46.5174 16.516L40.9448 13.6316L35.3618 16.516L36.4867 10.5268L31.9141 6.31024L38.1845 5.48897L40.9448 0.000488281Z" fill="#FF7A00"/>
<path d="M72.4995 0.000488281L75.2493 5.48897L81.5198 6.31024L76.9471 10.5268L78.0721 16.516L72.4995 13.6316L66.9165 16.516L68.0414 10.5268L63.4688 6.31024L69.7392 5.48897L72.4995 0.000488281Z" fill="#FF7A00"/>
<path d="M104.062 0.000488281L106.812 5.48897L113.082 6.31024L108.51 10.5268L109.635 16.516L104.062 13.6316L98.479 16.516L99.6039 10.5268L95.0312 6.31024L101.302 5.48897L104.062 0.000488281Z" fill="#FF7A00"/>
<path d="M135.614 0.000488281L132.864 5.48897L126.594 6.31024L131.166 10.5268L130.041 16.516L135.614 13.6316L135.833 13.7417V0.421137L135.614 0.000488281Z" fill="#FF7A00"/>
<path d="M140.075 10.5246L144.648 6.30805L138.377 5.48678L135.836 0.418945V13.7395L141.2 16.5138L140.075 10.5246Z" fill="#FF7A00"/>
</svg>
