<svg width="81" height="81" viewBox="0 0 81 81" fill="none" xmlns="http://www.w3.org/2000/svg">
<path d="M61.5705 35.5829C58.8684 37.6413 56.2139 39.6237 53.6242 41.6955C53.2697 41.9813 53.1271 42.7002 53.0925 43.2315C53.006 44.5576 52.8547 45.9239 53.0536 47.2188C53.4945 50.063 52.0765 51.8178 50.1051 53.3672C48.6914 54.479 47.9694 54.2334 47.5846 52.4072C47.3555 51.3266 47.2301 50.2193 47.0399 49.1298C46.8626 48.1163 46.6594 47.1116 46.5254 46.4151C44.7572 46.2409 42.6041 46.6651 41.679 45.7543C40.7797 44.8702 41.1342 42.6243 40.8835 40.4944C39.5865 40.1462 37.6756 39.655 35.7777 39.1237C33.7716 38.5611 33.7371 37.9226 34.9389 36.2571C36.9536 33.4709 39.66 33.462 42.4485 34.0023C44.7355 34.4443 46.1406 33.7031 47.4333 31.7519C48.8729 29.5774 50.693 27.6708 52.4613 25.5053C47.4117 23.2236 42.5047 21.009 37.5978 18.7943C34.5585 17.4235 34.7357 17.3119 36.7936 14.7668C39.5692 11.3243 42.5263 10.5608 46.7026 11.8824C51.6744 13.4541 56.8711 14.298 61.9985 15.316C62.9193 15.4991 64.0737 15.2044 64.9383 14.7534C68.0597 13.1282 71.0212 11.1502 74.2161 9.71241C75.3705 9.19446 77.5797 9.28376 78.2627 10.0696C78.9631 10.8733 78.855 13.1148 78.2714 14.2846C76.7799 17.2896 74.9208 20.1204 73.0099 22.8754C72.1453 24.1256 71.8167 25.2508 72.0588 26.7376C73.0272 32.7119 73.9827 38.695 74.7738 44.696C74.8992 45.6605 74.3891 46.9152 73.7881 47.7367C72.8889 48.9557 71.6567 49.9157 70.55 50.9694C68.6866 52.7421 68.1635 52.6304 67.247 50.2416C65.5349 45.781 63.8445 41.3071 62.1411 36.842C61.9812 36.4268 61.778 36.0428 61.5705 35.5829ZM43.2743 44.0218C52.993 42.343 74.3761 21.4778 76.5075 11.7753C67.9733 11.9494 45.0209 34.1139 43.2743 44.0218ZM38.7564 16.6823C43.7628 18.9327 48.6611 21.1385 53.5724 23.3219C53.8664 23.4514 54.3722 23.5496 54.5538 23.3888C56.6289 21.5582 58.6566 19.6784 60.922 17.6066C55.3882 16.3921 50.2218 15.5036 45.2068 14.0569C42.2972 13.2175 40.4339 13.914 38.7564 16.6823ZM69.1708 48.594C72.5949 46.1383 72.6208 46.1383 72.0502 42.2135C71.3368 37.2975 70.5716 32.3859 69.802 27.2958C67.7485 29.3675 65.8765 31.1759 64.1212 33.1003C63.8056 33.4441 63.7667 34.3416 63.9526 34.8417C65.6257 39.3871 67.3767 43.9102 69.1708 48.594ZM50.3212 43.995C48.4622 44.7496 48.3282 47.0893 50.3212 50.5408C50.3212 48.0582 50.3212 46.0891 50.3212 43.995ZM38.082 36.5697C42.9111 38.7888 42.9198 38.7888 43.538 36.5697C41.7136 36.5697 39.8978 36.5697 38.082 36.5697Z" fill="#0078A5"/>
<path d="M10.4498 60.4717C9.7451 60.9316 9.16577 61.3066 8.59077 61.6817C-0.250377 48.0097 -0.0471817 26.1489 14.3278 11.7357C28.3137 -2.28005 49.2341 -2.59707 62.8482 7.31979C62.498 7.89578 62.1435 8.48517 61.6852 9.23529C53.0041 3.48432 43.67 1.54649 33.6875 3.70757C26.0353 5.3641 19.5806 9.32013 14.3148 15.3078C4.18101 26.8276 1.33628 44.777 10.4498 60.4717Z" fill="#0078A5"/>
<path d="M17.6719 71.9737C18.1561 71.3396 18.5452 70.8351 18.93 70.3305C32.5613 79.8277 46.6553 81.1851 60.6887 72.1121C73.6067 63.7624 78.6996 51.0371 77.4934 35.3335C77.7398 35.2442 78.0468 35.1013 78.371 35.021C78.7126 34.9361 79.0628 34.9138 79.4043 34.8691C81.7475 45.6299 77.8436 64.1196 61.6744 74.5187C47.053 83.9221 28.6833 81.4976 17.6719 71.9737Z" fill="#0078A5"/>
<path d="M38.9764 47.0908C39.7719 47.8767 40.2604 48.3544 40.8484 48.9304C36.6548 53.6723 32.0461 57.6239 26.8279 60.7449C20.2478 64.6831 13.4213 68.0676 5.74317 69.0633C3.89712 69.3044 2.04242 69.2017 0.0234375 67.0228C1.41986 66.804 2.41855 67.063 3.30482 66.9692C5.34975 66.7594 7.36008 66.4736 9.30989 65.9155C20.0619 62.8435 29.4738 57.2845 37.4157 49.1492C37.9647 48.5866 38.3884 47.8767 38.9764 47.0908Z" fill="#0078A5"/>
</svg>
