<svg width="80" height="80" viewBox="0 0 80 80" fill="none" xmlns="http://www.w3.org/2000/svg">
<circle cx="40" cy="40" r="38.5" fill="white" stroke="#0076A2" stroke-width="3"/>
<g clip-path="url(#clip0_1519_2046)">
<path d="M55.1562 32.1967C55.1562 31.7272 55.1562 31.3224 55.1562 30.9188C55.1587 28.4287 55.1485 25.9387 55.174 23.4487C55.1791 22.9737 55.0529 22.8187 54.4713 22.8198C44.823 22.8354 35.1748 22.8343 25.5253 22.8153C24.8939 22.8142 24.8008 23.0294 24.8008 23.5011C24.8123 34.1671 24.8111 44.8319 24.8111 55.4978C24.8111 55.8691 24.834 56.2427 24.7983 56.6118C24.7562 57.0556 24.9641 57.1827 25.4551 57.1794C28.261 57.1649 31.0655 57.1738 33.8714 57.1738C40.7354 57.1727 47.6008 57.1638 54.4649 57.1805C55.0478 57.1816 55.1715 57.0233 55.1689 56.5494C55.1498 53.3167 55.1753 50.0829 55.1498 46.8502C55.146 46.3451 55.3169 46.2168 55.8691 46.2336C57.068 46.2681 56.943 46.112 56.9443 47.2015C56.9468 52.051 56.92 56.9006 56.9557 61.7502C56.971 63.7563 54.9075 65.0029 53.2393 64.9951C44.4187 64.955 35.5982 64.9516 26.779 64.9974C25.0215 65.0063 22.9987 63.7005 23.0026 61.6788C23.0306 47.2416 23.0357 32.8044 23 18.3661C22.9949 16.418 24.8723 14.9873 26.8517 14.9996C35.6071 15.052 44.3652 15.0509 53.1207 14.9996C55.0682 14.9884 57.0016 16.3511 56.971 18.4229C56.906 22.7886 56.9366 27.1564 56.9621 31.522C56.9647 32.0629 56.8078 32.2725 56.1854 32.2022C55.8768 32.1677 55.5592 32.1967 55.1562 32.1967ZM24.8659 21.2642C25.1516 21.2642 25.4016 21.2642 25.6515 21.2642C28.6678 21.2642 31.6841 21.2631 34.6991 21.2631C41.3043 21.2642 47.9107 21.2609 54.5159 21.2754C55.0223 21.2765 55.1881 21.1449 55.1689 20.7089C55.137 19.9852 55.1587 19.2604 55.1562 18.5367C55.1511 17.135 54.53 16.5875 52.9153 16.5864C47.1595 16.583 41.4037 16.583 35.6467 16.5819C32.7159 16.5819 29.7838 16.5797 26.8529 16.583C25.8237 16.5841 24.973 17.0101 24.8939 17.7728C24.7792 18.908 24.8659 20.0588 24.8659 21.2642ZM55.1205 58.7383C54.8692 58.7383 54.6613 58.7383 54.4534 58.7383C49.0382 58.7372 43.6229 58.735 38.2076 58.7338C33.981 58.7327 29.7557 58.7416 25.5291 58.7249C24.9794 58.7227 24.769 58.8509 24.7983 59.3494C24.8404 60.072 24.8047 60.7968 24.8123 61.5216C24.8251 62.8474 25.4742 63.4139 26.9932 63.415C31.5808 63.4173 36.1683 63.4173 40.7559 63.4173C44.897 63.4173 49.0382 63.4184 53.1793 63.4139C54.1754 63.4128 55.035 62.93 55.0975 62.1773C55.1893 61.0555 55.1205 59.9248 55.1205 58.7383Z" fill="#0076A2"/>
<path d="M47.0339 49.7487C46.3834 49.4253 45.784 49.17 45.2381 48.8455C44.4627 48.386 43.6605 48.6693 43.5355 49.4788C43.4934 49.7543 43.4424 50.0308 43.3659 50.3007C43.1325 51.1203 42.3634 51.6756 41.389 51.699C40.4975 51.7213 39.6035 51.718 38.712 51.7057C37.5782 51.6901 36.8449 51.1649 36.5821 50.1981C36.5082 49.9271 36.4571 49.6517 36.4112 49.3763C36.3041 48.7273 35.6396 48.4786 35.0351 48.8644C33.1513 50.0654 32.5813 50.0297 30.8786 48.5946C30.496 48.2723 30.1134 47.95 29.7435 47.6166C28.861 46.8193 28.7806 45.9774 29.4859 45.0452C29.579 44.9214 29.6785 44.801 29.7792 44.6817C30.4412 43.8955 30.1223 43.2231 29.0306 43.0927C28.7156 43.0547 28.398 43.0113 28.0932 42.9332C27.24 42.7169 26.6456 42.079 26.6138 41.3007C26.5806 40.4844 26.578 39.666 26.601 38.8486C26.6303 37.8472 27.2923 37.1893 28.4261 36.9942C28.7181 36.944 29.014 36.915 29.3074 36.8749C29.9654 36.7834 30.2575 36.1969 29.8851 35.7196C29.8494 35.6739 29.8086 35.6304 29.7665 35.5891C28.4669 34.3101 28.5919 33.2954 30.0458 32.1301C30.5457 31.7287 30.9896 31.2726 31.4972 30.8778C32.3823 30.1887 33.122 30.1642 34.0824 30.7485C34.2915 30.8756 34.4956 31.0094 34.7022 31.1399C35.4993 31.6439 36.3105 31.3495 36.4316 30.5021C36.5592 29.6011 36.8002 28.7658 37.9251 28.4224C38.161 28.351 38.4199 28.3087 38.6686 28.3042C39.5397 28.2897 40.4108 28.2864 41.2819 28.3008C42.4183 28.3198 43.1593 28.8606 43.3952 29.8263C43.4615 30.0984 43.4972 30.376 43.547 30.6515C43.6554 31.2614 44.3364 31.519 44.8989 31.1611C46.8477 29.9233 47.4229 29.9646 49.1459 31.4588C49.5234 31.7855 49.9111 32.1033 50.2759 32.4401C51.1036 33.2051 51.175 34.0436 50.5003 34.9167C50.3703 35.0862 50.2325 35.2513 50.0948 35.4152C49.5476 36.0686 49.9073 36.7979 50.8243 36.8938C52.7718 37.0968 53.3648 37.6744 53.3763 39.3883C53.3802 39.9648 53.3789 40.5402 53.3636 41.1167C53.3585 41.3185 53.3279 41.5259 53.2615 41.7177C52.907 42.7436 51.9505 42.9778 50.8919 43.1161C50.596 43.154 50.2618 43.3045 50.0654 43.4963C49.8104 43.745 49.8397 44.0516 50.1318 44.3427C51.4556 45.6607 51.527 46.5729 49.8218 47.9645C49.4175 48.2935 49.0834 48.6972 48.6434 48.9804C48.1855 49.2748 47.6397 49.4655 47.0339 49.7487ZM51.5895 40.0217C51.5844 38.6088 51.5908 38.5642 49.994 38.4003C49.1319 38.3111 48.5758 38.0792 48.4546 37.2685C48.4176 37.0209 48.2837 36.7567 48.1077 36.5582C47.5861 35.9649 47.7621 35.4955 48.257 34.9457C49.2938 33.7905 49.2645 33.766 48.0656 32.7245C46.738 31.5703 47.067 31.6573 45.7138 32.6007C45.0532 33.0612 44.5571 33.0768 43.7 32.856C42.2002 32.4702 41.7002 31.7175 41.7206 30.4864C41.7283 30.0371 41.4732 29.8062 40.921 29.8497C40.5626 29.8776 40.1991 29.8553 39.8382 29.8553C38.3562 29.8531 38.3179 29.8497 38.1661 31.1265C38.073 31.916 37.8588 32.5215 36.8002 32.6118C36.5388 32.6341 36.2607 32.7557 36.0477 32.8973C35.3412 33.369 34.78 33.1794 34.1385 32.7423C32.8491 31.8647 32.8236 31.8915 31.6936 32.8973C30.5674 33.8998 30.5177 33.9355 31.5227 34.9915C32.103 35.6014 32.0252 36.0608 31.7841 36.799C31.3684 38.0725 30.5355 38.5051 29.1581 38.4739C28.5931 38.4605 28.2896 38.688 28.3699 39.2299C28.4108 39.5043 28.384 39.7864 28.3865 40.0652C28.4006 41.5059 28.0575 41.4568 29.9476 41.6007C30.7983 41.6653 31.1388 42.0255 31.5597 42.6935C32.3644 43.968 32.14 44.9125 31.0317 45.8514C30.7536 46.0867 30.7855 46.3376 31.0712 46.5762C31.5928 47.0111 32.1132 47.4494 32.617 47.901C32.918 48.1708 33.1896 48.1485 33.5046 47.9288C33.9523 47.6166 34.3923 47.2888 34.8795 47.0301C35.0861 46.9208 35.4305 46.8985 35.6638 46.9643C36.2875 47.1394 36.8997 47.3579 37.4851 47.6155C37.7045 47.7114 37.9264 47.94 37.9876 48.1441C38.1266 48.6079 38.1763 49.0941 38.2427 49.5725C38.2962 49.965 38.485 50.1713 38.9811 50.1524C39.6596 50.1267 40.3407 50.1345 41.0192 50.1546C41.4464 50.168 41.6454 50.0018 41.7002 49.6506C41.7793 49.1543 41.8979 48.6615 41.9425 48.163C41.9744 47.8017 42.167 47.6713 42.5445 47.5642C43.1669 47.3891 43.7765 47.1605 44.3581 46.8985C44.7356 46.729 45.0098 46.7335 45.3351 46.9699C45.7419 47.2665 46.1998 47.5085 46.6117 47.7995C46.9905 48.0649 47.2813 48.0147 47.5963 47.7125C48.0542 47.2743 48.5299 46.8494 49.0184 46.4368C49.3257 46.1781 49.3244 45.9495 49.0604 45.6685C48.6829 45.2671 48.3029 44.8634 47.9878 44.4252C47.8705 44.2624 47.8578 43.978 47.9292 43.7874C48.1434 43.2265 48.4023 42.6767 48.6893 42.1426C48.7811 41.9731 48.9954 41.8136 49.1956 41.7389C49.4431 41.6475 49.7338 41.6419 50.008 41.6151C51.9785 41.4245 51.5245 41.5148 51.5895 40.0217Z" fill="#0076A2"/>
<path d="M64.9801 39.997C62.6436 39.997 60.3071 39.9947 57.9706 39.9992C57.426 40.0003 56.9937 39.7851 57.0001 39.3212C57.0039 39.0413 57.3227 38.7347 57.574 38.5016C57.6824 38.4013 57.9783 38.4403 58.1887 38.4392C60.6528 38.4358 63.1168 38.4369 65.5808 38.4381C67.5564 38.4381 69.532 38.4381 71.5075 38.4381C71.7205 38.4381 71.9348 38.4269 72.1439 38.4481C72.6554 38.4983 72.9589 38.7536 72.9959 39.2041C73.029 39.6201 72.6477 39.9713 72.1184 39.988C71.3124 40.0137 70.5038 40.0025 69.6978 40.0037C68.1265 40.0048 66.5539 40.0037 64.9827 40.0037C64.9801 40.0014 64.9801 39.9992 64.9801 39.997Z" fill="#0076A2"/>
<path d="M61.4738 43.1217C63.1943 43.1217 64.9148 43.1228 66.6365 43.1206C67.1786 43.1195 67.6097 43.3514 67.6122 43.8031C67.6135 44.0796 67.2742 44.3762 67.0357 44.6249C66.9579 44.7063 66.7143 44.6818 66.546 44.6818C63.1254 44.6851 59.7049 44.6873 56.2856 44.684C55.6083 44.6829 55.1849 44.3796 55.1722 43.9157C55.1594 43.4284 55.5803 43.1284 56.3123 43.1262C58.0328 43.1206 59.7533 43.124 61.4751 43.124C61.4738 43.124 61.4738 43.1228 61.4738 43.1217Z" fill="#0076A2"/>
<path d="M61.4 35.3174C59.6999 35.3174 58.0011 35.3185 56.301 35.3174C55.5894 35.3162 55.1558 35.0063 55.1723 34.5167C55.1876 34.0495 55.6111 33.7585 56.287 33.7585C59.6859 33.7585 63.0848 33.7629 66.4837 33.7573C66.9377 33.7562 67.3344 33.8198 67.5563 34.2112C67.8598 34.7475 67.4045 35.3073 66.6252 35.314C64.8844 35.3263 63.1422 35.3162 61.4 35.3174Z" fill="#0076A2"/>
<path d="M39.9902 19.7047C38.864 19.7047 37.7378 19.7103 36.6129 19.7025C35.9357 19.698 35.5365 19.3936 35.5391 18.9119C35.5416 18.4402 35.9459 18.148 36.641 18.1469C38.8716 18.1413 41.1023 18.1413 43.3329 18.1458C44.0306 18.1469 44.4234 18.4268 44.4387 18.9085C44.454 19.3969 44.0204 19.7058 43.3049 19.7081C42.2004 19.7103 41.0959 19.7092 39.9902 19.7092C39.9902 19.7069 39.9902 19.7058 39.9902 19.7047Z" fill="#0076A2"/>
<path d="M39.9209 61.8564C38.5397 61.8553 37.1572 61.8587 35.7759 61.8542C35.0477 61.852 34.6294 61.552 34.6409 61.0602C34.6523 60.5852 35.0528 60.2964 35.7466 60.2953C38.5729 60.2919 41.4004 60.2931 44.2266 60.2997C44.9089 60.302 45.3273 60.6042 45.3362 61.0658C45.3464 61.5475 44.9038 61.8553 44.1922 61.8564C42.7689 61.8575 41.3455 61.8564 39.9209 61.8564Z" fill="#0076A2"/>
<path d="M34.4377 39.9515C34.4593 37.2841 36.9706 35.1365 40.0532 35.151C43.0439 35.1643 45.5577 37.3979 45.5322 40.0195C45.5054 42.7002 43.0069 44.859 39.946 44.8456C36.8991 44.8323 34.4147 42.6255 34.4377 39.9515ZM39.9601 43.2845C42.0262 43.2934 43.7365 41.8048 43.7454 39.9894C43.753 38.2231 42.0402 36.7244 40.0034 36.7154C37.9654 36.7076 36.2385 38.1851 36.2206 39.9526C36.2015 41.7602 37.9016 43.2745 39.9601 43.2845Z" fill="#0076A2"/>
</g>
<defs>
<clipPath id="clip0_1519_2046">
<rect width="50" height="50" fill="white" transform="translate(23 15)"/>
</clipPath>
</defs>
</svg>
