<svg width="50" height="51" viewBox="0 0 50 51" fill="none" xmlns="http://www.w3.org/2000/svg">
<circle cx="25" cy="25.5449" r="24" fill="white" stroke="#0076A2" stroke-width="2"/>
<path d="M6.25046 18.8633C6.22153 16.0715 7.56276 14.1766 10.2005 13.0877C8.04139 11.6046 8.27808 9.07807 9.66664 7.7668C11.0315 6.47827 13.401 6.51617 14.7002 7.84765C16.073 9.25492 16.1387 11.6627 14.0769 13.0902C16.7331 14.1665 18.0427 16.0841 18.0454 18.8633C14.0953 18.8633 10.2005 18.8633 6.25046 18.8633ZM7.16039 18.027C10.4977 18.027 13.8139 18.027 17.1328 18.027C16.9697 15.6824 14.8106 13.5702 12.0309 13.6309C9.23534 13.6915 7.26032 15.9098 7.16039 18.027ZM12.144 12.7996C13.6167 12.8022 14.8238 11.645 14.829 10.2251C14.8343 8.81025 13.6298 7.64047 12.1597 7.63542C10.6686 7.63037 9.44836 8.79762 9.45099 10.2251C9.45099 11.6324 10.6686 12.7971 12.144 12.7996Z" fill="#0076A2"/>
<path d="M14.0701 38.549C15.5639 39.0947 16.7053 40.0169 17.4101 41.3938C17.9071 42.3615 18.1306 43.5363 17.9965 44.2943C14.1043 44.2943 10.2095 44.2943 6.31207 44.2943C6.03067 42.6571 6.99057 39.7238 10.22 38.5338C9.09708 37.7557 8.51589 36.7223 8.60793 35.4009C8.67368 34.4611 9.09708 33.6627 9.84922 33.0614C11.3535 31.8587 13.5126 32.023 14.7934 33.3974C15.9663 34.6506 16.2187 37.0406 14.0701 38.549ZM17.126 43.4732C16.9735 41.1336 14.7934 38.9355 11.8979 39.072C8.91825 39.2109 7.1694 41.6793 7.17466 43.4732C10.4856 43.4732 13.794 43.4732 17.126 43.4732ZM12.1267 33.0791C10.6697 33.0791 9.43897 34.2665 9.44685 35.6637C9.45211 37.0785 10.6618 38.2357 12.1372 38.2382C13.6152 38.2407 14.8275 37.0836 14.8249 35.6713C14.8197 34.2261 13.6257 33.0791 12.1267 33.0791Z" fill="#0076A2"/>
<path d="M31.9763 18.8609C31.9158 17.5749 32.2182 16.4026 32.9519 15.339C33.6804 14.2854 34.6719 13.5527 35.9579 13.103C34.8639 12.3501 34.28 11.3748 34.3116 10.1091C34.3353 9.16413 34.7192 8.35059 35.4477 7.71896C36.9967 6.37233 39.2242 6.50876 40.5943 8.05499C41.7593 9.37131 41.8251 11.6755 39.7896 13.0853C42.4326 14.1717 43.7738 16.0666 43.7449 18.8609C39.8001 18.8609 35.9053 18.8609 31.9763 18.8609ZM32.8704 18.0246C36.2077 18.0246 39.524 18.0246 42.8402 18.0246C42.7324 15.8721 40.7258 13.6816 37.9723 13.6285C35.1111 13.5754 33.0177 15.7609 32.8704 18.0246ZM37.8435 12.8023C39.303 12.8175 40.5365 11.6477 40.5496 10.2379C40.5627 8.83063 39.3504 7.64569 37.8856 7.63559C36.3918 7.62548 35.1794 8.77505 35.1715 10.2126C35.1637 11.6275 36.3602 12.7872 37.8435 12.8023Z" fill="#0076A2"/>
<path d="M35.9407 38.55C33.7474 37.0341 34.0078 34.5202 35.3621 33.2368C36.727 31.9432 39.0045 31.9583 40.3483 33.2267C41.6948 34.5 41.9736 37.0366 39.7987 38.5323C42.4259 39.6162 43.7672 41.5061 43.7514 44.2953C39.8092 44.2953 35.9118 44.2953 31.9775 44.2953C31.9118 43.027 32.2142 41.8573 32.9453 40.7936C33.6817 39.7274 34.6889 38.9972 35.9407 38.55ZM32.8717 43.4742C36.2063 43.4742 39.5226 43.4742 42.8362 43.4742C42.7783 41.5389 40.969 39.164 38.0078 39.073C35.2306 38.9871 33.0505 41.0766 32.8717 43.4742ZM37.8658 38.2418C39.3385 38.2393 40.5482 37.0796 40.5535 35.6647C40.5587 34.2499 39.328 33.0751 37.8395 33.0801C36.3694 33.0852 35.1728 34.2499 35.1728 35.6749C35.1754 37.0897 36.3878 38.2469 37.8658 38.2418Z" fill="#0076A2"/>
<path d="M28.438 29.0292C27.5911 28.7765 26.7601 28.5315 25.9317 28.2839C24.885 27.968 23.8383 27.6472 22.789 27.3389C22.647 27.2985 22.4892 27.3061 22.3367 27.3061C21.7292 27.3036 21.1217 27.3036 20.4774 27.3036C20.4774 28.1045 20.4721 28.8751 20.4879 29.6457C20.4879 29.6987 20.6483 29.7871 20.7377 29.7922C21.1953 29.8225 21.361 29.9059 21.3268 30.1484C21.2769 30.5123 20.9744 30.4541 20.7193 30.4541C19.9356 30.4567 19.1519 30.4541 18.3419 30.4541C18.3419 30.2369 18.3419 30.0373 18.3419 29.8048C18.8232 29.8048 19.2966 29.8048 19.7989 29.8048C19.7989 28.87 19.7989 27.9655 19.7989 27.0206C18.2736 26.9246 17.0402 26.4521 17.1296 24.6684C17.1664 23.9206 17.6056 23.3698 18.2788 22.9807C18.9389 22.5992 19.6621 22.6725 20.3774 22.6548C20.3669 22.6245 20.3564 22.5941 20.3459 22.5638C20.4695 22.5082 20.5905 22.4375 20.7193 22.4046C20.8219 22.3794 20.9376 22.387 21.0454 22.4021C22.3893 22.5689 23.6201 22.1293 24.8613 21.7477C25.958 21.4092 27.0599 21.0858 28.1618 20.7574C28.2539 20.7296 28.3485 20.7144 28.4695 20.6841C28.4695 21.5052 28.4695 22.2985 28.4695 23.102C29.1428 23.3167 29.5662 23.7437 29.7345 24.3905C29.9712 25.2975 29.5267 26.1515 28.6483 26.538C28.5668 26.5734 28.4879 26.7174 28.4853 26.8109C28.4695 27.5133 28.4748 28.2131 28.4748 28.9155C28.4695 28.9382 28.4564 28.9584 28.438 29.0292ZM21.1348 26.6593C21.361 26.6593 21.5661 26.6669 21.7713 26.6568C22.4761 26.6239 23.1572 26.7149 23.8226 26.9473C24.2407 27.0939 24.672 27.2101 25.098 27.3364C25.9764 27.6017 26.8574 27.867 27.7647 28.1399C27.7647 25.9317 27.7647 23.7639 27.7647 21.5709C27.6858 21.5886 27.6358 21.5962 27.5859 21.6113C26.3183 21.9878 25.0454 22.3516 23.7857 22.7457C23.1283 22.9504 22.4734 23.1222 21.7739 23.059C21.5714 23.0413 21.3636 23.0565 21.1375 23.0565C21.1348 24.2667 21.1348 25.4339 21.1348 26.6593ZM20.4169 23.2409C19.8436 23.3243 19.2861 23.3268 18.789 23.4936C17.7765 23.8347 17.4899 24.9918 18.1657 25.7877C18.6233 26.3283 19.6095 26.5709 20.4169 26.3359C20.4169 25.3455 20.4169 24.3526 20.4169 23.2409ZM28.4853 25.8559C28.9324 25.6285 29.1691 25.199 29.1086 24.7442C29.0586 24.3627 28.8982 24.0418 28.4853 23.8372C28.4853 24.532 28.4853 25.1762 28.4853 25.8559Z" fill="#0076A2"/>
<path d="M30.672 13.5415C30.6668 13.9232 30.3512 14.1103 30.0356 13.9813C29.0389 13.5718 28.0001 13.314 26.9298 13.1547C25.5491 12.9525 24.1684 12.9298 22.8062 13.2078C21.8541 13.4025 20.9232 13.7033 19.9869 13.9738C19.6766 14.0622 19.4689 14.0218 19.3558 13.7816C19.2453 13.5491 19.3479 13.3367 19.6451 13.2129C20.9547 12.6669 22.3328 12.3585 23.7503 12.2371C25.862 12.0576 27.9212 12.3256 29.912 13.0385C30.0961 13.1042 30.2881 13.1623 30.4485 13.266C30.559 13.3393 30.6247 13.4808 30.672 13.5415Z" fill="#0076A2"/>
<path d="M24.8882 38.9482C23.1867 38.9355 21.4194 38.6271 19.7284 37.9497C19.376 37.8081 19.2603 37.6236 19.3655 37.3632C19.4707 37.1028 19.6916 37.0346 20.0492 37.1812C21.6587 37.8334 23.3445 38.1241 25.0802 38.114C26.7606 38.1064 28.3885 37.8157 29.9454 37.1812C29.9743 37.1686 30.0059 37.1559 30.0348 37.1458C30.3162 37.0498 30.5397 37.1256 30.637 37.348C30.7422 37.5907 30.637 37.8081 30.353 37.9219C28.6436 38.6044 26.8632 38.9381 24.8882 38.9482Z" fill="#0076A2"/>
<path d="M12.4469 20.1128C12.9045 20.1128 13.0492 20.4059 12.9177 20.7823C12.6968 21.4038 12.4469 22.0203 12.2865 22.6595C11.629 25.272 11.8526 27.8263 12.9019 30.3174C13.0439 30.656 12.986 30.8859 12.7283 30.9895C12.4601 31.0981 12.2549 30.9743 12.0998 30.6181C11.2056 28.5463 10.9032 26.3887 11.1399 24.1653C11.2766 22.8819 11.5896 21.6312 12.134 20.4463C12.2023 20.2922 12.3759 20.1861 12.4469 20.1128Z" fill="#0076A2"/>
<path d="M38.942 25.4127C38.9157 27.3859 38.5817 29.0686 37.8796 30.678C37.756 30.9584 37.5403 31.0747 37.2984 30.9888C37.0406 30.8978 36.9512 30.6679 37.088 30.3596C37.6061 29.1848 37.8901 27.9544 38.0321 26.6911C38.2109 25.0893 38.0163 23.5204 37.5324 21.9817C37.3983 21.5522 37.2221 21.1353 37.0617 20.7134C36.9539 20.4279 37.0354 20.2283 37.3063 20.1298C37.5403 20.0439 37.7533 20.15 37.869 20.4178C38.3293 21.4941 38.6659 22.6032 38.8026 23.7629C38.8736 24.3869 38.9078 25.0135 38.942 25.4127Z" fill="#0076A2"/>
<path d="M31.9047 21.1479C32.3044 21.153 32.5279 21.5271 32.3018 21.7774C31.8678 22.2552 31.3892 22.6975 30.9053 23.1273C30.737 23.2764 30.5003 23.2157 30.3504 23.0489C30.1979 22.8795 30.19 22.6773 30.3609 22.5105C30.7922 22.0858 31.2314 21.6662 31.6759 21.2516C31.7442 21.1859 31.86 21.1656 31.9047 21.1479Z" fill="#0076A2"/>
<path d="M31.9793 28.6227C31.8189 28.5266 31.6742 28.471 31.5717 28.3775C31.1719 28.0059 30.7827 27.6267 30.3935 27.245C30.1831 27.0327 30.1831 26.8279 30.383 26.6383C30.575 26.4563 30.7906 26.4664 31.0089 26.6712C31.406 27.0453 31.8031 27.4169 32.195 27.7961C32.3475 27.9427 32.4606 28.1272 32.3265 28.3295C32.2528 28.4432 32.1134 28.514 31.9793 28.6227Z" fill="#0076A2"/>
<path d="M31.6791 25.114C31.4503 25.114 31.2241 25.1165 30.9953 25.114C30.7245 25.1114 30.5667 24.9851 30.5483 24.7198C30.5299 24.4595 30.6955 24.3129 30.9322 24.3028C31.4503 24.2801 31.9737 24.2851 32.4917 24.3028C32.7442 24.3129 32.8967 24.4949 32.8783 24.7223C32.8625 24.9371 32.7337 25.114 32.4575 25.1114C32.1998 25.1114 31.9395 25.1114 31.6791 25.114Z" fill="#0076A2"/>
</svg>
