<svg width="147" height="21" viewBox="0 0 147 21" fill="none" xmlns="http://www.w3.org/2000/svg">
<path d="M9.72724 0.435547L12.5108 7.03757L18.858 8.02547L14.2294 13.0975L15.3681 20.3019L9.72724 16.8322L4.07587 20.3019L5.21458 13.0975L0.585938 8.02547L6.93318 7.03757L9.72724 0.435547Z" fill="#FF7A00"/>
<path d="M41.6726 0.436096L44.4561 7.03812L50.8033 8.02602L46.1747 13.098L47.3134 20.3024L41.6726 16.8327L36.0212 20.3024L37.1599 13.098L32.5312 8.02602L38.8785 7.03812L41.6726 0.436096Z" fill="#FF7A00"/>
<path d="M73.6179 0.436096L76.4014 7.03812L82.7486 8.02602L78.12 13.098L79.2587 20.3024L73.6179 16.8327L67.9665 20.3024L69.1052 13.098L64.4766 8.02602L70.8238 7.03812L73.6179 0.436096Z" fill="#FF7A00"/>
<path d="M105.571 0.436096L108.355 7.03812L114.702 8.02602L110.073 13.098L111.212 20.3024L105.571 16.8327L99.9196 20.3024L101.058 13.098L96.4297 8.02602L102.777 7.03812L105.571 0.436096Z" fill="#FF7A00"/>
<path d="M137.506 0.436096L134.722 7.03812L128.375 8.02602L133.004 13.098L131.865 20.3024L137.506 16.8327L137.727 16.9653V0.942089L137.506 0.436096Z" fill="#FF7A00"/>
<path d="M142.018 13.0956L146.646 8.02363L140.299 7.03572L137.727 0.939697V16.9629L143.157 20.3L142.018 13.0956Z" fill="#FF7A00"/>
</svg>
