<svg width="80" height="80" viewBox="0 0 80 80" fill="none" xmlns="http://www.w3.org/2000/svg">
<circle cx="40" cy="40" r="38.5" fill="white" stroke="#0076A2" stroke-width="3"/>
<g clip-path="url(#clip0_1519_2028)">
<path d="M61.2718 27.8074C45.743 27.8074 30.2714 27.8074 14.7266 27.8074C14.7266 28.05 14.7266 28.2853 14.7266 28.5243C14.7266 35.8342 14.7266 43.1441 14.7266 50.454C14.7266 50.6387 14.7329 50.8233 14.7234 51.0043C14.6884 51.5836 14.3413 51.9928 13.8796 52.0036C13.402 52.0145 13.0358 51.5873 13.004 50.979C12.9976 50.8378 13.0008 50.693 13.0008 50.5518C13.0008 40.8125 13.0008 31.0731 13.0008 21.3302C13.004 18.5894 14.4018 17 16.8122 17C30.9432 17 45.0711 17 59.2022 17C61.5839 17 62.9944 18.593 62.9944 21.2904C62.9944 32.8255 62.9912 44.3642 62.9976 55.8993C62.9976 57.391 62.5391 58.5858 61.4788 59.4366C61.2209 58.8429 60.9757 58.2853 60.7082 57.6734C61.1604 57.1955 61.2782 56.5112 61.275 55.7437C61.2623 46.6778 61.2686 37.6119 61.2686 28.546C61.2718 28.3251 61.2718 28.1007 61.2718 27.8074ZM14.7298 25.7799C30.2746 25.7799 45.7557 25.7799 61.2718 25.7799C61.2718 24.2701 61.2718 22.8038 61.2718 21.3338C61.2718 19.6756 60.6382 18.9587 59.1703 18.9587C45.0584 18.9587 30.9464 18.9587 16.8345 18.9587C16.6721 18.9587 16.5097 18.9515 16.3505 18.9623C15.4844 19.0311 14.7648 19.7915 14.7425 20.7726C14.7075 22.4272 14.7298 24.0818 14.7298 25.7799Z" fill="#0076A2"/>
<path d="M56.8109 61.7029C56.1645 61.7029 55.5182 61.7247 54.8718 61.6921C54.5566 61.6776 54.391 61.7971 54.2445 62.1084C53.6618 63.3503 53.0568 64.5777 52.4519 65.805C52.0125 66.7029 51.3661 67.1048 50.6146 66.9672C49.8186 66.8224 49.3028 66.2178 49.1722 65.1714C48.6341 60.8702 48.1119 56.5654 47.5834 52.2641C47.5611 52.0831 47.5324 51.9021 47.5101 51.721C47.3923 50.8014 47.6821 50.0411 48.3093 49.6102C48.943 49.1794 49.6562 49.2409 50.3153 49.8202C51.6654 51.0042 53.0059 52.1989 54.3528 53.3937C56.1359 54.9759 57.919 56.5545 59.6989 58.1403C60.4535 58.8101 60.6987 59.5813 60.4408 60.4285C60.1733 61.3119 59.5492 61.7572 58.5844 61.7536C57.9922 61.75 57.4 61.7536 56.8077 61.7536C56.8109 61.7391 56.8109 61.721 56.8109 61.7029ZM58.7564 59.737C55.5436 56.9057 52.4296 54.1613 49.2073 51.3264C49.774 55.9462 50.3185 60.3887 50.863 64.8347C51.589 63.5856 52.2162 62.3293 52.7989 61.0512C53.2256 60.1099 53.8561 59.6935 54.7922 59.7261C56.0595 59.7732 57.3331 59.737 58.7564 59.737Z" fill="#0076A2"/>
<path d="M47.4339 58.1733C47.5167 58.8612 47.5899 59.4477 47.6663 60.0777C47.5421 60.0994 47.4275 60.132 47.3129 60.132C37.025 60.1356 26.7404 60.1392 16.4525 60.1284C14.4688 60.1247 12.9564 58.3145 13.001 56.0697C13.0137 55.3854 13.3289 54.9763 13.8479 54.9654C14.3701 54.9582 14.6949 55.3528 14.7236 56.0371C14.7841 57.4709 15.4336 58.1733 16.7168 58.1733C26.734 58.1733 36.7512 58.1733 46.7684 58.1733C46.9785 58.1733 47.1887 58.1733 47.4339 58.1733Z" fill="#0076A2"/>
<path d="M24.0159 43.8789C24.4648 42.4488 24.8756 41.1888 25.2577 39.918C25.4392 39.3206 25.7226 38.9006 26.3212 38.9079C26.8943 38.9151 27.1713 39.3242 27.3465 39.8963C27.7381 41.1852 28.1489 42.4669 28.5914 43.8789C28.6933 43.5712 28.7666 43.3757 28.8239 43.1729C29.2569 41.6631 29.6836 40.1461 30.1166 38.6363C30.33 37.8977 30.7566 37.5791 31.2534 37.771C31.7692 37.9702 31.9539 38.4951 31.7469 39.2265C31.0591 41.6704 30.3618 44.1143 29.674 46.5581C29.5117 47.1302 29.2346 47.5465 28.6583 47.5574C28.0915 47.5683 27.7859 47.1954 27.6107 46.6124C27.2 45.2656 26.7733 43.926 26.3084 42.4488C25.9104 43.7087 25.5538 44.842 25.194 45.9788C25.108 46.2468 25.0412 46.5219 24.9425 46.7862C24.7578 47.2822 24.4235 47.5683 23.9427 47.5574C23.4555 47.5465 23.1403 47.246 22.9906 46.7247C22.2614 44.1649 21.5259 41.6088 20.8095 39.0491C20.6439 38.4626 20.8891 37.9484 21.3603 37.7746C21.8157 37.6045 22.2742 37.876 22.4493 38.477C22.9078 40.0447 23.3409 41.6161 23.7898 43.1874C23.8408 43.3648 23.9076 43.5458 24.0159 43.8789Z" fill="#0076A2"/>
<path d="M40.3058 43.8826C40.8089 42.123 41.2802 40.4793 41.7482 38.8356C41.7864 38.7016 41.8183 38.5604 41.866 38.4301C42.0603 37.8761 42.4869 37.6046 42.9232 37.7566C43.3976 37.9232 43.6332 38.4156 43.4899 39.0238C43.3689 39.5343 43.2097 40.034 43.0664 40.5372C42.4997 42.5322 41.9329 44.5307 41.3629 46.5256C41.156 47.2534 40.8344 47.5684 40.3217 47.5575C39.7518 47.543 39.4652 47.152 39.2901 46.5763C38.8889 45.2584 38.4686 43.9442 38.0005 42.4489C37.6853 43.4373 37.4274 44.2447 37.1727 45.0593C36.9912 45.635 36.816 46.2143 36.6282 46.7863C36.4594 47.3004 36.1251 47.5684 35.6379 47.5575C35.173 47.5466 34.8419 47.2751 34.7018 46.7863C33.9599 44.2121 33.2276 41.6343 32.5079 39.0528C32.3392 38.4445 32.5716 37.9521 33.0461 37.7711C33.5141 37.5901 33.9631 37.8797 34.1509 38.5242C34.6572 40.2621 35.1508 42.0072 35.6793 43.8682C35.7844 43.5857 35.864 43.4011 35.9245 43.2056C36.262 42.1303 36.5932 41.055 36.9307 39.9797C37.1758 39.1976 37.4752 38.8971 38.0101 38.908C38.6469 38.9188 38.8953 39.404 39.0768 40.005C39.3952 41.0658 39.7295 42.1194 40.0606 43.173C40.1211 43.3758 40.1976 43.5749 40.3058 43.8826Z" fill="#0076A2"/>
<path d="M47.407 43.8865C47.8496 42.4745 48.2603 41.2001 48.6488 39.9184C48.8303 39.3246 49.1105 38.901 49.7123 38.9082C50.2854 38.9155 50.5624 39.3246 50.7376 39.8967C51.1292 41.182 51.54 42.46 51.9857 43.8865C52.1195 43.4629 52.2182 43.166 52.3042 42.8655C52.7022 41.4716 53.0938 40.0741 53.495 38.6801C53.6924 37.9959 54.1318 37.6917 54.619 37.8764C55.1157 38.061 55.3163 38.5932 55.1253 39.2775C54.4375 41.7214 53.7434 44.1653 53.0524 46.6056C52.8964 47.1631 52.6035 47.5397 52.059 47.5541C51.4954 47.5686 51.1833 47.2066 51.005 46.62C50.5943 45.2732 50.1644 43.9372 49.7123 42.4926C49.6231 42.7316 49.5626 42.8764 49.5149 43.0248C49.1232 44.2703 48.7348 45.5194 48.3368 46.7649C48.1744 47.2754 47.84 47.5614 47.3561 47.5541C46.8721 47.5469 46.5409 47.2681 46.3913 46.7431C45.6557 44.1653 44.917 41.5911 44.1942 39.0096C44.035 38.4376 44.3057 37.9126 44.7769 37.7569C45.2291 37.6085 45.6717 37.8945 45.8468 38.4991C46.2957 40.0451 46.7288 41.5983 47.1714 43.1515C47.2287 43.3543 47.2987 43.5534 47.407 43.8865Z" fill="#0076A2"/>
<path d="M20.3253 22.3691C20.3349 23.4336 19.5707 24.3315 18.6377 24.3496C17.7016 24.3677 16.9056 23.5024 16.8833 22.4416C16.861 21.3445 17.6347 20.4358 18.5995 20.4321C19.5325 20.4285 20.3157 21.3047 20.3253 22.3691Z" fill="#0076A2"/>
<path d="M24.6303 24.35C23.6942 24.3463 22.9173 23.4629 22.9141 22.3985C22.9109 21.3015 23.7037 20.4108 24.6653 20.4325C25.6015 20.4506 26.3656 21.3449 26.3561 22.413C26.3497 23.4774 25.5696 24.3536 24.6303 24.35Z" fill="#0076A2"/>
<path d="M30.6984 24.3496C29.7622 24.3641 28.9694 23.4951 28.9535 22.4343C28.9344 21.3373 29.7145 20.4321 30.6761 20.4321C31.6122 20.4321 32.3923 21.3119 32.3955 22.3764C32.3987 23.4444 31.6313 24.3351 30.6984 24.3496Z" fill="#0076A2"/>
</g>
<defs>
<clipPath id="clip0_1519_2028">
<rect width="50" height="50" fill="white" transform="translate(13 17)"/>
</clipPath>
</defs>
</svg>
