<svg width="81" height="81" viewBox="0 0 81 81" fill="none" xmlns="http://www.w3.org/2000/svg">
<path d="M40.8352 31.061C29.1041 31.061 17.373 31.0669 5.64194 31.0385C5.15804 31.037 4.58036 30.8559 4.2115 30.5072C3.39875 29.7379 3.59631 28.2727 4.5491 27.5438C6.4972 26.0546 8.4578 24.5879 10.4122 23.1107C20.1852 15.7231 29.9607 8.3416 39.7224 0.934617C40.5539 0.304522 41.2541 0.310509 42.0831 0.939107C53.748 9.78139 65.4265 18.5997 77.1001 27.4256C77.9441 28.0631 78.2355 28.7965 78.0217 29.7184C77.8191 30.597 77.2002 31.058 76.2149 31.058C64.4225 31.061 52.6289 31.061 40.8352 31.061ZM10.7373 27.2879C30.9097 27.2879 50.9108 27.2879 71.0308 27.2879C70.7544 27.0634 70.5881 26.9197 70.4143 26.788C60.7851 19.4992 51.1522 12.218 41.5317 4.91125C41.0541 4.54906 40.7415 4.55355 40.2676 4.91424C32.1801 11.0625 24.0776 17.1839 15.9801 23.3127C14.2758 24.6028 12.5728 25.896 10.7373 27.2879Z" fill="#0078A5"/>
<path d="M40.8349 80.4603C28.2073 80.4603 15.5809 80.4618 2.9533 80.4558C2.62445 80.4558 2.27934 80.4453 1.968 80.333C1.26278 80.0785 0.845152 79.2893 0.90392 78.4403C0.965189 77.5687 1.53036 76.8664 2.27434 76.7586C2.48065 76.7287 2.69072 76.7406 2.89828 76.7406C28.2561 76.7406 53.6151 76.7406 78.9729 76.7406C79.1192 76.7406 79.2655 76.7332 79.4105 76.7451C80.242 76.808 80.866 77.5568 80.8972 78.5241C80.9285 79.4855 80.3496 80.3046 79.5256 80.4349C79.2592 80.4768 78.9854 80.4618 78.7141 80.4618C66.0889 80.4603 53.4626 80.4603 40.8349 80.4603Z" fill="#0078A5"/>
<path d="M40.9588 70.0045C51.3758 70.0045 61.794 70.0045 72.2109 70.0045C72.3772 70.0045 72.5448 70.0001 72.7111 70.006C73.6639 70.042 74.3253 70.8042 74.3228 71.8584C74.3203 72.9126 73.6651 73.6733 72.7086 73.7197C72.4172 73.7347 72.1259 73.7257 71.8333 73.7257C51.1019 73.7257 30.3718 73.7257 9.64045 73.7257C9.37037 73.7257 9.09654 73.7437 8.82896 73.7033C8.01245 73.5775 7.44103 72.7569 7.46979 71.785C7.4973 70.8431 8.08873 70.1034 8.89272 70.018C9.09904 69.9956 9.3091 70.006 9.51792 70.006C19.9986 70.0045 30.4794 70.0045 40.9588 70.0045Z" fill="#0078A5"/>
<path d="M13.1269 50.4587C13.1269 45.6469 13.1207 40.8337 13.1307 36.0219C13.1344 34.5462 14.2548 33.6557 15.3139 34.2618C15.819 34.5507 16.1191 35.0431 16.1966 35.7076C16.2304 36.0024 16.2279 36.3033 16.2279 36.6026C16.2291 45.9029 16.2291 55.2046 16.2291 64.5049C16.2291 64.68 16.2354 64.8551 16.2266 65.0287C16.1679 66.1886 15.4789 67.0133 14.6024 66.9789C13.7284 66.9445 13.1307 66.1482 13.1294 64.9719C13.1232 60.1331 13.1257 55.2959 13.1269 50.4587Z" fill="#0078A5"/>
<path d="M37.1696 50.533C37.1696 55.3208 37.1721 60.1087 37.1684 64.8965C37.1671 66.0369 36.7358 66.7449 35.943 66.9439C35.1765 67.137 34.3613 66.5518 34.1562 65.6179C34.0787 65.2632 34.0674 64.8785 34.0674 64.5074C34.0624 55.231 34.0637 45.9547 34.0637 36.6784C34.0637 36.4285 34.0574 36.1785 34.0737 35.9301C34.145 34.8195 34.8364 34.0398 35.7054 34.0817C36.5682 34.1221 37.1634 34.8884 37.1659 36.0199C37.1734 40.8586 37.1696 45.6958 37.1696 50.533Z" fill="#0078A5"/>
<path d="M47.731 50.5203C47.731 55.2079 47.7322 59.8954 47.7272 64.5845C47.7272 64.9302 47.7135 65.2879 47.6397 65.6202C47.4472 66.4957 46.7069 67.0749 45.9742 66.9687C45.2352 66.8609 44.6901 66.1739 44.635 65.2685C44.62 65.02 44.6263 64.7701 44.6263 64.5201C44.6263 55.169 44.6263 45.8193 44.6263 36.4682C44.6263 36.2437 44.6213 36.0192 44.6338 35.7947C44.6851 34.8877 45.229 34.1977 45.968 34.093C46.7132 33.9867 47.4472 34.5479 47.641 35.422C47.7197 35.7767 47.7285 36.1613 47.7285 36.5325C47.7335 41.1946 47.731 45.8582 47.731 50.5203Z" fill="#0078A5"/>
<path d="M65.6423 50.5128C65.6423 45.701 65.6373 40.8877 65.6448 36.0759C65.6473 34.5778 66.7226 33.6693 67.7879 34.241C68.3468 34.5404 68.6557 35.0792 68.7282 35.8021C68.7545 36.0729 68.7445 36.3498 68.7445 36.6237C68.7457 45.924 68.7445 55.2257 68.7445 64.526C68.7445 64.7251 68.7532 64.9256 68.7382 65.1247C68.6557 66.2307 67.953 67.021 67.099 66.9776C66.2462 66.9341 65.6473 66.1559 65.6448 65.0259C65.6385 60.1887 65.6423 55.35 65.6423 50.5128Z" fill="#0078A5"/>
<path d="M26.6682 50.5157C26.6682 55.3275 26.672 60.1408 26.6657 64.9525C26.6632 66.4597 25.5866 67.431 24.5513 66.7934C24.1712 66.5585 23.8924 66.0152 23.6548 65.5497C23.5285 65.3027 23.5685 64.9196 23.5685 64.5978C23.5648 55.2227 23.5648 45.8461 23.566 36.471C23.566 36.272 23.5598 36.0714 23.576 35.8724C23.6636 34.8052 24.345 34.0524 25.1915 34.0809C26.053 34.1093 26.6632 34.8801 26.6645 36.0026C26.672 40.8398 26.6682 45.677 26.6682 50.5157Z" fill="#0078A5"/>
<path d="M58.1785 50.4948C58.1785 55.3081 58.1835 60.1199 58.176 64.9331C58.1735 66.4552 57.1219 67.4236 56.0778 66.801C55.6952 66.572 55.4038 66.0377 55.17 65.5707C55.035 65.3028 55.0762 64.8927 55.0762 64.547C55.0725 55.2213 55.0725 45.8956 55.0737 36.5684C55.0737 36.3184 55.065 36.067 55.0888 35.8215C55.1888 34.7679 55.9028 34.0255 56.7455 34.0854C57.5833 34.1438 58.1722 34.8966 58.1747 35.9832C58.1822 40.8189 58.1772 45.6576 58.1785 50.4948Z" fill="#0078A5"/>
</svg>
