<svg width="81" height="85" viewBox="0 0 81 85" fill="none" xmlns="http://www.w3.org/2000/svg">
<path d="M79.0939 42.2179C79.0939 64.7582 61.6355 82.9448 40.2031 82.9448C18.7707 82.9448 1.31231 64.7582 1.31231 42.2179C1.31231 19.6776 18.7707 1.49102 40.2031 1.49102C61.6355 1.49102 79.0939 19.6776 79.0939 42.2179Z" fill="white" stroke="#0076A2" stroke-width="2.21837"/>
<path d="M41.0147 13.292C43.5722 14.8603 46.1442 16.4024 48.6835 18.002C53.6511 21.1326 58.6013 24.2935 63.5574 27.4443C64.7961 28.2314 65.3765 29.6898 65.0092 31.0795C64.6284 32.5216 63.4475 33.4592 61.9687 33.4723C60.5062 33.4844 59.0448 33.4784 57.5824 33.4814C57.5515 33.4814 57.5197 33.4955 57.4435 33.5137C57.4435 41.2776 57.4435 49.0526 57.4435 56.9064C57.7964 56.9064 58.1579 56.9074 58.5203 56.9064C60.6325 56.9003 61.7411 57.8893 62.0602 60.1147C63.086 60.1863 63.9459 60.6183 64.5705 61.5306C65.2801 62.5681 65.0979 63.7398 65.1056 64.9296C48.6642 64.9296 32.2401 64.9296 15.766 64.9296C15.7959 63.9941 15.6233 63.0555 15.9809 62.1482C16.436 60.9937 17.238 60.4013 18.8065 60.0915C19.1661 57.2021 21.0652 56.6894 23.4396 56.9346C23.4396 49.089 23.4396 41.3139 23.4396 33.4743C23.2477 33.4743 23.0761 33.4743 22.9045 33.4743C21.5713 33.4743 20.2371 33.4824 18.9039 33.4713C17.426 33.4592 16.2383 32.5166 15.8624 31.0795C15.497 29.6817 16.0706 28.2375 17.3161 27.4453C24.4258 22.924 31.5364 18.4017 38.6528 13.8884C39.0307 13.6482 39.4549 13.4888 39.8578 13.292C40.2434 13.292 40.6291 13.292 41.0147 13.292ZM40.4237 31.8737C44.7136 31.8737 49.0026 31.8737 53.2925 31.8737C56.1845 31.8737 59.0756 31.8767 61.9677 31.8707C62.737 31.8687 63.325 31.4095 63.5255 30.6909C63.7193 29.9966 63.459 29.3073 62.8305 28.8592C62.6849 28.7552 62.5326 28.6604 62.3813 28.5645C55.4895 24.1835 48.5909 19.8146 41.7145 15.4083C40.7978 14.821 40.0478 14.8351 39.1377 15.4204C33.7055 18.9143 28.2472 22.3649 22.7975 25.8315C21.2194 26.8357 19.6327 27.8257 18.0661 28.8511C17.0703 29.5031 16.999 30.9119 17.9427 31.5407C18.2705 31.7587 18.7236 31.8596 19.1198 31.8606C26.2217 31.8788 33.3227 31.8737 40.4237 31.8737ZM63.5545 63.3361C63.5178 62.3864 62.9307 61.7718 62.0458 61.7425C61.4355 61.7234 60.8253 61.7334 60.2141 61.7334C48.6468 61.7334 37.0795 61.7334 25.5113 61.7334C23.3104 61.7334 21.1095 61.7304 18.9077 61.7405C17.9524 61.7456 17.3344 62.3693 17.32 63.3351C32.7222 63.3361 48.1224 63.3361 63.5545 63.3361ZM28.064 56.8751C28.064 49.0526 28.064 41.2806 28.064 33.5167C27.0248 33.5167 26.0241 33.5167 25.0302 33.5167C25.0302 41.323 25.0302 49.0829 25.0302 56.8751C26.0482 56.8751 27.0363 56.8751 28.064 56.8751ZM29.6681 33.4965C29.6681 41.319 29.6681 49.091 29.6681 56.8731C30.6967 56.8731 31.6849 56.8731 32.699 56.8731C32.699 49.0668 32.699 41.2948 32.699 33.4965C31.6791 33.4965 30.691 33.4965 29.6681 33.4965ZM37.3244 56.8872C37.3244 49.0597 37.3244 41.2877 37.3244 33.5167C36.289 33.5167 35.2893 33.5167 34.2993 33.5167C34.2993 41.3351 34.2993 49.1071 34.2993 56.8872C35.3202 56.8872 36.2967 56.8872 37.3244 56.8872ZM41.9478 56.8801C41.9478 49.0597 41.9478 41.2877 41.9478 33.5036C40.9202 33.5036 39.9321 33.5036 38.915 33.5036C38.915 41.3089 38.915 49.0809 38.915 56.8801C39.935 56.8801 40.9231 56.8801 41.9478 56.8801ZM46.5732 56.8791C46.5732 49.0536 46.5732 41.2806 46.5732 33.5026C45.5417 33.5026 44.5536 33.5026 43.5481 33.5026C43.5481 41.3069 43.5481 49.0789 43.5481 56.8791C44.57 56.8791 45.5581 56.8791 46.5732 56.8791ZM48.1831 33.4955C48.1831 41.322 48.1831 49.095 48.1831 56.872C49.2137 56.872 50.2008 56.872 51.2111 56.872C51.2111 49.0647 51.2111 41.2927 51.2111 33.4955C50.1902 33.4955 49.2011 33.4955 48.1831 33.4955ZM55.8375 56.8872C55.8375 49.0597 55.8375 41.2877 55.8375 33.5137C54.8011 33.5137 53.8015 33.5137 52.8143 33.5137C52.8143 41.3281 52.8143 49.1001 52.8143 56.8872C53.8352 56.8872 54.8117 56.8872 55.8375 56.8872ZM20.4135 60.0965C33.7633 60.0965 47.114 60.0965 60.4657 60.0965C60.4233 59.056 59.7967 58.506 58.7151 58.506C49.0295 58.506 39.345 58.505 29.6595 58.5039C27.1058 58.5039 24.5521 58.5009 21.9984 58.506C21.0536 58.508 20.4212 59.1418 20.4135 60.0965Z" fill="#0076A2"/>
<path d="M40.42 28.629C38.2963 28.6189 36.5668 26.7801 36.5861 24.5538C36.6054 22.3507 38.3397 20.5633 40.4528 20.5684C42.5756 20.5734 44.305 22.4102 44.2877 24.6385C44.2703 26.8346 42.5206 28.6391 40.42 28.629ZM40.419 22.17C39.1379 22.1791 38.1054 23.2822 38.1179 24.6285C38.1305 25.9606 39.2005 27.0486 40.4788 27.0284C41.7311 27.0082 42.7578 25.9102 42.7568 24.5911C42.7558 23.2499 41.7041 22.1609 40.419 22.17Z" fill="#0076A2"/>
</svg>
