<svg width="81" height="81" viewBox="0 0 81 81" fill="none" xmlns="http://www.w3.org/2000/svg">
<path d="M35.6729 61.8635L35.0263 57.6765L31.7325 56.6438C31.6829 56.5269 31.6319 56.4108 31.5795 56.2953L32.9465 53.0389L30.3235 49.7412L26.9595 50.5193C26.8602 50.4444 26.7602 50.3709 26.6589 50.2982L26.2384 46.7808L22.3422 45.2561L19.8143 47.6351C19.6902 47.6204 19.5655 47.6071 19.4407 47.5959L17.3457 44.7656L13.2206 45.4219L12.2032 48.7651C12.088 48.8155 11.9736 48.8673 11.8599 48.9205L8.65161 47.5329L5.40268 50.1946L6.16924 53.6091C6.09548 53.7099 6.0231 53.8114 5.95141 53.9142L2.48603 54.341L0.983237 58.2957L3.32704 60.8616C3.31256 60.9875 3.29946 61.1141 3.28844 61.2408L0.5 63.3672L1.14661 67.5542L4.44034 68.587C4.48998 68.7038 4.54099 68.82 4.59338 68.9354L3.22639 72.1918L5.84938 75.4895L9.21343 74.7114C9.3127 74.7863 9.41265 74.8598 9.51399 74.9325L9.93449 78.4499L13.8307 79.9746L16.3586 77.5956C16.4827 77.6103 16.6074 77.6236 16.7322 77.6348L18.8272 80.4651L22.9522 79.8088L23.9697 76.4656C24.0849 76.4152 24.1993 76.3634 24.313 76.3102L27.5213 77.6978L30.7702 75.0354L30.0036 71.6209C30.0774 71.5201 30.1498 71.4186 30.2215 71.3158L33.6869 70.889L35.189 66.9343L32.8452 64.3685C32.8596 64.2425 32.8727 64.1159 32.8838 63.9892L35.6729 61.8635ZM32.5804 67.4429L32.071 68.7836L28.9214 69.1719L28.6346 69.6169C28.4085 69.9675 28.1638 70.3089 27.908 70.6322L27.5668 71.0632L28.2603 74.1517L27.1587 75.0543L24.2434 73.7934L23.7753 74.0334C23.4079 74.2216 23.0274 74.3938 22.6434 74.5442L22.134 74.7443L21.2137 77.7698L19.8157 77.9923L17.911 75.4195L17.3871 75.3901C16.9749 75.3671 16.5606 75.3237 16.1552 75.26L15.6161 75.1753L13.3302 77.3269L12.0094 76.8098L11.6269 73.6129L11.1884 73.3218C10.8431 73.0923 10.5067 72.8439 10.1882 72.5843L9.76353 72.238L6.72073 72.9419L5.83146 71.8245L7.07368 68.8654L6.83723 68.3903C6.65179 68.0174 6.48221 67.6312 6.334 67.2414L6.13684 66.7243L3.15608 65.7902L2.93686 64.3713L5.47162 62.438L5.49988 61.9062C5.52263 61.4885 5.56537 61.0673 5.6281 60.6558L5.71151 60.1087L3.59175 57.7885L4.10118 56.4478L7.25084 56.0595L7.53761 55.6145C7.76372 55.2639 8.00775 54.9225 8.26419 54.5985L8.60542 54.1675L7.91193 51.079L9.01352 50.1764L11.9288 51.4373L12.3969 51.1973C12.7643 51.0091 13.1448 50.8369 13.5288 50.6865L14.0382 50.4864L14.9585 47.4609L16.3565 47.2384L18.2612 49.8112L18.7851 49.8406C19.1973 49.8636 19.6116 49.907 20.017 49.9707L20.5561 50.0554L22.8419 47.9038L24.1628 48.4209L24.5453 51.6178L24.9838 51.9089C25.3291 52.1384 25.6655 52.3861 25.984 52.6464L26.4087 52.9927L29.4528 52.2888L30.3421 53.4069L29.0999 56.366L29.3363 56.8411C29.5218 57.2133 29.6914 57.5995 29.8396 57.9893L30.0367 58.5064L33.0175 59.4412L33.2367 60.8602L30.702 62.7934L30.6737 63.3252C30.6509 63.7429 30.6082 64.1634 30.5455 64.5756L30.4621 65.1227L32.5804 67.4429Z" fill="#0078A5"/>
<path d="M38.9807 69.9879H80.5012L76.1114 52.1658L57.8159 43.2915C57.8387 43.0179 57.8531 42.7422 57.8531 42.4623V40.7991C61.02 38.6168 63.1198 35.3625 63.3735 31.6946C64.0766 31.314 65.0893 30.5821 65.6325 29.3352C66.0303 28.4221 66.1116 27.4131 65.88 26.3223H68.0859V22.3599L66.0303 21.2425V18.012C66.0303 10.7099 60.918 4.30131 53.5109 2.19591C53.2166 1.19743 52.2666 0.464844 51.1423 0.464844H45.9515C44.8712 0.464844 43.951 1.14215 43.6187 2.08115C40.0864 2.99916 36.8982 4.95763 34.5819 7.64448C32.0624 10.5678 30.6754 14.2497 30.6754 18.0127V20.9801L28.1875 22.0975V26.323H30.7271C30.5734 27.3327 30.6871 28.2794 31.0738 29.1498C31.6612 30.4729 32.7455 31.2685 33.4693 31.6764C33.7127 35.2848 35.7414 38.4936 38.816 40.6781V42.4637C38.816 42.773 38.8318 43.0788 38.8601 43.381L32.7434 46.4002L33.7292 48.4574L39.3592 45.6775C40.6676 49.4293 44.1957 52.1245 48.3346 52.1245C52.5038 52.1245 56.0526 49.3894 57.3375 45.5949L74.1819 53.7653L77.6142 67.6999H38.9807V69.9879ZM30.4417 23.5865L32.9296 22.4691V18.012C32.9296 11.8 37.2077 6.40391 43.4863 4.49093V13.5968H45.7405V2.85292C45.7405 2.83893 45.8039 2.75217 45.9521 2.75217H51.143C51.2912 2.75217 51.3546 2.83893 51.3546 2.85292V13.5961H53.6088V4.61617C59.6593 6.63621 63.7775 11.9749 63.7775 18.012V22.6118L65.8331 23.7292V24.0336H30.4417V23.5865ZM35.698 30.9431V30.135L34.9473 29.8649C34.9342 29.86 33.643 29.3688 33.1281 28.2094C32.8875 27.6671 32.853 27.0346 33.0233 26.3223H63.5472C63.8098 27.1305 63.8216 27.826 63.5782 28.3955C63.1336 29.4388 61.9389 29.8509 61.9355 29.8523L61.1462 30.1042V30.9438C61.1462 36.6842 55.4383 41.354 48.4221 41.354C41.4065 41.3533 35.698 36.6835 35.698 30.9431ZM48.3346 49.8372C44.3287 49.8372 41.0695 46.529 41.0695 42.463V42.0026C43.243 43.0452 45.7515 43.6413 48.4221 43.6413C51.021 43.6413 53.4668 43.0767 55.5996 42.0859V42.463C55.6003 46.529 52.3411 49.8372 48.3346 49.8372Z" fill="#0078A5"/>
</svg>
