<svg width="100" height="101" viewBox="0 0 100 101" fill="none" xmlns="http://www.w3.org/2000/svg">
<circle cx="50" cy="50.436" r="50" fill="white"/>
<circle cx="50" cy="50.436" r="49" stroke="#0076A2" stroke-opacity="0.5" stroke-width="2"/>
<g clip-path="url(#clip0_1209_2078)">
<path d="M38.5394 43.3904C38.2743 43.4335 37.9614 43.4014 37.7514 43.5326C37.0285 43.9821 36.256 44.2179 35.4176 44.3307C34.5185 44.4518 33.6323 44.6692 32.737 44.8233C32.0141 44.9472 31.2848 45.027 30.5619 45.149C29.8418 45.271 29.1271 45.4224 28.4097 45.5582C28.1446 45.6086 27.8786 45.6572 27.6107 45.693C26.897 45.7902 26.1796 45.8581 25.4705 45.9783C24.5742 46.1297 23.6862 46.3361 22.7899 46.492C22.0817 46.615 21.3652 46.7801 20.6533 46.7792C19.4249 46.7764 18.7699 46.1572 18.4498 45.0545C18.1819 44.1307 17.992 43.1464 18.0003 42.1905C18.0094 41.041 18.2525 39.8924 18.4167 38.7466C18.5186 38.0384 18.6177 37.3247 18.7947 36.6339C19.0965 35.4597 19.424 34.2891 19.8047 33.1387C20.2579 31.7691 20.7322 30.4022 21.2799 29.0683C21.9202 27.5079 22.7147 26.0208 23.6247 24.5943C24.3118 23.5182 25.0549 22.4953 26.0236 21.6596C26.6071 21.1569 27.2603 20.767 28.0657 20.7367C28.6446 20.7147 29.0858 20.9872 29.4831 21.3761C30.4527 22.3238 31.4224 23.2705 32.404 24.2053C33.3085 25.0667 34.2268 25.9135 35.1396 26.7657C36.1964 27.7519 37.2679 28.7225 38.3082 29.7261C39.0907 30.4811 39.9191 31.2141 40.5567 32.081C40.8613 32.4956 41.22 32.5846 41.5832 32.714C42.5832 33.0708 43.6106 33.347 44.6207 33.6763C45.8775 34.0854 47.1251 34.5267 48.3828 34.9322C49.0589 35.1496 49.7525 35.312 50.4323 35.5193C50.7111 35.6046 50.9735 35.7413 51.3313 35.8908C51.4065 35.2955 51.5249 34.7377 51.5221 34.1818C51.5212 33.9799 51.2478 33.7607 51.0652 33.5827C50.6836 33.2094 50.268 32.869 49.8873 32.4947C49.0929 31.7131 48.825 30.6379 49.4883 29.6105C49.8369 29.0702 50.0974 28.472 50.3974 27.9005C50.6974 27.3281 51.2506 27.1409 51.8138 26.9795C52.5835 26.7593 53.2734 27.1547 53.9972 27.2886C54.2256 27.3308 54.4357 27.4813 54.6641 27.5106C54.9283 27.5446 55.1696 27.5611 55.4301 27.3106C55.9677 26.7914 56.5888 26.3575 57.186 25.9025C57.397 25.7419 57.5428 25.5896 57.519 25.2942C57.4695 24.6897 57.4474 24.0833 57.4217 23.4769C57.3594 21.9541 58.2153 21.2064 59.5831 20.9128C60.0253 20.8184 60.4362 20.5716 60.8793 20.4918C61.6655 20.3496 62.4508 20.456 62.9976 21.0862C63.4361 21.5908 63.7535 22.2018 64.114 22.7724C64.2388 22.9705 64.2947 23.2274 64.4544 23.3833C64.6048 23.531 64.8415 23.6338 65.0543 23.6659C65.8102 23.7796 66.5698 23.8879 67.3322 23.9228C67.5432 23.9328 67.8009 23.7154 67.9771 23.542C68.4349 23.0879 68.8633 22.6036 69.2954 22.1238C70.0724 21.2614 71.3347 21.3266 72.2154 21.8577C72.6071 22.0944 72.9777 22.3779 73.3924 22.5595C74.3593 22.9834 75.0831 24.2558 74.6345 25.3484C74.3831 25.9602 74.2831 26.6382 74.151 27.2932C74.1244 27.4271 74.2281 27.6152 74.3226 27.74C74.7914 28.3629 75.2638 28.9848 75.7665 29.5811C75.8885 29.7261 76.1289 29.8518 76.3133 29.8499C76.9875 29.8417 77.6637 29.7949 78.3361 29.727C79.3801 29.6215 80.4828 30.5435 80.6525 31.5269C80.7295 31.9727 80.9616 32.3901 81.0809 32.8314C81.3744 33.9176 81.2029 35.2175 79.9296 35.8028C79.3507 36.0679 78.8205 36.4468 78.293 36.8101C78.1673 36.8972 78.1003 37.1238 78.0765 37.2953C77.971 38.0384 77.8976 38.7861 77.8003 39.5301C77.7426 39.9732 78.0123 40.2209 78.2976 40.4897C78.8434 41.0025 79.4195 41.4969 79.8846 42.0785C80.424 42.7528 80.3011 43.5454 79.958 44.2738C79.6892 44.8444 79.3168 45.3646 79.015 45.9205C78.5416 46.7948 77.5306 47.2865 76.5711 47.0526C75.983 46.9094 75.4032 46.7306 74.8262 46.5462C74.2327 46.3563 73.863 46.7306 73.4657 47.048C73.0327 47.3929 72.6089 47.7507 72.1686 48.0855C71.9337 48.2644 71.7961 48.4534 71.8236 48.7708C71.8741 49.3598 71.897 49.9524 71.9209 50.5432C71.9842 52.133 71.0897 52.7889 69.7687 53.1293C69.5385 53.1889 69.3128 53.2669 69.0871 53.3357C70.1898 55.8135 70.7824 58.3803 70.9457 61.0829C72.0328 61.0829 73.1272 61.0829 74.196 61.0829C74.5776 60.427 74.9409 59.7555 75.35 59.1124C75.9738 58.1308 76.9463 57.7455 78.0517 57.7271C80.0241 57.6941 81.9973 57.7171 83.9697 57.7189C84.4064 57.7189 84.8091 57.8317 84.988 58.2702C85.1458 58.6574 85.0008 58.9977 84.7541 59.3344C84.1697 60.1307 83.6238 60.9545 83.0615 61.7664C83.0065 61.8462 82.9468 61.9232 82.8872 62.004C83.5725 62.97 84.2871 63.9405 84.9605 64.9396C85.2999 65.4432 84.8651 66.2404 84.2541 66.245C82.0212 66.2606 79.7855 66.322 77.5572 66.2193C76.527 66.1716 75.6867 65.5193 75.1409 64.6001C74.8702 64.1442 74.6198 63.6717 74.4006 63.1892C74.2666 62.8956 74.0685 62.8461 73.7841 62.8516C73.0502 62.8654 72.3163 62.8562 71.5824 62.8562C70.9558 62.8562 70.8054 63.0562 70.8127 63.691C70.8191 64.3121 70.8072 64.9441 70.7008 65.5533C70.5476 66.4312 70.3613 67.3137 70.0788 68.1568C69.7128 69.2494 69.2935 70.3319 68.7954 71.3704C68.2826 72.4382 67.7092 73.4886 67.0487 74.4711C66.0799 75.9132 64.8947 77.1755 63.5819 78.3268C62.3655 79.3937 61.0481 80.3093 59.6436 81.0854C58.7446 81.5817 57.7639 81.9413 56.7979 82.3037C55.9833 82.6091 55.1522 82.9137 54.3008 83.0715C53.0046 83.3119 51.6881 83.4476 50.3754 83.5834C49.7965 83.643 49.2057 83.5917 48.6204 83.5935C47.4242 83.5981 46.2463 83.4559 45.0904 83.1476C44.0015 82.8568 42.8823 82.6422 41.8346 82.2413C40.7567 81.8285 39.7522 81.2276 38.7128 80.7148C37.3697 80.0524 36.2221 79.1057 35.0919 78.1525C34.4057 77.5737 33.8011 76.8893 33.2131 76.2059C32.6186 75.5151 32.0279 74.8069 31.5472 74.0372C30.9087 73.0143 30.327 71.9483 29.8188 70.8557C29.3803 69.9145 29.017 68.9274 28.7345 67.9284C28.4639 66.9697 28.2804 65.9762 28.1685 64.9854C28.0391 63.8424 27.9896 62.6856 27.9831 61.5352C27.9786 60.6453 28.0253 59.7435 28.174 58.8684C28.3336 57.9253 28.6804 57.0153 28.8693 56.0759C29.1803 54.5356 29.8491 53.1338 30.5958 51.7881C31.2408 50.6257 32.0398 49.5368 32.8627 48.4883C34.2167 46.7627 35.8707 45.3426 37.6835 44.1114C37.9697 43.917 38.2761 43.7537 38.5733 43.5766C38.5614 43.5124 38.5504 43.4519 38.5394 43.3904ZM64.3635 62.8553C64.1856 63.7635 64.0415 64.6295 63.8397 65.4817C63.6663 66.2165 63.4856 66.9596 63.2031 67.6568C62.8967 68.4137 62.5132 69.1476 62.0848 69.8439C61.6554 70.542 61.1848 71.23 60.6353 71.8346C59.8629 72.6841 59.0776 73.5381 58.0685 74.1317C57.1906 74.6491 56.353 75.2582 55.4255 75.6628C54.5082 76.0627 53.5119 76.3059 52.5303 76.5269C51.6854 76.7168 50.813 76.8645 49.9506 76.8765C48.3856 76.8994 46.815 76.8398 45.3206 76.2609C44.4666 75.9306 43.5675 75.6921 42.7584 75.2756C41.5814 74.6702 40.4641 73.9445 39.5247 72.9895C38.9495 72.4042 38.3431 71.8391 37.8431 71.1933C37.0991 70.2319 36.4138 69.2246 36.0157 68.0504C35.7102 67.1495 35.2552 66.2854 35.0635 65.3643C34.847 64.3249 34.8332 63.2406 34.7635 62.1737C34.7277 61.6269 35.1579 61.1893 35.6451 61.2049C36.1212 61.2196 36.4863 61.6416 36.5028 62.1617C36.523 62.7837 36.4854 63.4204 36.6111 64.0222C36.8945 65.3771 37.2477 66.711 37.8853 67.966C38.6311 69.4347 39.5953 70.741 40.8044 71.8245C42.496 73.3391 44.5014 74.3427 46.7151 74.8546C47.5746 75.0536 48.4773 75.1068 49.3635 75.1353C50.0204 75.1564 50.6928 75.0793 51.3405 74.9564C52.3046 74.772 53.2871 74.5986 54.199 74.2555C55.3485 73.8234 56.4227 73.207 57.4126 72.4565C58.5235 71.6135 59.4721 70.608 60.2491 69.4677C61.2344 68.0219 61.9242 66.4275 62.2361 64.691C62.3426 64.0965 62.4297 63.4974 62.5297 62.8755C60.2353 62.8755 58.0685 62.8755 55.9044 62.8755C55.1989 66.7413 52.3982 68.9201 48.3856 68.554C46.1307 68.3485 43.3841 65.5065 43.1822 63.2369C42.8208 59.1674 45.2922 56.4621 48.6599 55.9126C50.3396 55.6383 51.9487 56.0795 53.2963 57.1061C54.6054 58.1033 55.498 59.4426 55.7824 61.0737C60.2766 61.0737 64.714 61.0737 69.177 61.0737C69.077 60.3031 69 59.572 68.8844 58.8473C68.7743 58.1546 68.6706 57.4547 68.4789 56.7823C68.2688 56.0465 67.9863 55.3291 67.689 54.6237C67.4652 54.0925 67.3523 53.4907 66.7258 53.1898C66.4313 53.0476 66.1836 52.7467 65.991 52.466C65.6148 51.9192 65.2855 51.3395 64.9516 50.7652C64.802 50.5083 64.6213 50.39 64.3057 50.367C63.5902 50.3147 62.8801 50.19 62.1655 50.1138C61.9985 50.0964 61.7591 50.0927 61.6609 50.19C61.1665 50.6826 60.7105 51.2147 60.2353 51.7275C59.6088 52.4018 58.5538 52.9018 57.5777 52.344C56.9787 52.0018 56.3392 51.7293 55.7475 51.3752C54.7852 50.8 54.4375 49.9084 54.5944 49.0029C54.721 48.2727 54.9724 47.5645 55.1384 46.8397C55.1751 46.6792 55.1356 46.4489 55.0393 46.3205C54.566 45.6875 54.0697 45.071 53.5596 44.4674C53.4578 44.3463 53.2605 44.2491 53.1037 44.2426C52.4789 44.2169 51.8524 44.2325 51.2368 44.2325C50.9258 45.038 50.4919 45.7425 49.7387 46.1278C48.992 46.5095 48.1746 46.5893 47.3269 46.2682C47.3269 46.8856 47.3306 47.481 47.326 48.0763C47.3178 49.3102 47.1939 50.5239 46.7829 51.7018C46.2747 53.1577 45.4876 53.4503 44.2189 53.3797C43.4263 53.3357 42.6208 53.099 41.8686 52.8192C40.6466 52.3642 40.2852 51.4294 40.3595 50.2469C40.4659 48.5571 40.5989 46.8682 40.7191 45.1784C40.7365 44.9408 40.7475 44.7022 40.7622 44.4527C40.4255 44.6022 40.0411 44.7068 39.7338 44.9224C38.6054 45.7141 37.4716 46.5049 36.3982 47.3672C34.9469 48.5341 33.7883 49.9891 32.7838 51.5385C32.1178 52.5669 31.627 53.7155 31.1151 54.8365C30.8408 55.4365 30.6683 56.086 30.4885 56.7235C30.3436 57.2391 30.2408 57.7684 30.1472 58.2968C29.9894 59.1812 29.7757 60.0646 29.7243 60.9572C29.6234 62.6975 29.7298 64.435 30.1693 66.1321C30.4619 67.2633 30.6912 68.4265 31.1307 69.5008C31.7123 70.9236 32.4058 72.3116 33.3691 73.5317C34.0241 74.361 34.6653 75.2105 35.3983 75.9683C36.6138 77.2251 37.989 78.2892 39.5201 79.1561C40.8438 79.9066 42.1979 80.5753 43.6657 80.9762C44.7647 81.2762 45.8729 81.6147 46.9985 81.7303C48.2737 81.8606 49.5718 81.7661 50.8598 81.7597C52.2817 81.7532 53.6486 81.4312 55.0072 81.0404C56.1925 80.7001 57.3089 80.2194 58.4199 79.6809C59.7666 79.0286 61.0023 78.2177 62.116 77.2553C63.1544 76.3581 64.0984 75.3353 64.9892 74.2876C65.6213 73.5455 66.1478 72.6987 66.6258 71.8447C67.1138 70.9713 67.5083 70.0411 67.8991 69.1173C68.1477 68.5293 68.355 67.9174 68.511 67.2991C68.7211 66.4661 68.8862 65.6203 69.0284 64.7726C69.1146 64.2589 69.1211 63.7314 69.1651 63.2103C69.1862 62.9571 69.0752 62.8534 68.8183 62.8544C67.3395 62.858 65.857 62.8553 64.3635 62.8553ZM73.019 24.3622C72.3851 24.0099 71.8934 23.6934 71.365 23.4604C71.1191 23.3521 70.6944 23.2778 70.5366 23.4099C70.0155 23.8475 69.5641 24.3723 69.1146 24.8878C68.6055 25.4713 67.9982 25.7162 67.223 25.6089C66.5506 25.5162 65.8717 25.452 65.1947 25.4208C64.1984 25.375 63.3599 25.0786 62.8398 24.1549C62.5508 23.6411 62.2352 23.143 61.9453 22.6302C61.783 22.3439 61.6068 22.1696 61.2362 22.2871C60.6656 22.4678 60.0766 22.5907 59.5097 22.7815C59.3684 22.8292 59.1886 23.0357 59.184 23.1742C59.1675 23.7494 59.1565 24.3356 59.2455 24.9016C59.3666 25.6676 59.007 26.785 58.4731 27.1831C57.8226 27.6675 57.2016 28.1904 56.5695 28.7004C56.0604 29.1114 55.4898 29.4454 54.832 29.3426C54.0706 29.2243 53.3073 29.0344 52.5881 28.7601C52.1276 28.5839 51.9496 28.7647 51.7698 29.0857C51.5028 29.5591 51.2487 30.0398 50.9928 30.5187C50.8634 30.76 50.8359 30.9572 51.0946 31.1746C51.6019 31.6012 52.0753 32.0681 52.5542 32.5277C53.0862 33.0387 53.4724 33.6726 53.3541 34.4038C53.2284 35.1808 53.1027 35.9431 53.0963 36.7348C53.0908 37.4531 52.8358 38.1201 52.2156 38.5485C51.6459 38.942 51.0377 39.2805 50.4405 39.6337C50.0956 39.8374 49.8075 40.0282 49.9791 40.5254C50.147 41.0126 50.2148 41.5345 50.3754 42.0253C50.4323 42.2006 50.6212 42.4455 50.768 42.4593C51.234 42.5005 51.7129 42.4868 52.1771 42.4235C53.2284 42.2813 54.4467 42.4693 55.0714 43.5326C55.3833 44.0647 55.8934 44.4756 56.2576 44.982C56.5374 45.371 56.853 45.8013 56.9365 46.2526C57.0979 47.126 56.7548 47.9644 56.4787 48.7855C56.3558 49.1506 56.398 49.7056 56.6401 49.8414C57.0979 50.0992 57.5346 50.4056 58.0162 50.6056C58.2584 50.7065 58.6767 50.7322 58.8464 50.59C59.2877 50.2193 59.6455 49.746 60.0179 49.2983C60.5408 48.6699 61.2105 48.3057 62.016 48.3158C62.6884 48.324 63.3581 48.4708 64.0305 48.536C64.814 48.6121 65.602 48.7139 66.1258 49.3735C66.4918 49.834 66.7395 50.3863 67.0817 50.8688C67.3441 51.2385 67.412 51.9055 68.1 51.7422C68.7321 51.5917 69.3486 51.3734 69.9632 51.1578C70.0595 51.1239 70.1669 50.9487 70.1669 50.8386C70.1659 50.2771 70.1577 49.7129 70.1036 49.1543C70.01 48.1938 70.2192 47.2755 71.076 46.6673C71.6649 46.2499 72.2154 45.7783 72.7704 45.316C73.3639 44.8206 74.029 44.55 74.7996 44.7123C75.4803 44.8554 76.1527 45.0417 76.8178 45.2453C77.2334 45.3728 77.4343 45.1508 77.6022 44.8545C77.8563 44.4078 78.0829 43.9445 78.3379 43.4977C78.47 43.2675 78.5058 43.1014 78.2746 42.8904C77.7141 42.3794 77.1738 41.8455 76.6435 41.3034C76.1858 40.8355 75.8839 40.2511 75.9894 39.6062C76.116 38.832 76.2637 38.0714 76.2426 37.2788C76.2289 36.7495 76.4032 36.2679 76.761 35.8358C77.3215 35.1597 78.1526 34.9037 78.8287 34.4111C79.0883 34.2221 79.5186 34.1387 79.4296 33.7093C79.3012 33.0901 79.1269 32.4755 78.9085 31.8819C78.8535 31.7315 78.5654 31.5865 78.3774 31.5773C77.66 31.5416 76.9398 31.5828 76.2225 31.5572C75.539 31.5333 74.9556 31.2847 74.5125 30.7251C74.0272 30.1114 73.5208 29.5132 72.9979 28.9316C72.3906 28.2555 72.2319 27.4969 72.4594 26.6299C72.6594 25.8703 72.8373 25.1034 73.019 24.3622ZM23.9916 44.45C24.654 44.3435 25.3044 44.2426 25.9539 44.1353C26.6043 44.0271 27.252 43.906 27.9033 43.8032C28.6005 43.6931 29.3005 43.6005 29.9977 43.4931C30.649 43.3922 31.3004 43.2858 31.9499 43.1739C32.9076 43.0088 33.8608 42.8079 34.8231 42.6767C35.7386 42.5519 36.6239 42.2795 37.3661 41.7832C38.2495 41.1933 39.0614 40.4539 39.499 39.4328C39.7568 38.831 40.076 38.2155 40.1439 37.5825C40.276 36.3541 40.2466 35.1001 39.6091 33.979C39.2568 33.3589 38.8834 32.7195 38.3889 32.2186C37.3798 31.1966 36.2744 30.2701 35.2231 29.2894C33.9177 28.072 32.6269 26.8373 31.3261 25.6144C31.0912 25.3933 30.8362 25.1942 30.5509 24.9521C30.538 26.6052 30.383 28.1564 29.995 29.6839C29.7592 30.615 29.6133 31.5691 29.3711 32.4984C29.1216 33.4561 28.8079 34.3974 28.5152 35.3432C28.4217 35.645 28.3198 35.9459 28.1978 36.2367C27.7905 37.2054 27.385 38.1751 26.9548 39.1338C26.6337 39.8502 26.3126 40.5722 25.9255 41.2538C25.3264 42.3125 24.6696 43.3372 23.9916 44.45ZM28.3125 22.6091C27.8162 22.4595 27.4979 22.7182 27.2171 22.9971C26.7557 23.4576 26.2787 23.9145 25.8952 24.4365C25.3723 25.1493 24.8998 25.9043 24.4641 26.674C24.0274 27.4446 23.6366 28.2436 23.2733 29.0518C22.8238 30.0508 22.4064 31.0654 22.0083 32.0856C21.734 32.7883 21.4955 33.5066 21.2762 34.2295C21.0386 35.012 20.8267 35.8019 20.6331 36.5963C20.4744 37.2495 20.3442 37.91 20.2267 38.5723C20.0726 39.442 19.8579 40.3126 19.8258 41.1878C19.7901 42.1804 19.9029 43.1821 19.9974 44.1747C20.0634 44.8729 20.5166 45.127 21.0102 44.8068C21.9092 44.2225 22.4982 43.3491 23.099 42.5015C23.5577 41.8547 23.9577 41.163 24.3338 40.464C24.7778 39.6383 25.1861 38.7925 25.576 37.9403C25.8457 37.3504 26.0649 36.7367 26.2943 36.1294C26.5245 35.5202 26.7594 34.9111 26.9566 34.29C27.1988 33.5258 27.4107 32.7516 27.6245 31.9782C27.8685 31.0976 28.1409 30.2215 28.3235 29.3279C28.4785 28.5665 28.5464 27.784 28.6115 27.0079C28.7336 25.5309 28.9189 24.0448 28.3125 22.6091ZM41.7695 34.6313C42.43 37.4761 41.6594 39.8979 39.8696 42.0308C40.343 42.1785 40.7695 42.3134 41.1961 42.4446C41.5484 42.5528 41.9043 42.6464 42.2539 42.7629C42.9676 43.0005 43.6767 43.2528 44.3895 43.4913C45.4793 43.8555 46.5664 44.228 47.6645 44.5656C47.9563 44.6555 48.2893 44.671 48.5948 44.6417C49.0874 44.5949 49.281 44.1766 49.414 43.9472C49.1479 43.4032 48.8993 42.9611 48.714 42.4932C48.5617 42.1107 48.5342 41.6749 48.3636 41.3034C47.9746 40.4548 48.0407 39.1659 48.8984 38.5421C49.4296 38.1558 50.0057 37.8311 50.5836 37.4641C47.6673 36.5275 44.7739 35.5973 41.7695 34.6313ZM53.9275 61.1114C53.5724 59.4839 51.9322 57.3345 48.7791 57.7226C46.4215 58.0134 44.7198 60.1261 44.8968 62.4672C45.1106 65.2845 47.2013 66.9835 49.7708 66.8514C52.2459 66.7239 53.933 64.7542 53.9779 62.8553C52.8184 62.8553 51.6597 62.8599 50.5001 62.8534C49.8543 62.8498 49.5259 62.5296 49.5314 61.9379C49.5369 61.3627 49.8259 61.1132 50.4965 61.1123C51.6248 61.1104 52.7541 61.1114 53.9275 61.1114ZM42.5428 44.8637C42.4841 45.7627 42.4373 46.6223 42.3694 47.4791C42.2896 48.4855 42.1951 49.4909 42.0979 50.4955C42.0575 50.911 42.2942 51.1486 42.6364 51.2257C43.2896 51.3734 43.9556 51.4771 44.6216 51.5523C44.7629 51.5679 45.006 51.4193 45.0647 51.2863C45.2179 50.9349 45.3729 50.5533 45.3904 50.1781C45.4555 48.769 45.4729 47.3571 45.483 45.9462C45.4839 45.8324 45.3133 45.6618 45.1849 45.6132C44.7565 45.4472 44.3143 45.3132 43.8721 45.1894C43.4501 45.071 43.0235 44.9802 42.5428 44.8637ZM82.4735 59.4601C80.8818 59.4601 79.3837 59.4582 77.8847 59.4647C77.7737 59.4656 77.6618 59.527 77.5517 59.5637C76.8132 59.8078 76.5619 60.4628 76.2252 61.0985C77.9811 61.0985 79.6911 61.0985 81.3662 61.0985C81.7304 60.5591 82.0817 60.0399 82.4735 59.4601ZM76.2206 62.8553C76.3399 63.0773 76.4344 63.2204 76.4977 63.3754C76.7628 64.0304 77.3031 64.4139 77.9792 64.4139C79.4388 64.4139 80.8992 64.4139 82.4258 64.4139C82.1349 64.0204 81.8707 63.6341 81.5744 63.2736C81.4377 63.1076 81.2396 62.8764 81.0662 62.8727C79.4672 62.8424 77.8682 62.8553 76.2206 62.8553Z" fill="#0076A2"/>
<path d="M23.0442 64.0329C23.0002 62.6623 22.8846 61.3569 22.9387 60.0579C22.9901 58.8167 23.1873 57.5773 23.3809 56.3462C23.5139 55.4985 23.7185 54.6582 23.957 53.8344C24.0579 53.484 24.3056 53.1657 24.5258 52.862C24.7533 52.5473 25.1046 52.6161 25.3936 52.7354C25.7495 52.8822 25.9605 53.1923 25.877 53.5904C25.7706 54.0959 25.5954 54.5867 25.4752 55.0903C25.2844 55.8857 25.0927 56.682 24.9413 57.4847C24.5982 59.3102 24.7817 61.1569 24.7661 62.9953C24.7606 63.6219 24.9202 64.2494 24.9799 64.8787C25.0184 65.286 25.0542 65.7025 25.0138 66.1071C24.9688 66.5612 24.1047 66.7832 23.6708 66.5071C23.0791 66.13 22.4617 65.7924 21.8654 65.4227C21.5158 65.2053 21.1682 64.9338 21.1883 64.4833C21.2076 64.0457 21.4819 63.7228 21.9259 63.6366C22.114 63.5999 22.336 63.6641 22.524 63.732C22.7075 63.7971 22.8681 63.9274 23.0442 64.0329Z" fill="#0076A2"/>
<path d="M74.4497 72.4207C73.7497 73.8389 73.1388 75.3214 72.3159 76.6745C71.5315 77.9653 70.4756 79.0827 69.1867 79.911C68.9014 80.0945 68.429 80.1046 68.0776 80.0312C67.7593 79.9643 67.5382 79.2946 67.7244 78.9515C67.8758 78.6717 68.1923 78.468 68.4638 78.2708C69.2537 77.6956 69.9417 77.0204 70.4619 76.1975C71.0297 75.2994 71.5976 74.393 72.0618 73.439C72.381 72.783 72.548 72.0473 72.7379 71.3345C72.925 70.6345 72.9975 69.8997 73.2378 69.2209C73.3277 68.9667 73.7442 68.6814 74.0158 68.6778C74.2919 68.6741 74.6818 68.9356 74.8313 69.1924C75.2854 69.9704 75.6414 70.8052 76.0468 71.6115C76.2661 72.0482 76.1267 72.6418 75.7303 72.8693C75.3432 73.0913 74.8451 72.9537 74.557 72.5491C74.5047 72.4766 74.4423 72.4115 74.4497 72.4207Z" fill="#0076A2"/>
<path d="M21.7903 25.1815C21.7307 25.6641 21.4646 26.0512 21.0894 26.1439C20.6078 26.2622 20.3363 26.0962 20.0354 25.6228C19.4941 24.7705 18.9125 23.9449 18.3566 23.1018C18.096 22.7064 18.2364 22.2817 18.6942 21.9716C19.0785 21.7111 19.5226 21.7863 19.7941 22.1698C20.1886 22.7257 20.5326 23.3174 20.917 23.8816C21.0904 24.1357 21.3224 24.3486 21.4986 24.6008C21.6224 24.776 21.6958 24.987 21.7903 25.1815Z" fill="#0076A2"/>
<path d="M18.7003 30.3189C18.7012 30.9509 18.2719 31.2922 17.6509 31.1271C16.617 30.8519 15.5868 30.5629 14.5575 30.2721C14.23 30.1794 13.9758 29.7235 14.0208 29.3492C14.0639 28.9905 14.4208 28.597 14.7813 28.6428C15.4436 28.7281 16.0996 28.8768 16.7491 29.0364C17.1775 29.1419 17.5848 29.3263 18.0095 29.4483C18.5444 29.6024 18.7003 29.7813 18.7003 30.3189Z" fill="#0076A2"/>
<path d="M17.5044 37.2426C17.4549 37.5334 17.2127 37.7875 16.8384 37.9003C16.2183 38.0875 15.5981 38.3242 14.9633 38.3911C14.7018 38.4186 14.3211 38.1168 14.1377 37.8627C13.9533 37.6077 13.9221 37.2627 14.245 36.9453C14.722 36.4756 15.3477 36.5298 15.9027 36.3408C15.9999 36.3078 16.1201 36.3334 16.2118 36.2931C16.8935 35.9913 17.5164 36.3894 17.5044 37.2426Z" fill="#0076A2"/>
<path d="M64.6497 41.8423C62.2811 42.0671 59.5574 39.7012 59.7959 36.627C59.9775 34.2776 61.9535 32.1374 64.6635 32.1246C67.178 32.1126 69.7824 34.1795 69.5329 37.4903C69.3788 39.5177 67.3982 42.0231 64.6497 41.8423ZM67.7871 37.0224C67.6963 35.1299 66.4432 33.8988 64.6864 33.8896C62.8718 33.8804 61.5591 35.1592 61.5701 37.0334C61.5802 38.8709 62.8526 40.1177 64.6516 40.1287C66.4248 40.1388 67.6761 38.9187 67.7871 37.0224Z" fill="#0076A2"/>
</g>
<defs>
<clipPath id="clip0_1209_2078">
<rect width="71.0774" height="63.1751" fill="white" transform="translate(14 20.436)"/>
</clipPath>
</defs>
</svg>
