<svg width="101" height="101" viewBox="0 0 101 101" fill="none" xmlns="http://www.w3.org/2000/svg">
<circle cx="50.1797" cy="50.2969" r="50" fill="white"/>
<circle cx="50.1797" cy="50.2969" r="49" stroke="#0076A2" stroke-opacity="0.5" stroke-width="2"/>
<path d="M82.8123 50.6736C82.8123 52.101 82.8316 53.5283 82.8067 54.953C82.7709 57.2417 81.308 58.7547 79.0227 58.8403C77.7806 58.8872 76.5303 58.9287 75.2966 58.8293C74.314 58.7492 73.9993 59.282 73.7868 60.0413C73.5743 60.8005 72.7463 61.4935 73.7868 62.3411C74.7804 63.1528 75.6526 64.1191 76.5276 65.0606C78.0014 66.6454 78.0263 68.7133 76.5276 70.2677C74.452 72.4211 72.335 74.536 70.1849 76.615C68.5841 78.1666 66.514 78.1252 64.8746 76.5901C64.1707 75.9303 63.431 75.2842 62.8349 74.5332C61.971 73.4454 61.1264 73.1776 59.8236 73.8899C59.0287 74.3262 58.6313 74.6851 58.7003 75.6238C58.7858 76.8137 58.761 78.0175 58.7086 79.2102C58.6092 81.4327 57.1105 82.8988 54.8997 82.9236C52.0016 82.9567 49.1008 82.954 46.2027 82.9264C43.8345 82.9043 42.3469 81.4217 42.2779 79.0418C42.242 77.7994 42.2033 76.5514 42.2889 75.3146C42.391 73.832 41.0496 74.1025 40.3541 73.5973C39.7717 73.1749 39.308 73.3488 38.8278 73.8761C37.9611 74.8287 37.0392 75.7315 36.1008 76.6122C34.4724 78.139 32.3913 78.1472 30.7904 76.5901C28.679 74.536 26.5979 72.4515 24.5444 70.3422C22.9822 68.7354 22.985 66.6592 24.5002 65.0275C25.1571 64.3207 25.7975 63.5725 26.5593 62.9927C27.7489 62.0899 27.9089 61.1622 27.183 59.8563C26.8021 59.1716 26.5068 58.7796 25.6678 58.832C24.4754 58.9066 23.2748 58.879 22.0797 58.8458C19.7143 58.7796 18.2156 57.2694 18.1962 54.9115C18.1742 52.0595 18.1742 49.2048 18.1962 46.3528C18.2128 43.9839 19.7032 42.4654 22.0548 42.3964C23.2058 42.3633 24.3595 42.3246 25.5049 42.4102C26.4433 42.482 26.8021 42.0817 27.2382 41.2838C27.9586 39.9696 27.6495 39.133 26.5813 38.2689C25.7975 37.6366 25.1102 36.8774 24.4312 36.1292C23.0319 34.5858 22.9932 32.5179 24.4312 31.0215C26.5344 28.8321 28.6873 26.6869 30.8733 24.5776C32.4244 23.0812 34.4834 23.1254 36.0815 24.6024C36.7908 25.2568 37.4533 25.9636 38.135 26.6483C39.5123 28.0287 40.2713 28.1253 41.8418 26.9961C42.1012 26.8084 42.242 26.317 42.2558 25.9553C42.3082 24.7598 42.2585 23.5616 42.2806 22.3661C42.3248 19.8095 43.7931 18.3242 46.3158 18.3104C49.1228 18.2938 51.9298 18.291 54.7368 18.3104C57.1795 18.3269 58.6672 19.8123 58.7251 22.275C58.7472 23.2413 58.8052 24.2159 58.7113 25.1712C58.5899 26.3887 58.9514 27.0375 60.1907 27.5069C61.2313 27.8989 61.8247 27.8492 62.5313 27.0237C63.3041 26.1154 64.1763 25.2844 65.065 24.4865C66.5472 23.153 68.6283 23.1281 70.069 24.5113C72.2936 26.6455 74.4796 28.8211 76.6076 31.0519C78.0401 32.5511 77.9794 34.6217 76.5552 36.1595C75.6499 37.1397 74.6176 38.0066 73.7647 39.0254C73.4805 39.3649 73.3618 40.1352 73.5522 40.5162C73.9083 41.2341 73.7206 42.482 75.131 42.4075C76.4144 42.3384 77.7089 42.3633 78.9951 42.4019C81.2832 42.471 82.7736 43.9812 82.8123 46.2561C82.8316 47.7277 82.8123 49.1993 82.8123 50.6736ZM50.478 19.9917C49.098 19.9917 47.7152 19.9697 46.3352 19.9973C44.7757 20.0276 44.0498 20.7234 43.9974 22.2722C43.9532 23.6058 43.9173 24.9448 44.0029 26.2728C44.0885 27.5483 43.7738 28.3711 42.3883 28.672C41.5961 28.8432 40.8923 29.4174 40.1002 29.5941C39.584 29.7101 38.8278 29.619 38.4441 29.3015C37.3511 28.3931 36.3989 27.3164 35.386 26.3142C33.8845 24.8288 33.0068 24.8233 31.5412 26.2866C30.1722 27.6505 28.8115 29.0226 27.4397 30.3865C24.2546 33.5588 24.158 33.6637 27.4811 36.72C29.3249 38.4152 30.3047 39.9475 28.6459 42.2335C28.4637 42.4848 28.4968 42.921 28.2843 43.1142C27.8648 43.5008 27.3624 44.0171 26.8601 44.0557C25.3062 44.1799 23.7329 44.0723 22.1707 44.1137C20.6776 44.1551 19.902 44.8757 19.8827 46.2976C19.844 49.1965 19.844 52.0954 19.8827 54.9944C19.8992 56.2975 20.6444 57.0402 21.9472 57.1147C23.0015 57.1782 24.0642 57.1368 25.1213 57.1368C27.8372 57.1368 27.8344 57.1368 28.8639 59.5692C29.0599 60.0358 29.2393 60.5134 29.496 60.9469C29.9265 61.6702 29.7609 62.2031 29.1703 62.7635C28.0028 63.8707 26.8601 65.0081 25.7588 66.1843C24.8204 67.1837 24.7928 68.1473 25.7312 69.1191C27.7792 71.2367 29.8631 73.3157 31.9773 75.367C32.935 76.2974 33.9286 76.2781 34.9195 75.3725C35.7669 74.5967 36.5562 73.7574 37.3677 72.943C39.09 71.2146 39.0872 71.2146 41.2704 72.1423C41.7341 72.3411 42.1951 72.584 42.6836 72.689C43.7573 72.9154 44.0443 73.5752 44.0001 74.594C43.9394 76.0186 43.9587 77.446 43.9919 78.8734C44.0333 80.5078 44.7536 81.2284 46.3793 81.2422C49.1394 81.2671 51.9022 81.2671 54.6623 81.245C56.2107 81.2312 56.9476 80.5133 57.0028 78.9672C57.0498 77.5895 57.0829 76.2036 56.9973 74.8287C56.9228 73.6497 57.2292 72.9181 58.4822 72.6227C59.2744 72.4377 60.0389 72.0512 60.7565 71.6481C61.5431 71.2064 62.0979 71.3582 62.6913 71.9932C63.7291 73.1003 64.8138 74.166 65.9068 75.2179C67.0633 76.3306 68.0155 76.3527 69.1444 75.2455C71.151 73.2825 73.1354 71.2947 75.0979 69.2903C76.2267 68.1362 76.224 67.2169 75.1144 66.0545C74.0352 64.9226 72.8705 63.8679 71.8272 62.7056C71.5208 62.366 71.22 61.5791 71.3966 61.3223C72.2964 59.9999 72.0038 58.001 73.7151 57.1755C73.9773 57.0485 74.3499 57.1479 74.6728 57.1479C76.0998 57.1451 77.5267 57.1838 78.9509 57.1258C80.3447 57.0678 81.0955 56.3251 81.112 54.9557C81.1479 52.0568 81.1507 49.1578 81.1093 46.2589C81.0927 44.9502 80.3613 44.2131 79.0558 44.1247C78.0484 44.0585 77.0327 44.0971 76.0197 44.0971C73.163 44.0971 73.1658 44.0999 72.0756 41.5543C71.8962 41.1319 71.7361 40.6929 71.5015 40.3036C71.0709 39.5858 71.2255 39.0447 71.8161 38.4842C72.9836 37.3771 74.1263 36.2369 75.2303 35.0662C76.1605 34.0806 76.1936 33.0922 75.2635 32.1314C73.2155 30.0166 71.1316 27.9348 69.0202 25.8807C68.0762 24.9614 67.0467 24.9834 66.0697 25.878C65.2223 26.6538 64.4329 27.4931 63.6215 28.3103C61.9102 30.0276 61.913 30.0248 59.7215 29.1027C59.2551 28.9067 58.7969 28.661 58.3083 28.5616C57.2292 28.3379 56.9504 27.6781 56.9973 26.6593C57.0608 25.2816 57.036 23.8984 57.0084 22.518C56.9725 20.7096 56.2687 20.0193 54.4774 20.0028C53.147 19.9835 51.8111 19.9917 50.478 19.9917Z" fill="#0076A2"/>
<path d="M69.0004 51.4627C68.1696 51.4627 67.4437 51.4875 66.7233 51.4572C65.5199 51.4047 65.1859 50.8525 65.8373 49.8945C66.8696 48.3732 67.9598 46.8906 69.0418 45.4025C69.6186 44.6074 70.2231 44.6046 70.8027 45.4108C71.8763 46.9044 72.9749 48.3788 73.9988 49.9055C74.6061 50.8083 74.2859 51.3909 73.215 51.4516C72.4449 51.4958 71.6693 51.4599 70.8468 51.4599C70.6564 52.6996 70.5432 53.837 70.3003 54.9469C68.4925 63.26 61.5564 69.6238 53.1437 70.7254C44.6897 71.8326 36.4067 67.5007 32.4929 59.9165C32.3052 59.5521 32.0541 59.1739 32.0182 58.7873C31.9906 58.4892 32.1921 57.9535 32.3963 57.8956C32.7109 57.8072 33.1829 57.9508 33.4589 58.1634C33.7211 58.3677 33.815 58.7901 33.9861 59.1159C37.8116 66.4295 45.6998 70.3003 53.8614 68.8646C61.7138 67.4842 67.8549 61.0043 68.9313 52.9508C68.9866 52.5118 68.9728 52.059 69.0004 51.4627ZM71.8156 49.7067C71.0787 48.7404 70.5073 47.9922 69.8698 47.1584C69.2074 48.0916 68.6885 48.8205 68.0592 49.7067C69.3647 49.7067 70.4356 49.7067 71.8156 49.7067Z" fill="#0076A2"/>
<path d="M30.2227 49.7786C30.5043 45.5158 31.8125 41.8024 34.2607 38.5003C42.7645 27.0288 60.4151 27.8433 67.8121 40.0575C68.0495 40.4495 68.3642 40.8416 68.4442 41.2723C68.516 41.6478 68.309 42.0757 68.2234 42.4788C67.8094 42.3269 67.2408 42.2993 67.0034 42.0067C65.7062 40.4081 64.696 38.5197 63.2056 37.1447C57.7296 32.0951 51.2793 30.6925 44.2798 33.1911C37.2112 35.7146 33.234 40.9851 32.0609 48.3816C31.9975 48.7819 32.0195 49.1933 31.9919 49.7814C32.8807 49.7814 33.6977 49.7317 34.5064 49.7952C35.4117 49.8669 35.7953 50.3998 35.2571 51.1977C34.1531 52.8377 32.9828 54.4335 31.8043 56.0182C31.3406 56.6422 30.761 56.5787 30.3166 55.9768C29.1711 54.4224 28.0257 52.8653 26.9521 51.2612C26.4 50.4384 26.7368 49.8531 27.7304 49.7896C28.5087 49.7399 29.2871 49.7786 30.2227 49.7786ZM32.9414 51.54C31.6028 51.54 30.5319 51.54 29.2208 51.54C29.8805 52.4622 30.4242 53.2242 31.0673 54.1187C31.7021 53.2435 32.2541 52.4843 32.9414 51.54Z" fill="#0076A2"/>
<path d="M44.086 50.6481C44.0722 47.081 46.8819 44.229 50.4397 44.2014C54.0692 44.1738 56.9341 47.0313 56.9176 50.6619C56.901 54.2262 54.0636 57.0423 50.4949 57.0368C46.9206 57.0313 44.0998 54.2179 44.086 50.6481ZM55.2229 50.6591C55.2394 48.0307 53.1583 45.9159 50.539 45.8966C47.9142 45.88 45.8 47.9617 45.7779 50.5818C45.7558 53.2047 47.8452 55.325 50.4617 55.3416C53.0893 55.3582 55.2063 53.2737 55.2229 50.6591Z" fill="#0076A2"/>
</svg>
