<svg width="78" height="12" viewBox="0 0 78 12" fill="none" xmlns="http://www.w3.org/2000/svg">
<path d="M0.679688 11.3344H2.54528V1.53437H0.679688V11.3344Z" fill="#0076A2"/>
<path d="M7.3002 11.3344H9.16579V3.07437H12.4952V1.53437H3.97083V3.07437H7.3002V11.3344Z" fill="#0076A2"/>
<path d="M20.9754 11.4744C23.7308 11.4744 25.0367 10.1304 25.0367 8.56237C25.0367 4.96437 19.0811 6.32237 19.0811 4.23637C19.0811 3.49437 19.7126 2.90637 21.2625 2.90637C22.1379 2.90637 23.1281 3.15837 24.0321 3.67637L24.6205 2.26237C23.7451 1.70237 22.4823 1.39437 21.2768 1.39437C18.5215 1.39437 17.2299 2.73837 17.2299 4.32037C17.2299 7.96037 23.1998 6.57437 23.1998 8.68837C23.1998 9.41637 22.5397 9.96237 20.9754 9.96237C19.7413 9.96237 18.4641 9.51437 17.6604 8.88437L17.0146 10.2984C17.847 10.9984 19.4112 11.4744 20.9754 11.4744Z" fill="#0076A2"/>
<path d="M33.9185 7.63837C33.9185 5.30037 32.2825 3.77437 30.0438 3.77437C27.762 3.77437 26.083 5.37037 26.083 7.59637C26.083 9.82237 27.7476 11.4324 30.3164 11.4324C31.6367 11.4324 32.713 11.0124 33.4018 10.2144L32.4403 9.13637C31.895 9.68237 31.2205 9.94837 30.3595 9.94837C29.0249 9.94837 28.0921 9.24837 27.8768 8.15637H33.8898C33.9041 7.98837 33.9185 7.77837 33.9185 7.63837ZM30.0438 5.17437C31.2205 5.17437 32.0672 5.91637 32.2107 6.99437H27.8625C28.0347 5.90237 28.8814 5.17437 30.0438 5.17437Z" fill="#0076A2"/>
<path d="M37.3493 4.95037V3.85837H35.6416V11.3344H37.4354V7.70837C37.4354 6.18237 38.2964 5.39837 39.6598 5.39837C39.7889 5.39837 39.9181 5.41237 40.0759 5.44037V3.77437C38.7987 3.77437 37.8659 4.16637 37.3493 4.95037Z" fill="#0076A2"/>
<path d="M47.3312 3.85837L44.8773 9.40237L42.495 3.85837H40.6294L43.9158 11.3344H45.767L49.0533 3.85837H47.3312Z" fill="#0076A2"/>
<path d="M51.0786 2.62637C51.7531 2.62637 52.2266 2.15037 52.2266 1.53437C52.2266 0.960366 51.7387 0.526367 51.0786 0.526367C50.4184 0.526367 49.9305 0.988367 49.9305 1.57637C49.9305 2.16437 50.4184 2.62637 51.0786 2.62637ZM50.1745 11.3344H51.9683V3.85837H50.1745V11.3344Z" fill="#0076A2"/>
<path d="M57.8387 11.4324C59.3311 11.4324 60.5223 10.8024 61.1106 9.68237L59.733 8.89837C59.2737 9.61237 58.5849 9.93437 57.8243 9.93437C56.5041 9.93437 55.4995 9.05237 55.4995 7.59637C55.4995 6.15437 56.5041 5.25837 57.8243 5.25837C58.5849 5.25837 59.2737 5.58037 59.733 6.29437L61.1106 5.51037C60.5223 4.37637 59.3311 3.77437 57.8387 3.77437C55.4134 3.77437 53.6913 5.35637 53.6913 7.59637C53.6913 9.83637 55.4134 11.4324 57.8387 11.4324Z" fill="#0076A2"/>
<path d="M69.7533 7.63837C69.7533 5.30037 68.1173 3.77437 65.8786 3.77437C63.5968 3.77437 61.9178 5.37037 61.9178 7.59637C61.9178 9.82237 63.5824 11.4324 66.1512 11.4324C67.4715 11.4324 68.5478 11.0124 69.2366 10.2144L68.2751 9.13637C67.7298 9.68237 67.0553 9.94837 66.1943 9.94837C64.8597 9.94837 63.9269 9.24837 63.7116 8.15637H69.7246C69.7389 7.98837 69.7533 7.77837 69.7533 7.63837ZM65.8786 5.17437C67.0553 5.17437 67.902 5.91637 68.0455 6.99437H63.6973C63.8695 5.90237 64.7162 5.17437 65.8786 5.17437Z" fill="#0076A2"/>
<path d="M73.8442 11.4324C75.9968 11.4324 77.3171 10.5224 77.3171 9.12237C77.3171 6.19637 72.5814 7.54037 72.5814 6.02837C72.5814 5.53837 73.098 5.18837 74.1886 5.18837C74.9205 5.18837 75.6524 5.32837 76.3843 5.74837L77.0731 4.41837C76.3843 4.01237 75.2219 3.77437 74.203 3.77437C72.1365 3.77437 70.8306 4.69837 70.8306 6.11237C70.8306 9.09437 75.5663 7.75037 75.5663 9.17837C75.5663 9.69637 75.0927 10.0044 73.959 10.0044C72.9975 10.0044 71.9643 9.69637 71.2898 9.26237L70.601 10.5924C71.2898 11.0684 72.567 11.4324 73.8442 11.4324Z" fill="#0076A2"/>
</svg>
