<svg width="61" height="61" viewBox="0 0 61 61" fill="none" xmlns="http://www.w3.org/2000/svg">
<g clip-path="url(#clip0_1482_2101)">
<path d="M28.6674 0.464885C17.4774 0.427385 -4.05013 26.0799 3.99237 32.8749L5.96737 34.5474C5.43431 35.9767 5.24587 37.5116 5.41737 39.0274C5.62737 41.1274 6.71237 43.1374 8.46737 44.6924C10.1324 46.1674 12.3224 47.1024 14.4474 47.1024C17.9624 55.2024 25.9974 60.1724 35.4124 60.4524C45.5124 60.7524 53.9949 56.0124 57.5474 47.4974C57.7799 46.8974 58.7674 44.2074 58.7674 41.8299C58.7674 39.4399 57.4174 38.4499 56.5549 38.4499C56.5299 38.3574 56.3599 37.7349 56.1249 36.9849C55.8924 36.2349 55.6499 35.7099 55.6499 35.7099C56.5874 34.3024 56.6049 33.0474 56.4799 32.3349C56.3474 31.4524 55.9799 30.7024 55.2399 29.9249C54.4999 29.1474 52.9849 28.3499 50.8574 27.7549L49.7424 27.4449C49.7374 27.3974 49.6824 24.8124 49.6349 23.7024C49.5999 22.9024 49.5299 21.6474 49.1424 20.4149C48.6774 18.7449 47.8724 17.2824 46.8649 16.3474C49.6449 13.4674 51.3799 10.2924 51.3749 7.56988C51.3674 2.33238 44.9349 0.747385 37.0099 4.02988L35.3299 4.74238C34.3045 3.73525 33.2778 2.72941 32.2499 1.72488C31.2599 0.862385 30.0424 0.469885 28.6674 0.464885ZM28.8499 2.64738C29.2649 2.64738 29.6549 2.69488 30.0124 2.79238C30.7549 3.00238 33.2124 5.85238 33.2124 5.85238C33.2124 5.85238 28.6474 8.38488 24.4124 11.9174C18.7124 16.3099 14.3999 22.6949 11.8199 29.6224C9.79237 30.0174 8.00487 31.1674 6.91237 32.7549C6.25987 32.2099 5.04237 31.1549 4.82737 30.7449C3.08237 27.4299 6.72987 20.9899 9.27987 17.3524C15.0849 9.06488 23.9249 2.63238 28.8499 2.64738ZM37.0649 10.8299C37.1649 10.8249 37.2149 10.9549 37.1349 11.0149C36.7774 11.2899 36.3874 11.6649 36.1024 12.0499C36.0913 12.0646 36.0846 12.082 36.0828 12.1003C36.081 12.1186 36.0843 12.137 36.0923 12.1535C36.1004 12.17 36.1128 12.184 36.1282 12.194C36.1436 12.2039 36.1615 12.2094 36.1799 12.2099C37.8274 12.2199 40.1474 12.7974 41.6599 13.6449C41.7624 13.7024 41.6899 13.9024 41.5749 13.8749C39.2874 13.3499 35.5399 12.9524 31.6499 13.8999C28.1749 14.7499 25.5249 16.0574 23.5899 17.4649C23.4899 17.5349 23.3749 17.4074 23.4524 17.3149C25.6924 14.7274 28.4499 12.4774 30.9199 11.2149C31.0049 11.1699 31.0949 11.2624 31.0499 11.3449C30.8524 11.7024 30.4749 12.4624 30.3549 13.0399C30.3374 13.1274 30.4349 13.1974 30.5099 13.1449C32.0474 12.0949 34.7199 10.9749 37.0649 10.8299ZM44.6224 18.8424L44.7624 18.8449C45.1684 18.8609 45.5625 18.9871 45.9024 19.2099C47.2374 20.0974 47.4274 22.2499 47.4974 23.8224C47.5349 24.7224 47.6449 26.8949 47.6824 27.5174C47.7674 28.9449 48.1424 29.1449 48.8999 29.3949C49.3249 29.5374 49.7249 29.6399 50.3074 29.8049C52.0724 30.2999 53.1199 30.8049 53.7824 31.4499C54.1749 31.8549 54.3574 32.2824 54.4149 32.6924C54.6224 34.2124 53.2349 36.0924 49.5599 37.7949C45.5424 39.6599 40.6674 40.1324 37.2999 39.7574L36.1224 39.6249C33.4274 39.2624 31.8899 42.7424 33.5074 45.1274C34.5499 46.6649 37.3874 47.6649 40.2274 47.6649C46.7374 47.6649 51.7399 44.8874 53.6024 42.4849C53.6561 42.4167 53.7061 42.3458 53.7524 42.2724C53.8424 42.1349 53.7674 42.0599 53.6524 42.1374C52.1324 43.1774 45.3774 47.3099 38.1524 46.0649C38.1524 46.0649 37.2749 45.9224 36.4724 45.6099C35.8349 45.3599 34.5024 44.7499 34.3399 43.3824C40.1724 45.1824 43.8424 43.4799 43.8424 43.4799C43.8764 43.4645 43.9047 43.4389 43.9236 43.4066C43.9424 43.3744 43.9507 43.3371 43.9474 43.2999C43.9452 43.2778 43.9387 43.2565 43.9281 43.237C43.9176 43.2174 43.9034 43.2002 43.8862 43.1863C43.869 43.1723 43.8492 43.1619 43.8279 43.1557C43.8067 43.1494 43.7844 43.1475 43.7624 43.1499C43.7624 43.1499 38.9849 43.8574 34.4674 42.2049C34.9599 40.6049 36.2674 41.1849 38.2424 41.3424C41.3152 41.5246 44.3968 41.1916 47.3599 40.3574C49.4049 39.7724 52.0899 38.6149 54.1774 36.9674C54.8799 38.5124 55.1274 40.2149 55.1274 40.2149C55.1274 40.2149 55.6749 40.1149 56.1274 40.3974C56.5599 40.6624 56.8749 41.2124 56.6599 42.6349C56.2199 45.2924 55.0899 47.4499 53.1924 49.4349C52.0059 50.7175 50.5942 51.7717 49.0274 52.5449C48.1774 52.9949 47.2674 53.3799 46.3099 53.6949C39.1524 56.0324 31.8249 53.4624 29.4624 47.9449C29.271 47.5229 29.113 47.0866 28.9899 46.6399C27.9824 43.0024 28.8399 38.6399 31.5099 35.8924C31.6724 35.7174 31.8399 35.5099 31.8399 35.2524C31.8399 35.0349 31.7024 34.8049 31.5849 34.6449C30.6499 33.2874 27.4124 30.9799 28.0624 26.5099C28.5299 23.2999 31.3374 21.0374 33.9549 21.1724C34.1774 21.1824 34.3974 21.1974 34.6199 21.2099C35.7524 21.2774 36.7449 21.4224 37.6774 21.4599C39.2399 21.5299 40.6449 21.3024 42.3099 19.9149C42.8724 19.4474 43.3224 19.0399 44.0849 18.9124C44.1549 18.8999 44.3149 18.8424 44.6224 18.8424ZM44.6774 24.2924C44.6271 24.293 44.577 24.2971 44.5274 24.3049C43.6899 24.4399 43.6599 25.4749 43.9574 26.9049C44.1274 27.7049 44.4249 28.3924 44.7574 28.8174C45.1949 28.7674 45.6149 28.7624 46.0024 28.8174C46.2249 28.3049 46.2624 27.4249 46.0624 26.4624C45.7824 25.1249 45.4099 24.2824 44.6774 24.2924ZM35.5274 28.1574C34.6158 28.1536 33.7265 28.439 32.9874 28.9724C32.5874 29.2649 32.2099 29.6724 32.2624 29.9174C32.2824 29.9974 32.3399 30.0574 32.4824 30.0749C32.8099 30.1124 33.9624 29.5324 35.2874 29.4499C36.2224 29.3924 36.9974 29.6849 37.5949 29.9499C38.1924 30.2099 38.5599 30.3824 38.7024 30.2324C38.7949 30.1374 38.7674 29.9574 38.6249 29.7224C38.3299 29.2424 37.7249 28.7549 37.0799 28.4799C36.5891 28.2699 36.0612 28.1603 35.5274 28.1574ZM45.7324 30.1824C45.3049 30.1749 44.9499 30.6474 44.9399 31.2324C44.9299 31.8224 45.2674 32.3074 45.6974 32.3124C46.1274 32.3199 46.4824 31.8499 46.4924 31.2624C46.5024 30.6724 46.1624 30.1899 45.7324 30.1824ZM36.7824 30.6124C36.6574 30.6124 36.5274 30.6174 36.3949 30.6324C35.6174 30.7574 35.1874 31.0124 34.9124 31.2499C34.6774 31.4549 34.5324 31.6824 34.5324 31.8424C34.532 31.8672 34.5366 31.8919 34.5459 31.9149C34.5552 31.9379 34.5689 31.9589 34.5864 31.9766C34.6038 31.9943 34.6246 32.0083 34.6475 32.0179C34.6704 32.0275 34.695 32.0324 34.7199 32.0324C34.8949 32.0324 35.2899 31.8749 35.2899 31.8749C36.0877 31.5741 36.9497 31.4846 37.7924 31.6149C38.1849 31.6599 38.3674 31.6824 38.4549 31.5499C38.4799 31.5099 38.5099 31.4274 38.4299 31.2999C38.2724 31.0424 37.6549 30.6274 36.7824 30.6124ZM42.4324 31.6124C42.1149 31.6124 41.8449 31.7399 41.7249 31.9824C41.5374 32.3674 41.8124 32.8899 42.3399 33.1474C42.8649 33.4074 43.4474 33.3049 43.6399 32.9224C43.8274 32.5349 43.5524 32.0124 43.0249 31.7549C42.841 31.6621 42.6383 31.6151 42.4324 31.6124ZM13.3449 31.6724C13.4649 31.6724 13.5899 31.6724 13.7174 31.6799C15.5424 31.7799 18.2324 33.1799 18.8474 37.1549C19.3899 40.6799 18.5274 44.2624 15.2249 44.8274C14.9174 44.8774 14.6049 44.8999 14.2899 44.8924C11.2399 44.8099 7.94237 42.0624 7.61487 38.8049C7.25237 35.2049 9.09237 32.4349 12.3499 31.7774C12.6424 31.7174 12.9799 31.6774 13.3449 31.6724ZM13.1699 33.9899C12.7731 33.9864 12.3799 34.0655 12.0154 34.2221C11.6508 34.3788 11.3229 34.6096 11.0524 34.8999C10.1024 35.9449 9.95487 37.3699 10.1374 37.8749C10.2049 38.0574 10.3124 38.1099 10.3874 38.1199C10.5474 38.1399 10.7874 38.0224 10.9374 37.6199C10.9525 37.5769 10.9667 37.5335 10.9799 37.4899C11.0708 37.1661 11.2027 36.8553 11.3724 36.5649C11.4963 36.3752 11.6564 36.2119 11.8435 36.0842C12.0307 35.9566 12.2411 35.8671 12.4629 35.8209C12.6847 35.7747 12.9134 35.7726 13.1359 35.8149C13.3585 35.8572 13.5705 35.943 13.7599 36.0674C14.4249 36.5024 14.6824 37.3174 14.3974 38.0924C14.2524 38.4949 14.0124 39.2649 14.0649 39.8949C14.1724 41.1724 14.9574 41.6874 15.6649 41.7399C16.3499 41.7649 16.8299 41.3824 16.9524 41.0999C17.0249 40.9324 16.9649 40.8324 16.9249 40.7874C16.8174 40.6549 16.6424 40.6949 16.4749 40.7349C16.3444 40.7701 16.21 40.7886 16.0749 40.7899C15.9313 40.7939 15.789 40.7622 15.6607 40.6976C15.5324 40.633 15.4222 40.5376 15.3399 40.4199C15.1449 40.1199 15.1574 39.6699 15.3724 39.1599C15.3999 39.0899 15.4349 39.0149 15.4724 38.9299C15.8174 38.1599 16.3924 36.8674 15.7474 35.6374C15.2599 34.7124 14.4649 34.1324 13.5124 34.0124C13.398 33.997 13.2828 33.9887 13.1674 33.9874L13.1699 33.9899Z" fill="black"/>
</g>
<defs>
<clipPath id="clip0_1482_2101">
<rect width="60" height="60" fill="white" transform="translate(0.5 0.464844)"/>
</clipPath>
</defs>
</svg>
