<svg width="134" height="14" viewBox="0 0 134 14" fill="none" xmlns="http://www.w3.org/2000/svg">
<path d="M7.62369 5.90145C8.37969 5.49545 8.88369 4.75345 8.88369 3.74545C8.88369 2.19145 7.62369 1.19745 5.27169 1.19745H0.679688V10.9975H5.55169C8.07169 10.9975 9.38769 10.0175 9.38769 8.33745C9.38769 7.06345 8.67369 6.23745 7.62369 5.90145ZM5.07569 2.62545C6.33569 2.62545 7.04969 3.07345 7.04969 3.98345C7.04969 4.87945 6.33569 5.32745 5.07569 5.32745H2.49969V2.62545H5.07569ZM5.43969 9.56945H2.49969V6.74145H5.43969C6.81169 6.74145 7.55369 7.17545 7.55369 8.15545C7.55369 9.13545 6.81169 9.56945 5.43969 9.56945Z" fill="#0076A2"/>
<path d="M16.6501 3.52145V7.30145C16.6501 8.79945 15.8241 9.55545 14.6061 9.55545C13.5001 9.55545 12.8561 8.91145 12.8561 7.55345V3.52145H11.1061V7.79145C11.1061 10.0455 12.4081 11.0955 14.3261 11.0955C15.2921 11.0955 16.1741 10.7315 16.7341 10.0455V10.9975H18.4001V3.52145H16.6501Z" fill="#0076A2"/>
<path d="M23.0014 11.0955C25.1014 11.0955 26.3894 10.1855 26.3894 8.78545C26.3894 5.85945 21.7694 7.20345 21.7694 5.69145C21.7694 5.20145 22.2734 4.85145 23.3374 4.85145C24.0514 4.85145 24.7654 4.99145 25.4794 5.41145L26.1514 4.08145C25.4794 3.67545 24.3454 3.43745 23.3514 3.43745C21.3354 3.43745 20.0614 4.36145 20.0614 5.77545C20.0614 8.75745 24.6814 7.41345 24.6814 8.84145C24.6814 9.35945 24.2194 9.66745 23.1134 9.66745C22.1754 9.66745 21.1674 9.35945 20.5094 8.92545L19.8374 10.2555C20.5094 10.7315 21.7554 11.0955 23.0014 11.0955Z" fill="#0076A2"/>
<path d="M28.7785 2.28945C29.4365 2.28945 29.8985 1.81345 29.8985 1.19745C29.8985 0.623452 29.4225 0.189453 28.7785 0.189453C28.1345 0.189453 27.6585 0.651453 27.6585 1.23945C27.6585 1.82745 28.1345 2.28945 28.7785 2.28945ZM27.8965 10.9975H29.6465V3.52145H27.8965V10.9975Z" fill="#0076A2"/>
<path d="M36.1853 3.43745C35.0933 3.43745 34.1833 3.80145 33.6093 4.48745V3.52145H31.9433V10.9975H33.6933V7.21745C33.6933 5.71945 34.5333 4.96345 35.7793 4.96345C36.8993 4.96345 37.5573 5.60745 37.5573 6.93745V10.9975H39.3073V6.71345C39.3073 4.45945 37.9773 3.43745 36.1853 3.43745Z" fill="#0076A2"/>
<path d="M48.6237 7.30145C48.6237 4.96345 47.0277 3.43745 44.8437 3.43745C42.6177 3.43745 40.9797 5.03345 40.9797 7.25945C40.9797 9.48545 42.6037 11.0955 45.1097 11.0955C46.3977 11.0955 47.4477 10.6755 48.1197 9.87745L47.1817 8.79945C46.6497 9.34545 45.9917 9.61145 45.1517 9.61145C43.8497 9.61145 42.9397 8.91145 42.7297 7.81945H48.5957C48.6097 7.65145 48.6237 7.44145 48.6237 7.30145ZM44.8437 4.83745C45.9917 4.83745 46.8177 5.57945 46.9577 6.65745H42.7157C42.8837 5.56545 43.7097 4.83745 44.8437 4.83745Z" fill="#0076A2"/>
<path d="M52.6147 11.0955C54.7147 11.0955 56.0027 10.1855 56.0027 8.78545C56.0027 5.85945 51.3827 7.20345 51.3827 5.69145C51.3827 5.20145 51.8867 4.85145 52.9507 4.85145C53.6647 4.85145 54.3787 4.99145 55.0927 5.41145L55.7647 4.08145C55.0927 3.67545 53.9587 3.43745 52.9647 3.43745C50.9487 3.43745 49.6747 4.36145 49.6747 5.77545C49.6747 8.75745 54.2947 7.41345 54.2947 8.84145C54.2947 9.35945 53.8327 9.66745 52.7267 9.66745C51.7887 9.66745 50.7807 9.35945 50.1227 8.92545L49.4507 10.2555C50.1227 10.7315 51.3687 11.0955 52.6147 11.0955Z" fill="#0076A2"/>
<path d="M59.8197 11.0955C61.9197 11.0955 63.2077 10.1855 63.2077 8.78545C63.2077 5.85945 58.5877 7.20345 58.5877 5.69145C58.5877 5.20145 59.0917 4.85145 60.1557 4.85145C60.8697 4.85145 61.5837 4.99145 62.2977 5.41145L62.9697 4.08145C62.2977 3.67545 61.1637 3.43745 60.1697 3.43745C58.1537 3.43745 56.8797 4.36145 56.8797 5.77545C56.8797 8.75745 61.4997 7.41345 61.4997 8.84145C61.4997 9.35945 61.0377 9.66745 59.9317 9.66745C58.9937 9.66745 57.9857 9.35945 57.3277 8.92545L56.6557 10.2555C57.3277 10.7315 58.5737 11.0955 59.8197 11.0955Z" fill="#0076A2"/>
<path d="M76.088 10.9975H77.992L73.568 1.19745H71.7759L67.366 10.9975H69.242L70.208 8.72945H75.1079L76.088 10.9975ZM70.824 7.30145L72.658 3.01745L74.506 7.30145H70.824Z" fill="#0076A2"/>
<path d="M83.3123 3.43745C82.2203 3.43745 81.3103 3.80145 80.7363 4.48745V3.52145H79.0703V10.9975H80.8203V7.21745C80.8203 5.71945 81.6603 4.96345 82.9063 4.96345C84.0263 4.96345 84.6843 5.60745 84.6843 6.93745V10.9975H86.4343V6.71345C86.4343 4.45945 85.1043 3.43745 83.3123 3.43745Z" fill="#0076A2"/>
<path d="M91.5103 3.43745C90.3063 3.43745 89.1443 3.74545 88.3463 4.36145L89.0323 5.63545C89.5923 5.17345 90.4603 4.89345 91.3003 4.89345C92.5463 4.89345 93.1623 5.49545 93.1623 6.51745V6.62945H91.2303C88.9623 6.62945 88.1223 7.60945 88.1223 8.85545C88.1223 10.1575 89.2003 11.0955 90.9083 11.0955C92.0283 11.0955 92.8403 10.7315 93.2603 10.0875V10.9975H94.9123V6.61545C94.9123 4.45945 93.6663 3.43745 91.5103 3.43745ZM91.2723 9.82145C90.3763 9.82145 89.8443 9.41545 89.8443 8.78545C89.8443 8.23945 90.1663 7.79145 91.3563 7.79145H93.1623V8.65945C92.8683 9.42945 92.1263 9.82145 91.2723 9.82145Z" fill="#0076A2"/>
<path d="M97.1582 10.9975H98.9082V0.609453H97.1582V10.9975Z" fill="#0076A2"/>
<path d="M106.525 3.52145L104.159 9.05145L101.807 3.52145H99.987L103.249 11.0255L103.123 11.3195C102.787 12.0615 102.423 12.3555 101.807 12.3555C101.331 12.3555 100.855 12.1595 100.519 11.8375L99.819 13.1255C100.295 13.5595 101.079 13.8115 101.821 13.8115C103.067 13.8115 104.019 13.2935 104.705 11.5995L108.205 3.52145H106.525Z" fill="#0076A2"/>
<path d="M113.508 9.34545C113.242 9.55545 112.892 9.65345 112.528 9.65345C111.856 9.65345 111.492 9.26145 111.492 8.53345V4.97745H113.494V3.57745H111.492V1.86945H109.742V3.57745H108.51V4.97745H109.742V8.57545C109.742 10.2275 110.68 11.0955 112.318 11.0955C112.948 11.0955 113.578 10.9275 113.998 10.5915L113.508 9.34545Z" fill="#0076A2"/>
<path d="M116.319 2.28945C116.977 2.28945 117.439 1.81345 117.439 1.19745C117.439 0.623452 116.963 0.189453 116.319 0.189453C115.675 0.189453 115.199 0.651453 115.199 1.23945C115.199 1.82745 115.675 2.28945 116.319 2.28945ZM115.437 10.9975H117.187V3.52145H115.437V10.9975Z" fill="#0076A2"/>
<path d="M122.914 11.0955C124.37 11.0955 125.532 10.4655 126.106 9.34545L124.762 8.56145C124.314 9.27545 123.642 9.59745 122.9 9.59745C121.612 9.59745 120.632 8.71545 120.632 7.25945C120.632 5.81745 121.612 4.92145 122.9 4.92145C123.642 4.92145 124.314 5.24345 124.762 5.95745L126.106 5.17345C125.532 4.03945 124.37 3.43745 122.914 3.43745C120.548 3.43745 118.868 5.01945 118.868 7.25945C118.868 9.49945 120.548 11.0955 122.914 11.0955Z" fill="#0076A2"/>
<path d="M129.929 11.0955C132.029 11.0955 133.317 10.1855 133.317 8.78545C133.317 5.85945 128.697 7.20345 128.697 5.69145C128.697 5.20145 129.201 4.85145 130.265 4.85145C130.979 4.85145 131.693 4.99145 132.407 5.41145L133.079 4.08145C132.407 3.67545 131.273 3.43745 130.279 3.43745C128.263 3.43745 126.989 4.36145 126.989 5.77545C126.989 8.75745 131.609 7.41345 131.609 8.84145C131.609 9.35945 131.147 9.66745 130.041 9.66745C129.103 9.66745 128.095 9.35945 127.437 8.92545L126.765 10.2555C127.437 10.7315 128.683 11.0955 129.929 11.0955Z" fill="#0076A2"/>
</svg>
