<svg width="125" height="14" viewBox="0 0 125 14" fill="none" xmlns="http://www.w3.org/2000/svg">
<path d="M0.71875 10.9975H5.00275C8.18075 10.9975 10.3508 9.03745 10.3508 6.09745C10.3508 3.15745 8.18075 1.19745 5.00275 1.19745H0.71875V10.9975ZM2.53875 9.45745V2.73745H4.91875C7.10275 2.73745 8.51675 4.06745 8.51675 6.09745C8.51675 8.12745 7.10275 9.45745 4.91875 9.45745H2.53875Z" fill="#0076A2"/>
<path d="M12.9992 2.28945C13.6572 2.28945 14.1192 1.81345 14.1192 1.19745C14.1192 0.623452 13.6432 0.189453 12.9992 0.189453C12.3552 0.189453 11.8792 0.651453 11.8792 1.23945C11.8792 1.82745 12.3552 2.28945 12.9992 2.28945ZM12.1172 10.9975H13.8672V3.52145H12.1172V10.9975Z" fill="#0076A2"/>
<path d="M21.918 3.52145V4.51545C21.302 3.77345 20.378 3.43745 19.328 3.43745C17.186 3.43745 15.548 4.86545 15.548 7.03545C15.548 9.20545 17.186 10.6615 19.328 10.6615C20.336 10.6615 21.218 10.3395 21.834 9.66745V10.0595C21.834 11.5715 21.106 12.3275 19.454 12.3275C18.418 12.3275 17.354 11.9775 16.696 11.4315L15.912 12.7475C16.766 13.4475 18.152 13.8115 19.552 13.8115C22.17 13.8115 23.584 12.5795 23.584 9.86345V3.52145H21.918ZM19.594 9.17745C18.264 9.17745 17.312 8.30945 17.312 7.03545C17.312 5.77545 18.264 4.92145 19.594 4.92145C20.91 4.92145 21.862 5.77545 21.862 7.03545C21.862 8.30945 20.91 9.17745 19.594 9.17745Z" fill="#0076A2"/>
<path d="M26.7667 2.28945C27.4247 2.28945 27.8867 1.81345 27.8867 1.19745C27.8867 0.623452 27.4107 0.189453 26.7667 0.189453C26.1227 0.189453 25.6467 0.651453 25.6467 1.23945C25.6467 1.82745 26.1227 2.28945 26.7667 2.28945ZM25.8847 10.9975H27.6347V3.52145H25.8847V10.9975Z" fill="#0076A2"/>
<path d="M33.9356 9.34545C33.6696 9.55545 33.3196 9.65345 32.9556 9.65345C32.2836 9.65345 31.9196 9.26145 31.9196 8.53345V4.97745H33.9216V3.57745H31.9196V1.86945H30.1696V3.57745H28.9376V4.97745H30.1696V8.57545C30.1696 10.2275 31.1076 11.0955 32.7456 11.0955C33.3756 11.0955 34.0056 10.9275 34.4256 10.5915L33.9356 9.34545Z" fill="#0076A2"/>
<path d="M38.7212 3.43745C37.5172 3.43745 36.3552 3.74545 35.5572 4.36145L36.2432 5.63545C36.8032 5.17345 37.6712 4.89345 38.5112 4.89345C39.7572 4.89345 40.3732 5.49545 40.3732 6.51745V6.62945H38.4412C36.1732 6.62945 35.3332 7.60945 35.3332 8.85545C35.3332 10.1575 36.4112 11.0955 38.1192 11.0955C39.2392 11.0955 40.0512 10.7315 40.4712 10.0875V10.9975H42.1232V6.61545C42.1232 4.45945 40.8772 3.43745 38.7212 3.43745ZM38.4832 9.82145C37.5872 9.82145 37.0552 9.41545 37.0552 8.78545C37.0552 8.23945 37.3772 7.79145 38.5672 7.79145H40.3732V8.65945C40.0792 9.42945 39.3372 9.82145 38.4832 9.82145Z" fill="#0076A2"/>
<path d="M44.3691 10.9975H46.1191V0.609453H44.3691V10.9975Z" fill="#0076A2"/>
<path d="M63.1771 10.9975L63.1631 1.19745H61.6651L57.8431 7.69345L53.9511 1.19745H52.4531V10.9975H54.1891V4.58545L57.4091 9.87745H58.2211L61.4411 4.50145L61.4551 10.9975H63.1771Z" fill="#0076A2"/>
<path d="M68.5122 3.43745C67.3082 3.43745 66.1462 3.74545 65.3482 4.36145L66.0342 5.63545C66.5942 5.17345 67.4622 4.89345 68.3022 4.89345C69.5482 4.89345 70.1642 5.49545 70.1642 6.51745V6.62945H68.2322C65.9642 6.62945 65.1242 7.60945 65.1242 8.85545C65.1242 10.1575 66.2022 11.0955 67.9102 11.0955C69.0302 11.0955 69.8422 10.7315 70.2622 10.0875V10.9975H71.9142V6.61545C71.9142 4.45945 70.6682 3.43745 68.5122 3.43745ZM68.2742 9.82145C67.3782 9.82145 66.8462 9.41545 66.8462 8.78545C66.8462 8.23945 67.1682 7.79145 68.3582 7.79145H70.1642V8.65945C69.8702 9.42945 69.1282 9.82145 68.2742 9.82145Z" fill="#0076A2"/>
<path d="M75.8261 4.61345V3.52145H74.1601V10.9975H75.9101V7.37145C75.9101 5.84545 76.7501 5.06145 78.0801 5.06145C78.2061 5.06145 78.3321 5.07545 78.4861 5.10345V3.43745C77.2401 3.43745 76.3301 3.82945 75.8261 4.61345Z" fill="#0076A2"/>
<path d="M85.6127 10.9975H87.7407L84.3247 6.65745L87.4467 3.52145H85.3467L81.7207 6.88145V0.609453H79.9707V10.9975H81.7207V9.02345L83.0227 7.79145L85.6127 10.9975Z" fill="#0076A2"/>
<path d="M95.5846 7.30145C95.5846 4.96345 93.9886 3.43745 91.8046 3.43745C89.5786 3.43745 87.9406 5.03345 87.9406 7.25945C87.9406 9.48545 89.5646 11.0955 92.0706 11.0955C93.3586 11.0955 94.4086 10.6755 95.0806 9.87745L94.1426 8.79945C93.6106 9.34545 92.9526 9.61145 92.1126 9.61145C90.8106 9.61145 89.9006 8.91145 89.6906 7.81945H95.5566C95.5706 7.65145 95.5846 7.44145 95.5846 7.30145ZM91.8046 4.83745C92.9526 4.83745 93.7786 5.57945 93.9186 6.65745H89.6766C89.8446 5.56545 90.6706 4.83745 91.8046 4.83745Z" fill="#0076A2"/>
<path d="M101.27 9.34545C101.004 9.55545 100.654 9.65345 100.29 9.65345C99.6176 9.65345 99.2536 9.26145 99.2536 8.53345V4.97745H101.256V3.57745H99.2536V1.86945H97.5036V3.57745H96.2716V4.97745H97.5036V8.57545C97.5036 10.2275 98.4416 11.0955 100.08 11.0955C100.71 11.0955 101.34 10.9275 101.76 10.5915L101.27 9.34545Z" fill="#0076A2"/>
<path d="M104.081 2.28945C104.739 2.28945 105.201 1.81345 105.201 1.19745C105.201 0.623452 104.725 0.189453 104.081 0.189453C103.437 0.189453 102.961 0.651453 102.961 1.23945C102.961 1.82745 103.437 2.28945 104.081 2.28945ZM103.199 10.9975H104.949V3.52145H103.199V10.9975Z" fill="#0076A2"/>
<path d="M111.488 3.43745C110.396 3.43745 109.486 3.80145 108.912 4.48745V3.52145H107.246V10.9975H108.996V7.21745C108.996 5.71945 109.836 4.96345 111.082 4.96345C112.202 4.96345 112.86 5.60745 112.86 6.93745V10.9975H114.61V6.71345C114.61 4.45945 113.28 3.43745 111.488 3.43745Z" fill="#0076A2"/>
<path d="M122.652 3.52145V4.51545C122.036 3.77345 121.112 3.43745 120.062 3.43745C117.92 3.43745 116.282 4.86545 116.282 7.03545C116.282 9.20545 117.92 10.6615 120.062 10.6615C121.07 10.6615 121.952 10.3395 122.568 9.66745V10.0595C122.568 11.5715 121.84 12.3275 120.188 12.3275C119.152 12.3275 118.088 11.9775 117.43 11.4315L116.646 12.7475C117.5 13.4475 118.886 13.8115 120.286 13.8115C122.904 13.8115 124.318 12.5795 124.318 9.86345V3.52145H122.652ZM120.328 9.17745C118.998 9.17745 118.046 8.30945 118.046 7.03545C118.046 5.77545 118.998 4.92145 120.328 4.92145C121.644 4.92145 122.596 5.77545 122.596 7.03545C122.596 8.30945 121.644 9.17745 120.328 9.17745Z" fill="#0076A2"/>
</svg>
