<svg width="61" height="61" viewBox="0 0 61 61" fill="none" xmlns="http://www.w3.org/2000/svg">
<path d="M28.5151 0.47424C22.1777 0.937195 16.2828 3.31086 11.3684 7.37999C10.4488 8.14143 8.30316 10.2877 7.56021 11.1892C3.43337 16.1944 1.07663 22.1052 0.656435 28.4932C0.181433 35.7157 2.42247 43.0742 6.81726 48.7251C7.93575 50.1648 9.47646 51.8115 10.7553 52.9344C18.7755 59.9762 29.7635 62.2443 39.905 58.9548C46.7215 56.7436 52.6164 52.0349 56.3495 45.8236C60.1535 39.4945 61.471 31.8455 60.0155 24.5439C58.9802 19.3498 56.6276 14.6005 53.0955 10.578C52.4073 9.79426 50.7306 8.14346 49.9775 7.50994C45.3087 3.57685 39.7812 1.2235 33.6569 0.563582C32.5953 0.445813 29.593 0.39505 28.5151 0.47424ZM32.7759 2.67328C36.4745 2.96567 39.8259 3.87534 43.0575 5.46522C51.433 9.58106 57.2447 17.6625 58.4565 26.8769C59.573 35.3786 56.79 43.8357 50.8423 50.0064C46.819 54.1811 41.4782 57.0441 35.7843 58.0797C26.8567 59.7041 17.7829 56.9446 11.277 50.6277C6.29963 45.7951 3.38871 39.531 2.85281 32.5055C2.76147 31.3176 2.81222 28.6861 2.94822 27.5125C3.54705 22.3428 5.4024 17.7051 8.50616 13.6197C9.61246 12.1618 11.3947 10.2897 12.7528 9.15871C17.2815 5.38603 22.7217 3.15857 28.576 2.67937C29.5057 2.60424 31.8564 2.60221 32.7759 2.67328Z" fill="#0377A3"/>
<path d="M29.6938 24.8779C27.0528 25.1429 24.7154 26.0058 22.7222 27.6253C18.2625 31.2469 16.6499 35.9195 17.7778 41.5457C17.7937 41.6295 17.8118 41.711 17.8277 41.7948C17.9002 42.1799 17.8752 42.5264 17.4472 42.6963C17.0236 42.8639 16.7631 42.6329 16.5457 42.309C15.4427 40.6714 14.6431 38.8957 14.1516 36.9841C11.4767 26.5743 18.7223 16.296 29.4333 15.2971C29.4967 15.2903 29.5579 15.2767 29.7572 15.2428C29.7572 14.7875 29.7549 14.3096 29.7572 13.8317C29.7617 13.0231 29.7662 12.2145 29.7776 11.4059C29.7912 10.4479 30.2555 10.1829 31.0754 10.6857C33.6869 12.2825 36.2938 13.8883 38.9031 15.4919C41.1499 16.8735 43.3967 18.2506 45.6413 19.6368C46.4318 20.126 46.425 20.6311 45.63 21.109C40.7648 24.0353 35.902 26.9639 31.0255 29.8721C30.7515 30.0352 30.2781 30.1575 30.0494 30.0284C29.8274 29.9038 29.7187 29.4304 29.7096 29.1088C29.6734 27.7295 29.6938 26.3478 29.6938 24.8779ZM31.1071 12.2983C31.1071 13.5101 31.1116 14.5701 31.1048 15.6278C31.1003 16.3843 30.9304 16.5542 30.1694 16.5972C28.1106 16.7173 26.1333 17.1793 24.2624 18.049C17.993 20.9618 14.3147 27.4214 15.0554 34.3159C15.1913 35.5821 15.5514 36.8232 15.8073 38.0758C15.8776 38.0644 15.95 38.0531 16.0202 38.0418C16.0338 37.9036 16.052 37.7655 16.061 37.6273C16.2128 35.2106 16.8311 32.9253 18.0972 30.8551C20.797 26.4362 24.7403 23.9719 29.9021 23.4917C30.8738 23.4011 31.0776 23.6186 31.0731 24.5834C31.0709 25.5823 31.0595 26.5834 31.0573 27.5822C31.0573 27.777 31.0844 27.9718 31.1048 28.2549C35.517 25.6027 39.834 23.0048 44.2348 20.3593C39.8249 17.6527 35.5373 15.0185 31.1071 12.2983Z" fill="#0377A3"/>
<path d="M32.497 39.5886C34.1753 39.4572 35.6679 38.9408 37.0631 38.1549C41.5953 35.6 43.9055 30.3974 42.7889 25.3126C42.687 24.8438 42.4401 24.2957 43.0652 24.0352C43.7221 23.7611 43.9531 24.3477 44.2204 24.7668C50.2633 34.2932 44.166 46.8886 32.9024 48.132C32.5151 48.1751 32.395 48.3132 32.3996 48.6824C32.4132 49.6405 32.4064 50.5986 32.3928 51.5544C32.3814 52.3992 31.9171 52.6755 31.1946 52.2316C26.8935 49.6042 22.5991 46.9656 18.307 44.3224C17.6321 43.9079 17.6525 43.3711 18.341 42.9566C22.6218 40.3791 26.9048 37.8016 31.1901 35.2308C32.01 34.7393 32.4879 35.0157 32.4924 35.9737C32.5015 37.1628 32.497 38.3474 32.497 39.5886ZM31.0768 50.5759C31.0768 49.5295 31.0904 48.6462 31.0723 47.7628C31.0587 47.1422 31.3486 46.8727 31.9534 46.8568C32.3565 46.8478 32.7597 46.798 33.1583 46.7459C41.5681 45.6315 47.0674 37.1855 44.6643 29.0747C44.6167 28.9184 44.551 28.7667 44.4559 28.5175C44.3336 29.3057 44.2589 29.9626 44.1275 30.6058C42.9452 36.3248 37.874 40.7392 32.2116 40.9929C31.2444 41.0359 31.1063 40.9023 31.104 39.917C31.1017 38.9454 31.104 37.976 31.104 36.8707C27.3012 39.1583 23.6002 41.3825 19.811 43.661C23.5934 45.9826 27.2604 48.2339 31.0768 50.5759Z" fill="#0377A3"/>
</svg>
