<svg width="60" height="61" viewBox="0 0 60 61" fill="none" xmlns="http://www.w3.org/2000/svg">
<path d="M27.9214 0.33508C21.584 0.798035 15.689 3.1717 10.7746 7.24083C9.85504 8.00227 7.70941 10.1485 6.96646 11.0501C2.83962 16.0553 0.48288 21.9661 0.0626853 28.354C-0.412317 35.5765 1.82872 42.9351 6.22351 48.586C7.342 50.0256 8.88271 51.6724 10.1616 52.7952C18.1818 59.837 29.1698 62.1051 39.3113 58.8157C46.1278 56.6045 52.0227 51.8957 55.7557 45.6844C59.5598 39.3553 60.8772 31.7064 59.4218 24.4047C58.3865 19.2107 56.0338 14.4613 52.5017 10.4389C51.8136 9.6551 50.1369 8.0043 49.3838 7.37078C44.7149 3.43769 39.1875 1.08434 33.0632 0.424422C32.0015 0.306653 28.9993 0.25589 27.9214 0.33508ZM32.1822 2.53412C35.8807 2.82651 39.2321 3.73618 42.4638 5.32606C50.8392 9.4419 56.6509 17.5233 57.8628 26.7377C58.9792 35.2395 56.1962 43.6965 50.2485 49.8672C46.2252 54.042 40.8845 56.905 35.1905 57.9405C26.2629 59.5649 17.1892 56.8055 10.6833 50.4886C5.70588 45.656 2.79496 39.3919 2.25906 32.3663C2.16772 31.1785 2.21847 28.5469 2.35447 27.3733C2.9533 22.2036 4.80865 17.5659 7.91241 13.4806C9.01871 12.0227 10.801 10.1505 12.159 9.01955C16.6878 5.24687 22.128 3.01941 27.9823 2.54021C28.912 2.46508 31.2626 2.46305 32.1822 2.53412Z" fill="#0377A3"/>
<path d="M23.7109 24.7265C23.7109 20.605 27.0191 17.2969 31.1405 17.2969C35.2578 17.2969 38.5645 20.6106 38.5631 24.7349C38.5617 28.8479 35.2423 32.149 31.1124 32.1462C27.0191 32.1448 23.7109 28.8297 23.7109 24.7265ZM32.7925 26.4234C32.7925 25.2701 32.7925 24.1519 32.7925 23.031C31.6617 23.031 30.5871 23.031 29.4801 23.031C29.4801 24.173 29.4801 25.2926 29.4801 26.4234C30.6025 26.4234 31.6673 26.4234 32.7925 26.4234ZM28.3086 26.4206C28.3086 25.2729 28.3086 24.1604 28.3086 23.0296C27.2466 23.0296 26.172 23.0296 25.0974 23.0296C24.7813 24.1702 24.7785 25.2884 25.1016 26.4206C26.1776 26.4206 27.241 26.4206 28.3086 26.4206ZM37.1752 26.4178C37.4885 25.2701 37.4969 24.1533 37.1724 23.0366C36.0809 23.0366 35.0105 23.0366 33.9626 23.0366C33.9626 24.1772 33.9626 25.2884 33.9626 26.4178C35.0176 26.4178 36.0823 26.4178 37.1752 26.4178ZM32.6169 21.8524C32.5986 21.7316 32.5874 21.6262 32.5663 21.5223C32.3795 20.591 32.1744 19.6624 31.6336 18.8575C31.2754 18.3237 31 18.3209 30.6432 18.8533C30.0378 19.7565 29.8341 20.7946 29.6515 21.8524C30.6629 21.8524 31.635 21.8524 32.6169 21.8524ZM32.6197 27.5963C31.6265 27.5963 30.6446 27.5963 29.6515 27.5963C29.8074 28.5431 29.9999 29.4618 30.4634 30.2878C30.6166 30.5617 30.8989 30.7626 31.1223 30.9972C31.3554 30.7598 31.6532 30.5589 31.812 30.2793C32.2769 29.4548 32.468 28.5347 32.6197 27.5963ZM25.5567 21.8496C26.5653 21.8496 27.5135 21.8496 28.4027 21.8496C28.6977 20.7904 28.9843 19.7636 29.2722 18.7297C27.6484 19.2565 26.4094 20.2791 25.5567 21.8496ZM33.8657 21.8383C34.7731 21.8383 35.7241 21.8383 36.7117 21.8383C35.8548 20.2777 34.6214 19.2508 33.0032 18.7325C33.2898 19.7608 33.5721 20.782 33.8657 21.8383ZM25.5553 27.5963C26.4136 29.1682 27.6526 30.1937 29.2694 30.712C28.9815 29.6753 28.6977 28.6513 28.4041 27.5963C27.5163 27.5963 26.5681 27.5963 25.5553 27.5963ZM33.0032 30.7162C34.6313 30.1796 35.8716 29.1598 36.7102 27.5963C35.6988 27.5963 34.7521 27.5963 33.8685 27.5963C33.5749 28.6541 33.2912 29.6767 33.0032 30.7162Z" fill="#0377A3"/>
<path d="M23.9455 36.1219C23.6463 35.4532 23.3541 34.7958 23.0591 34.1398C21.8665 31.4891 20.6711 28.8384 19.4855 26.1848C19.3801 25.9488 19.2636 25.8547 18.991 25.8575C17.5638 25.8744 16.1352 25.866 14.7066 25.8646C14.2459 25.8646 14.0029 25.6693 14.0001 25.3013C13.9958 24.929 14.2388 24.7253 14.6926 24.7239C16.3235 24.7225 17.9529 24.7295 19.5838 24.7183C19.942 24.7155 20.1555 24.8532 20.2974 25.1805C20.6907 26.0837 21.1094 26.9757 21.5041 27.8775C21.5926 28.0798 21.6979 28.1669 21.9269 28.1557C22.3188 28.136 22.7121 28.1458 23.1041 28.1514C23.4721 28.1571 23.7039 28.3762 23.7095 28.7077C23.7165 29.0575 23.4805 29.2823 23.0928 29.2893C22.7978 29.2949 22.5028 29.2907 22.1727 29.2907C22.2205 29.4241 22.25 29.5239 22.2921 29.618C23.2319 31.7068 24.1773 33.7928 25.11 35.8845C25.2041 36.0952 25.3165 36.15 25.5342 36.15C29.2708 36.1429 33.0074 36.1443 36.7439 36.1471C36.9322 36.1471 37.0614 36.1317 37.1597 35.921C38.1613 33.7689 39.1783 31.6239 40.1883 29.4775C40.208 29.4354 40.2164 29.389 40.2473 29.2893C39.8877 29.2893 39.5506 29.2921 39.2149 29.2879C38.7934 29.2837 38.5574 29.0687 38.5645 28.7021C38.5715 28.3579 38.8075 28.1514 39.2078 28.1472C39.6236 28.143 40.0422 28.1304 40.4566 28.1529C40.7165 28.1669 40.8668 28.0995 40.9637 27.841C41.093 27.4983 41.2658 27.171 41.4273 26.8394C41.6099 26.4644 41.9175 26.3351 42.2364 26.4854C42.5581 26.6386 42.6564 26.9518 42.4752 27.3353C40.982 30.5156 39.4832 33.6931 37.9899 36.8734C37.8438 37.1838 37.6149 37.2892 37.2791 37.2892C33.0186 37.2822 28.7581 37.2836 24.499 37.2878C24.2883 37.2878 24.0663 37.3103 23.8696 37.3763C23.4089 37.5322 23.0886 38.0688 23.1476 38.531C23.2193 39.0928 23.6379 39.5016 24.211 39.562C24.3402 39.5761 24.4723 39.5691 24.6029 39.5691C29.3635 39.5691 34.1227 39.5691 38.8833 39.5691C38.9901 39.5691 39.0983 39.562 39.205 39.5733C39.4972 39.6042 39.6995 39.8331 39.7065 40.1253C39.7135 40.433 39.5056 40.676 39.1994 40.7083C39.0941 40.7195 38.9859 40.7125 38.8777 40.7125C34.0708 40.7125 29.2624 40.6956 24.4554 40.7251C23.3429 40.7322 22.2135 40.0579 22.0182 38.7768C21.8061 37.3875 22.788 36.3719 23.7924 36.1893C23.8359 36.1851 23.8767 36.1542 23.9455 36.1219Z" fill="#0377A3"/>
<path d="M36.5678 48.7116C34.5941 48.7116 32.6191 48.7088 30.6454 48.7144C30.349 48.7158 30.0948 48.6147 30.04 48.3309C30.0035 48.1413 30.0863 47.8927 30.1973 47.7241C30.2661 47.6202 30.4895 47.5752 30.6426 47.5752C34.5913 47.5682 38.54 47.5682 42.4873 47.5696C42.9045 47.5696 43.1447 47.7929 43.1348 48.1554C43.1264 48.4995 42.889 48.7088 42.4887 48.7088C40.515 48.713 38.5414 48.7116 36.5678 48.7116Z" fill="#0377A3"/>
<path d="M29.9979 44.1332C29.9993 45.4129 28.9949 46.4257 27.7236 46.4285C26.4453 46.4299 25.4311 45.4255 25.4297 44.1543C25.4283 42.8732 26.4299 41.8618 27.7039 41.8604C28.9837 41.8575 29.995 42.8605 29.9979 44.1332ZM27.7292 43.0024C27.1266 42.9898 26.5858 43.5151 26.5717 44.1248C26.5591 44.7246 27.0887 45.2696 27.6941 45.2837C28.2953 45.2963 28.839 44.7695 28.8516 44.1599C28.8656 43.5601 28.3361 43.015 27.7292 43.0024Z" fill="#0377A3"/>
<path d="M34.5555 41.8589C35.8366 41.8575 36.8494 42.8591 36.8508 44.1317C36.8536 45.4114 35.8492 46.4256 34.5766 46.4271C33.2983 46.4299 32.2827 45.4241 32.2813 44.1528C32.2798 42.8731 33.2814 41.8617 34.5555 41.8589ZM35.706 44.1542C35.7144 43.553 35.1806 43.0108 34.5752 43.0037C33.9711 42.9967 33.4331 43.5249 33.4247 44.1331C33.4163 44.7344 33.9486 45.2766 34.5541 45.285C35.1567 45.292 35.6989 44.7596 35.706 44.1542Z" fill="#0377A3"/>
<path d="M22.8702 48.7115C21.8602 48.7115 20.8502 48.7129 19.8388 48.7115C19.3836 48.7115 19.1406 48.5092 19.1406 48.1398C19.142 47.7718 19.3836 47.5723 19.8416 47.5709C21.8503 47.5695 23.8591 47.5695 25.8679 47.5709C26.323 47.5709 26.5674 47.7732 26.566 48.1426C26.5646 48.5106 26.3216 48.7115 25.865 48.7115C24.8663 48.7129 23.8689 48.7115 22.8702 48.7115Z" fill="#0377A3"/>
<path d="M16.86 48.1141C16.8726 47.7966 17.1184 47.5676 17.4401 47.5718C17.7716 47.5775 18.0146 47.8345 18.0006 48.1688C17.988 48.4849 17.7393 48.7167 17.4204 48.7125C17.0875 48.7069 16.8459 48.4484 16.86 48.1141Z" fill="#0377A3"/>
<path d="M28.8516 48.1338C28.8558 48.4653 28.603 48.7168 28.2701 48.7126C27.9512 48.7084 27.7152 48.471 27.711 48.1507C27.7068 47.8135 27.9526 47.5677 28.2883 47.5733C28.6086 47.5761 28.8474 47.8164 28.8516 48.1338Z" fill="#0377A3"/>
<path d="M45.422 48.1266C45.4291 48.461 45.1818 48.7138 44.8489 48.7124C44.53 48.711 44.2884 48.475 44.2814 48.1561C44.2744 47.8204 44.5188 47.5704 44.8545 47.5718C45.1734 47.5732 45.415 47.8092 45.422 48.1266Z" fill="#0377A3"/>
</svg>
