<svg width="60" height="61" viewBox="0 0 60 61" fill="none" xmlns="http://www.w3.org/2000/svg">
<path d="M27.9214 0.33508C21.584 0.798035 15.689 3.1717 10.7746 7.24083C9.85504 8.00227 7.70941 10.1485 6.96646 11.0501C2.83962 16.0553 0.48288 21.9661 0.0626853 28.354C-0.412317 35.5765 1.82872 42.9351 6.22351 48.586C7.342 50.0256 8.88271 51.6724 10.1616 52.7952C18.1818 59.837 29.1698 62.1051 39.3113 58.8157C46.1278 56.6045 52.0227 51.8957 55.7557 45.6844C59.5598 39.3553 60.8772 31.7064 59.4218 24.4047C58.3865 19.2107 56.0338 14.4613 52.5017 10.4389C51.8136 9.6551 50.1369 8.0043 49.3838 7.37078C44.7149 3.43769 39.1875 1.08434 33.0632 0.424422C32.0015 0.306653 28.9993 0.25589 27.9214 0.33508ZM32.1822 2.53412C35.8807 2.82651 39.2321 3.73618 42.4638 5.32606C50.8392 9.4419 56.6509 17.5233 57.8628 26.7377C58.9792 35.2395 56.1962 43.6965 50.2485 49.8672C46.2252 54.042 40.8845 56.905 35.1905 57.9405C26.2629 59.5649 17.1892 56.8055 10.6833 50.4886C5.70588 45.656 2.79496 39.3919 2.25906 32.3663C2.16772 31.1785 2.21847 28.5469 2.35447 27.3733C2.9533 22.2036 4.80865 17.5659 7.91241 13.4806C9.01871 12.0227 10.801 10.1505 12.159 9.01955C16.6878 5.24687 22.128 3.01941 27.9823 2.54021C28.912 2.46508 31.2626 2.46305 32.1822 2.53412Z" fill="#0377A3"/>
<path d="M41.1503 15.7019C41.0671 15.7303 36.0369 15.7567 29.9735 15.7608C22.41 15.7648 18.878 15.7872 18.7176 15.8318C18.407 15.9192 18.068 16.2319 17.8427 16.6359L17.6641 16.9608V31.2637V45.5666L17.8021 45.8244C17.9787 46.1554 18.2101 46.3747 18.5532 46.5392C18.8231 46.6671 18.8962 46.6712 22.3369 46.6894C24.5963 46.7016 25.9705 46.6854 26.1958 46.6448C26.6607 46.5595 26.9855 46.3219 27.2047 45.9057C27.359 45.6153 27.3793 45.5138 27.361 45.1645C27.3306 44.6061 27.0992 44.2305 26.6424 43.9929L26.3176 43.8244H23.3844H20.4511V31.2048V18.5852H30.2496H40.048V26.9732C40.048 32.7256 40.0683 35.4587 40.113 35.6679C40.1942 36.0536 40.3769 36.3278 40.7037 36.5552C41.0082 36.7684 41.4934 36.8354 41.8547 36.7156C42.1571 36.6141 42.5489 36.2567 42.691 35.9501C42.7986 35.7166 42.8047 35.2638 42.8047 26.2402C42.8047 17.174 42.8006 16.7659 42.691 16.5303C42.6281 16.3963 42.5063 16.2115 42.421 16.1202C42.1044 15.7872 41.4934 15.5862 41.1503 15.7019Z" fill="#0377A3"/>
<path d="M22.6022 22.9411C21.6095 23.4324 21.5994 24.9431 22.5839 25.4589L22.9087 25.6295H30.1677C35.4272 25.6295 37.4917 25.6112 37.6601 25.5604C37.9728 25.467 38.2996 25.1888 38.466 24.8761C38.6731 24.4842 38.6589 23.8548 38.4336 23.4731C38.3402 23.3147 38.1433 23.1015 38.0052 23.0101L37.7515 22.8416L30.3078 22.8253L22.864 22.8091L22.6022 22.9411Z" fill="#0377A3"/>
<path d="M22.5847 28.5539C21.5961 29.0696 21.6103 30.5905 22.609 31.0737C22.8709 31.2016 22.8932 31.2016 30.2355 31.2016C37.4377 31.2016 37.6041 31.1996 37.8315 31.0839C38.2943 30.8483 38.6333 30.3021 38.6333 29.7925C38.6333 29.2341 38.1725 28.5823 37.6833 28.4503C37.5128 28.4036 35.2433 28.3833 30.1726 28.3833H22.9074L22.5847 28.5539Z" fill="#0377A3"/>
<path d="M33.5947 33.4724C30.5457 33.9516 28.6782 37.0522 29.6769 39.9802C30.1783 41.4544 31.3719 42.5996 32.9147 43.0869C33.4932 43.2696 34.6908 43.3204 35.31 43.1904C35.8865 43.0686 36.5746 42.7782 37.0618 42.4513L37.4597 42.1853L40.5776 44.961C42.2929 46.488 43.7118 47.7306 43.7321 47.7246C43.8052 47.7002 45.0759 46.1895 45.0597 46.1448C45.0495 46.1184 43.6347 44.8433 41.9072 43.3082L38.771 40.5203L38.9151 40.165C39.3252 39.1579 39.3637 37.8807 39.0166 36.839C38.7385 36.0065 38.4158 35.4928 37.756 34.8369C37.2628 34.3476 37.1125 34.24 36.5563 33.9679C36.2072 33.7993 35.7403 33.6166 35.5211 33.5638C35.0095 33.444 34.0595 33.3993 33.5947 33.4724ZM35.0887 35.7689C36.3351 36.1385 37.1572 37.4441 36.94 38.7111C36.8487 39.2492 36.5705 39.8015 36.2113 40.163C35.6327 40.7457 35.0278 40.9731 34.1691 40.9305C33.6982 40.9081 33.5723 40.8757 33.1704 40.6767C31.5729 39.8848 31.1811 37.8563 32.3727 36.5304C33.0405 35.7892 34.1285 35.4847 35.0887 35.7689Z" fill="#0377A3"/>
</svg>
