<svg width="30" height="26" viewBox="0 0 30 26" fill="none" xmlns="http://www.w3.org/2000/svg">
<path d="M14.4892 0.00740147C12.7013 0.127364 11.4205 0.381089 9.91591 0.91269C7.34065 1.82276 5.06998 3.4242 3.43277 5.48478C0.0038281 9.80129 -0.119607 15.6391 3.12315 20.1005C3.80041 21.0321 4.72691 21.9912 5.66821 22.7346C9.3011 25.6042 14.2198 26.6645 18.9056 25.5877C20.655 25.1856 22.3997 24.4414 23.8726 23.469C24.8524 22.822 25.8884 21.9228 26.6581 21.0509C29.1179 18.2647 30.1879 14.6945 29.6279 11.1408C29.2984 9.04941 28.3645 7.00315 26.9588 5.2913C26.0906 4.23421 24.8379 3.13278 23.6332 2.36763C21.6268 1.09316 19.27 0.301999 16.754 0.0575626C16.3511 0.018283 14.827 -0.0154232 14.4892 0.00740147ZM15.91 0.548823C17.544 0.622605 18.8861 0.878984 20.3649 1.39944C22.0907 2.00695 23.6491 2.91277 24.9619 4.07151C25.4237 4.47917 25.7783 4.82552 26.0959 5.17957C27.7604 7.03367 28.7544 9.17123 29.0892 11.6156C29.1643 12.165 29.1643 13.849 29.0889 14.389C28.8704 15.9549 28.4397 17.2573 27.7065 18.5691C27.0375 19.7661 26.2549 20.7423 25.1759 21.7248C24.4131 22.4196 23.7897 22.883 22.9402 23.387C21.099 24.4794 19.101 25.1299 16.8129 25.3826C16.1942 25.4508 14.3211 25.4497 13.7048 25.3807C10.8187 25.0572 8.22986 24.0343 6.15662 22.3986C2.28012 19.3401 0.614194 14.8031 1.70587 10.278C2.17889 8.31663 3.28891 6.35239 4.79233 4.81597C7.30158 2.25165 10.8128 0.717354 14.5543 0.550415C15.2411 0.519629 15.2642 0.519629 15.91 0.548823Z" fill="#89898F"/>
<path d="M14.746 6.09526C13.7325 6.2484 12.9161 6.60589 12.2075 7.20624C11.2987 7.97643 10.8307 8.9433 10.8297 10.0527C10.8288 11.0347 11.2004 11.8885 11.9654 12.6616C12.2069 12.9058 12.5633 13.1786 12.8339 13.3267C12.93 13.3792 13.0106 13.4307 13.0106 13.4392C13.0106 13.448 12.9455 13.4761 12.8649 13.5021C12.5872 13.5916 11.935 13.8888 11.6127 14.0727C9.72752 15.1489 8.54999 16.9664 8.50907 18.8641C8.50163 19.2117 8.52271 19.2749 8.69288 19.4134C8.90644 19.5873 9.2384 19.5878 9.45537 19.4148C9.5992 19.3001 9.66057 19.156 9.66181 18.9304C9.66646 18.0386 10.035 17.0445 10.6524 16.2578C12.3631 14.0778 15.7447 13.4058 18.3639 14.7254C19.176 15.1346 19.9177 15.7591 20.4012 16.4409C20.9309 17.188 21.2558 18.1501 21.2558 18.9729C21.2558 19.3046 21.4529 19.5098 21.7951 19.5345C21.9966 19.5491 22.1729 19.4806 22.2994 19.3391C22.3819 19.247 22.3877 19.2223 22.3977 18.9384C22.4104 18.5724 22.34 18.0678 22.2163 17.6352C21.7294 15.9314 20.4105 14.5067 18.5901 13.7184C18.3763 13.6258 18.1367 13.5292 18.0555 13.5029C17.9749 13.4766 17.9082 13.448 17.9082 13.4392C17.9082 13.4305 17.9873 13.3798 18.0865 13.3251C18.1835 13.2718 18.3763 13.1428 18.5096 13.0422C20.0841 11.854 20.5392 9.92529 19.6288 8.29837C19.4016 7.8923 19.145 7.58948 18.7172 7.22349C18.0356 6.63987 17.3224 6.30333 16.4049 6.13215C16.0417 6.06474 15.0889 6.04351 14.746 6.09526ZM15.7751 7.06716C16.5655 7.13086 17.2924 7.41696 17.8549 7.8854C18.5653 8.47698 18.9305 9.21401 18.9305 10.0553C18.9305 10.8303 18.6001 11.5456 17.9814 12.1096C17.5524 12.5005 16.9498 12.81 16.3423 12.9506C16.0575 13.0167 15.9859 13.0225 15.4589 13.0225C14.932 13.0225 14.8604 13.0167 14.5756 12.9509C13.4814 12.6977 12.5732 11.9835 12.1904 11.0745C11.8606 10.2915 11.9381 9.35786 12.3935 8.63543C12.7772 8.02633 13.438 7.51543 14.1571 7.27152C14.5539 7.13696 14.8142 7.08919 15.397 7.04381C15.4227 7.04195 15.5922 7.0523 15.7751 7.06716Z" fill="#89898F"/>
</svg>
