<svg width="61" height="61" viewBox="0 0 61 61" fill="none" xmlns="http://www.w3.org/2000/svg">
<path d="M28.3198 0.97424C21.9824 1.4372 16.0875 3.81086 11.173 7.87999C10.2535 8.64143 8.10785 10.7877 7.3649 11.6892C3.23806 16.6944 0.881317 22.6052 0.461123 28.9932C-0.0138796 36.2157 2.22716 43.5742 6.62195 49.2251C7.74043 50.6648 9.28115 52.3115 10.56 53.4344C18.5802 60.4762 29.5682 62.7443 39.7097 59.4548C46.5262 57.2436 52.4211 52.5349 56.1541 46.3236C59.9582 39.9945 61.2756 32.3455 59.8202 25.0439C58.7849 19.8498 56.4322 15.1005 52.9002 11.078C52.212 10.2943 50.5353 8.64346 49.7822 8.00994C45.1134 4.07685 39.5859 1.7235 33.4616 1.06358C32.4 0.945813 29.3977 0.89505 28.3198 0.97424ZM32.5806 3.17328C36.2791 3.46567 39.6306 4.37534 42.8622 5.96522C51.2377 10.0811 57.0493 18.1625 58.2612 27.3769C59.3777 35.8786 56.5946 44.3357 50.647 50.5064C46.6236 54.6811 41.2829 57.5441 35.589 58.5797C26.6614 60.2041 17.5876 57.4446 11.0817 51.1277C6.10431 46.2951 3.1934 40.031 2.6575 33.0055C2.56616 31.8176 2.6169 29.1861 2.75291 28.0125C3.35174 22.8428 5.20709 18.2051 8.31084 14.1197C9.41715 12.6618 11.1994 10.7897 12.5574 9.65871C17.0862 5.88603 22.5264 3.65857 28.3807 3.17937C29.3104 3.10424 31.6611 3.10221 32.5806 3.17328Z" fill="#0377A3"/>
<path d="M37.4691 29.13C37.243 29.13 37.0635 29.13 36.8841 29.13C33.2455 29.13 29.6083 29.13 25.9697 29.13C25.8005 29.13 25.6298 29.1358 25.462 29.1212C25.1016 29.089 24.8901 28.88 24.8857 28.5218C24.8813 28.1636 25.0914 27.9531 25.4474 27.9034C25.5378 27.8903 25.6327 27.8976 25.7246 27.8976C29.8257 27.8976 33.9253 27.8961 38.0264 27.8961C38.1038 27.8961 38.1811 27.8946 38.257 27.899C38.7705 27.9224 39.0404 28.2411 38.9033 28.7279C38.1738 31.3272 37.4312 33.9221 36.6944 36.5199C36.5748 36.941 36.2655 37.036 35.8745 37.036C34.0245 37.0316 32.1746 37.036 30.3247 37.0375C29.0291 37.0375 27.735 37.0375 26.4395 37.0375C25.5087 37.0375 25.4693 37.0053 25.2344 36.1238C24.3386 32.7394 23.4297 29.358 22.5572 25.9664C22.439 25.5073 22.2406 25.3831 21.8044 25.4123C21.2821 25.4474 20.7569 25.4269 20.2331 25.4182C19.7765 25.4108 19.5168 25.1872 19.508 24.8159C19.4993 24.427 19.7706 24.1902 20.2521 24.1858C21.053 24.1799 21.8555 24.2004 22.6564 24.177C23.1568 24.1624 23.4122 24.3685 23.5391 24.8539C24.4378 28.2864 25.3642 31.7102 26.2469 35.1457C26.3797 35.6647 26.581 35.8065 27.1077 35.8007C29.7892 35.7685 32.4722 35.7802 35.1538 35.7919C35.4791 35.7934 35.6323 35.7188 35.7257 35.3753C36.2509 33.4558 36.8082 31.545 37.3524 29.6314C37.3947 29.4896 37.421 29.3419 37.4691 29.13Z" fill="#0377A3"/>
<path d="M15.2421 17.8847C15.2421 18.4797 15.245 19.0747 15.2406 19.6697C15.2363 20.1609 15.0203 20.4255 14.6293 20.4343C14.2398 20.443 13.9976 20.177 13.9947 19.6945C13.9874 18.4607 14.0005 17.2254 13.9845 15.9915C13.9801 15.6728 14.1114 15.6041 14.3959 15.607C15.5966 15.6187 16.7988 15.6085 17.9995 15.6173C18.5408 15.6202 18.8048 15.8351 18.8078 16.2327C18.8107 16.6479 18.5291 16.8628 17.9689 16.8643C17.4013 16.8672 16.8338 16.8643 16.186 16.8643C16.3027 17.0105 16.3669 17.104 16.4457 17.1844C17.4334 18.18 18.4255 19.1726 19.4147 20.1653C19.5022 20.253 19.5912 20.3378 19.6744 20.4284C20.0114 20.791 20.0362 21.1257 19.7502 21.4006C19.4789 21.6623 19.1506 21.6389 18.8136 21.3216C18.5787 21.0994 18.3555 20.8655 18.1264 20.636C17.2044 19.7077 16.2823 18.7779 15.3603 17.8496C15.3223 17.8613 15.2829 17.873 15.2421 17.8847Z" fill="#0377A3"/>
<path d="M50.0182 32.2453C49.3763 32.2453 48.7329 32.2453 48.0909 32.2453C47.1353 32.2453 46.1797 32.2468 45.2241 32.2438C44.677 32.2424 44.3779 32.0055 44.391 31.5991C44.4042 31.2073 44.6901 30.9866 45.211 30.9851C46.6437 30.9822 48.0778 30.9851 49.5105 30.9851C49.6739 30.9851 49.8373 30.9851 50.1437 30.9851C49.6199 30.4559 49.1662 30.048 48.7825 29.5831C48.6322 29.4019 48.5388 29.07 48.5884 28.8449C48.6876 28.399 49.2537 28.3303 49.6345 28.7031C50.4282 29.4793 51.2043 30.2732 51.9907 31.0582C52.1643 31.2307 52.3452 31.3945 52.5903 31.6254C51.928 32.2716 51.2992 32.8812 50.6747 33.4938C50.3552 33.8066 50.0459 34.1297 49.725 34.4425C49.331 34.8285 48.9605 34.8709 48.6833 34.5712C48.4192 34.2847 48.4717 33.928 48.8408 33.561C49.2435 33.159 49.6505 32.7599 50.0547 32.3579C50.0415 32.3198 50.0299 32.2833 50.0182 32.2453Z" fill="#0377A3"/>
<path d="M29.9643 54.2568C28.959 53.2451 27.9976 52.2861 27.0493 51.3169C26.7429 51.004 26.7356 50.621 27.0172 50.3798C27.3265 50.1152 27.6445 50.1561 27.9232 50.4368C28.355 50.871 28.7752 51.3169 29.2012 51.7569C29.245 51.7408 29.2888 51.7247 29.3325 51.7087C29.3325 51.5508 29.3325 51.3929 29.3325 51.235C29.3325 49.7833 29.3369 48.3316 29.3325 46.8799C29.3311 46.5042 29.4288 46.1987 29.8242 46.0905C30.2429 45.9765 30.5872 46.304 30.5901 46.8288C30.5974 48.2498 30.5916 49.6707 30.5916 51.0917C30.5916 51.3008 30.5916 51.5098 30.5916 51.7189C30.6339 51.7423 30.6777 51.7671 30.72 51.7905C31.1168 51.368 31.5093 50.9411 31.9134 50.526C32.2709 50.1576 32.6429 50.1137 32.9245 50.3842C33.2046 50.6531 33.1637 51.0333 32.8077 51.3929C31.8769 52.3344 30.9418 53.2729 29.9643 54.2568Z" fill="#0377A3"/>
<path d="M44.5502 17.8111C43.9447 18.4397 43.3437 19.0712 42.7338 19.694C42.2057 20.2335 41.6702 20.7685 41.1319 21.2977C40.7774 21.6457 40.4447 21.672 40.1602 21.3913C39.8889 21.1238 39.9151 20.7641 40.2594 20.4147C41.3011 19.3622 42.3487 18.3169 43.3933 17.2687C43.4968 17.1649 43.5946 17.0538 43.7726 16.8638C43.0927 16.8638 42.515 16.8652 41.9372 16.8638C41.396 16.8608 41.0983 16.6255 41.11 16.2161C41.1202 15.8316 41.412 15.6124 41.9358 15.6109C43.1379 15.608 44.3401 15.6182 45.5408 15.605C45.8414 15.6021 45.9435 15.6942 45.9391 15.9998C45.9245 17.219 45.9347 18.4397 45.9275 19.6589C45.9245 20.1765 45.6882 20.4528 45.2826 20.4396C44.9004 20.4279 44.6844 20.1545 44.6815 19.6648C44.6771 19.0712 44.6801 18.4777 44.6801 17.8827C44.6377 17.8593 44.594 17.8345 44.5502 17.8111Z" fill="#0377A3"/>
<path d="M15.2425 45.4894C16.468 44.26 17.5827 43.1314 18.7119 42.0159C18.868 41.861 19.0912 41.6797 19.2824 41.6812C19.4822 41.6826 19.7988 41.8537 19.8499 42.0189C19.917 42.2323 19.8513 42.5846 19.7025 42.7484C19.0606 43.4559 18.3705 44.1182 17.6921 44.7921C17.2019 45.2789 16.7044 45.757 16.2098 46.2394C16.2244 46.2803 16.239 46.3227 16.2536 46.3637C16.8736 46.3637 17.4922 46.3637 18.1123 46.3637C18.5091 46.3637 18.763 46.5493 18.8111 46.9499C18.8563 47.3168 18.5777 47.6078 18.1458 47.6136C16.8678 47.6268 15.5883 47.6151 14.3103 47.6224C14.0695 47.6238 13.9907 47.5288 13.9922 47.2905C13.9995 46.0245 13.9878 44.7585 13.998 43.4939C14.001 43.0524 14.2621 42.7849 14.6298 42.7922C15.0003 42.7995 15.2381 43.0685 15.2425 43.5086C15.2469 44.1211 15.2425 44.7336 15.2425 45.4894Z" fill="#0377A3"/>
<path d="M7.39844 31.6187C8.41678 30.5954 9.38698 29.6057 10.3732 28.6335C10.6446 28.366 10.9787 28.3835 11.2369 28.6598C11.4966 28.9376 11.4718 29.268 11.2107 29.5326C10.7701 29.9799 10.3032 30.4009 9.84801 30.8337C9.86843 30.8731 9.88886 30.9141 9.90782 30.9536C10.0493 30.9623 10.1923 30.9799 10.3338 30.9799C11.7972 30.9828 13.2605 30.9857 14.7238 30.9813C15.0535 30.9799 15.3439 31.0398 15.4883 31.3775C15.6765 31.8205 15.3497 32.2371 14.7895 32.24C13.3874 32.2488 11.9854 32.243 10.5833 32.243C10.3572 32.243 10.1296 32.243 9.90345 32.243C9.87135 32.2897 9.83926 32.338 9.8057 32.3848C10.274 32.819 10.773 33.2268 11.1946 33.7034C11.3376 33.8657 11.377 34.2341 11.2967 34.4446C11.2369 34.6025 10.916 34.6829 10.6971 34.7458C10.6096 34.7706 10.4579 34.6785 10.3761 34.5981C9.39282 33.6245 8.41532 32.6406 7.39844 31.6187Z" fill="#0377A3"/>
<path d="M43.7053 46.2502C42.6359 45.186 41.5664 44.1217 40.4985 43.056C40.3672 42.9258 40.23 42.7987 40.1162 42.6539C39.9032 42.3835 39.9266 42.0911 40.1498 41.8543C40.3905 41.597 40.6955 41.5794 40.9829 41.7972C41.1288 41.9084 41.2528 42.0487 41.3826 42.1803C42.4433 43.2518 43.5025 44.3234 44.6784 45.3585C44.6784 44.9082 44.6784 44.4579 44.6784 44.0062C44.6784 43.8366 44.6725 43.667 44.6798 43.4975C44.6973 43.0618 44.941 42.7913 45.3086 42.7913C45.6763 42.7928 45.9141 43.0545 45.9287 43.5033C45.9404 43.8732 45.9345 44.2445 45.9331 44.6144C45.9331 45.4944 45.9214 46.373 45.936 47.2531C45.9404 47.5411 45.8368 47.6259 45.561 47.6244C44.3136 47.6142 43.0662 47.6244 41.8188 47.6157C41.368 47.6127 41.1171 47.3715 41.1185 46.9885C41.12 46.6128 41.3768 46.373 41.8247 46.3657C42.436 46.3555 43.0473 46.3628 43.6586 46.3628C43.6746 46.3263 43.6892 46.2882 43.7053 46.2502Z" fill="#0377A3"/>
<path d="M30.589 11.5149C30.589 12.8233 30.589 14.1317 30.589 15.4401C30.589 16.8772 30.4679 17.2397 29.9515 17.1345C28.8879 16.9166 29.3912 16.0175 29.3518 15.4167C29.276 14.2808 29.3299 13.1347 29.3299 11.9929C29.3299 11.8306 29.3299 11.6684 29.3299 11.5075C29.2891 11.4871 29.2482 11.4681 29.2059 11.4476C28.8062 11.8686 28.4123 12.2941 28.0052 12.7078C27.6522 13.0659 27.2597 13.1098 26.9942 12.8437C26.7155 12.5645 26.7564 12.2093 27.124 11.8365C28.0534 10.895 28.9871 9.95938 30.0025 8.93604C30.5773 9.54273 31.1113 10.1129 31.6541 10.6772C32.0392 11.0763 32.439 11.4622 32.8241 11.8613C33.1641 12.2136 33.1976 12.563 32.9335 12.835C32.6578 13.1171 32.2858 13.0791 31.9254 12.7195C31.5125 12.3072 31.1069 11.8891 30.6999 11.4725C30.662 11.4856 30.6255 11.5002 30.589 11.5149Z" fill="#0377A3"/>
<path d="M27.1395 42.1912C25.8965 42.1971 24.8912 41.2161 24.8752 39.9823C24.8591 38.7294 25.8702 37.7119 27.1278 37.7134C28.365 37.7148 29.3644 38.7089 29.3702 39.9472C29.376 41.1796 28.3752 42.1868 27.1395 42.1912ZM28.1141 39.9735C28.1228 39.4209 27.6837 38.9575 27.1424 38.9458C26.5997 38.9341 26.1401 39.3829 26.1299 39.934C26.1197 40.4896 26.5515 40.9442 27.103 40.9588C27.6457 40.9734 28.1053 40.5246 28.1141 39.9735Z" fill="#0377A3"/>
<path d="M34.4695 37.7153C35.7038 37.7183 36.6988 38.7065 36.709 39.9389C36.7192 41.1874 35.7067 42.2005 34.455 42.1947C33.2178 42.1873 32.2242 41.202 32.2111 39.9711C32.1965 38.7314 33.2178 37.711 34.4695 37.7153ZM35.4529 39.9389C35.4441 39.3878 34.9846 38.9375 34.4462 38.9492C33.8933 38.9624 33.4643 39.4112 33.4716 39.9696C33.4789 40.5208 33.9356 40.971 34.4768 40.9593C35.0254 40.9476 35.4616 40.4901 35.4529 39.9389Z" fill="#0377A3"/>
</svg>
