<svg width="60" height="61" viewBox="0 0 60 61" fill="none" xmlns="http://www.w3.org/2000/svg">
<path d="M27.9214 0.33508C21.584 0.798035 15.689 3.1717 10.7746 7.24083C9.85504 8.00227 7.70941 10.1485 6.96646 11.0501C2.83962 16.0553 0.48288 21.9661 0.0626853 28.354C-0.412317 35.5765 1.82872 42.9351 6.22351 48.586C7.342 50.0256 8.88271 51.6724 10.1616 52.7952C18.1818 59.837 29.1698 62.1051 39.3113 58.8157C46.1278 56.6045 52.0227 51.8957 55.7557 45.6844C59.5598 39.3553 60.8772 31.7064 59.4218 24.4047C58.3865 19.2107 56.0338 14.4613 52.5017 10.4389C51.8136 9.6551 50.1369 8.0043 49.3838 7.37078C44.7149 3.43769 39.1875 1.08434 33.0632 0.424422C32.0015 0.306653 28.9993 0.25589 27.9214 0.33508ZM32.1822 2.53412C35.8807 2.82651 39.2321 3.73618 42.4638 5.32606C50.8392 9.4419 56.6509 17.5233 57.8628 26.7377C58.9792 35.2395 56.1962 43.6965 50.2485 49.8672C46.2252 54.042 40.8845 56.905 35.1905 57.9405C26.2629 59.5649 17.1892 56.8055 10.6833 50.4886C5.70588 45.656 2.79496 39.3919 2.25906 32.3663C2.16772 31.1785 2.21847 28.5469 2.35447 27.3733C2.9533 22.2036 4.80865 17.5659 7.91241 13.4806C9.01871 12.0227 10.801 10.1505 12.159 9.01955C16.6878 5.24687 22.128 3.01941 27.9823 2.54021C28.912 2.46508 31.2626 2.46305 32.1822 2.53412Z" fill="#0377A3"/>
<path d="M37.0707 28.4908C36.8445 28.4908 36.6651 28.4908 36.4856 28.4908C32.847 28.4908 29.2099 28.4908 25.5713 28.4908C25.402 28.4908 25.2313 28.4966 25.0635 28.482C24.7032 28.4499 24.4916 28.2408 24.4873 27.8826C24.4829 27.5245 24.693 27.314 25.0489 27.2643C25.1394 27.2511 25.2342 27.2584 25.3262 27.2584C29.4273 27.2584 33.5269 27.2569 37.628 27.2569C37.7053 27.2569 37.7827 27.2555 37.8585 27.2599C38.3721 27.2833 38.642 27.602 38.5048 28.0888C37.7754 30.6881 37.0327 33.283 36.296 35.8808C36.1763 36.3018 35.8671 36.3968 35.4761 36.3968C33.6261 36.3924 31.7762 36.3968 29.9262 36.3983C28.6307 36.3983 27.3366 36.3983 26.041 36.3983C25.1102 36.3983 25.0708 36.3661 24.8359 35.4846C23.9402 32.1003 23.0312 28.7189 22.1588 25.3272C22.0406 24.8682 21.8422 24.7439 21.406 24.7732C20.8837 24.8082 20.3584 24.7878 19.8347 24.779C19.378 24.7717 19.1183 24.548 19.1096 24.1767C19.1008 23.7878 19.3722 23.551 19.8536 23.5466C20.6546 23.5408 21.457 23.5612 22.258 23.5378C22.7584 23.5232 23.0137 23.7293 23.1407 24.2147C24.0394 27.6473 24.9658 31.0711 25.8485 34.5066C25.9812 35.0256 26.1826 35.1674 26.7092 35.1615C29.3908 35.1294 32.0738 35.141 34.7553 35.1527C35.0807 35.1542 35.2339 35.0796 35.3272 34.7361C35.8525 32.8166 36.4098 30.9059 36.954 28.9922C36.9963 28.8504 37.0225 28.7028 37.0707 28.4908Z" fill="#0377A3"/>
<path d="M14.8437 17.2455C14.8437 17.8405 14.8466 18.4355 14.8422 19.0305C14.8378 19.5217 14.6219 19.7863 14.2309 19.7951C13.8414 19.8039 13.5992 19.5378 13.5963 19.0554C13.589 17.8215 13.6021 16.5862 13.586 15.3523C13.5817 15.0336 13.713 14.9649 13.9975 14.9679C15.1982 14.9796 16.4004 14.9693 17.6011 14.9781C18.1423 14.981 18.4064 15.1959 18.4093 15.5936C18.4122 16.0087 18.1307 16.2236 17.5704 16.2251C17.0029 16.228 16.4354 16.2251 15.7876 16.2251C15.9043 16.3713 15.9685 16.4649 16.0473 16.5453C17.035 17.5408 18.0271 18.5335 19.0162 19.5261C19.1038 19.6138 19.1928 19.6986 19.2759 19.7893C19.613 20.1518 19.6378 20.4866 19.3518 20.7614C19.0804 21.0231 18.7522 20.9997 18.4152 20.6825C18.1803 20.4603 17.957 20.2264 17.728 19.9968C16.8059 19.0685 15.8839 18.1388 14.9618 17.2104C14.9239 17.2221 14.8845 17.2338 14.8437 17.2455Z" fill="#0377A3"/>
<path d="M49.6198 31.6061C48.9778 31.6061 48.3344 31.6061 47.6925 31.6061C46.7369 31.6061 45.7813 31.6076 44.8257 31.6047C44.2786 31.6032 43.9795 31.3664 43.9926 30.96C44.0057 30.5682 44.2917 30.3474 44.8125 30.346C46.2452 30.343 47.6794 30.346 49.112 30.346C49.2754 30.346 49.4389 30.346 49.7452 30.346C49.2215 29.8167 48.7677 29.4089 48.384 28.944C48.2338 28.7627 48.1404 28.4309 48.19 28.2057C48.2892 27.7598 48.8553 27.6911 49.2361 28.0639C50.0297 28.8402 50.8059 29.634 51.5923 30.4191C51.7659 30.5916 51.9468 30.7553 52.1919 30.9863C51.5295 31.6324 50.9007 32.2421 50.2763 32.8546C49.9568 33.1675 49.6475 33.4905 49.3265 33.8034C48.9326 34.1893 48.562 34.2317 48.2848 33.932C48.0208 33.6455 48.0733 33.2888 48.4424 32.9219C48.8451 32.5198 49.2521 32.1207 49.6562 31.7187C49.6431 31.6807 49.6314 31.6441 49.6198 31.6061Z" fill="#0377A3"/>
<path d="M29.5658 53.6176C28.5606 52.606 27.5992 51.6469 26.6508 50.6777C26.3445 50.3648 26.3372 49.9818 26.6187 49.7406C26.928 49.476 27.2461 49.5169 27.5248 49.7976C27.9566 50.2318 28.3768 50.6777 28.8028 51.1177C28.8466 51.1017 28.8903 51.0856 28.9341 51.0695C28.9341 50.9116 28.9341 50.7537 28.9341 50.5958C28.9341 49.1442 28.9385 47.6925 28.9341 46.2408C28.9326 45.8651 29.0304 45.5595 29.4258 45.4514C29.8445 45.3373 30.1888 45.6648 30.1917 46.1896C30.199 47.6106 30.1932 49.0316 30.1932 50.4526C30.1932 50.6616 30.1932 50.8707 30.1932 51.0797C30.2355 51.1031 30.2792 51.128 30.3216 51.1514C30.7184 50.7289 31.1108 50.302 31.515 49.8868C31.8724 49.5184 32.2445 49.4745 32.526 49.745C32.8061 50.014 32.7653 50.3941 32.4093 50.7537C31.4785 51.6952 30.5433 52.6337 29.5658 53.6176Z" fill="#0377A3"/>
<path d="M44.1518 17.1719C43.5463 17.8005 42.9452 18.4321 42.3354 19.0549C41.8072 19.5943 41.2718 20.1294 40.7335 20.6586C40.3789 21.0065 40.0463 21.0328 39.7618 20.7521C39.4904 20.4846 39.5167 20.125 39.861 19.7756C40.9027 18.723 41.9502 17.6777 42.9948 16.6295C43.0984 16.5258 43.1962 16.4146 43.3742 16.2246C42.6943 16.2246 42.1165 16.2261 41.5388 16.2246C40.9975 16.2217 40.6999 15.9863 40.7116 15.577C40.7218 15.1925 41.0136 14.9732 41.5373 14.9717C42.7395 14.9688 43.9417 14.979 45.1424 14.9659C45.4429 14.963 45.5451 15.0551 45.5407 15.3606C45.5261 16.5798 45.5363 17.8005 45.529 19.0198C45.5261 19.5373 45.2897 19.8136 44.8842 19.8004C44.5019 19.7887 44.286 19.5154 44.2831 19.0256C44.2787 18.4321 44.2816 17.8385 44.2816 17.2436C44.2393 17.2202 44.1955 17.1953 44.1518 17.1719Z" fill="#0377A3"/>
<path d="M14.8441 44.8503C16.0696 43.6208 17.1842 42.4922 18.3135 41.3768C18.4696 41.2218 18.6928 41.0405 18.8839 41.042C19.0838 41.0435 19.4004 41.2145 19.4514 41.3797C19.5186 41.5931 19.4529 41.9455 19.3041 42.1092C18.6622 42.8168 17.9721 43.479 17.2937 44.153C16.8035 44.6398 16.306 45.1178 15.8114 45.6002C15.826 45.6412 15.8405 45.6836 15.8551 45.7245C16.4752 45.7245 17.0938 45.7245 17.7138 45.7245C18.1107 45.7245 18.3645 45.9102 18.4127 46.3107C18.4579 46.6777 18.1792 46.9686 17.7474 46.9744C16.4694 46.9876 15.1899 46.9759 13.9118 46.9832C13.6711 46.9847 13.5923 46.8897 13.5938 46.6514C13.6011 45.3853 13.5894 44.1193 13.5996 42.8548C13.6025 42.4133 13.8637 42.1457 14.2313 42.1531C14.6019 42.1604 14.8397 42.4294 14.8441 42.8694C14.8485 43.4819 14.8441 44.0945 14.8441 44.8503Z" fill="#0377A3"/>
<path d="M7 30.9796C8.01835 29.9562 8.98854 28.9665 9.97479 27.9943C10.2462 27.7268 10.5803 27.7443 10.8385 28.0206C11.0982 28.2984 11.0734 28.6288 10.8122 28.8934C10.3716 29.3408 9.90476 29.7618 9.44957 30.1945C9.46999 30.234 9.49042 30.2749 9.50939 30.3144C9.6509 30.3232 9.79388 30.3407 9.9354 30.3407C11.3987 30.3436 12.862 30.3466 14.3254 30.3422C14.6551 30.3407 14.9454 30.4006 15.0899 30.7383C15.2781 31.1813 14.9513 31.598 14.391 31.6009C12.989 31.6096 11.5869 31.6038 10.1849 31.6038C9.95874 31.6038 9.73115 31.6038 9.50501 31.6038C9.47291 31.6506 9.44082 31.6988 9.40726 31.7456C9.87559 32.1798 10.3745 32.5877 10.7962 33.0643C10.9392 33.2265 10.9785 33.5949 10.8983 33.8054C10.8385 33.9633 10.5175 34.0437 10.2987 34.1066C10.2111 34.1314 10.0594 34.0393 9.97771 33.9589C8.99438 32.9853 8.01689 32.0014 7 30.9796Z" fill="#0377A3"/>
<path d="M43.3068 45.6111C42.2374 44.5468 41.168 43.4825 40.1001 42.4168C39.9687 42.2867 39.8316 42.1595 39.7178 42.0148C39.5048 41.7443 39.5282 41.4519 39.7514 41.2151C39.9921 40.9578 40.297 40.9403 40.5844 41.1581C40.7303 41.2692 40.8543 41.4095 40.9842 41.5411C42.0448 42.6127 43.104 43.6843 44.2799 44.7193C44.2799 44.269 44.2799 43.8188 44.2799 43.367C44.2799 43.1975 44.2741 43.0279 44.2814 42.8583C44.2989 42.4226 44.5426 42.1522 44.9102 42.1522C45.2779 42.1536 45.5157 42.4153 45.5303 42.8641C45.5419 43.234 45.5361 43.6053 45.5346 43.9752C45.5346 44.8553 45.523 45.7339 45.5376 46.614C45.5419 46.9019 45.4383 46.9867 45.1626 46.9853C43.9152 46.975 42.6678 46.9853 41.4204 46.9765C40.9696 46.9736 40.7186 46.7324 40.7201 46.3493C40.7216 45.9736 40.9783 45.7339 41.4262 45.7266C42.0375 45.7163 42.6488 45.7236 43.2601 45.7236C43.2762 45.6871 43.2908 45.6491 43.3068 45.6111Z" fill="#0377A3"/>
<path d="M30.1906 10.8757C30.1906 12.1841 30.1906 13.4925 30.1906 14.8009C30.1906 16.238 30.0695 16.6005 29.553 16.4953C28.4894 16.2775 28.9928 15.3784 28.9534 14.7775C28.8775 13.6416 28.9315 12.4955 28.9315 11.3537C28.9315 11.1915 28.9315 11.0292 28.9315 10.8684C28.8907 10.8479 28.8498 10.8289 28.8075 10.8084C28.4077 11.2295 28.0138 11.6549 27.6068 12.0686C27.2537 12.4268 26.8613 12.4706 26.5957 12.2046C26.3171 11.9253 26.3579 11.5701 26.7256 11.1973C27.6549 10.2558 28.5887 9.32022 29.6041 8.29688C30.1789 8.90357 30.7129 9.47372 31.2556 10.038C31.6408 10.4371 32.0405 10.8231 32.4257 11.2222C32.7656 11.5745 32.7992 11.9239 32.5351 12.1958C32.2594 12.4779 31.8873 12.4399 31.527 12.0803C31.1141 11.668 30.7085 11.2499 30.3015 10.8333C30.2635 10.8465 30.2271 10.8611 30.1906 10.8757Z" fill="#0377A3"/>
<path d="M26.741 41.5521C25.498 41.5579 24.4928 40.577 24.4768 39.3431C24.4607 38.0902 25.4718 37.0728 26.7294 37.0742C27.9666 37.0757 28.9659 38.0698 28.9718 39.308C28.9776 40.5404 27.9768 41.5477 26.741 41.5521ZM27.7156 39.3343C27.7244 38.7817 27.2852 38.3183 26.744 38.3066C26.2012 38.2949 25.7417 38.7437 25.7315 39.2949C25.7212 39.8504 26.1531 40.3051 26.7046 40.3197C27.2473 40.3343 27.7069 39.8855 27.7156 39.3343Z" fill="#0377A3"/>
<path d="M34.0711 37.0762C35.3054 37.0791 36.3004 38.0674 36.3106 39.2998C36.3208 40.5482 35.3083 41.5613 34.0565 41.5555C32.8193 41.5482 31.8258 40.5629 31.8127 39.3319C31.7981 38.0922 32.8193 37.0718 34.0711 37.0762ZM35.0544 39.2998C35.0457 38.7486 34.5861 38.2983 34.0478 38.31C33.4948 38.3232 33.0659 38.772 33.0732 39.3305C33.0805 39.8816 33.5371 40.3319 34.0784 40.3202C34.627 40.3085 35.0632 39.8509 35.0544 39.2998Z" fill="#0377A3"/>
</svg>
