<svg width="60" height="61" viewBox="0 0 60 61" fill="none" xmlns="http://www.w3.org/2000/svg">
<path d="M27.9214 0.33508C21.584 0.798035 15.689 3.1717 10.7746 7.24083C9.85504 8.00227 7.70941 10.1485 6.96646 11.0501C2.83962 16.0553 0.48288 21.9661 0.0626853 28.354C-0.412317 35.5765 1.82872 42.9351 6.22351 48.586C7.342 50.0256 8.88271 51.6724 10.1616 52.7952C18.1818 59.837 29.1698 62.1051 39.3113 58.8157C46.1278 56.6045 52.0227 51.8957 55.7557 45.6844C59.5598 39.3553 60.8772 31.7064 59.4218 24.4047C58.3865 19.2107 56.0338 14.4613 52.5017 10.4389C51.8136 9.6551 50.1369 8.0043 49.3838 7.37078C44.7149 3.43769 39.1875 1.08434 33.0632 0.424422C32.0015 0.306653 28.9993 0.25589 27.9214 0.33508ZM32.1822 2.53412C35.8807 2.82651 39.2321 3.73618 42.4638 5.32606C50.8392 9.4419 56.6509 17.5233 57.8628 26.7377C58.9792 35.2395 56.1962 43.6965 50.2485 49.8672C46.2252 54.042 40.8845 56.905 35.1905 57.9405C26.2629 59.5649 17.1892 56.8055 10.6833 50.4886C5.70588 45.656 2.79496 39.3919 2.25906 32.3663C2.16772 31.1785 2.21847 28.5469 2.35447 27.3733C2.9533 22.2036 4.80865 17.5659 7.91241 13.4806C9.01871 12.0227 10.801 10.1505 12.159 9.01955C16.6878 5.24687 22.128 3.01941 27.9823 2.54021C28.912 2.46508 31.2626 2.46305 32.1822 2.53412Z" fill="#0377A3"/>
<path d="M30.8296 45.7107C26.6692 45.7107 22.5088 45.7196 18.3484 45.7069C16.1303 45.7006 14.4296 44.7838 13.4864 42.7311C13.222 42.1562 13.0923 41.4901 13.0402 40.8544C12.9652 39.9351 13.0186 39.0043 13.0161 38.0786C13.0148 37.581 13.1775 37.1745 13.7419 37.1682C14.3063 37.1631 14.4791 37.5607 14.4779 38.0634C14.4779 38.9473 14.4702 39.8312 14.4868 40.7138C14.5249 42.764 16.0172 44.2329 18.065 44.2342C26.5968 44.2367 35.1298 44.2367 43.6616 44.2342C45.6853 44.2329 47.1712 42.7995 47.236 40.7721C47.264 39.8895 47.236 39.0056 47.2424 38.1217C47.2475 37.4797 47.5106 37.1276 47.986 37.1631C48.5923 37.2074 48.722 37.6342 48.7016 38.147C48.6533 39.3829 48.7639 40.6518 48.5199 41.8485C48.0305 44.238 46.0081 45.7044 43.4366 45.7133C39.2343 45.7285 35.032 45.7171 30.8283 45.7171C30.8296 45.7158 30.8296 45.7133 30.8296 45.7107Z" fill="#0076A2"/>
<path d="M30.1327 35.9616C30.1327 35.5716 30.1327 35.1816 30.1327 34.7916C30.1327 29.2983 30.1327 23.8063 30.1314 18.313C30.1314 18.2294 30.1225 18.1445 30.1301 18.061C30.1721 17.6152 30.345 17.2822 30.8636 17.2974C31.3619 17.3113 31.5805 17.6165 31.5843 18.0762C31.5957 19.5286 31.5945 20.9798 31.5945 22.4323C31.5932 26.7682 31.5907 31.1028 31.5894 35.4387C31.5894 35.6058 31.5894 35.773 31.5894 36.0744C31.8156 35.8717 31.9656 35.7489 32.1016 35.6134C33.791 33.933 35.479 32.2513 37.1671 30.5697C37.2713 30.4658 37.3667 30.3493 37.4811 30.2581C37.8268 29.9872 38.1929 29.9707 38.503 30.2873C38.8183 30.6077 38.7992 30.9648 38.4751 31.2889C37.7442 32.0196 37.0133 32.749 36.2811 33.4784C34.7125 35.041 33.1452 36.6049 31.5741 38.165C31.0123 38.7235 30.7098 38.7222 30.139 38.1562C27.8955 35.9262 25.6583 33.6911 23.4135 31.4637C23.05 31.1028 22.8123 30.7318 23.2267 30.2683C23.5254 29.9327 23.9881 30.0036 24.4317 30.4443C26.1502 32.1551 27.8688 33.8659 29.5785 35.5843C29.7196 35.7261 29.7958 35.9338 29.9026 36.1111C29.9789 36.0604 30.0551 36.011 30.1327 35.9616Z" fill="#0076A2"/>
</svg>
