<svg width="153" height="151" viewBox="0 0 153 151" fill="none" xmlns="http://www.w3.org/2000/svg">
<path d="M99.4911 127.312C128.497 114.618 141.62 81.039 128.803 52.3119C115.985 23.5848 82.0806 10.5877 53.0746 23.282C24.0687 35.9763 10.9454 69.555 23.7629 98.282C36.5805 127.009 70.4851 140.006 99.4911 127.312Z" fill="#0076A2"/>
<path d="M59.1584 64.9799C60.1471 61.4044 62.424 58.6598 64.0418 57.0724C64.9856 56.1526 65.0305 54.669 64.1467 53.7047L63.8771 53.4079C63.1431 52.6068 61.9297 52.3694 60.956 52.8738C41.5871 62.9473 41.8268 76.5963 42.0215 78.9107C42.0065 79.1629 41.9766 79.4151 41.9766 79.6821C41.9766 87.9011 48.7025 94.5624 57.0013 94.5624C65.3001 94.5624 72.0261 87.9011 72.0261 79.6821C72.0261 72.19 66.4386 66.0184 59.1584 64.9799Z" fill="#F9FBFC"/>
<path d="M94.9631 64.9796C95.9518 61.4042 98.2287 58.6596 99.8465 57.0721C100.79 56.1523 100.835 54.6687 99.9514 53.7044L99.6818 53.4077C98.9477 52.6066 97.7344 52.3692 96.7607 52.8736C77.3918 62.9471 77.6314 76.596 77.8262 78.9104C77.8112 79.1626 77.7812 79.4148 77.7812 79.6819C77.7812 87.9009 84.5072 94.5622 92.806 94.5622C101.105 94.5622 107.831 87.9009 107.831 79.6819C107.831 72.1898 102.228 66.0181 94.9631 64.9796Z" fill="#F9FBFC"/>
</svg>
