<svg width="61" height="61" viewBox="0 0 61 61" fill="none" xmlns="http://www.w3.org/2000/svg">
<path d="M28.7183 0.97424C22.3808 1.4372 16.4859 3.81086 11.5715 7.87999C10.6519 8.64143 8.50629 10.7877 7.76334 11.6892C3.6365 16.6944 1.27975 22.6052 0.85956 28.9932C0.384558 36.2157 2.6256 43.5742 7.02038 49.2251C8.13887 50.6648 9.67958 52.3115 10.9584 53.4344C18.9787 60.4762 29.9667 62.7443 40.1082 59.4548C46.9246 57.2436 52.8196 52.5349 56.5526 46.3236C60.3567 39.9945 61.6741 32.3455 60.2186 25.0439C59.1834 19.8498 56.8307 15.1005 53.2986 11.078C52.6105 10.2943 50.9338 8.64346 50.1806 8.00994C45.5118 4.07685 39.9843 1.7235 33.8601 1.06358C32.7984 0.945813 29.7961 0.89505 28.7183 0.97424ZM32.9791 3.17328C36.6776 3.46567 40.029 4.37534 43.2606 5.96522C51.6361 10.0811 57.4478 18.1625 58.6596 27.3769C59.7761 35.8786 56.9931 44.3357 51.0454 50.5064C47.0221 54.6811 41.6814 57.5441 35.9874 58.5797C27.0598 60.2041 17.986 57.4446 11.4801 51.1277C6.50275 46.2951 3.59184 40.031 3.05594 33.0055C2.96459 31.8176 3.01534 29.1861 3.15135 28.0125C3.75017 22.8428 5.60553 18.2051 8.70928 14.1197C9.81559 12.6618 11.5979 10.7897 12.9559 9.65871C17.4846 5.88603 22.9248 3.65857 28.7792 3.17937C29.7089 3.10424 32.0595 3.10221 32.9791 3.17328Z" fill="#0377A3"/>
<path d="M39.2919 41.8951C41.3636 41.126 43.3908 40.3508 45.4341 39.6244C46.5743 39.2185 47.7246 39.6284 48.4638 40.6126C49.0369 41.3736 49.0997 42.6196 48.5468 43.4577C48.3321 43.7823 48.0304 44.1009 47.6942 44.2815C44.6018 45.9516 41.5195 47.644 38.3765 49.2147C37.0156 49.8945 35.5514 50.5926 34.0751 50.7569C32.5016 50.9314 30.8227 50.6392 29.2532 50.278C26.6266 49.6753 24.077 48.7135 21.4402 48.1757C19.654 47.8104 17.7727 47.849 15.9318 47.8246C13.8722 47.7983 12.9711 47.0393 12.9002 44.9613C12.8293 42.9077 12.8009 40.8521 12.7969 38.7985C12.7928 37.1953 13.7831 35.9514 15.2817 35.9189C17.56 35.8702 19.8566 35.8682 22.1146 36.13C23.0786 36.2416 24.077 36.9376 24.8465 37.6113C25.7619 38.4129 26.6853 38.908 27.8964 38.8999C30.0471 38.8857 32.2018 38.8086 34.3465 38.9182C36.4668 39.0257 38.3846 39.6568 39.2919 41.8951ZM37.5827 42.5404C37.2931 41.3188 36.2643 40.5497 34.8426 40.5152C32.7608 40.4645 30.6708 40.3752 28.5971 40.5071C26.6671 40.6309 25.1442 39.9836 23.7712 38.7173C22.8274 37.8467 21.7278 37.382 20.3871 37.4612C19.0485 37.5403 17.6998 37.4713 16.3571 37.4815C15.1319 37.4896 14.5871 38.0395 14.5993 39.2814C14.6175 40.8967 14.656 42.512 14.7025 44.1273C14.7451 45.5924 15.14 46.0105 16.5738 45.9658C19.5163 45.8765 22.3779 46.3189 25.1908 47.1469C26.5031 47.5324 27.864 47.8125 29.1054 48.3583C31.8879 49.584 34.547 49.2066 37.1149 47.8855C40.2052 46.2986 43.2227 44.5717 46.2908 42.9402C46.8983 42.6175 47.352 42.2705 47.0178 41.5583C46.6877 40.8541 46.1065 41.0733 45.5476 41.2985C43.0749 42.2989 40.6001 43.2953 38.1173 44.2694C37.7204 44.4256 37.2769 44.5372 36.8556 44.5433C34.4376 44.5697 32.0176 44.5535 29.5975 44.5575C28.9393 44.5575 28.3358 44.4398 28.3156 43.6301C28.2933 42.7778 28.915 42.7231 29.5712 42.7271C31.7219 42.7393 33.8726 42.7474 36.0213 42.7291C36.5377 42.7251 37.0521 42.6074 37.5827 42.5404Z" fill="#0377A3"/>
<path d="M21.1954 27.4649C21.1792 21.9352 25.5535 17.4688 31.0113 17.4444C36.6169 17.4201 41.1188 21.8419 41.139 27.3939C41.1572 32.8648 36.6209 37.455 31.1834 37.4631C25.679 37.4733 21.2116 32.9988 21.1954 27.4649ZM31.1105 35.8702C35.7825 35.8742 39.5979 32.0714 39.5877 27.4203C39.5796 22.7713 35.7359 18.9623 31.0842 18.9948C26.481 19.0252 22.6778 22.8585 22.696 27.4467C22.7183 32.0551 26.5215 35.8661 31.1105 35.8702Z" fill="#0377A3"/>
<path d="M31.6463 25.5662C30.253 25.5662 28.88 25.5662 27.5008 25.5662C27.5008 25.1218 27.5008 24.6876 27.5008 24.233C28.8759 24.233 30.253 24.233 31.6767 24.233C31.5977 24.0747 31.5451 23.9428 31.4681 23.8251C31.2312 23.4639 30.9132 23.1879 30.5062 23.0418C30.3198 22.9749 30.1173 22.9262 29.9229 22.9221C29.1675 22.9079 28.4122 22.916 27.6568 22.916C27.6082 22.916 27.5616 22.916 27.5049 22.916C27.5049 22.4696 27.5049 22.0353 27.5049 21.5889C29.9189 21.5889 32.3349 21.5889 34.759 21.5889C34.759 22.0231 34.759 22.4574 34.759 22.9079C34.0056 22.9079 33.2523 22.9079 32.4665 22.9079C32.5495 23.0459 32.6224 23.1575 32.6872 23.2732C32.8411 23.541 32.9687 23.8211 33.0214 24.1295C33.0356 24.2147 33.0963 24.231 33.1733 24.231C33.6492 24.2289 34.1271 24.231 34.603 24.231C34.6516 24.231 34.7002 24.231 34.7569 24.231C34.7569 24.6754 34.7569 25.1137 34.7569 25.5662C34.7144 25.5662 34.6719 25.5662 34.6294 25.5662C34.1575 25.5662 33.6836 25.5703 33.2118 25.5642C33.0821 25.5622 33.0497 25.6048 33.0113 25.7306C32.9323 25.9985 32.827 26.2623 32.6974 26.5078C32.4523 26.9745 32.0979 27.35 31.6605 27.6422C31.3182 27.8715 30.9497 28.0277 30.5446 28.1211C30.1416 28.2144 29.7366 28.1941 29.3316 28.2043C29.2728 28.2063 29.2141 28.2043 29.1554 28.2043C29.1493 28.2164 29.1432 28.2266 29.1372 28.2388C30.4393 29.5436 31.7415 30.8504 33.0437 32.1552C33.0356 32.1654 33.0295 32.1755 33.0214 32.1857C32.987 32.1877 32.9525 32.1898 32.9161 32.1898C32.4483 32.1898 31.9784 32.1755 31.5106 32.1979C31.2757 32.21 31.1198 32.1187 30.9679 31.9645C30.2328 31.2198 29.4916 30.4811 28.7544 29.7384C28.3514 29.3346 27.9504 28.9328 27.5494 28.5269C27.5231 28.5005 27.5008 28.46 27.5008 28.4255C27.4988 27.9161 27.5008 27.4068 27.5029 26.8954C27.5029 26.8934 27.5069 26.8893 27.5211 26.8731C27.5535 26.8731 27.596 26.8731 27.6406 26.8731C28.3717 26.8731 29.1027 26.8771 29.8338 26.871C30.4333 26.867 30.9294 26.6235 31.3142 26.1649C31.4357 26.0188 31.5228 25.8442 31.622 25.6799C31.6342 25.6596 31.6342 25.619 31.6463 25.5662Z" fill="#0377A3"/>
<path d="M30.332 16.1383C29.8156 16.1383 29.3984 15.7203 29.3984 15.2028V8.87153C29.3984 8.35406 29.8156 7.93604 30.332 7.93604C30.8484 7.93604 31.2656 8.35406 31.2656 8.87153V15.2028C31.2656 15.7183 30.8464 16.1383 30.332 16.1383Z" fill="#0377A3"/>
<path d="M24.8008 17.5733C24.2844 17.5733 23.8672 17.1552 23.8672 16.6378V13.5107C23.8672 12.9932 24.2844 12.5752 24.8008 12.5752C25.3172 12.5752 25.7344 12.9932 25.7344 13.5107V16.6378C25.7344 17.1552 25.3172 17.5733 24.8008 17.5733Z" fill="#0377A3"/>
<path d="M36.8789 17.5733C36.3625 17.5733 35.9453 17.1552 35.9453 16.6378V13.5107C35.9453 12.9932 36.3625 12.5752 36.8789 12.5752C37.3953 12.5752 37.8125 12.9932 37.8125 13.5107V16.6378C37.8125 17.1552 37.3953 17.5733 36.8789 17.5733Z" fill="#0377A3"/>
</svg>
