<svg width="61" height="61" viewBox="0 0 61 61" fill="none" xmlns="http://www.w3.org/2000/svg">
<path d="M28.5151 0.47424C22.1777 0.937195 16.2828 3.31086 11.3683 7.37999C10.4488 8.14143 8.30316 10.2877 7.56021 11.1892C3.43337 16.1944 1.07663 22.1052 0.656435 28.4932C0.181433 35.7157 2.42247 43.0742 6.81726 48.7251C7.93575 50.1648 9.47646 51.8115 10.7553 52.9344C18.7755 59.9762 29.7635 62.2443 39.905 58.9548C46.7215 56.7436 52.6164 52.0349 56.3495 45.8236C60.1535 39.4945 61.471 31.8455 60.0155 24.5439C58.9802 19.3498 56.6276 14.6005 53.0955 10.578C52.4073 9.79426 50.7306 8.14346 49.9775 7.50994C45.3087 3.57685 39.7812 1.2235 33.6569 0.563582C32.5953 0.445813 29.593 0.39505 28.5151 0.47424ZM32.7759 2.67328C36.4745 2.96567 39.8259 3.87534 43.0575 5.46522C51.433 9.58106 57.2447 17.6625 58.4565 26.8769C59.573 35.3786 56.79 43.8357 50.8423 50.0064C46.819 54.1811 41.4782 57.0441 35.7843 58.0797C26.8567 59.7041 17.7829 56.9446 11.277 50.6277C6.29963 45.7951 3.38871 39.531 2.85281 32.5055C2.76147 31.3176 2.81222 28.6861 2.94822 27.5125C3.54705 22.3428 5.4024 17.7051 8.50616 13.6197C9.61246 12.1618 11.3947 10.2897 12.7528 9.15871C17.2815 5.38603 22.7217 3.15857 28.576 2.67937C29.5057 2.60424 31.8564 2.60221 32.7759 2.67328Z" fill="#0377A3"/>
<path d="M31.4234 45.8499C27.263 45.8499 23.1026 45.8588 18.9422 45.8461C16.7241 45.8398 15.0233 44.923 14.0801 42.8703C13.8157 42.2953 13.6861 41.6293 13.634 40.9936C13.559 40.0742 13.6124 39.1435 13.6098 38.2178C13.6085 37.7201 13.7712 37.3136 14.3356 37.3073C14.9 37.3022 15.0729 37.6999 15.0716 38.2026C15.0716 39.0865 15.064 39.9704 15.0805 40.853C15.1186 42.9032 16.6109 44.3721 18.6587 44.3734C27.1905 44.3759 35.7236 44.3759 44.2554 44.3734C46.279 44.3721 47.765 42.9386 47.8298 40.9113C47.8577 40.0286 47.8298 39.1447 47.8361 38.2609C47.8412 37.6188 48.1043 37.2668 48.5797 37.3022C49.1861 37.3466 49.3157 37.7733 49.2954 38.2862C49.2471 39.5221 49.3577 40.791 49.1136 41.9876C48.6242 44.3772 46.6019 45.8436 44.0304 45.8524C39.828 45.8676 35.6257 45.8562 31.4221 45.8562C31.4234 45.855 31.4234 45.8524 31.4234 45.8499Z" fill="#0076A2"/>
<path d="M30.7264 36.1008C30.7264 35.7108 30.7264 35.3208 30.7264 34.9307C30.7264 29.4374 30.7264 23.9454 30.7252 18.4521C30.7252 18.3685 30.7163 18.2837 30.7239 18.2001C30.7658 17.7544 30.9387 17.4213 31.4573 17.4365C31.9556 17.4505 32.1742 17.7556 32.1781 18.2153C32.1895 19.6678 32.1882 21.119 32.1882 22.5715C32.1869 26.9073 32.1844 31.2419 32.1831 35.5778C32.1831 35.745 32.1831 35.9121 32.1831 36.2135C32.4094 36.0109 32.5594 35.8881 32.6954 35.7526C34.3847 34.0722 36.0728 32.3905 37.7608 30.7088C37.8651 30.605 37.9604 30.4885 38.0748 30.3973C38.4205 30.1263 38.7866 30.1099 39.0968 30.4264C39.412 30.7468 39.393 31.1039 39.0688 31.4281C38.3379 32.1588 37.607 32.8882 36.8749 33.6176C35.3063 35.1802 33.739 36.7441 32.1679 38.3042C31.606 38.8627 31.3035 38.8614 30.7328 38.2953C28.4892 36.0654 26.2521 33.8303 24.0073 31.6028C23.6437 31.2419 23.406 30.8709 23.8204 30.4074C24.1191 30.0719 24.5818 30.1428 25.0254 30.5835C26.744 32.2943 28.4626 34.0051 30.1722 35.7234C30.3133 35.8653 30.3896 36.073 30.4964 36.2502C30.5726 36.1996 30.6489 36.1502 30.7264 36.1008Z" fill="#0076A2"/>
</svg>
