<svg width="61" height="61" viewBox="0 0 61 61" fill="none" xmlns="http://www.w3.org/2000/svg">
<path d="M28.7183 0.97424C22.3808 1.4372 16.4859 3.81086 11.5715 7.87999C10.6519 8.64143 8.50629 10.7877 7.76334 11.6892C3.6365 16.6944 1.27975 22.6052 0.85956 28.9932C0.384558 36.2157 2.6256 43.5742 7.02038 49.2251C8.13887 50.6648 9.67958 52.3115 10.9584 53.4344C18.9787 60.4762 29.9667 62.7443 40.1082 59.4548C46.9246 57.2436 52.8196 52.5349 56.5526 46.3236C60.3567 39.9945 61.6741 32.3455 60.2186 25.0439C59.1834 19.8498 56.8307 15.1005 53.2986 11.078C52.6105 10.2943 50.9338 8.64346 50.1806 8.00994C45.5118 4.07685 39.9843 1.7235 33.8601 1.06358C32.7984 0.945813 29.7961 0.89505 28.7183 0.97424ZM32.9791 3.17328C36.6776 3.46567 40.029 4.37534 43.2606 5.96522C51.6361 10.0811 57.4478 18.1625 58.6596 27.3769C59.7761 35.8786 56.9931 44.3357 51.0454 50.5064C47.0221 54.6811 41.6814 57.5441 35.9874 58.5797C27.0598 60.2041 17.986 57.4446 11.4801 51.1277C6.50275 46.2951 3.59184 40.031 3.05594 33.0055C2.96459 31.8176 3.01534 29.1861 3.15135 28.0125C3.75017 22.8428 5.60552 18.2051 8.70928 14.1197C9.81559 12.6618 11.5979 10.7897 12.9559 9.65871C17.4846 5.88603 22.9248 3.65857 28.7792 3.17937C29.7089 3.10424 32.0595 3.10221 32.9791 3.17328Z" fill="#0377A3"/>
<path d="M41.9472 16.3411C41.8639 16.3695 36.8338 16.3959 30.7704 16.3999C23.2069 16.404 19.6748 16.4263 19.5145 16.471C19.2039 16.5583 18.8649 16.871 18.6396 17.2751L18.4609 17.6V31.9028V46.2057L18.599 46.4636C18.7756 46.7946 19.007 47.0139 19.35 47.1783C19.62 47.3063 19.6931 47.3103 23.1338 47.3286C25.3931 47.3408 26.7674 47.3245 26.9927 47.2839C27.4576 47.1986 27.7824 46.9611 28.0016 46.5448C28.1559 46.2545 28.1762 46.1529 28.1579 45.8037C28.1274 45.2453 27.896 44.8697 27.4393 44.6321L27.1145 44.4636H24.1813H21.248V31.844V19.2244H31.0465H40.8449V27.6124C40.8449 33.3648 40.8652 36.0979 40.9099 36.307C40.9911 36.6928 41.1738 36.9669 41.5006 37.1943C41.8051 37.4075 42.2902 37.4746 42.6516 37.3548C42.954 37.2532 43.3458 36.8959 43.4879 36.5893C43.5955 36.3557 43.6016 35.9029 43.6016 26.8794C43.6016 17.8132 43.5975 17.405 43.4879 17.1695C43.425 17.0355 43.3032 16.8507 43.2179 16.7593C42.9012 16.4263 42.2902 16.2253 41.9472 16.3411Z" fill="#0377A3"/>
<path d="M23.399 23.5802C22.4064 24.0716 22.3963 25.5823 23.3808 26.0981L23.7056 26.2686H30.9646C36.2241 26.2686 38.2885 26.2503 38.457 26.1996C38.7696 26.1062 39.0965 25.828 39.2629 25.5153C39.47 25.1234 39.4558 24.494 39.2304 24.1122C39.1371 23.9538 38.9401 23.7406 38.8021 23.6493L38.5484 23.4807L31.1046 23.4645L23.6609 23.4482L23.399 23.5802Z" fill="#0377A3"/>
<path d="M23.3816 29.193C22.393 29.7088 22.4072 31.2296 23.4059 31.7129C23.6678 31.8408 23.6901 31.8408 31.0324 31.8408C38.2345 31.8408 38.401 31.8388 38.6283 31.723C39.0912 31.4875 39.4302 30.9413 39.4302 30.4316C39.4302 29.8732 38.9694 29.2215 38.4802 29.0895C38.3096 29.0428 36.0402 29.0225 30.9694 29.0225H23.7043L23.3816 29.193Z" fill="#0377A3"/>
<path d="M34.3916 34.1116C31.3426 34.5908 29.4751 37.6914 30.4738 40.6194C30.9752 42.0935 32.1688 43.2387 33.7115 43.726C34.2901 43.9088 35.4877 43.9595 36.1068 43.8296C36.6833 43.7078 37.3715 43.4174 37.8587 43.0905L38.2565 42.8245L41.3745 45.6002C43.0898 47.1271 44.5087 48.3698 44.529 48.3637C44.6021 48.3394 45.8728 46.8287 45.8566 46.784C45.8464 46.7576 44.4316 45.4824 42.7041 43.9474L39.5679 41.1595L39.712 40.8041C40.122 39.797 40.1606 38.5198 39.8135 37.4782C39.5354 36.6457 39.2126 36.1319 38.5529 35.4761C38.0596 34.9867 37.9094 34.8791 37.3532 34.607C37.0041 34.4385 36.5372 34.2558 36.318 34.203C35.8064 34.0832 34.8564 34.0385 34.3916 34.1116ZM35.8856 36.4081C37.132 36.7776 37.9541 38.0833 37.7369 39.3503C37.6455 39.8884 37.3674 40.4407 37.0081 40.8021C36.4296 41.3849 35.8247 41.6123 34.966 41.5696C34.4951 41.5473 34.3692 41.5148 33.9673 41.3158C32.3697 40.5239 31.978 38.4955 33.1695 37.1695C33.8374 36.4284 34.9254 36.1238 35.8856 36.4081Z" fill="#0377A3"/>
</svg>
