<svg width="22" height="11" viewBox="0 0 22 11" fill="none" xmlns="http://www.w3.org/2000/svg">
<path fill-rule="evenodd" clip-rule="evenodd" d="M21.4136 0.716553C21.7591 1.00529 21.7591 1.47343 21.4136 1.76216L13.008 8.78606C12.6624 9.0748 12.1022 9.0748 11.7567 8.78606L7.95831 5.61208L1.94795 10.6345C1.60241 10.9232 1.04219 10.9232 0.696652 10.6345C0.351116 10.3457 0.351116 9.87758 0.696652 9.58884L7.33266 4.04366C7.6782 3.75492 8.23842 3.75492 8.58396 4.04366L12.3823 7.21764L20.1623 0.716553C20.5078 0.427816 21.068 0.427816 21.4136 0.716553Z" fill="black"/>
<path fill-rule="evenodd" clip-rule="evenodd" d="M14.5938 1.23936C14.5938 0.831022 14.9899 0.5 15.4786 0.5H20.7874C21.276 0.5 21.6722 0.831022 21.6722 1.23936V5.6755C21.6722 6.08384 21.276 6.41486 20.7874 6.41486C20.2987 6.41486 19.9026 6.08384 19.9026 5.6755V1.97871H15.4786C14.9899 1.97871 14.5938 1.64769 14.5938 1.23936Z" fill="black"/>
</svg>
