<svg width="105" height="17" viewBox="0 0 105 17" fill="none" xmlns="http://www.w3.org/2000/svg">
<g clip-path="url(#clip0_1209_2635)">
<path d="M8.36701 14.1477L3.91971 16.5111C3.57765 16.693 3.17753 16.3992 3.24286 16.014L4.09209 11.0084C4.1181 10.8556 4.0679 10.6994 3.95781 10.5911L0.360047 7.04589C0.0833196 6.7732 0.236049 6.29783 0.618629 6.24158L5.59096 5.51125C5.74278 5.48893 5.87434 5.39264 5.94209 5.25324L8.16589 0.699155C8.33707 0.348817 8.83125 0.348817 9.00242 0.699155L11.2259 5.25354C11.294 5.39264 11.4252 5.48924 11.5771 5.51156L16.5494 6.24189C16.932 6.29814 17.0847 6.7732 16.808 7.04619L13.2099 10.5908C13.1001 10.6991 13.0499 10.8553 13.0756 11.0081L13.9249 16.0137C13.9902 16.3989 13.5904 16.6927 13.248 16.5108L8.8007 14.1474C8.66521 14.0756 8.5028 14.0756 8.36701 14.1477Z" fill="#FF7A00"/>
<path d="M30.3276 14.1476L25.8803 16.511C25.5383 16.6929 25.1382 16.3991 25.2035 16.0139L26.0527 11.0083C26.0787 10.8555 26.0285 10.6992 25.9184 10.591L22.321 7.04577C22.0443 6.77308 22.197 6.29771 22.5796 6.24146L27.5519 5.51113C27.7037 5.48881 27.8353 5.39252 27.903 5.25311L30.1265 0.699032C30.2977 0.348695 30.7919 0.348695 30.9631 0.699032L33.1866 5.25342C33.2546 5.39252 33.3859 5.48912 33.5377 5.51144L38.51 6.24176C38.8926 6.29801 39.0453 6.77308 38.7686 7.04607L35.1705 10.591C35.0604 10.6992 35.0105 10.8555 35.0363 11.0083L35.8855 16.0139C35.9508 16.3991 35.551 16.6929 35.2086 16.511L30.7613 14.1476C30.6258 14.0754 30.4637 14.0754 30.3276 14.1476Z" fill="#FF7A00"/>
<path d="M52.2814 14.1476L47.8341 16.511C47.4917 16.6929 47.0919 16.3991 47.1572 16.0139L48.0065 11.0083C48.0325 10.8555 47.9823 10.6992 47.8722 10.591L44.2741 7.04607C43.9974 6.77338 44.1501 6.29801 44.5327 6.24176L49.505 5.51144C49.6568 5.48912 49.7884 5.39282 49.8561 5.25342L52.0803 0.699032C52.2514 0.348695 52.7456 0.348695 52.9168 0.699032L55.1406 5.25342C55.2086 5.39252 55.3399 5.48912 55.4917 5.51144L60.464 6.24176C60.8466 6.29801 60.9994 6.77308 60.7226 7.04607L57.1246 10.5907C57.0145 10.6989 56.9646 10.8552 56.9903 11.008L57.8395 16.0136C57.9048 16.3988 57.505 16.6926 57.1627 16.5107L52.7154 14.1473C52.5799 14.0754 52.4175 14.0754 52.2814 14.1476Z" fill="#FF7A00"/>
<path d="M74.242 14.1476L69.7947 16.511C69.4527 16.6929 69.0525 16.3991 69.1179 16.0139L69.9671 11.0083C69.9931 10.8555 69.9429 10.6992 69.8331 10.591L66.235 7.04607C65.9583 6.77338 66.1111 6.29801 66.4936 6.24176L71.466 5.51144C71.6178 5.48912 71.749 5.39282 71.8171 5.25342L74.0406 0.699032C74.2118 0.348695 74.7059 0.348695 74.8771 0.699032L77.1009 5.25342C77.169 5.39252 77.3002 5.48912 77.4521 5.51144L82.4244 6.24176C82.807 6.29801 82.9597 6.77308 82.683 7.04607L79.0849 10.591C78.9751 10.6992 78.9249 10.8555 78.9509 11.0083L79.8002 16.0139C79.8655 16.3991 79.4657 16.6929 79.1233 16.511L74.676 14.1476C74.5402 14.0754 74.3778 14.0754 74.242 14.1476Z" fill="#FF7A00"/>
<path d="M96.2032 14.1476L91.7559 16.511C91.4136 16.6929 91.0138 16.3991 91.0791 16.0139L91.9283 11.0083C91.9543 10.8555 91.9041 10.6992 91.7941 10.591L88.196 7.04607C87.9193 6.77338 88.072 6.29801 88.4546 6.24176L93.4269 5.51144C93.5787 5.48912 93.7103 5.39282 93.778 5.25342L96.0018 0.699032C96.173 0.348695 96.6672 0.348695 96.8384 0.699032L99.0619 5.25342C99.1299 5.39252 99.2612 5.48912 99.413 5.51144L104.385 6.24176C104.768 6.29801 104.921 6.77308 104.644 7.04607L101.046 10.591C100.936 10.6992 100.886 10.8555 100.912 11.0083L101.761 16.0139C101.826 16.3991 101.426 16.6929 101.084 16.511L96.6366 14.1476C96.5015 14.0754 96.339 14.0754 96.2032 14.1476Z" fill="#FF7A00"/>
</g>
<defs>
<clipPath id="clip0_1209_2635">
<rect width="104.566" height="16.1299" fill="white" transform="translate(0.21875 0.435547)"/>
</clipPath>
</defs>
</svg>
