<svg width="30" height="30" viewBox="0 0 30 30" fill="none" xmlns="http://www.w3.org/2000/svg">
<path d="M9.375 10.9842C9.44299 12.7013 10.6294 14.3619 11.6289 15.7037C12.5434 16.9259 13.6109 18.0352 14.8143 18.985C15.5792 19.5895 16.3951 20.1342 17.2688 20.5792C17.7992 20.8516 18.1527 21.0176 18.768 20.8449C19.7131 20.5825 21.8855 19.4932 21.5217 18.3042C21.3381 17.6997 20.5834 17.1085 20.1075 16.7233C19.533 16.2616 18.5233 15.4446 17.8468 16.2052C17.4422 16.5838 17.0241 17.454 16.3917 17.5171C15.7118 17.5802 15.1101 16.813 14.6885 16.3945C13.995 15.707 13.3695 14.9564 12.812 14.1593C12.2884 13.3257 12.9412 12.9836 13.5769 12.5286C13.8658 12.3227 14.2364 12.1267 14.3758 11.7846C14.641 11.1503 14.0188 10.3631 13.6619 9.87492C13.3253 9.41327 12.9378 8.99148 12.506 8.61286C11.9485 8.118 11.3298 8.5099 10.8572 8.90513C10.2045 9.44981 9.65717 10.1838 9.375 10.9842Z" fill="#0076A2"/>
<circle cx="15" cy="15" r="14.6201" stroke="#0076A2" stroke-width="0.75982"/>
</svg>
