<svg width="153" height="151" viewBox="0 0 153 151" fill="none" xmlns="http://www.w3.org/2000/svg">
<path d="M99.4911 127.451C128.497 114.756 141.62 81.1776 128.803 52.4505C115.985 23.7235 82.0806 10.7263 53.0746 23.4206C24.0687 36.1149 10.9454 69.6936 23.7629 98.4206C36.5805 127.148 70.4851 140.145 99.4911 127.451Z" fill="#0076A2"/>
<path d="M59.1584 65.1185C60.1471 61.543 62.424 58.7984 64.0418 57.211C64.9856 56.2912 65.0305 54.8076 64.1467 53.8433L63.8771 53.5465C63.1431 52.7454 61.9297 52.508 60.956 53.0125C41.5871 63.086 41.8268 76.7349 42.0215 79.0493C42.0065 79.3015 41.9766 79.5537 41.9766 79.8207C41.9766 88.0398 48.7025 94.701 57.0013 94.701C65.3001 94.701 72.0261 88.0398 72.0261 79.8207C72.0261 72.3287 66.4386 66.157 59.1584 65.1185Z" fill="#F9FBFC"/>
<path d="M94.9631 65.1182C95.9518 61.5428 98.2287 58.7982 99.8465 57.2107C100.79 56.2909 100.835 54.8073 99.9514 53.843L99.6818 53.5463C98.9477 52.7452 97.7344 52.5078 96.7607 53.0122C77.3918 63.0857 77.6314 76.7346 77.8262 79.049C77.8112 79.3012 77.7812 79.5534 77.7812 79.8205C77.7812 88.0395 84.5072 94.7008 92.806 94.7008C101.105 94.7008 107.831 88.0395 107.831 79.8205C107.831 72.3284 102.228 66.1567 94.9631 65.1182Z" fill="#F9FBFC"/>
</svg>
