<svg width="81" height="81" viewBox="0 0 81 81" fill="none" xmlns="http://www.w3.org/2000/svg">
<g clip-path="url(#clip0_1482_1986)">
<path d="M79.0384 47.0361C79.0384 47.9717 78.9755 48.9112 79.053 49.8416C79.1654 51.2108 77.7456 52.1723 76.3273 52.1064C75.1164 52.051 73.9025 52.0664 72.6916 52.0109C72.3103 51.9942 72.138 52.1503 72.0445 52.4058C71.6384 53.5053 70.8993 54.3996 69.9148 55.1417C68.9405 55.8773 67.8274 56.3328 66.5595 56.5857C65.3997 56.8167 64.2691 56.7716 63.1619 56.5289C61.8152 56.2334 60.6656 55.5882 59.6884 54.6965C58.8864 53.9647 58.3781 53.1001 57.9837 52.1606C57.937 52.0484 57.6697 51.9542 57.4988 51.9477C56.8152 51.9193 56.1286 51.9245 55.4436 51.9232C48.8894 51.9 42.3337 51.8832 35.7795 51.8535C32.807 51.8393 29.8344 51.8071 26.8634 51.7658C26.5113 51.7606 26.3565 51.8509 26.2411 52.1477C25.6086 53.775 24.3743 54.9817 22.6609 55.7392C21.2294 56.3728 19.7103 56.6232 18.0553 56.3547C16.3755 56.0824 15.0097 55.4243 13.8426 54.3687C13.0509 53.6525 12.5148 52.7956 12.1555 51.8548C12.0693 51.629 11.9393 51.6019 11.7158 51.6032C10.5005 51.6096 9.28667 51.598 8.07136 51.6083C6.93785 51.6186 6.04974 51.1786 5.28872 50.4778C4.25746 49.528 4.13184 48.3524 4.15959 47.12C4.20925 44.8939 4.18734 42.6652 4.27353 40.4404C4.32319 39.1615 4.65185 37.924 5.66266 36.9238C6.5347 36.0605 7.59663 35.5288 8.93902 35.503C10.3223 35.4772 11.7071 35.3998 13.0874 35.4436C13.7331 35.4643 14.2063 35.3443 14.6957 34.9804C16.3872 33.7221 18.102 32.4897 19.8301 31.2702C21.2119 30.2959 22.62 29.35 24.0267 28.404C24.5627 28.044 25.2098 27.9975 25.8569 27.982C27.845 27.9369 29.8315 27.893 31.8195 27.8478C32.2548 27.8375 32.6916 27.8233 33.1269 27.8233C36.1958 27.8207 39.2633 27.7949 42.3322 27.8336C43.9127 27.853 45.502 27.9162 47.0664 28.1033C47.8041 28.1924 48.5359 28.5537 49.1917 28.906C50.5706 29.6481 51.9116 30.4482 53.2437 31.256C54.8856 32.2497 56.5113 33.264 58.1269 34.2912C59.2429 35.001 60.3223 35.7547 61.4325 36.4709C61.6048 36.5819 61.8546 36.6477 62.0708 36.6503C64.6226 36.689 67.1745 36.7316 69.7263 36.7328C71.0264 36.7328 72.1964 37.111 73.3182 37.6117C74.8417 38.2918 76.1447 39.2428 77.2095 40.4224C78.3182 41.6509 79.126 42.9917 79.0442 44.6397C79.0062 45.4385 79.0384 46.2373 79.0384 47.0361ZM26.7582 49.488C28.5446 49.488 30.3033 49.4726 32.0606 49.4919C34.6898 49.5203 37.3176 49.6029 39.9469 49.6119C45.6787 49.6326 51.4105 49.6223 57.1424 49.6248C57.2198 49.6248 57.3191 49.6519 57.3717 49.6197C57.5002 49.541 57.6741 49.4519 57.7106 49.3383C57.8362 48.937 57.8902 48.5189 58.01 48.1163C58.3255 47.0645 58.9858 46.1779 59.8564 45.4372C61.1476 44.3377 62.7091 43.7041 64.5102 43.5866C65.4874 43.5221 66.431 43.6615 67.3805 43.9093C68.679 44.2487 69.7263 44.9029 70.6145 45.7534C71.767 46.8567 72.3673 48.2014 72.5294 49.7384C73.8528 49.7384 75.1646 49.7384 76.5172 49.7384C76.5172 49.5732 76.5172 49.4248 76.5172 49.2764C76.5172 47.9691 76.4909 46.6619 76.5259 45.3546C76.5508 44.4719 76.5113 43.6021 75.949 42.8498C75.4538 42.189 74.9411 41.5115 74.2998 40.9682C73.606 40.3823 72.8011 39.8881 71.8897 39.5474C71.1213 39.2609 70.3661 38.9744 69.5145 38.9744C66.8663 38.9744 64.218 38.9822 61.5712 38.9641C61.2689 38.9615 60.927 38.8738 60.6758 38.7292C59.9206 38.2956 59.1961 37.8194 58.4701 37.3484C57.5382 36.7432 56.6238 36.1173 55.6875 35.5159C54.9308 35.0307 54.1537 34.5687 53.3825 34.1003C52.5046 33.5673 51.6253 33.0356 50.7445 32.5065C49.9644 32.038 49.1976 31.549 48.3942 31.1141C47.826 30.8056 47.2329 30.4146 46.6077 30.3372C45.1514 30.1578 43.6688 30.0752 42.1964 30.0778C38.1824 30.0868 34.1684 30.1578 30.1543 30.212C28.6776 30.2314 27.1993 30.2675 25.7225 30.3101C25.5502 30.3152 25.3471 30.363 25.2142 30.4546C23.3927 31.7064 21.5698 32.9569 19.7702 34.2319C18.2963 35.2772 16.8648 36.3689 15.3851 37.4078C15.1164 37.5975 14.7088 37.7149 14.3612 37.7214C12.696 37.7536 11.0308 37.742 9.36555 37.7343C7.91507 37.7278 7.10584 38.6776 6.98168 39.7487C6.89988 40.4559 6.88527 41.1695 6.87212 41.8806C6.83561 43.9015 6.80785 45.9237 6.79032 47.9446C6.78302 48.6931 7.28404 49.3383 7.9808 49.3642C9.25308 49.4093 10.5283 49.3771 11.7962 49.3771C12.3731 45.6153 15.4085 43.4769 18.9098 43.286C22.1438 43.1092 26.2338 45.0784 26.7582 49.488ZM65.0448 54.4293C67.7106 54.5339 69.9279 52.4871 69.9338 50.2081C69.9411 47.7072 67.7398 45.8605 65.0769 45.836C62.8245 45.814 59.833 47.3975 60.2449 50.8521C60.4333 52.4278 62.2694 54.4964 65.0448 54.4293ZM14.4342 49.8481C14.313 52.2161 16.672 54.148 19.145 54.1764C22.0839 54.2099 24.1611 52.1542 24.1567 49.87C24.1508 47.5304 22.0313 45.5727 19.2385 45.5688C16.6384 45.565 14.3393 47.5484 14.4342 49.8481Z" fill="#0078A5"/>
<path d="M23.9985 6.9105C24.0189 6.88469 24.0803 6.72596 24.1986 6.6795C25.1802 6.28977 26.1735 5.9207 27.1624 5.54387C27.9512 5.24319 28.7385 4.93605 29.5287 4.63666C30.4943 4.27145 31.4627 3.91269 32.4282 3.54878C33.4347 3.16937 34.4367 2.78352 35.4431 2.40411C36.4087 2.04019 37.3742 1.67628 38.3441 1.3201C39.0423 1.06329 39.761 0.846492 40.4417 0.558713C40.8667 0.379335 41.2334 0.490317 41.5971 0.615494C42.3055 0.858106 42.995 1.14459 43.6947 1.40656C44.52 1.71499 45.3511 2.00922 46.1735 2.32281C47.1478 2.69447 48.1118 3.08807 49.0861 3.45844C50.0619 3.82881 51.0508 4.17337 52.0265 4.54374C52.8066 4.83927 53.5749 5.15931 54.352 5.46257C54.8384 5.65227 55.3307 5.83165 55.82 6.0149C56.8483 6.40076 57.8767 6.7879 58.905 7.17247C59.8691 7.53381 60.839 7.88611 61.8001 8.25519C62.6006 8.56233 63.3894 8.89785 64.1913 9.20241C65.1247 9.556 66.0727 9.88379 67.0061 10.2361C68.0388 10.6258 69.0598 11.0375 70.0926 11.4259C71.2538 11.8634 72.4268 12.2789 73.588 12.7164C74.4776 13.0519 75.3526 13.4159 76.2407 13.7501C77.1069 14.0766 77.9862 14.376 78.8553 14.6986C79.3461 14.8806 79.8428 15.0548 80.3058 15.2819C80.7046 15.4781 80.9091 15.8433 80.8989 16.233C80.8653 17.4822 80.7893 18.7301 80.7324 19.9793C80.7207 20.24 80.7426 20.5032 80.7192 20.7626C80.6374 21.6763 80.541 22.5887 80.4548 23.5023C80.3891 24.1979 80.3467 24.896 80.2635 25.589C80.151 26.5234 80.0283 27.4577 79.8764 28.3881C79.7332 29.2631 79.5463 30.1329 79.3783 31.0052C79.2337 31.7537 79.1139 32.5061 78.9386 33.2494C78.7166 34.1889 78.4902 35.1309 78.1863 36.0523C78.0227 36.5479 77.1916 36.8137 76.6511 36.6408C76.0552 36.4498 75.6564 35.7968 75.7908 35.278C75.9836 34.5412 76.1603 33.8004 76.3298 33.0584C76.5796 31.9679 76.8425 30.8788 77.0528 29.7818C77.2223 28.8979 77.3201 28.0023 77.4516 27.1131C77.5977 26.1246 77.7657 25.1387 77.8854 24.1476C77.9818 23.3449 78.0344 22.5357 78.0826 21.7292C78.179 20.1535 78.2594 18.5778 78.347 16.975C77.3391 16.6072 76.3736 16.2704 75.4227 15.9039C73.9912 15.3542 72.5743 14.7709 71.1414 14.225C69.9845 13.7849 68.8071 13.3875 67.6473 12.9539C66.8542 12.657 66.0815 12.3215 65.2898 12.0221C64.3432 11.6634 63.3835 11.3291 62.4341 10.9768C61.4379 10.6078 60.4417 10.2348 59.4499 9.85798C58.4872 9.49277 57.5305 9.11595 56.5679 8.75074C55.5615 8.36875 54.5521 7.99451 53.5428 7.61769C52.548 7.24732 51.5518 6.88082 50.5585 6.50658C49.5915 6.14266 48.6304 5.76842 47.6649 5.4045C46.6584 5.0251 45.6462 4.65602 44.6412 4.27403C43.664 3.90237 42.6736 3.55652 41.7271 3.13066C41.1837 2.88546 40.7148 2.85965 40.17 3.07388C38.6874 3.65718 37.1931 4.21467 35.7046 4.78636C34.2819 5.33223 32.865 5.88972 31.4393 6.42657C30.0108 6.9647 28.569 7.47444 27.1405 8.01258C25.9807 8.45005 24.8355 8.91721 23.6757 9.35727C22.6546 9.74441 21.619 10.1019 20.5965 10.4864C19.4513 10.9162 18.3149 11.3666 17.1682 11.7976C16.3327 12.1125 15.4855 12.4015 14.65 12.719C13.7502 13.061 12.8635 13.4339 11.9623 13.7733C10.9003 14.1747 9.82379 14.5437 8.76332 14.9464C7.58015 15.3968 6.41012 15.8729 5.22987 16.3311C4.66458 16.5505 4.09052 16.7531 3.4405 16.9931C3.54714 18.6436 3.65085 20.3006 3.7604 21.9563C3.79546 22.4893 3.82613 23.0235 3.88748 23.5552C4.00726 24.5863 4.13872 25.6174 4.28187 26.6472C4.41918 27.6332 4.55795 28.6204 4.73177 29.6025C4.87346 30.4077 5.07065 31.204 5.23571 32.0066C5.32336 32.4338 5.42561 32.8609 5.46651 33.2907C5.52493 33.9037 4.97133 34.3153 4.45862 34.4186C3.84658 34.5412 3.18926 34.2289 3.03151 33.6856C2.80364 32.8997 2.65172 32.0957 2.48666 31.2956C2.36396 30.7084 2.27048 30.1161 2.16531 29.5263C2.0207 28.7185 1.86732 27.9119 1.73878 27.1028C1.60586 26.2653 1.48608 25.4264 1.37945 24.5863C1.30203 23.9475 1.22461 23.3062 1.19102 22.6648C1.08146 20.5936 0.987977 18.5223 0.900335 16.4511C0.874042 15.8458 1.11798 15.4032 1.82204 15.1567C3.12353 14.7012 4.39873 14.1901 5.68269 13.6998C6.82642 13.2623 7.96578 12.8171 9.11097 12.3835C10.3643 11.9086 11.6248 11.4466 12.8796 10.973C14.0058 10.5471 15.1262 10.1045 16.2538 9.68118C17.3289 9.27855 18.4171 8.90172 19.4908 8.49264C20.6608 8.04742 21.8133 7.56994 22.9848 7.1273C23.274 7.01761 23.6041 6.9918 23.9985 6.9105Z" fill="#0078A5"/>
<path d="M15.2042 57.799C15.6935 57.7874 16.0178 57.9513 16.253 58.2688C17.0082 59.2921 17.74 60.331 18.5302 61.3324C19.1408 62.1067 19.8171 62.8423 20.4832 63.583C22.3281 65.6362 24.3146 67.5771 26.4896 69.3618C27.4464 70.1477 28.425 70.9156 29.4402 71.6421C30.6307 72.4926 31.8358 73.3327 33.0993 74.0941C34.4475 74.9071 35.8513 75.6504 37.2652 76.3718C38.3418 76.9215 39.4884 77.3629 40.5679 77.9074C40.9491 78.0997 41.2092 77.9397 41.4575 77.8184C43.3695 76.8802 45.3064 75.973 47.1542 74.9445C48.8413 74.0063 50.4876 72.992 52.0461 71.8951C54.2503 70.3426 56.3158 68.6392 58.2132 66.7938C59.4096 65.6284 60.5533 64.4167 61.6474 63.1752C62.6406 62.0486 63.5171 60.8433 64.4811 59.6961C64.9486 59.1399 65.5986 58.9476 66.3085 59.3734C66.846 59.6948 67.1367 60.3232 66.624 60.9685C65.9594 61.8047 65.3327 62.6655 64.636 63.4798C63.6661 64.6115 62.6859 65.7407 61.6371 66.8144C59.8595 68.6366 57.9912 70.3891 55.9053 71.9428C54.4899 72.9971 53.0716 74.0502 51.5977 75.0387C50.4832 75.7872 49.3044 76.4673 48.1095 77.1138C46.5846 77.9384 45.026 78.714 43.4601 79.4767C42.7677 79.8135 42.0125 80.0471 41.3099 80.3697C40.879 80.5671 40.5022 80.4278 40.1662 80.2703C38.3301 79.4122 36.4896 78.5553 34.6944 77.6326C33.3359 76.9357 31.9979 76.195 30.733 75.3755C29.208 74.387 27.7268 73.3378 26.307 72.2358C24.8405 71.0963 23.4338 69.8909 22.0651 68.6598C20.1706 66.9564 18.4791 65.0942 16.8942 63.1636C15.9112 61.966 14.9865 60.7272 14.1116 59.4664C13.929 59.2044 13.9582 58.7205 14.1028 58.4172C14.2854 58.0288 14.6944 57.7384 15.2042 57.799Z" fill="#0078A5"/>
<path d="M68.7095 21.7474C68.0858 21.4945 67.5672 21.2712 67.037 21.0725C65.9736 20.6738 64.9015 20.2905 63.8366 19.8956C62.8273 19.5201 61.8208 19.1381 60.8129 18.7574C60.2958 18.5612 59.7802 18.3612 59.2646 18.1625C58.7154 17.9508 58.3809 17.2152 58.6146 16.7378C58.9038 16.1454 59.697 15.8693 60.3324 16.1106C61.3227 16.4874 62.3306 16.8281 63.3195 17.2075C64.7481 17.756 66.162 18.3328 67.5906 18.88C68.3341 19.1652 69.1156 19.3755 69.843 19.6852C70.791 20.0879 71.2701 20.2621 71.1927 21.3254C71.0817 22.8573 71.0116 24.3917 70.9006 25.9222C70.867 26.3764 70.4507 26.61 70.0271 26.7261C69.567 26.8526 69.1214 26.7249 68.765 26.4074C68.318 26.0086 68.3677 25.5286 68.4203 25.0266C68.5357 23.909 68.619 22.7902 68.7095 21.7474Z" fill="#0078A5"/>
<path d="M23.5303 36.5622C27.4654 36.5622 31.3538 36.5622 35.3211 36.5622C35.2451 36.2796 35.1648 36.0254 35.1107 35.7686C34.9486 34.9956 34.8025 34.22 34.6419 33.447C34.5279 32.905 34.9895 32.341 35.7082 32.1604C36.2194 32.0313 37.0067 32.4481 37.1514 32.9837C37.3179 33.6018 37.4143 34.2355 37.5384 34.8639C37.6363 35.3582 37.7093 35.8576 37.8437 36.3441C37.8715 36.4448 38.1154 36.5532 38.2673 36.5635C38.7318 36.5932 39.2007 36.5777 39.6682 36.5777C42.8598 36.5829 46.0514 36.5816 49.2445 36.5958C51.1741 36.6048 53.1037 36.6345 55.0333 36.6616C56.1128 36.6758 56.6883 37.4165 56.3188 38.3018C56.1712 38.658 55.5344 38.978 54.9457 38.9703C53.2513 38.9496 51.5554 38.9057 49.861 38.898C46.3115 38.8799 42.7605 38.8748 39.211 38.8735C33.8253 38.8722 28.4382 38.8838 23.0526 38.8812C22.0462 38.8812 21.2808 38.4825 20.8294 37.672C20.4116 36.9236 20.8659 35.726 21.7073 35.3466C22.5355 34.9736 23.6018 35.6073 23.5186 36.2822C23.5083 36.3622 23.5244 36.4448 23.5303 36.5622Z" fill="#0078A5"/>
</g>
<defs>
<clipPath id="clip0_1482_1986">
<rect width="80" height="80" fill="white" transform="translate(0.898438 0.464844)"/>
</clipPath>
</defs>
</svg>
