<svg width="394" height="65" viewBox="0 0 394 65" fill="none" xmlns="http://www.w3.org/2000/svg">
<path d="M118.669 63.4696C100.901 63.4696 86.4922 49.585 86.4922 32.4632C86.4922 15.3415 100.901 1.45688 118.669 1.45688C136.438 1.45688 150.846 15.3415 150.846 32.4632C150.846 49.5922 136.438 63.4696 118.669 63.4696Z" stroke="white" stroke-width="1.10919" stroke-miterlimit="10"/>
<path d="M126.476 15.7463H110.862C105.566 15.7463 101.266 19.8834 101.266 24.993V40.039C101.266 45.1414 105.559 49.2857 110.862 49.2857H126.476C131.771 49.2857 136.071 45.1486 136.071 40.039V24.993C136.071 19.8834 131.778 15.7463 126.476 15.7463ZM133.262 39.9954C133.262 43.6244 130.212 46.5712 126.438 46.5712H110.907C107.141 46.5712 104.083 43.6317 104.083 39.9954V25.0293C104.083 21.4003 107.133 18.4535 110.907 18.4535H126.438C130.204 18.4535 133.262 21.393 133.262 25.0293V39.9954Z" fill="white"/>
<path d="M118.667 23.671C113.605 23.671 109.5 27.6267 109.5 32.5113C109.5 37.3887 113.605 41.3444 118.667 41.3444C123.728 41.3444 127.841 37.3887 127.841 32.5113C127.833 27.6267 123.728 23.671 118.667 23.671ZM118.667 38.2742C115.36 38.2742 112.686 35.6903 112.686 32.5113C112.686 29.325 115.368 26.7484 118.667 26.7484C121.966 26.7484 124.647 29.3323 124.647 32.5113C124.647 35.6903 121.966 38.2742 118.667 38.2742Z" fill="white"/>
<path d="M130.207 23.381C130.207 24.477 129.288 25.3625 128.15 25.3625C127.013 25.3625 126.094 24.477 126.094 23.381C126.094 22.285 127.013 21.3996 128.15 21.3996C129.288 21.3996 130.207 22.285 130.207 23.381Z" fill="white"/>
<path d="M360.826 63.4696C343.057 63.4696 328.648 49.585 328.648 32.4632C328.648 15.3415 343.057 1.45688 360.826 1.45688C378.594 1.45688 393.003 15.3415 393.003 32.4632C393.003 49.585 378.594 63.4696 360.826 63.4696Z" stroke="white" stroke-width="1.10919" stroke-miterlimit="10"/>
<path fill-rule="evenodd" clip-rule="evenodd" d="M377.476 26.5042C377.476 23.8332 375.231 21.663 372.452 21.663H348.907C346.135 21.663 343.883 23.8259 343.883 26.5042V39.4815C343.883 42.1525 346.127 44.3226 348.907 44.3226H372.46C375.231 44.3226 377.484 42.1525 377.484 39.4815V26.5042H377.476ZM357.32 38.4654V26.2719L366.916 32.3686L357.32 38.4654Z" fill="white"/>
<path d="M282.49 63.4696C264.721 63.4696 250.312 49.585 250.312 32.4632C250.312 15.3415 264.721 1.45688 282.49 1.45688C300.258 1.45688 314.667 15.3415 314.667 32.4632C314.667 49.585 300.258 63.4696 282.49 63.4696Z" stroke="white" stroke-width="1.10919" stroke-miterlimit="10"/>
<path d="M298.063 34.5735V45.3299H291.593V35.2993C291.593 32.7808 290.659 31.0606 288.316 31.0606C286.531 31.0606 285.469 32.2219 284.995 33.3397C284.821 33.7389 284.784 34.2977 284.784 34.8566V45.3299H278.314C278.314 45.3299 278.404 28.3389 278.314 26.5752H284.784V29.2316C284.769 29.2534 284.754 29.2751 284.739 29.2897H284.784V29.2316C285.642 27.9542 287.179 26.1324 290.614 26.1324C294.877 26.1397 298.063 28.8179 298.063 34.5735ZM268.273 45.3299H274.744V26.5752H268.273V45.3299ZM274.932 20.2171C274.932 21.9881 273.44 23.4252 271.603 23.4252C269.765 23.4252 268.273 21.9881 268.273 20.2171C268.273 18.4461 269.765 17.0091 271.603 17.0091C273.44 17.0018 274.932 18.4389 274.932 20.2171Z" fill="white"/>
<path d="M197.372 63.4659C179.604 63.4659 165.195 49.5812 165.195 32.4595C165.195 15.3378 179.604 1.45312 197.372 1.45312C215.141 1.45312 229.55 15.3378 229.55 32.4595C229.55 49.5812 215.141 63.4659 197.372 63.4659Z" stroke="white" stroke-width="1.10919" stroke-miterlimit="10"/>
<path d="M215.434 23.5925C214.214 24.1151 212.896 24.4707 211.517 24.6304C212.926 23.8175 214.01 22.5256 214.523 20.9941C213.204 21.7489 211.743 22.2933 210.192 22.5909C208.949 21.3135 207.171 20.5151 205.205 20.5151C201.439 20.5151 198.381 23.4618 198.381 27.0909C198.381 27.6062 198.442 28.107 198.562 28.5933C192.89 28.3175 187.859 25.6973 184.492 21.7199C183.905 22.6925 183.566 23.8247 183.566 25.0296C183.566 27.3086 184.771 29.3263 186.601 30.5022C185.486 30.4659 184.432 30.1755 183.513 29.682C183.513 29.711 183.513 29.7401 183.513 29.7618C183.513 32.9481 185.863 35.6046 188.989 36.207C188.416 36.3594 187.814 36.4392 187.189 36.4392C186.752 36.4392 186.322 36.3957 185.901 36.3231C186.767 38.936 189.29 40.8376 192.28 40.8884C189.945 42.6521 187 43.7045 183.807 43.7045C183.257 43.7045 182.714 43.6755 182.18 43.6102C185.2 45.4755 188.785 46.5642 192.642 46.5642C205.198 46.5642 212.06 36.5408 212.06 27.853C212.06 27.5699 212.052 27.2868 212.037 27.0038C213.363 26.0747 214.515 24.9135 215.434 23.5925Z" fill="white"/>
<path d="M33.1772 63.4696C15.4089 63.4696 1 49.585 1 32.4632C1 15.3415 15.4089 1.45688 33.1772 1.45688C50.9454 1.45688 65.3543 15.3415 65.3543 32.4632C65.3543 49.585 50.9454 63.4696 33.1772 63.4696Z" stroke="white" stroke-width="1.10919" stroke-miterlimit="10"/>
<path d="M38.7409 33.8576H33.6643V49.6075H26.1322V33.8576H22.5469V27.6882H26.1322V23.6963C26.1322 20.8439 27.5407 16.373 33.7321 16.373L39.3133 16.3947V22.3826H35.2686C34.6058 22.3826 33.6718 22.702 33.6718 24.0665V27.6955H39.4113L38.7409 33.8576Z" fill="white"/>
</svg>
