<svg width="80" height="85" viewBox="0 0 80 85" fill="none" xmlns="http://www.w3.org/2000/svg">
<path d="M78.8908 42.6466C78.8908 65.1869 61.4324 83.3735 40 83.3735C18.5676 83.3735 1.10919 65.1869 1.10919 42.6466C1.10919 20.1063 18.5676 1.91973 40 1.91973C61.4324 1.91973 78.8908 20.1063 78.8908 42.6466Z" fill="white" stroke="#0076A2" stroke-width="2.21837"/>
<path d="M40.8115 13.7207C43.3691 15.289 45.9411 16.8311 48.4803 18.4307C53.4479 21.5613 58.3982 24.7222 63.3542 27.873C64.593 28.6602 65.1733 30.1185 64.806 31.5082C64.4253 32.9503 63.2443 33.8879 61.7655 33.901C60.3031 33.9131 58.8416 33.9071 57.3792 33.9101C57.3484 33.9101 57.3166 33.9242 57.2404 33.9424C57.2404 41.7063 57.2404 49.4813 57.2404 57.3351C57.5932 57.3351 57.9547 57.3361 58.3172 57.3351C60.4294 57.329 61.538 58.318 61.8571 60.5434C62.8828 60.615 63.7427 61.047 64.3674 61.9593C65.0769 62.9968 64.8947 64.1685 64.9025 65.3584C48.4611 65.3584 32.037 65.3584 15.5628 65.3584C15.5927 64.4228 15.4202 63.4842 15.7778 62.5769C16.2328 61.4224 17.0349 60.83 18.6034 60.5202C18.9629 57.6308 20.8621 57.1181 23.2365 57.3633C23.2365 49.5177 23.2365 41.7427 23.2365 33.903C23.0446 33.903 22.873 33.903 22.7014 33.903C21.3682 33.903 20.034 33.9111 18.7007 33.9C17.2229 33.8879 16.0352 32.9453 15.6592 31.5082C15.2939 30.1104 15.8675 28.6662 17.113 27.874C24.2227 23.3527 31.3333 18.8304 38.4497 14.3172C38.8276 14.077 39.2518 13.9175 39.6547 13.7207C40.0403 13.7207 40.4259 13.7207 40.8115 13.7207ZM40.2206 32.3024C44.5105 32.3024 48.7994 32.3024 53.0893 32.3024C55.9814 32.3024 58.8725 32.3055 61.7646 32.2994C62.5338 32.2974 63.1219 31.8382 63.3224 31.1196C63.5162 30.4253 63.2559 29.736 62.6274 29.2879C62.4818 29.1839 62.3295 29.0891 62.1781 28.9932C55.2863 24.6122 48.3878 20.2433 41.5114 15.837C40.5946 15.2497 39.8446 15.2638 38.9346 15.8491C33.5023 19.3431 28.044 22.7936 22.5944 26.2602C21.0163 27.2644 19.4295 28.2545 17.863 29.2798C16.8672 29.9318 16.7958 31.3406 17.7396 31.9694C18.0674 32.1874 18.5205 32.2883 18.9167 32.2893C26.0186 32.3075 33.1196 32.3024 40.2206 32.3024ZM63.3513 63.7648C63.3147 62.8151 62.7276 62.2005 61.8426 62.1712C61.2324 62.1521 60.6222 62.1622 60.011 62.1622C48.4437 62.1622 36.8764 62.1622 25.3081 62.1622C23.1073 62.1622 20.9064 62.1591 18.7046 62.1692C17.7492 62.1743 17.1313 62.798 17.1168 63.7638C32.519 63.7648 47.9193 63.7648 63.3513 63.7648ZM27.8609 57.3038C27.8609 49.4813 27.8609 41.7093 27.8609 33.9454C26.8217 33.9454 25.821 33.9454 24.8271 33.9454C24.8271 41.7517 24.8271 49.5116 24.8271 57.3038C25.8451 57.3038 26.8332 57.3038 27.8609 57.3038ZM29.465 33.9252C29.465 41.7477 29.465 49.5197 29.465 57.3018C30.4936 57.3018 31.4817 57.3018 32.4959 57.3018C32.4959 49.4955 32.4959 41.7235 32.4959 33.9252C31.476 33.9252 30.4878 33.9252 29.465 33.9252ZM37.1213 57.3159C37.1213 49.4884 37.1213 41.7164 37.1213 33.9454C36.0859 33.9454 35.0862 33.9454 34.0962 33.9454C34.0962 41.7638 34.0962 49.5358 34.0962 57.3159C35.1171 57.3159 36.0936 57.3159 37.1213 57.3159ZM41.7447 57.3088C41.7447 49.4884 41.7447 41.7164 41.7447 33.9323C40.7171 33.9323 39.7289 33.9323 38.7119 33.9323C38.7119 41.7376 38.7119 49.5096 38.7119 57.3088C39.7318 57.3088 40.72 57.3088 41.7447 57.3088ZM46.3701 57.3078C46.3701 49.4823 46.3701 41.7093 46.3701 33.9313C45.3386 33.9313 44.3505 33.9313 43.345 33.9313C43.345 41.7356 43.345 49.5076 43.345 57.3078C44.3669 57.3078 45.355 57.3078 46.3701 57.3078ZM47.98 33.9242C47.98 41.7507 47.98 49.5237 47.98 57.3008C49.0106 57.3008 49.9977 57.3008 51.008 57.3008C51.008 49.4934 51.008 41.7215 51.008 33.9242C49.9871 33.9242 48.998 33.9242 47.98 33.9242ZM55.6343 57.3159C55.6343 49.4884 55.6343 41.7164 55.6343 33.9424C54.598 33.9424 53.5983 33.9424 52.6112 33.9424C52.6112 41.7568 52.6112 49.5288 52.6112 57.3159C53.6321 57.3159 54.6086 57.3159 55.6343 57.3159ZM20.2104 60.5252C33.5602 60.5252 46.9109 60.5252 60.2626 60.5252C60.2202 59.4847 59.5936 58.9347 58.512 58.9347C48.8264 58.9347 39.1419 58.9337 29.4563 58.9327C26.9026 58.9327 24.3489 58.9296 21.7952 58.9347C20.8505 58.9367 20.2181 59.5705 20.2104 60.5252Z" fill="#0076A2"/>
<path d="M40.2169 29.0577C38.0931 29.0476 36.3637 27.2088 36.383 24.9825C36.4023 22.7794 38.1365 20.992 40.2497 20.9971C42.3724 21.0021 44.1019 22.8389 44.0845 25.0673C44.0672 27.2633 42.3175 29.0678 40.2169 29.0577ZM40.2159 22.5987C38.9347 22.6078 37.9023 23.7109 37.9148 25.0572C37.9273 26.3893 38.9974 27.4773 40.2757 27.4571C41.528 27.4369 42.5546 26.3389 42.5537 25.0198C42.5527 23.6786 41.501 22.5896 40.2159 22.5987Z" fill="#0076A2"/>
</svg>
