<svg width="80" height="81" viewBox="0 0 80 81" fill="none" xmlns="http://www.w3.org/2000/svg">
<path d="M80 40.4428C79.8091 62.7347 62.1035 80.2577 40.1834 80.4346C30.3311 80.5133 21.5063 77.3002 14.0377 70.832C4.70199 62.7432 -0.107673 52.385 0.0018287 40.0467C0.201178 18.2379 17.7496 0.296423 40.2733 0.436854C62.1961 0.574476 79.8259 18.2013 80 40.4428ZM1.46185 40.9539C1.75947 51.0537 5.2158 59.9008 12.2801 67.1471C20.6472 75.7302 30.9572 79.6229 42.9013 78.8169C52.6751 78.1568 61.0169 74.1321 67.7639 67.0516C75.5862 58.842 79.0875 48.9444 78.3883 37.6482C77.2596 19.454 61.9097 1.6249 39.3355 1.93946C18.3673 2.22875 1.34954 19.2377 1.46185 40.9539Z" fill="#0076A2"/>
<path d="M50.4835 31.4057C52.2327 31.49 53.4232 30.5912 54.0016 29.1616C54.8944 26.9513 55.5486 24.6398 56.259 22.3592C56.3236 22.1513 56.127 21.7609 55.9333 21.5924C54.1195 19.9971 54.375 17.1941 56.4668 15.9948C57.6741 15.3011 59.3643 15.4781 60.3723 16.4583C60.7149 16.7925 60.9423 16.8234 61.3241 16.5229C62.3377 15.7252 63.5732 15.6045 64.7945 15.5427C65.1764 15.523 65.5975 15.7533 65.6031 16.2673C65.6088 16.7981 65.2634 16.9666 64.7861 17.0425C64.0477 17.1576 63.298 17.27 62.5876 17.4946C61.8997 17.7137 61.5572 18.2417 61.5067 19.0141C61.3691 21.0391 60.2319 22.1541 58.2244 22.3844C58.0194 22.4069 57.7359 22.6597 57.6741 22.8619C57.0817 24.7605 56.6015 26.6957 55.9417 28.569C55.4532 29.9565 54.6698 31.1923 53.3979 32.0742C51.9716 33.0628 50.4413 33.0066 48.8494 32.7567C48.5573 32.7117 48.2008 32.7904 47.9312 32.9252C46.6846 33.5487 45.4351 33.7509 44.2053 32.9505C42.9671 32.1444 42.4533 30.99 42.7088 29.5155C42.779 29.1111 43.0429 28.5269 42.8717 28.3387C42.3298 27.7377 41.6924 27.1254 40.9652 26.8136C39.9629 26.3867 38.851 26.2042 37.77 25.9795C37.5875 25.9402 37.2141 26.1761 37.1355 26.3671C36.2342 28.6027 33.5303 29.1167 31.8316 27.8416C31.6772 27.7264 31.301 27.7321 31.1241 27.8416C28.8442 29.2543 26.7861 30.9451 24.9948 32.9448C24.8404 33.1162 24.7926 33.5262 24.8853 33.7509C25.4328 35.0991 25.4019 36.3461 24.4192 37.492C23.4589 38.6098 22.2544 38.857 20.8562 38.5733C20.6231 38.5256 20.2441 38.6716 20.0897 38.857C18.5594 40.7079 17.0657 42.5896 15.5495 44.4517C15.3895 44.6483 15.1621 44.8646 14.9375 44.9067C14.7213 44.9461 14.3226 44.8253 14.2608 44.6736C14.1569 44.4096 14.1401 43.9967 14.2861 43.7721C14.7044 43.1205 15.2126 42.525 15.7012 41.9156C16.7456 40.6152 17.7873 39.312 18.8514 38.0313C19.135 37.6886 19.1799 37.4358 18.9301 37.037C18.04 35.6158 18.3432 34.2115 19.2136 33.133C20.1683 31.9506 21.4851 31.5967 22.9395 32.0882C23.4365 32.2567 23.7173 32.1303 24.0373 31.7877C25.9129 29.7795 27.9822 28.0017 30.3267 26.5524C30.4811 26.4569 30.5906 26.134 30.5682 25.9345C30.3267 23.9741 31.1774 22.4406 32.98 21.8564C34.6731 21.3059 36.4588 22.2496 37.1242 23.9797C37.2562 24.3252 37.4106 24.4488 37.7869 24.4656C40.0471 24.5639 42.0209 25.3616 43.6775 26.9288C43.8319 27.0748 44.225 27.1591 44.3963 27.0692C46.5891 25.8952 49.6917 27.4315 49.4165 30.5154C49.3379 31.4001 49.366 31.4029 50.2729 31.4085C50.3599 31.4085 50.4498 31.4057 50.4835 31.4057ZM56.2197 18.9467C56.259 20.1179 57.0452 20.938 58.0981 20.9071C59.2071 20.8734 60.0719 20.014 60.0466 18.9664C60.027 18.1378 59.0976 16.9498 58.4855 16.9975C56.9076 17.1211 56.1776 17.8485 56.2197 18.9467ZM46.0051 31.9366C47.0805 31.9731 47.8695 31.2765 47.9116 30.257C47.9593 29.0465 47.2433 28.232 46.0978 28.1871C45.0392 28.1449 44.0593 29.0128 44.0425 30.0351C44.0257 30.9114 44.8961 32.0995 46.0051 31.9366ZM33.8869 26.9934C35.0521 27.0018 35.8327 26.2856 35.8523 25.1931C35.872 24.0724 35.0156 23.2186 33.8701 23.213C32.8761 23.2074 32.031 24.0387 32.0282 25.0245C32.0226 26.2014 32.7638 26.9878 33.8869 26.9934ZM21.7883 37.1578C23.0266 37.1325 23.7566 36.3994 23.7313 35.2086C23.706 34.1104 22.9283 33.4027 21.7687 33.4223C20.6737 33.4392 19.8987 34.2396 19.9015 35.3462C19.9043 36.3657 20.7495 37.1774 21.7883 37.1578Z" fill="#0076A2"/>
<path d="M53.3906 48.6528C53.3906 44.3331 53.3906 40.0135 53.3906 35.6938C53.3906 34.8765 53.6349 34.6181 54.466 34.6153C56.847 34.6097 59.2307 34.6125 61.6117 34.6125C62.6899 34.6125 62.9004 34.8232 62.9004 35.8904C62.9004 42.4823 62.9004 49.0713 62.9004 55.6631C62.9004 57.5561 62.9033 59.4491 62.9004 61.3421C62.9004 62.4543 62.6646 62.6987 61.5836 62.7015C59.2251 62.7043 56.8638 62.7043 54.5053 62.6987C53.5984 62.6959 53.3934 62.4936 53.3934 61.6117C53.3934 57.2921 53.3934 52.9724 53.3934 48.6528C53.3934 48.6528 53.3934 48.6528 53.3906 48.6528ZM54.8843 36.0983C54.8843 36.2612 54.8843 36.3454 54.8843 36.4297C54.8703 44.4651 54.8619 52.5034 54.8366 60.5388C54.8338 61.0472 54.9686 61.2326 55.5133 61.2213C57.2035 61.1848 58.8966 61.1764 60.5869 61.2241C61.2551 61.2438 61.4067 61.0079 61.4067 60.3844C61.3871 52.8601 61.3927 45.333 61.3899 37.8087C61.3899 37.4071 61.3871 37.0083 61.3955 36.6066C61.4039 36.2556 61.2804 36.087 60.8901 36.0899C58.9106 36.1067 56.934 36.0983 54.8843 36.0983Z" fill="#0076A2"/>
<path d="M29.2059 51.3988C29.2059 47.9919 29.2031 44.5879 29.2087 41.181C29.2087 40.4283 29.4053 40.2261 30.1578 40.2261C32.6735 40.2233 35.1864 40.2261 37.7022 40.2373C38.4434 40.2402 38.7158 40.5042 38.7158 41.2344C38.7214 48.0228 38.7214 54.8141 38.7158 61.6025C38.7158 62.3131 38.362 62.6866 37.6544 62.6894C35.2285 62.7007 32.8026 62.7063 30.3768 62.6838C29.4137 62.6754 29.2031 62.417 29.2031 61.4817C29.2059 58.1226 29.2031 54.7607 29.2059 51.3988ZM37.2613 41.7512C37.0704 41.7287 36.8542 41.6782 36.6352 41.6782C34.9225 41.6838 33.2098 41.7091 31.4971 41.7091C30.6351 41.7091 30.6323 41.6894 30.6323 42.5685C30.6323 48.0874 30.6323 53.6092 30.6351 59.1281C30.6351 59.6168 30.6519 60.1083 30.6463 60.597C30.6407 61.0211 30.826 61.1868 31.2528 61.184C33.0329 61.1728 34.813 61.1672 36.5931 61.1896C37.0929 61.1952 37.2417 60.9902 37.2417 60.5156C37.2248 54.6175 37.2164 48.7194 37.2108 42.8213C37.2108 42.4927 37.2417 42.1669 37.2613 41.7512Z" fill="#0076A2"/>
<path d="M41.25 54.0022C41.25 51.4201 41.25 48.838 41.25 46.2531C41.25 45.7557 41.6262 45.3174 42.1766 45.3146C44.7148 45.2978 47.253 45.2949 49.7883 45.3174C50.4903 45.323 50.7458 45.6293 50.7486 46.3233C50.7542 51.4678 50.757 56.6152 50.7542 61.7597C50.7542 62.4313 50.4819 62.6982 49.8277 62.701C47.3119 62.7066 44.7962 62.7094 42.2804 62.701C41.5392 62.6982 41.2837 62.4144 41.2837 61.6867C41.2865 59.1243 41.2837 56.5646 41.2837 54.0022C41.2725 54.0022 41.2612 54.0022 41.25 54.0022ZM49.2577 61.2119C49.2577 60.782 49.2577 60.4083 49.2577 60.0346C49.2577 55.8257 49.2577 51.6139 49.2633 47.405C49.2633 47.0735 49.3026 46.8038 48.8056 46.8122C46.9357 46.8347 45.0657 46.8234 43.1958 46.8094C42.8195 46.8066 42.6876 46.947 42.6932 47.3235C42.7184 49.841 42.7297 52.3557 42.7381 54.8732C42.7437 56.7894 42.7381 58.7056 42.7381 60.619C42.7381 60.914 42.7072 61.2175 43.1508 61.2175C45.1696 61.209 47.1912 61.2119 49.2577 61.2119Z" fill="#0076A2"/>
<path d="M26.5685 56.7978C26.5685 58.3572 26.5685 59.9166 26.5685 61.476C26.5685 62.4116 26.3186 62.6954 25.4033 62.6982C23.0195 62.7066 20.6385 62.7066 18.2548 62.6982C17.4068 62.6954 17.0615 62.3329 17.0587 61.4647C17.0559 58.301 17.053 55.1373 17.0559 51.9736C17.0559 51.1475 17.3142 50.8891 18.1256 50.8891C20.5964 50.8862 23.0672 50.8862 25.5408 50.8919C26.3776 50.8947 26.5488 51.0689 26.5516 51.9202C26.5544 53.547 26.5516 55.1738 26.5516 56.8006C26.5601 56.7978 26.5657 56.7978 26.5685 56.7978ZM18.544 56.7697C18.5271 56.7697 18.5103 56.7697 18.4962 56.7697C18.4962 58.1043 18.4794 59.4389 18.5187 60.7707C18.5215 60.9168 18.8332 61.1753 19.0044 61.1781C20.7845 61.2034 22.5646 61.1669 24.3419 61.195C24.9456 61.2034 25.0888 60.9787 25.0832 60.4111C25.0579 57.8964 25.0579 55.3789 25.0888 52.8643C25.0944 52.3838 24.9063 52.2939 24.5104 52.2939C22.7078 52.3023 20.9081 52.3108 19.1055 52.2995C18.6675 52.2967 18.5299 52.4597 18.5383 52.8952C18.558 54.1876 18.544 55.4801 18.544 56.7697Z" fill="#0076A2"/>
</svg>
