<svg width="146" height="18" viewBox="0 0 146 18" fill="none" xmlns="http://www.w3.org/2000/svg">
<path d="M9.88229 0L12.6321 5.76309L18.9026 6.62546L14.3299 11.0529L15.4549 17.3419L9.88229 14.3131L4.29928 17.3419L5.42421 11.0529L0.851562 6.62546L7.12203 5.76309L9.88229 0Z" fill="#FF7A00"/>
<path d="M41.4448 0.000488281L44.1946 5.76358L50.4651 6.62595L45.8924 11.0534L47.0174 17.3424L41.4448 14.3136L35.8618 17.3424L36.9867 11.0534L32.4141 6.62595L38.6845 5.76358L41.4448 0.000488281Z" fill="#FF7A00"/>
<path d="M72.9995 0.000488281L75.7493 5.76358L82.0198 6.62595L77.4471 11.0534L78.5721 17.3424L72.9995 14.3136L67.4165 17.3424L68.5414 11.0534L63.9688 6.62595L70.2392 5.76358L72.9995 0.000488281Z" fill="#FF7A00"/>
<path d="M104.562 0.000488281L107.312 5.76358L113.582 6.62595L109.01 11.0534L110.135 17.3424L104.562 14.3136L98.979 17.3424L100.104 11.0534L95.5312 6.62595L101.802 5.76358L104.562 0.000488281Z" fill="#FF7A00"/>
<path d="M136.114 0.000488281L133.364 5.76358L127.094 6.62595L131.666 11.0534L130.541 17.3424L136.114 14.3136L136.333 14.4293V0.442184L136.114 0.000488281Z" fill="#FF7A00"/>
<path d="M140.575 11.0512L145.148 6.62371L138.877 5.76134L136.336 0.439941V14.427L141.7 17.3401L140.575 11.0512Z" fill="#FF7A00"/>
</svg>
