<svg width="80" height="80" viewBox="0 0 80 80" fill="none" xmlns="http://www.w3.org/2000/svg">
<circle cx="40" cy="40" r="38.5" fill="white" stroke="#0076A2" stroke-width="3"/>
<g clip-path="url(#clip0_1519_2099)">
<path d="M38.3951 63.0002C36.3917 62.2144 34.9131 60.99 34.6261 58.9538C34.5072 58.108 34.7015 57.2282 34.7623 56.2179C31.6138 54.5837 28.3116 52.8686 25.3167 51.3127C23.8874 51.9653 22.7306 52.7563 21.4404 53.0252C18.5586 53.6283 15.8623 51.9418 15.1549 49.3443C14.491 46.9139 16.0653 44.3216 18.805 43.5828C19.7009 43.3427 19.8864 42.9981 19.8719 42.2384C19.8256 39.3798 19.84 36.5187 19.8661 33.6601C19.8719 33.0675 19.7589 32.7412 19.0196 32.5689C16.735 32.0337 15.2042 30.3551 15.0186 28.332C14.8302 26.3218 16.0856 24.343 18.1005 23.4685C20.1503 22.5783 22.4957 22.9229 24.2092 24.3796C24.415 24.5571 24.5629 24.792 24.7426 25.0087C28.0304 23.3066 31.1905 21.6881 34.313 20.0121C34.5565 19.8816 34.658 19.3073 34.5913 18.9757C34.1651 16.8873 34.8348 15.18 36.699 13.8904C38.3168 12.7704 41.1 12.7052 42.8193 13.692C44.7415 14.7962 45.7939 16.8716 45.2198 18.8243C44.9734 19.6649 45.2894 19.9547 46.0055 20.3123C49.0236 21.8265 52.0127 23.3876 55.0395 24.9435C56.9617 23.0952 59.2057 22.3747 61.7947 23.4894C63.8966 24.3926 65.0128 26.0033 64.8621 28.1336C64.6765 30.7754 62.8413 32.1669 60.0987 32.7882C60.0987 36.3072 60.0987 39.8054 60.0987 43.3583C63.0124 43.9327 64.6997 45.5643 64.9838 48.2296C65.1752 50.0126 63.7227 51.9236 61.7744 52.7172C59.5043 53.6439 57.4691 53.1871 55.0047 51.1613C54.7148 51.3049 54.4046 51.4563 54.0973 51.6155C51.1024 53.1688 48.1104 54.7221 45.2053 56.231C45.2053 57.4501 45.4054 58.604 45.159 59.6743C44.7734 61.3581 43.3006 62.3005 41.6451 63.0002C40.5608 63.0002 39.4794 63.0002 38.3951 63.0002ZM35.493 20.7927C32.1386 22.5365 28.816 24.2621 25.5196 25.9746C26.775 29.6451 24.5339 32.1878 21.1882 32.9109C21.1882 36.3385 21.1882 39.7714 21.1882 43.186C25.134 44.3373 26.3314 46.2117 25.6008 50.104C28.8856 51.7983 32.1907 53.5003 35.4756 55.1946C38.8445 52.6571 40.3926 52.6702 44.4081 55.2468C47.7161 53.5682 51.0357 51.8844 54.3321 50.2137C53.5377 46.5458 54.564 44.8751 58.3301 43.4628C58.5911 43.3636 58.8114 42.8754 58.8172 42.5673C58.8549 39.774 58.8404 36.9807 58.8404 34.1874C58.8404 33.7436 58.8404 33.2999 58.8404 32.8952C54.8308 31.8849 53.5551 29.9114 54.3205 26.0112C51.0125 24.2934 47.6813 22.5652 44.3675 20.8449C40.9377 23.4006 38.6009 23.4032 35.493 20.7927ZM20.388 31.6343C22.7538 31.6526 24.6006 30.0419 24.6296 27.9352C24.6615 25.8076 22.861 24.1629 20.4924 24.1577C18.1527 24.1525 16.3059 25.7971 16.2972 27.9012C16.2885 29.9505 18.115 31.6187 20.388 31.6343ZM20.4286 44.4887C18.1179 44.5044 16.2769 46.2091 16.3001 48.3079C16.3233 50.339 18.1962 52.0149 20.4518 52.0254C22.777 52.0358 24.6441 50.3494 24.6296 48.2505C24.618 46.1542 22.7451 44.4756 20.4286 44.4887ZM59.4173 24.1551C57.2023 24.142 55.2338 25.8545 55.1932 27.8255C55.1497 29.9218 57.0139 31.6369 59.3304 31.6317C61.7048 31.6291 63.5168 30.0079 63.5284 27.8856C63.5342 25.8337 61.7019 24.1681 59.4173 24.1551ZM63.5284 48.3314C63.5255 46.2326 61.6584 44.5644 59.3188 44.5722C57.0516 44.5801 55.199 46.2534 55.1903 48.3053C55.1816 50.2972 57.1009 52.0149 59.3478 52.0254C61.6121 52.0358 63.5313 50.339 63.5284 48.3314ZM35.7597 58.215C35.7539 60.3191 37.6065 62.0081 39.9259 62.0081C42.1873 62.0081 44.0457 60.3948 44.066 58.4134C44.0862 56.2675 42.3003 54.5994 39.9549 54.5785C37.65 54.5602 35.7655 56.1918 35.7597 58.215ZM39.865 14.0183C37.5485 14.0339 35.7278 15.6812 35.7655 17.7253C35.8032 19.7824 37.6645 21.4531 39.9114 21.4453C42.222 21.4375 44.1036 19.7197 44.066 17.6522C44.0283 15.6029 42.1757 14 39.865 14.0183Z" fill="#0076A2"/>
<path d="M49.9612 31.3262C49.5292 32.4722 48.3028 33.044 49.016 34.5085C49.6974 35.9051 50.7991 35.8764 52.0863 36.127C52.0863 37.2026 52.1385 38.2703 52.0457 39.3302C52.0254 39.5677 51.5471 39.8862 51.2166 39.9698C49.8597 40.3196 48.7899 41.2724 48.6507 42.502C48.6189 42.7918 48.9407 43.1259 49.1378 43.4183C49.3611 43.7499 49.6249 44.0605 49.8655 44.3712C48.8885 45.1935 47.9259 46.0054 46.8416 46.9165C46.83 46.9086 46.5256 46.8016 46.2995 46.6162C45.4674 45.9349 44.7223 45.8957 43.6235 46.3395C42.603 46.752 42.1362 47.2506 42.1101 48.1591C42.0927 48.8326 41.768 49.0858 41.0403 49.0075C40.6837 48.971 40.3184 49.0075 39.9589 49.0075C37.9903 49.0023 38.0077 48.9971 37.4568 47.3237C37.3728 47.0679 37.0249 46.8825 36.7958 46.6685C36.7755 46.6476 36.7233 46.6554 36.6943 46.6397C35.2766 45.8801 33.9517 45.8122 32.9312 47.1723C31.8903 46.1959 30.9771 45.3397 29.9768 44.3999C30.2726 43.588 31.3772 42.9589 30.7596 41.5257C30.1247 40.0481 28.907 40.2648 27.7734 39.9149C27.7734 38.7376 27.7734 37.5759 27.7734 36.3437C28.0141 36.268 28.2692 36.1322 28.5359 36.114C29.6347 36.0383 30.2146 35.6023 30.6698 34.6077C31.0988 33.6653 31.0235 33.0361 30.3392 32.3652C29.7884 31.8248 29.8493 31.4202 30.461 30.9164C31.2032 30.3081 31.8266 29.585 32.4441 28.9689C33.7371 29.3996 34.375 30.4726 36.0043 29.8251C37.5583 29.2091 37.5032 28.2118 37.77 27.1206C39.1297 27.1206 40.4517 27.1206 41.8144 27.1206C41.8985 27.3817 42.0289 27.6218 42.0492 27.8698C42.1304 28.8331 42.5972 29.3448 43.6786 29.7286C44.7107 30.0966 45.4326 30.0679 46.1806 29.4336C46.83 28.8801 47.3026 29.0185 47.868 29.585C48.5203 30.235 49.2944 30.7806 49.9612 31.3262ZM40.9301 28.3267C39.0514 28.0552 39.0195 28.05 38.7122 29.5171C38.5962 30.0731 38.3962 30.4021 37.7236 30.4438C37.4076 30.4621 37.0596 30.5378 36.7987 30.6918C35.4767 31.4724 34.1836 31.8823 32.9891 30.4491C32.4064 30.9686 31.9541 31.3706 31.3772 31.8823C33.0036 32.8795 32.7224 34.0099 31.7802 35.1794C31.699 35.2786 31.6526 35.4196 31.641 35.5449C31.5627 36.6048 30.9104 37.0747 29.7623 37.0668C29.1564 37.0616 28.9418 37.367 28.9969 37.8839C29.0317 38.2311 29.0346 38.5783 29.0578 39.0326C30.6901 38.9255 31.325 39.6278 31.8613 40.9566C32.3832 42.254 33.0065 43.28 31.4786 44.3346C32.0643 44.828 32.5253 45.2196 33.0007 45.619C33.6502 45.2092 34.2358 44.8385 34.7722 44.4991C35.6071 44.8358 36.3609 45.2849 37.1814 45.4363C38.2773 45.6399 38.7992 46.1229 38.8137 47.0992C38.8224 47.6709 39.121 47.9241 39.7646 47.8641C40.1473 47.8275 40.5358 47.8275 40.8895 47.8145C41.3766 46.008 41.452 46.1385 43.1741 45.324C44.5744 44.6609 45.7457 44.272 46.9083 45.6268C47.4563 45.0969 47.8882 44.6766 48.326 44.2537C47.868 43.6663 47.4563 43.139 47.0475 42.6143C47.3374 42.1313 47.7288 41.7006 47.8564 41.215C48.2362 39.7714 48.8711 38.6723 50.7962 39.0352C51.0948 37.2678 51.089 37.2835 49.3871 36.9102C49.0711 36.8397 48.6739 36.6204 48.5493 36.3724C48.068 35.4065 47.6795 34.4014 47.2214 33.3233C47.5374 32.8691 47.9346 32.3 48.2188 31.8901C47.7027 31.3706 47.2794 30.9425 46.8387 30.4987C46.2415 30.8746 45.6558 31.2453 45.1079 31.5873C44.3744 31.2688 43.725 30.8041 43.0147 30.7127C41.5389 30.5274 41.0316 29.7651 40.9939 28.5642C40.9939 28.5042 40.962 28.4415 40.9301 28.3267Z" fill="#0076A2"/>
<path d="M39.9926 33.1381C42.9556 33.172 45.3735 35.4067 45.3503 38.0929C45.3271 40.7218 42.8454 42.9225 39.9375 42.8911C36.9571 42.8598 34.484 40.6147 34.5159 37.9702C34.5507 35.25 36.9832 33.1042 39.9926 33.1381ZM35.7539 38.0694C35.7423 40.1161 37.5862 41.779 39.8592 41.7764C42.1206 41.7738 44.0283 40.1683 44.0631 38.2391C44.1008 36.1637 42.2366 34.4512 39.9201 34.4329C37.592 34.412 35.7655 36.0097 35.7539 38.0694Z" fill="#0076A2"/>
</g>
<defs>
<clipPath id="clip0_1519_2099">
<rect width="50" height="50" fill="white" transform="translate(15 13)"/>
</clipPath>
</defs>
</svg>
