<svg width="81" height="81" viewBox="0 0 81 81" fill="none" xmlns="http://www.w3.org/2000/svg">
<path d="M40.8327 0.442543C53.078 0.442543 65.3241 0.442543 77.5694 0.442543C79.1753 0.442543 80.4675 1.81093 80.7739 3.84202C80.8139 4.10947 80.8335 4.38658 80.8335 4.66047C80.8359 28.4933 80.8359 52.3262 80.8359 76.159C80.8359 78.5832 79.4285 80.436 77.5906 80.436C53.0763 80.436 28.5612 80.436 4.04695 80.436C2.28502 80.436 0.87678 78.6187 0.839205 76.2954C0.836754 76.1633 0.838388 76.0312 0.838388 75.8991C0.838388 52.2478 0.838388 28.5986 0.835938 4.94833C0.835938 4.15243 0.911904 3.38124 1.21169 2.68093C1.82759 1.24166 2.76614 0.47584 4.02571 0.44684C5.00756 0.425358 5.99022 0.442543 6.97288 0.442543C18.26 0.442543 29.5463 0.442543 40.8327 0.442543ZM40.8368 78.0269C53.0053 78.0269 65.1738 78.0269 77.3415 78.0269C77.4501 78.0269 77.5579 78.0312 77.6666 78.0236C78.3168 77.9828 78.8461 77.4103 78.967 76.5887C79.0046 76.332 78.9948 76.0624 78.9948 75.7981C78.9956 52.2198 78.9956 28.6415 78.9956 5.06218C78.9956 4.90966 78.9964 4.75714 78.9948 4.60462C78.9882 4.0998 78.8388 3.67768 78.5618 3.3329C78.2351 2.92583 77.8332 2.84634 77.4019 2.84634C53.0265 2.84957 28.6511 2.84957 4.27566 2.84957C4.18254 2.84957 4.08942 2.84634 3.99712 2.85279C3.24889 2.90649 2.69997 3.64761 2.67874 4.63469C2.67547 4.77647 2.6771 4.91933 2.6771 5.06218C2.6771 28.6512 2.6771 52.2392 2.6771 75.8282C2.6771 76.0108 2.6722 76.1956 2.68445 76.3771C2.72121 76.9238 2.9099 77.3631 3.24808 77.6875C3.53724 77.9635 3.86643 78.0301 4.21522 78.0301C16.4229 78.0258 28.6298 78.0269 40.8368 78.0269Z" fill="#0076A2"/>
<path d="M43.9437 69.8237C44.6552 69.8237 45.3389 69.8237 46.0561 69.8237C46.0561 69.6948 46.0561 69.5755 46.0561 69.4574C46.0561 64.8195 46.0561 60.1805 46.0561 55.5426C46.0561 54.2559 46.618 53.5137 47.595 53.5137C48.817 53.5137 50.0398 53.5126 51.2618 53.5137C52.2191 53.5148 52.7942 54.2698 52.7942 55.5276C52.7942 60.1558 52.7942 64.7841 52.7942 69.4123C52.7942 69.5422 52.7942 69.6733 52.7942 69.8237C53.495 69.8237 54.1722 69.8237 54.8927 69.8237C54.8927 69.6991 54.8927 69.5723 54.8927 69.4467C54.8927 65.8861 54.8927 62.3266 54.8927 58.766C54.8927 57.4781 55.4538 56.7402 56.4324 56.7392C57.6699 56.7381 58.9075 56.737 60.1458 56.7392C61.0468 56.7402 61.6275 57.5039 61.6275 58.6865C61.6284 62.2675 61.6275 65.8474 61.6275 69.4284C61.6275 69.5498 61.6275 69.6711 61.6275 69.8183C62.3259 69.8183 63.0105 69.8183 63.7252 69.8183C63.7293 69.7023 63.7383 69.5755 63.7383 69.4488C63.7391 63.7626 63.7383 58.0764 63.7407 52.3902C63.7407 52.1367 63.7407 51.8768 63.7807 51.6319C63.9172 50.8113 64.4636 50.2334 65.1269 50.227C66.4494 50.2141 67.7727 50.2098 69.0951 50.2281C69.9087 50.2399 70.4748 51.0497 70.4756 52.156C70.4772 57.9035 70.4764 63.6498 70.4764 69.3972C70.4764 69.5283 70.4764 69.6593 70.4764 69.8269C70.5736 69.8333 70.6553 69.8419 70.7362 69.8419C71.1691 69.843 71.6028 69.8365 72.0358 69.8441C72.5528 69.8537 72.949 70.3833 72.9474 71.0492C72.9457 71.7022 72.5569 72.2221 72.0505 72.2457C72.0121 72.2479 71.9729 72.2468 71.9345 72.2468C59.8746 72.2468 47.8147 72.2468 35.754 72.2468C35.1724 72.2468 34.7803 71.8236 34.7379 71.1544C34.6929 70.4402 35.0858 69.857 35.6315 69.8441C36.0644 69.8344 36.4982 69.8419 36.9311 69.8419C37.0144 69.8419 37.0977 69.8419 37.208 69.8419C37.208 69.6872 37.208 69.5691 37.208 69.4499C37.208 66.9881 37.208 64.5263 37.208 62.0655C37.208 60.7638 37.77 60.0291 38.7649 60.028C39.9869 60.0269 41.2097 60.0269 42.4317 60.028C43.3662 60.0291 43.9404 60.7788 43.9412 62.0011C43.9421 64.4833 43.9412 66.9655 43.9412 69.4467C43.9437 69.5669 43.9437 69.6862 43.9437 69.8237ZM65.5876 52.6555C65.5876 58.3943 65.5876 64.102 65.5876 69.8151C66.6087 69.8151 67.6142 69.8151 68.6156 69.8151C68.6156 64.0795 68.6156 58.3728 68.6156 52.6555C67.6011 52.6555 66.6054 52.6555 65.5876 52.6555ZM50.9375 55.954C49.9124 55.954 48.9109 55.954 47.9046 55.954C47.9046 60.5876 47.9046 65.1987 47.9046 69.8247C48.9207 69.8247 49.9214 69.8247 50.9375 69.8247C50.9375 65.1965 50.9375 60.5855 50.9375 55.954ZM56.7412 69.8247C57.7598 69.8247 58.7612 69.8247 59.7692 69.8247C59.7692 66.2652 59.7692 62.724 59.7692 59.187C58.7465 59.187 57.7459 59.187 56.7412 59.187C56.7412 62.7444 56.7412 66.2792 56.7412 69.8247ZM42.096 62.4716C41.0798 62.4716 40.0784 62.4716 39.0712 62.4716C39.0712 64.9323 39.0712 67.3747 39.0712 69.8172C40.0906 69.8172 41.0905 69.8172 42.096 69.8172C42.096 67.3554 42.096 64.9194 42.096 62.4716Z" fill="#0076A2"/>
<path d="M23.8458 48.4387C15.434 48.4279 8.59944 39.3583 8.72033 28.2416C8.83877 17.3665 15.6137 8.60196 23.8932 8.62774C32.3132 8.65352 39.129 17.7671 38.9958 28.8538C38.8668 39.6043 32.1752 48.4429 23.8458 48.4387ZM37.1628 28.5262C37.1367 18.7735 31.1035 10.9488 23.7249 11.0444C16.3782 11.1389 10.5452 19.0474 10.5558 28.5681C10.5664 38.208 16.54 46.0241 23.9201 46.0187C31.195 46.0155 37.1669 38.1264 37.1628 28.5262Z" fill="#0076A2"/>
<path d="M58.1812 48.9928C58.6885 48.4266 59.1949 47.8625 59.7006 47.2962C61.9469 44.7873 64.1932 42.2783 66.4371 39.7662C66.6887 39.4846 66.9631 39.3331 67.2907 39.4298C67.6525 39.5373 67.8976 39.8295 67.9907 40.3066C68.0863 40.7955 67.9768 41.2156 67.6868 41.5412C66.7524 42.5921 65.8138 43.6386 64.8769 44.6852C62.914 46.8793 60.952 49.0724 58.9883 51.2654C58.5023 51.808 58.1698 51.8381 57.6233 51.3943C54.9792 49.2432 52.3359 47.0931 49.6918 44.942C49.6207 44.884 49.5472 44.8302 49.4435 44.7497C49.0097 45.3299 48.5801 45.9133 48.1439 46.4871C45.8649 49.4893 43.5826 52.4871 41.3044 55.4914C41.0586 55.8159 40.78 55.9996 40.4312 55.919C40.0743 55.8374 39.826 55.5623 39.7149 55.1057C39.6013 54.6393 39.6789 54.216 39.9395 53.8668C40.4655 53.163 40.9989 52.4688 41.5291 51.7704C43.8865 48.6694 46.2431 45.5684 48.6005 42.4674C49.0089 41.9302 49.4214 41.87 49.9172 42.2729C52.6006 44.4553 55.2847 46.6376 57.968 48.8199C58.0342 48.8757 58.1012 48.9284 58.1812 48.9928Z" fill="#0076A2"/>
<path d="M65.4376 21.2665C63.264 21.2665 61.0904 21.2655 58.9167 21.2676C58.5451 21.2676 58.2502 21.0828 58.0656 20.6572C57.8916 20.2564 57.8949 19.8351 58.0754 19.4364C58.2616 19.0248 58.5541 18.8475 58.9135 18.8475C59.4395 18.8475 59.9656 18.8464 60.4916 18.8464C64.2973 18.8464 68.103 18.8464 71.9078 18.8464C72.4249 18.8464 72.772 19.1387 72.9052 19.6804C73.1012 20.4799 72.6626 21.2601 72.0042 21.2644C70.9211 21.2719 69.8387 21.2665 68.7556 21.2665C67.6504 21.2665 66.5444 21.2665 65.4376 21.2665Z" fill="#0076A2"/>
<path d="M65.4542 27.323C67.6123 27.323 69.7704 27.3219 71.9285 27.323C72.4529 27.323 72.8091 27.6561 72.9226 28.2418C73.05 28.8995 72.7413 29.5679 72.2365 29.7055C72.1017 29.742 71.9604 29.7463 71.8215 29.7463C67.5674 29.7485 63.3133 29.7485 59.0583 29.7474C58.9505 29.7474 58.8411 29.7485 58.7349 29.728C58.257 29.6335 57.9311 29.1209 57.9458 28.4943C57.9605 27.8743 58.3158 27.3842 58.7945 27.3283C58.8868 27.3176 58.9799 27.3219 59.073 27.3219C61.2001 27.323 63.3272 27.323 65.4542 27.323Z" fill="#0076A2"/>
<path d="M65.4572 12.7918C63.2836 12.7918 61.1099 12.7929 58.9371 12.7908C58.3286 12.7897 57.9144 12.247 57.9471 11.5055C57.9733 10.9198 58.3098 10.4523 58.7542 10.3878C58.8154 10.3792 58.8775 10.3782 58.9396 10.3782C63.2787 10.3782 67.6177 10.3771 71.9568 10.3782C72.4248 10.3782 72.7647 10.6705 72.8986 11.1809C73.1053 11.9665 72.6862 12.7682 72.0475 12.7875C71.5761 12.8026 71.104 12.7908 70.6319 12.7908C68.9075 12.7918 67.1823 12.7918 65.4572 12.7918Z" fill="#0076A2"/>
<path d="M19.9722 61.3648C22.1459 61.3648 24.3187 61.3626 26.4923 61.3659C27.1425 61.3669 27.5738 62.0741 27.421 62.8704C27.3279 63.3583 27.0102 63.7193 26.6287 63.7634C26.5135 63.7763 26.3967 63.7709 26.2807 63.7709C22.0037 63.7709 17.7267 63.7709 13.4497 63.7709C12.9294 63.7709 12.5684 63.4249 12.4687 62.8392C12.3413 62.087 12.7489 61.3852 13.3362 61.368C13.7846 61.354 14.2331 61.3648 14.6815 61.3648C16.4451 61.3637 18.2087 61.3637 19.9722 61.3648Z" fill="#0076A2"/>
<path d="M19.9534 69.8443C22.127 69.8443 24.2998 69.8432 26.4735 69.8454C26.9922 69.8454 27.3516 70.2226 27.4373 70.8416C27.5304 71.5143 27.1629 72.1655 26.6474 72.2408C26.5788 72.2504 26.5086 72.2494 26.4391 72.2494C22.1156 72.2494 17.792 72.2494 13.4685 72.2494C12.9384 72.2494 12.579 71.9205 12.4728 71.3402C12.3331 70.5751 12.7423 69.8583 13.3411 69.8475C14.0681 69.8346 14.795 69.8443 15.522 69.8443C16.9989 69.8443 18.4766 69.8443 19.9534 69.8443Z" fill="#0076A2"/>
<path d="M55.1435 12.79C54.624 12.7868 54.2107 12.2398 54.2189 11.5671C54.2262 10.8987 54.6371 10.3742 55.146 10.3807C55.6532 10.3882 56.0625 10.9287 56.06 11.5886C56.0576 12.2559 55.6483 12.7933 55.1435 12.79Z" fill="#0076A2"/>
<path d="M55.1377 21.2669C54.6329 21.2658 54.2196 20.7253 54.2188 20.0665C54.2179 19.4035 54.6264 18.8619 55.1304 18.8565C55.6458 18.8511 56.0656 19.3992 56.0615 20.0719C56.0575 20.7307 55.6425 21.268 55.1377 21.2669Z" fill="#0076A2"/>
<path d="M56.06 28.5414C56.0592 29.1991 55.6434 29.7429 55.1419 29.744C54.642 29.7461 54.2254 29.2045 54.2188 28.5436C54.2123 27.8859 54.6248 27.3324 55.1247 27.3282C55.6385 27.3239 56.0616 27.8719 56.06 28.5414Z" fill="#0076A2"/>
<path d="M9.63607 72.25C9.12881 72.2478 8.72039 71.7116 8.71875 71.0474C8.71712 70.364 9.12718 69.8363 9.65404 69.8438C10.1638 69.8514 10.5656 70.3897 10.5599 71.056C10.555 71.7234 10.145 72.2521 9.63607 72.25Z" fill="#0076A2"/>
<path d="M9.64596 63.7711C9.13462 63.7754 8.72538 63.2542 8.71885 62.589C8.7115 61.9098 9.12318 61.3639 9.64025 61.365C10.1451 61.3661 10.5551 61.9034 10.5559 62.5665C10.5584 63.236 10.1573 63.7668 9.64596 63.7711Z" fill="#0076A2"/>
<path d="M34.7888 28.5237C34.7912 36.4687 29.8804 42.9004 23.812 42.8993C17.8229 42.8982 12.9235 36.4376 12.9219 28.5399C12.9202 20.6389 17.8254 14.1536 23.7998 14.1589C29.8771 14.1622 34.7863 20.5809 34.7888 28.5237ZM22.9347 16.6594C20.1648 16.9397 16.828 19.3811 15.3904 24.164C14.0467 28.6322 15.0065 33.3206 16.8182 36.0477C16.8582 36.0015 16.9007 35.9575 16.9383 35.9081C18.8963 33.3346 20.8551 30.7621 22.8065 28.18C22.8857 28.0758 22.9298 27.8782 22.9298 27.7235C22.9364 24.1447 22.9347 20.5648 22.9347 16.9859C22.9347 16.886 22.9347 16.7861 22.9347 16.6594ZM32.9198 29.7643C32.8055 29.7546 32.745 29.746 32.6846 29.746C29.9245 29.745 27.1635 29.7439 24.4034 29.7536C24.2964 29.7536 24.1649 29.8363 24.0873 29.9372C22.1473 32.4764 20.213 35.0219 18.2779 37.5675C18.2256 37.6363 18.1783 37.7104 18.1023 37.8199C20.9024 40.5578 23.9354 41.3204 27.1742 39.6276C30.5281 37.8736 32.3652 34.4666 32.9198 29.7643ZM32.8716 27.3014C32.5604 21.8225 28.9532 17.0869 24.7882 16.6659C24.7882 20.2093 24.7882 23.7516 24.7882 27.3014C27.4935 27.3014 30.1818 27.3014 32.8716 27.3014Z" fill="#0076A2"/>
</svg>
