<svg width="145" height="18" viewBox="0 0 145 18" fill="none" xmlns="http://www.w3.org/2000/svg">
<path d="M9.38229 0L12.1321 5.708L18.4026 6.56212L13.8299 10.9473L14.9549 17.1761L9.38229 14.1763L3.79928 17.1761L4.92421 10.9473L0.351562 6.56212L6.62203 5.708L9.38229 0Z" fill="#FF7A00"/>
<path d="M40.9448 0.000488281L43.6946 5.70849L49.9651 6.56261L45.3924 10.9478L46.5174 17.1766L40.9448 14.1767L35.3618 17.1766L36.4867 10.9478L31.9141 6.56261L38.1845 5.70849L40.9448 0.000488281Z" fill="#FF7A00"/>
<path d="M72.4995 0.000488281L75.2493 5.70849L81.5198 6.56261L76.9471 10.9478L78.0721 17.1766L72.4995 14.1767L66.9165 17.1766L68.0414 10.9478L63.4688 6.56261L69.7392 5.70849L72.4995 0.000488281Z" fill="#FF7A00"/>
<path d="M104.062 0.000488281L106.812 5.70849L113.082 6.56261L108.51 10.9478L109.635 17.1766L104.062 14.1767L98.479 17.1766L99.6039 10.9478L95.0312 6.56261L101.302 5.70849L104.062 0.000488281Z" fill="#FF7A00"/>
<path d="M135.614 0.000488281L132.864 5.70849L126.594 6.56261L131.166 10.9478L130.041 17.1766L135.614 14.1767L135.833 14.2913V0.437961L135.614 0.000488281Z" fill="#FF7A00"/>
<path d="M140.075 10.9458L144.648 6.56068L138.377 5.70656L135.836 0.436035V14.2894L141.2 17.1747L140.075 10.9458Z" fill="#FF7A00"/>
</svg>
