<svg width="81" height="81" viewBox="0 0 81 81" fill="none" xmlns="http://www.w3.org/2000/svg">
<path d="M3.97906 17.2255C3.97906 32.7279 3.97906 48.1516 3.97906 63.6595C4.67028 63.6595 5.31875 63.6595 5.96721 63.6595C11.9423 63.6606 17.9187 63.6639 23.8938 63.6639C29.7502 63.6639 35.6077 63.6639 41.4641 63.6606C44.9855 63.6584 48.5069 63.6473 52.0295 63.6473C53.5141 63.6473 54.1424 64.2499 54.1376 65.65C54.1317 67.6428 54.1685 69.6378 54.1055 71.6283C53.9535 76.5277 49.6138 80.429 44.3548 80.4324C37.5864 80.4368 30.819 80.4368 24.0506 80.4346C19.402 80.4335 14.7524 80.4257 10.1038 80.4213C5.32944 80.4158 0.975466 76.7769 0.621543 72.3262C0.432704 69.9579 0.520591 67.5686 0.519404 65.1881C0.51109 55.478 0.515841 45.7689 0.517028 36.0588C0.517028 27.2536 0.498026 18.4484 0.528905 9.6444C0.540782 6.32017 2.09306 3.71152 5.06578 1.87051C6.58242 0.93118 8.28078 0.442682 10.105 0.441574C19.3676 0.43382 28.629 0.443789 37.8916 0.444897C40.0092 0.444897 42.1268 0.437143 44.2444 0.436035C49.7599 0.434928 54.121 4.48802 54.1352 9.63554C54.1412 11.8687 54.1447 14.1029 54.1341 16.3361C54.1281 17.457 54.0972 18.578 54.0628 19.699C54.0307 20.7392 53.4143 21.2753 52.2765 21.2797C51.4749 21.2831 50.7884 20.6129 50.748 19.7323C50.716 19.0333 50.7409 18.3332 50.7468 17.6332C50.7492 17.364 50.716 17.1945 50.3312 17.1956C41.5638 17.2134 32.7965 17.22 24.0292 17.2233C17.6027 17.2266 11.1751 17.2244 4.74867 17.2244C4.49689 17.2255 4.2451 17.2255 3.97906 17.2255ZM50.7825 66.8962C35.0709 66.8962 19.5422 66.8962 3.95531 66.8962C3.95531 68.3861 3.947 69.8394 3.96125 71.2927C3.96481 71.6782 4.02182 72.0659 4.0907 72.4469C4.14296 72.736 4.23679 73.0218 4.34249 73.2987C5.22967 75.6039 7.55512 77.199 10.1834 77.2145C15.3296 77.2433 20.4745 77.23 25.6206 77.23C31.9141 77.23 38.2087 77.2366 44.5021 77.2189C47.3109 77.2112 50.0247 75.2527 50.4582 72.6784C50.7742 70.802 50.6875 68.8668 50.7825 66.8962ZM3.85674 13.9755C19.5849 13.9755 35.1148 13.9755 50.6708 13.9755C50.6708 12.3029 50.7041 10.7 50.659 9.09941C50.6281 8.02493 50.2041 7.04129 49.5283 6.17395C48.1589 4.41824 46.2907 3.62512 43.9653 3.63177C37.1398 3.65281 30.3143 3.63841 23.49 3.63952C19.0386 3.64063 14.5885 3.61958 10.1371 3.65614C7.30452 3.6794 4.69166 5.55032 4.21066 8.14789C3.8603 10.0321 3.96006 11.9905 3.85674 13.9755Z" fill="#0076A2"/>
<path d="M44.1235 56.6824C44.9929 56.6824 45.7958 56.6824 46.6865 56.6824C46.6865 56.4299 46.6865 56.1972 46.6865 55.9657C46.6865 50.9445 46.6877 45.9233 46.6877 40.9031C46.6877 39.5606 47.297 38.9824 48.7364 38.9791C51.1509 38.9735 53.5655 38.9724 55.9788 38.9746C57.2365 38.9757 57.9171 39.5595 57.9194 40.7226C57.9242 43.3412 57.8743 45.9598 57.8767 48.5796C57.879 51.2181 57.9159 53.8556 57.9396 56.4941C57.9396 56.5462 57.9693 56.5971 57.9954 56.6791C58.7935 56.6791 59.5952 56.6791 60.48 56.6791C60.48 56.421 60.48 56.1884 60.48 55.9558C60.4812 49.1999 60.4812 42.4429 60.4824 35.687C60.4824 34.4375 61.1427 33.8183 62.486 33.816C64.9207 33.8105 67.3554 33.8105 69.7901 33.8116C71.0241 33.8127 71.7212 34.4308 71.7236 35.5795C71.7355 42.2811 71.7343 48.9816 71.7379 55.6833C71.7379 55.9967 71.7379 56.3091 71.7379 56.7112C71.9742 56.7112 72.1821 56.7112 72.3899 56.7112C74.5277 56.7123 76.6655 56.7046 78.8033 56.719C79.5741 56.7245 80.2023 57.1787 80.4161 57.8178C80.6418 58.4902 80.4351 59.2235 79.8045 59.5813C79.4541 59.7807 78.9969 59.9047 78.5859 59.907C73.7569 59.9302 68.9267 59.9236 64.0976 59.9236C58.556 59.9236 53.0144 59.9214 47.4727 59.9202C40.3111 59.9191 33.1483 59.9214 25.9867 59.918C24.5188 59.9169 23.666 58.673 24.3478 57.5298C24.6863 56.9627 25.2266 56.7101 25.9167 56.7112C27.9951 56.7134 30.0723 56.7112 32.1507 56.7101C32.3657 56.7101 32.5818 56.7101 32.9168 56.7101C32.9168 56.1784 32.9179 55.6888 32.9168 55.1992C32.9108 52.0976 32.9025 48.9972 32.8989 45.8956C32.8978 44.7469 33.5735 44.1188 34.8099 44.1166C37.2446 44.1133 39.6793 44.1144 42.114 44.1155C43.4489 44.1166 44.1164 44.7203 44.12 45.982C44.1307 49.3228 44.1235 52.6648 44.1235 56.0067C44.1235 56.2227 44.1235 56.4398 44.1235 56.6824ZM68.2652 56.6758C68.2652 50.1137 68.2652 43.596 68.2652 37.0505C66.8115 37.0505 65.3993 37.0505 63.9504 37.0505C63.9504 43.6026 63.9504 50.1204 63.9504 56.6758C65.4041 56.6758 66.8162 56.6758 68.2652 56.6758ZM54.4847 56.6957C54.4847 51.8318 54.4847 47.0354 54.4847 42.2169C53.0132 42.2169 51.6011 42.2169 50.1497 42.2169C50.1497 47.0642 50.1497 51.8805 50.1497 56.6957C51.6034 56.6957 53.0025 56.6957 54.4847 56.6957ZM36.3681 47.3378C36.3681 50.4682 36.3681 53.5531 36.3681 56.6547C37.8206 56.6547 39.228 56.6547 40.6496 56.6547C40.6496 53.5232 40.6496 50.4383 40.6496 47.3378C39.2114 47.3378 37.8313 47.3378 36.3681 47.3378Z" fill="#0076A2"/>
<path d="M52.1579 29.9911C50.5439 31.4987 48.9952 32.9476 47.4453 34.3954C46.4393 35.3358 45.4405 36.2829 44.4239 37.2134C43.5462 38.0165 42.5984 38.0032 41.716 37.1901C40.9844 36.5166 40.2635 35.8332 39.4915 35.1087C39.324 35.2549 39.1696 35.3845 39.0236 35.5208C37.4962 36.9409 35.9831 38.3742 34.4392 39.7777C33.5437 40.593 32.2681 40.3947 31.6921 39.3956C31.3453 38.793 31.4285 38.0696 31.9736 37.5556C34.0473 35.6028 36.1257 33.6532 38.2278 31.7258C39.0093 31.0102 39.9594 31.0446 40.7575 31.7745C41.5188 32.4713 42.2457 33.2024 43.0984 34.0243C44.1721 32.9875 45.1745 32.0016 46.197 31.0346C47.7089 29.6023 49.2303 28.1778 50.7577 26.7599C51.703 25.8815 52.6365 25.9103 53.5938 26.8087C54.5131 27.6716 55.4418 28.5278 56.3397 29.3619C58.6402 27.1986 60.93 25.0452 63.3552 22.7644C63.2875 22.7279 63.0666 22.657 62.9193 22.5185C62.2079 21.8439 62.4253 20.9677 63.392 20.7085C64.9681 20.2865 66.5536 19.8911 68.1451 19.5211C68.9966 19.3228 69.6985 19.9232 69.4978 20.7163C69.1047 22.2771 68.6593 23.8278 68.1724 25.3653C67.9479 26.0732 67.0405 26.2537 66.4253 25.7796C66.2282 25.6279 66.0524 25.4517 65.778 25.2069C65.2982 25.6733 64.8327 26.1418 64.3493 26.5938C62.1414 28.6563 59.9336 30.7178 57.7162 32.7704C56.9347 33.4937 55.924 33.5048 55.1354 32.787C54.1484 31.8864 53.1864 30.9593 52.1579 29.9911Z" fill="#0076A2"/>
<path d="M27.3663 69.2417C29.0789 69.2628 30.263 70.4575 30.2262 72.1277C30.1906 73.7425 28.9317 74.9006 27.2559 74.863C25.5908 74.8253 24.4031 73.6483 24.4221 72.0546C24.4423 70.3733 25.649 69.2218 27.3663 69.2417Z" fill="#0076A2"/>
<path d="M27.2803 10.4246C25.8373 10.4246 24.3943 10.4301 22.9513 10.4223C21.8884 10.4157 21.1496 9.75182 21.1484 8.8264C21.1484 7.90541 21.8955 7.22159 22.9513 7.21938C25.8587 7.21051 28.7649 7.21162 31.6723 7.21938C32.7685 7.2227 33.5108 7.90097 33.5037 8.85521C33.4966 9.75958 32.7281 10.4212 31.6711 10.4246C30.2067 10.4279 28.7435 10.4246 27.2803 10.4246Z" fill="#0076A2"/>
</svg>
