<svg width="50" height="51" viewBox="0 0 50 51" fill="none" xmlns="http://www.w3.org/2000/svg">
<circle cx="25" cy="25.5449" r="24" fill="white" stroke="#0076A2" stroke-width="2"/>
<path d="M23.1902 32.0375C23.8259 31.4684 24.3909 30.9619 25.0277 30.3908C25.7481 31.393 26.6227 31.1892 27.7009 30.7761C28.4613 30.4852 28.7944 30.1582 28.7603 29.4681C28.7403 29.0562 28.9321 28.9118 29.39 28.9362C30.0127 28.9691 30.6378 28.9447 31.2781 28.9447C31.3087 29.0466 31.3452 29.1114 31.344 29.1751C31.3216 30.0829 31.7466 30.5341 32.7554 30.8908C33.6888 31.221 34.2938 31.2125 34.9412 30.5904C35.006 30.5277 35.0966 30.4863 35.1778 30.4332C35.7228 30.9715 36.2596 31.5024 36.867 32.1022C36.6987 32.2976 36.3997 32.597 36.1701 32.9346C36.0748 33.0758 36.0642 33.3168 36.1242 33.4803C36.2525 33.8296 36.5421 34.146 36.6045 34.4985C36.7281 35.1992 37.1742 35.4434 37.884 35.4063C38.4973 35.3734 38.6479 35.6388 38.6009 36.1442C38.5538 36.6506 38.5903 37.1623 38.5903 37.6804C38.4608 37.7134 38.3878 37.7495 38.3172 37.7463C37.259 37.6996 36.7928 38.1656 36.3961 39.0639C36.043 39.8633 36.0301 40.3825 36.7104 40.9356C36.7952 41.0036 36.8423 41.1087 36.9058 41.1958C36.3161 41.6926 35.7346 42.1832 35.0919 42.7246C34.853 42.5622 34.5151 42.2968 34.1361 42.095C33.9772 42.0101 33.7088 42.0037 33.5275 42.0589C32.9931 42.2246 32.4634 42.4146 31.962 42.6461C31.7607 42.7395 31.5535 42.9455 31.4912 43.1366C31.377 43.4869 31.3687 43.866 31.3075 44.2917C30.5671 44.2917 29.8456 44.3076 29.1264 44.2768C29.0051 44.2715 28.7885 44.0592 28.7944 43.9498C28.8462 43.0665 28.3648 42.714 27.4725 42.3573C26.5167 41.9751 25.8681 41.9836 25.1889 42.6471C25.1266 42.7076 25.0277 42.7395 24.9841 42.7628C24.3909 42.2394 23.8212 41.7372 23.242 41.2266C23.5481 40.8146 24.066 40.4143 24.1142 39.9706C24.1613 39.5459 23.6328 39.0946 23.5186 38.6232C23.3727 38.0213 23.029 37.8068 22.391 37.8217C22.1426 37.828 21.8919 37.7526 21.6094 37.7091C21.6094 36.9818 21.6094 36.2631 21.6094 35.4689C22.6017 35.4583 23.2915 35.2513 23.7493 34.2097C24.2014 33.1915 23.92 32.6193 23.1902 32.0375ZM30.0727 31.8485C27.2183 31.823 24.8429 33.9517 24.8123 36.5614C24.7817 39.1764 27.0982 41.3359 29.968 41.3688C32.9225 41.4028 35.3203 39.3059 35.3568 36.657C35.3932 34.0197 33.0367 31.875 30.0727 31.8485Z" fill="#0076A2"/>
<path d="M16.3837 23.0964C13.6976 23.0964 11.0102 23.0985 8.32408 23.0964C6.56784 23.0943 5.72386 21.8372 6.59845 20.4591C9.29401 16.2091 12.0096 11.9708 14.7322 7.73561C15.5538 6.45837 17.2324 6.48491 18.0811 7.79612C20.0963 10.9101 22.0821 14.04 24.0796 17.1636C24.7847 18.2656 25.5027 19.3613 26.196 20.4687C27.0341 21.8054 26.1996 23.0932 24.4998 23.0954C21.796 23.0996 19.0899 23.0964 16.3837 23.0964ZM16.3755 22.1016C19.0616 22.1016 21.7489 22.108 24.4351 22.0984C25.3921 22.0952 25.6628 21.6461 25.1837 20.8944C24.2373 19.407 23.2851 17.9238 22.3363 16.4384C20.6142 13.7428 18.8956 11.046 17.1688 8.35246C16.6874 7.60183 16.0824 7.61776 15.5927 8.38112C15.4161 8.65611 15.2419 8.93321 15.0665 9.20926C12.5793 13.0972 10.0921 16.9852 7.59899 20.8711C7.39299 21.1928 7.17876 21.5442 7.53307 21.8309C7.74848 22.005 8.12751 22.0857 8.43355 22.0889C11.0809 22.108 13.7282 22.1005 16.3755 22.1016Z" fill="#0076A2"/>
<path d="M41.409 21.0396C41.8281 21.4122 42.2142 21.7541 42.6579 22.148C41.7916 22.6533 42.0564 23.2288 42.3625 23.8871C42.5543 24.299 42.7686 24.5028 43.2347 24.4827C43.629 24.4657 43.762 24.6292 43.7185 24.9626C43.7032 25.0847 43.6985 25.2121 43.7197 25.3331C43.8197 25.8926 43.6243 26.1942 42.9345 26.1878C42.7792 26.1867 42.6144 26.4076 42.4684 26.5403C42.419 26.5849 42.426 26.6762 42.3895 26.7367C42.0117 27.3557 41.7421 27.9651 42.6414 28.4312C42.18 28.8367 41.7916 29.1776 41.369 29.5502C40.8923 29.1223 40.4332 28.9673 39.6622 29.2508C38.8924 29.5332 38.7805 29.9707 38.7311 30.5673C38.1473 30.5673 37.607 30.5673 37.0102 30.5673C37.0479 29.891 36.7889 29.5247 36.0391 29.2285C35.2634 28.9227 34.8549 29.168 34.3782 29.5768C33.958 29.2073 33.5695 28.8665 33.1399 28.4896C33.6413 28.0224 33.8473 27.6158 33.5154 26.9193C33.1952 26.2472 32.7455 26.0965 32.0781 26.0763C32.0781 25.5423 32.0781 25.0549 32.0781 24.5124C32.8103 24.557 33.2129 24.3351 33.5165 23.6715C33.8202 23.0069 33.7002 22.595 33.1316 22.1416C33.573 21.7774 33.9709 21.4483 34.4159 21.0799C34.8714 21.4876 35.3305 21.667 36.1003 21.3612C36.8348 21.0693 37.0361 20.6881 37.0019 20.0532C37.6082 20.0532 38.1473 20.0532 38.7335 20.0532C38.7499 20.7009 38.9724 21.0884 39.7211 21.3857C40.4979 21.6957 40.9052 21.4186 41.409 21.0396ZM41.5173 25.3235C41.5397 23.5547 39.9141 22.0429 37.9742 22.0269C35.9143 22.011 34.2687 23.4401 34.2463 25.2641C34.224 27.0913 35.8484 28.5787 37.8777 28.5915C39.8576 28.6042 41.4949 27.1348 41.5173 25.3235Z" fill="#0076A2"/>
<path d="M11.8812 39.164C12.2579 39.164 12.5263 39.164 12.7958 39.164C15.8339 39.164 18.872 39.1597 21.9089 39.1704C22.1185 39.1714 22.408 39.2202 22.5152 39.3466C22.6623 39.5196 22.6705 39.7893 22.7388 40.0165C22.5057 40.0707 22.2727 40.1705 22.0396 40.1705C18.5318 40.18 15.0229 40.1758 11.5151 40.1758C11.3021 40.1758 11.089 40.1758 10.8359 40.1758C10.8359 34.8269 10.8359 29.5173 10.8359 24.1875C11.1902 24.1875 11.501 24.1875 11.88 24.1875C11.8812 29.151 11.8812 34.1081 11.8812 39.164Z" fill="#0076A2"/>
<path d="M37.1945 18.9498C36.8438 18.9498 36.553 18.9498 36.1599 18.9498C36.1599 16.1575 36.1599 13.378 36.1599 10.5528C35.8256 10.5528 35.5925 10.5528 35.3606 10.5528C30.9477 10.5528 26.5347 10.5528 22.1229 10.5528C21.0753 10.5528 21.0753 10.5538 20.6562 9.57812C26.1663 9.57812 31.6575 9.57812 37.1957 9.57812C37.1945 12.6911 37.1945 15.7923 37.1945 18.9498Z" fill="#0076A2"/>
<path d="M17.016 17.7938C16.5629 17.7938 16.2333 17.7938 15.8119 17.7938C15.6836 17.0718 15.5447 16.3498 15.4281 15.6257C15.2692 14.6309 15.0832 13.6382 14.9914 12.6381C14.9126 11.7728 15.5035 11.2228 16.3875 11.2154C17.2479 11.208 17.9036 11.793 17.8 12.6285C17.5869 14.3432 17.2868 16.0483 17.016 17.7938Z" fill="#0076A2"/>
<path d="M17.8048 19.8867C17.8118 20.5558 17.1832 21.1102 16.4111 21.1177C15.6401 21.1251 14.9891 20.577 14.9844 19.9175C14.9785 19.2037 15.5953 18.6567 16.404 18.6567C17.1644 18.6567 17.7977 19.2122 17.8048 19.8867Z" fill="#0076A2"/>
</svg>
