<svg width="145" height="18" viewBox="0 0 145 18" fill="none" xmlns="http://www.w3.org/2000/svg">
<path d="M9.03072 0.296875L11.7806 6.00487L18.051 6.859L13.4784 11.2441L14.6033 17.473L9.03072 14.4731L3.44771 17.473L4.57265 11.2441L0 6.859L6.27047 6.00487L9.03072 0.296875Z" fill="#FF7A00"/>
<path d="M40.5932 0.297363L43.3431 6.00536L49.6135 6.85948L45.0409 11.2446L46.1658 17.4735L40.5932 14.4736L35.0102 17.4735L36.1352 11.2446L31.5625 6.85948L37.833 6.00536L40.5932 0.297363Z" fill="#FF7A00"/>
<path d="M72.1479 0.297363L74.8978 6.00536L81.1682 6.85948L76.5956 11.2446L77.7205 17.4735L72.1479 14.4736L66.5649 17.4735L67.6898 11.2446L63.1172 6.85948L69.3877 6.00536L72.1479 0.297363Z" fill="#FF7A00"/>
<path d="M103.71 0.297363L106.46 6.00536L112.731 6.85948L108.158 11.2446L109.283 17.4735L103.71 14.4736L98.1274 17.4735L99.2523 11.2446L94.6797 6.85948L100.95 6.00536L103.71 0.297363Z" fill="#FF7A00"/>
<path d="M135.262 0.297363L132.513 6.00536L126.242 6.85948L130.815 11.2446L129.69 17.4735L135.262 14.4736L135.481 14.5882V0.734836L135.262 0.297363Z" fill="#FF7A00"/>
<path d="M139.724 11.2425L144.296 6.85738L138.026 6.00325L135.484 0.732727V14.5861L140.849 17.4713L139.724 11.2425Z" fill="#FF7A00"/>
</svg>
