<svg width="80" height="80" viewBox="0 0 80 80" fill="none" xmlns="http://www.w3.org/2000/svg">
<circle cx="40" cy="40" r="38.5" fill="white" stroke="#0076A2" stroke-width="3"/>
<g clip-path="url(#clip0_1519_2063)">
<path d="M65.0001 40.0305C64.9867 53.9058 53.8304 65.0211 39.9358 64.9996C26.0707 64.9782 14.9599 53.7959 15.0001 39.9018C15.0403 26.0372 26.2208 14.9568 40.1314 14.9996C53.9241 15.0425 65.0135 26.2033 65.0001 40.0305ZM63.0603 40.0465C63.0818 27.369 52.7694 16.988 40.1126 16.9424C27.3675 16.8995 16.9613 27.2323 16.9399 39.9554C16.9184 52.633 27.2282 63.0113 39.8876 63.0596C52.6274 63.1078 63.0389 52.7669 63.0603 40.0465Z" fill="#0076A2"/>
<path d="M50.172 55.3585C50.1077 56.6046 49.5852 57.3656 48.5724 57.6175C47.4391 57.8989 46.5523 57.4406 46.0406 56.3741C44.5991 53.3541 43.1684 50.3261 41.735 47.3034C41.6011 47.0221 41.5153 46.7032 41.3305 46.4593C40.9688 45.9904 40.5535 45.5643 40.1596 45.1195C39.7551 45.5429 39.2165 45.902 38.9674 46.4031C37.676 48.9997 36.4596 51.6338 35.2191 54.2545C34.8949 54.9405 34.5922 55.6372 34.2439 56.3125C33.6116 57.5451 32.4756 58.0034 31.369 57.4996C30.1875 56.961 29.7802 55.7846 30.4045 54.4474C32.1433 50.7281 33.8875 47.0114 35.6933 43.3241C36.8267 41.0089 36.1488 38.5865 36.2479 36.215C36.2587 35.9416 35.7898 35.6013 35.4844 35.3709C32.9953 33.479 30.4929 31.6059 27.9959 29.7275C27.8164 29.5935 27.6369 29.4622 27.4627 29.3228C26.2303 28.3608 25.9329 27.1845 26.6777 26.2412C27.4091 25.314 28.5424 25.2765 29.7588 26.1823C31.9102 27.7793 34.0456 29.3952 36.1863 31.0084C39.0719 33.1816 40.9232 33.1842 43.8061 31.0137C45.9468 29.4032 48.0848 27.7874 50.2336 26.1876C51.4553 25.2792 52.5806 25.3087 53.3174 26.2305C54.0703 27.1711 53.7863 28.3689 52.5458 29.3121C49.9469 31.2817 47.3132 33.2003 44.7519 35.2181C44.3125 35.5638 44.1651 36.2873 43.8945 36.842C43.8597 36.9143 43.9052 37.0189 43.8972 37.1073C43.5087 40.4167 44.3741 43.4099 45.9602 46.312C47.348 48.8523 48.4787 51.5346 49.7111 54.1607C49.9147 54.6002 50.0594 55.0638 50.172 55.3585Z" fill="#0076A2"/>
<path d="M39.9341 31.3702C37.78 31.3327 36.0412 29.5346 36.0787 27.3855C36.1162 25.2176 37.8926 23.508 40.0654 23.5455C42.241 23.583 43.9664 25.3597 43.9235 27.5168C43.878 29.6766 42.0856 31.4077 39.9341 31.3702Z" fill="#0076A2"/>
</g>
<defs>
<clipPath id="clip0_1519_2063">
<rect width="50" height="50" fill="white" transform="translate(15 15)"/>
</clipPath>
</defs>
</svg>
