<svg width="50" height="51" viewBox="0 0 50 51" fill="none" xmlns="http://www.w3.org/2000/svg">
<circle cx="25" cy="25.5449" r="24" fill="white" stroke="#0076A2" stroke-width="2"/>
<path d="M14.0569 15.6255C13.2601 14.0017 12.478 12.4377 11.7299 10.8602C11.5752 10.5341 11.351 10.5544 11.0586 10.5578C9.94256 10.5702 9.07753 9.83331 8.98493 8.81322C8.89965 7.871 9.65746 6.97165 10.6553 6.82834C11.7652 6.66924 12.7436 7.25488 13.0055 8.2524C13.1822 8.92719 12.958 9.50381 12.4755 10.0195C12.3659 10.1369 12.2416 10.3625 12.2915 10.4697C13.0725 12.1127 13.8839 13.7455 14.7075 15.4178C16.8994 14.5952 19.1655 14.5941 21.4402 14.611C24.1364 14.6313 26.8326 14.6325 29.5288 14.6099C31.4672 14.5941 33.3739 14.7261 35.2636 15.4156C36.1104 13.6981 36.9462 12.001 37.7905 10.2881C37.0984 9.69 36.7086 9.00618 37.0095 8.12151C37.3336 7.16912 38.3326 6.63538 39.4011 6.83737C40.3673 7.02017 41.0788 7.91839 40.9838 8.83466C40.8802 9.83331 40.0274 10.5916 38.9503 10.5453C38.4861 10.525 38.3229 10.6943 38.1596 11.0351C37.4311 12.5573 36.6793 14.0694 35.9532 15.5487C36.8999 16.1174 37.866 16.6015 38.7128 17.2233C41.9353 19.593 43.6118 22.7175 43.7044 26.5226C43.7531 28.5244 43.8652 30.5363 43.3596 32.5212C42.0194 37.7717 36.8255 41.6862 30.9945 41.7471C27.0019 41.7889 23.007 41.7911 19.0144 41.7471C12.1051 41.6749 6.37644 36.3917 6.27166 29.9924C6.24242 28.196 6.19368 26.3668 6.50558 24.6054C7.21832 20.5769 9.7196 17.6837 13.6366 15.8331C13.7609 15.7755 13.8815 15.7123 14.0569 15.6255ZM24.9624 41.1084C27.03 41.1084 29.1 41.1513 31.1663 41.1005C36.7512 40.9606 41.6965 37.1951 42.709 32.1014C43.0927 30.1685 43.0538 28.1384 42.9928 26.1592C42.8089 20.2079 37.3982 15.3377 30.9713 15.279C26.9776 15.2429 22.9826 15.2441 18.9888 15.279C13.3576 15.3287 8.28072 19.1461 7.2634 24.2838C6.88693 26.1806 6.92348 28.1712 6.97709 30.1143C7.14035 36.1096 12.4109 40.9459 18.8828 41.1028C20.9053 41.1513 22.9339 41.1096 24.9624 41.1084ZM12.3622 8.66202C12.3512 7.97256 11.7445 7.41625 11.0098 7.42076C10.2813 7.4264 9.66477 7.99964 9.6599 8.67556C9.65503 9.37517 10.3032 9.96308 11.0549 9.94164C11.8018 9.9202 12.3732 9.35938 12.3622 8.66202ZM37.6065 8.70264C37.6162 9.39661 38.2157 9.94615 38.9577 9.94277C39.6887 9.93825 40.3052 9.3684 40.31 8.69248C40.3149 7.99738 39.6606 7.40045 38.915 7.42189C38.1767 7.4422 37.5968 8.00979 37.6065 8.70264Z" fill="#0076A2"/>
<path d="M31.7938 35.2266C31.9193 36.126 32.0204 37.0705 32.1946 38.0025C32.2897 38.5114 32.1983 38.6683 31.6281 38.5791C30.0309 38.3298 28.4433 37.55 28.1034 35.6396C28.0937 35.5877 28.0498 35.5415 27.9962 35.4512C27.0045 35.4512 25.9944 35.4512 24.9844 35.4512C23.2008 35.4512 21.4159 35.4659 19.6322 35.4455C15.5775 35.4015 12.2465 32.6414 11.7434 28.9312C11.2097 24.9897 13.7086 21.469 17.7389 20.5381C18.3992 20.3857 19.0998 20.3293 19.7833 20.3248C23.0058 20.3034 26.2296 20.3113 29.4534 20.3158C34.2829 20.3225 37.8807 23.8635 37.5737 28.3286C37.3471 31.6225 35.5463 33.8612 32.219 35.0472C32.1276 35.0799 32.0387 35.1228 31.7938 35.2266ZM31.4685 37.8254C31.4685 36.9407 31.2224 36.0775 31.2163 35.2199C31.2139 34.8328 31.3783 34.6342 31.8072 34.5033C35.5037 33.3749 37.4506 30.2266 36.7866 26.5017C36.2128 23.2824 33.1194 20.9341 29.4412 20.9296C26.2588 20.9262 23.0765 20.9274 19.8929 20.9296C14.9757 20.933 11.5143 24.8937 12.5195 29.3645C13.231 32.5263 16.0454 34.7369 19.5408 34.7956C22.3577 34.843 25.1757 34.8159 27.9938 34.8057C28.4811 34.8035 28.715 34.9152 28.7686 35.4218C28.9063 36.7195 30.1649 37.6403 31.4685 37.8254Z" fill="#0076A2"/>
<path d="M16.189 18.2402C16.2572 18.2967 16.4327 18.3757 16.451 18.4796C16.4717 18.5902 16.3632 18.7392 16.2731 18.8419C16.2183 18.904 16.0915 18.9142 15.9953 18.9401C14.6965 19.2889 13.628 19.9617 12.7533 20.9122C12.5827 21.0973 12.3999 21.4292 12.0978 21.1323C12.0076 21.0443 12.1039 20.6808 12.233 20.5318C13.1553 19.4673 14.3408 18.7482 15.7468 18.3441C15.8637 18.3102 15.9831 18.2876 16.189 18.2402Z" fill="#0076A2"/>
<path d="M17.8371 25.9893C18.9666 25.9915 19.8852 26.8494 19.8767 27.8936C19.8669 28.9356 18.9227 29.789 17.8006 29.7686C16.6943 29.7494 15.7952 28.9085 15.7891 27.8891C15.783 26.8472 16.7102 25.987 17.8371 25.9893ZM19.1786 27.8688C19.1737 27.161 18.5889 26.6282 17.8213 26.6338C17.0696 26.6395 16.4689 27.2005 16.4762 27.8914C16.4836 28.5777 17.1061 29.1444 17.8445 29.1387C18.5877 29.132 19.1822 28.5664 19.1786 27.8688Z" fill="#0076A2"/>
<path d="M26.688 27.8857C26.6832 28.9288 25.745 29.7844 24.6217 29.7698C23.5167 29.7551 22.6139 28.9186 22.6017 27.8981C22.5895 26.8573 23.5142 25.9915 24.64 25.9893C25.7694 25.987 26.6929 26.8415 26.688 27.8857ZM25.9899 27.8507C25.9765 27.1452 25.3807 26.6203 24.612 26.635C23.8615 26.6485 23.2681 27.2197 23.2876 27.9106C23.3071 28.5969 23.9382 29.1557 24.6753 29.1387C25.4185 29.1218 26.0033 28.5484 25.9899 27.8507Z" fill="#0076A2"/>
<path d="M31.4411 25.9893C32.5717 25.9848 33.4965 26.837 33.494 27.8812C33.4916 28.9243 32.5547 29.7811 31.4314 29.7687C30.3275 29.7574 29.4223 28.922 29.4065 27.9004C29.3906 26.8619 30.3153 25.9938 31.4411 25.9893ZM32.7959 27.8722C32.7935 27.1644 32.2099 26.6305 31.4423 26.6338C30.6906 26.6372 30.0887 27.1971 30.0936 27.8869C30.0985 28.5732 30.7186 29.141 31.4569 29.1376C32.2014 29.1342 32.7983 28.5698 32.7959 27.8722Z" fill="#0076A2"/>
<path d="M32.4128 44.2939H18.2689C18.0861 44.2939 17.9375 44.1561 17.9375 43.9868C17.9375 43.8174 18.0861 43.6797 18.2689 43.6797H32.4115C32.5943 43.6797 32.7429 43.8174 32.7429 43.9868C32.7429 44.1573 32.5955 44.2939 32.4128 44.2939Z" fill="#0076A2"/>
</svg>
