<svg width="146" height="20" viewBox="0 0 146 20" fill="none" xmlns="http://www.w3.org/2000/svg">
<path d="M9.62098 0.435547L12.3935 6.65753L18.7158 7.58857L14.1054 12.3686L15.2396 19.1583L9.62098 15.8883L3.99183 19.1583L5.12607 12.3686L0.515625 7.58857L6.83791 6.65753L9.62098 0.435547Z" fill="#FF7A00"/>
<path d="M41.4413 0.436096L44.2139 6.65808L50.5362 7.58912L45.9257 12.3691L47.0599 19.1588L41.4413 15.8889L35.8122 19.1588L36.9464 12.3691L32.3359 7.58912L38.6582 6.65808L41.4413 0.436096Z" fill="#FF7A00"/>
<path d="M73.2616 0.436096L76.0342 6.65808L82.3565 7.58912L77.746 12.3691L78.8803 19.1588L73.2616 15.8889L67.6325 19.1588L68.7667 12.3691L64.1562 7.58912L70.4785 6.65808L73.2616 0.436096Z" fill="#FF7A00"/>
<path d="M105.09 0.436096L107.862 6.65808L114.185 7.58912L109.574 12.3691L110.708 19.1588L105.09 15.8889L99.4606 19.1588L100.595 12.3691L95.9844 7.58912L102.307 6.65808L105.09 0.436096Z" fill="#FF7A00"/>
<path d="M136.892 0.436096L134.119 6.65808L127.797 7.58912L132.407 12.3691L131.273 19.1588L136.892 15.8889L137.112 16.0138V0.912962L136.892 0.436096Z" fill="#FF7A00"/>
<path d="M141.392 12.3668L146.002 7.5868L139.68 6.65576L137.117 0.910645V16.0115L142.526 19.1565L141.392 12.3668Z" fill="#FF7A00"/>
</svg>
