<svg width="80" height="80" viewBox="0 0 80 80" fill="none" xmlns="http://www.w3.org/2000/svg">
<circle cx="40" cy="40" r="38.5" fill="white" stroke="#0076A2" stroke-width="3"/>
<path d="M41.3051 25.8024C41.5023 25.8024 41.6833 25.8024 41.8611 25.8024C44.677 25.8024 47.4928 25.8024 50.3086 25.8024C51.6567 25.8024 52.313 26.6705 52.0576 28.0933C51.0295 33.8048 50.0015 39.5198 48.9767 45.2314C48.7471 46.5163 48.2751 46.9332 47.0305 46.9332C39.5658 46.9332 32.1043 46.9332 24.6396 46.9332C23.6051 46.9332 23.1622 46.599 22.826 45.5552C22.1245 43.3574 21.4326 41.1561 20.7117 38.9618C20.6244 38.7 20.4401 38.4381 20.2365 38.259C16.0208 34.6109 14.2201 29.9156 15.3128 24.2454C16.4184 18.5097 19.8324 14.8478 25.1569 13.4113C32.628 11.3995 40.2156 17.0008 41.2081 25.1307C41.2339 25.3408 41.2695 25.551 41.3051 25.8024ZM47.3635 45.2796C48.4303 39.3441 49.4907 33.45 50.5575 27.518C47.4605 27.518 44.4183 27.518 41.3568 27.518C41.0432 32.451 39.0356 36.3575 35.0947 38.9652C31.1636 41.5661 26.9899 41.7073 22.6773 39.8471C23.2139 41.5351 23.7344 43.1266 24.2161 44.7284C24.3422 45.1487 24.52 45.2934 24.9468 45.29C32.2433 45.2727 39.5399 45.2796 46.8365 45.2796C46.9982 45.2796 47.1598 45.2796 47.3635 45.2796ZM30.9211 19.1849C29.0299 19.1849 27.2259 19.1849 25.38 19.1849C24.7398 21.424 24.4618 23.7769 24.4004 26.1779C26.935 26.1779 29.4049 26.1779 31.9039 26.1779C31.8295 23.7493 31.558 21.4034 30.9211 19.1849ZM39.6757 26.1917C39.6919 26.1228 39.7113 26.0849 39.708 26.0539C39.4332 22.5092 37.9558 19.643 35.3889 17.397C35.3081 17.3281 35.1335 17.2936 35.0462 17.3384C34.1895 17.7931 33.3457 18.2651 32.5893 18.6819C32.9319 21.1588 33.2779 23.6528 33.627 26.1917C35.5667 26.1917 37.6034 26.1917 39.6757 26.1917ZM22.6708 26.1883C23.0167 23.6701 23.3562 21.1898 23.6989 18.7095C22.8745 18.3064 21.9434 17.8483 20.9606 17.3694C18.3808 19.6086 16.9001 22.5402 16.5962 26.1917C18.6879 26.1883 20.7246 26.1883 22.6708 26.1883ZM31.9104 27.9382C29.3726 27.9382 26.9026 27.9382 24.3907 27.9382C24.4392 30.1016 24.6461 32.1995 25.1569 34.2871C27.1742 33.9151 29.143 33.9254 31.1377 34.3215C31.6453 32.2202 31.8619 30.1188 31.9104 27.9382ZM39.7307 27.9382C37.6002 27.9382 35.5603 27.9382 33.6011 27.9382C33.3296 30.2325 33.0613 32.4786 32.7994 34.6901C33.7272 35.231 34.7133 35.8028 35.751 36.4057C38.0851 34.2044 39.4623 31.4003 39.7307 27.9382ZM23.4855 34.6419C23.2269 32.4269 22.965 30.1877 22.6999 27.9417C20.7085 27.9417 18.6718 27.9417 16.5962 27.9417C16.8937 31.3452 18.2062 34.139 20.4822 36.2989C21.5652 35.7029 22.5577 35.1518 23.4855 34.6419ZM30.6689 35.9441C28.962 35.6237 27.31 35.5996 25.6095 35.9234C26.0168 37.043 26.4242 38.0695 27.2098 38.8584C27.8434 39.4957 28.4253 39.5061 29.059 38.8791C29.8639 38.0902 30.2875 37.0568 30.6689 35.9441ZM30.2163 17.5107C30.2648 17.4314 30.3133 17.3488 30.3618 17.2695C29.8866 16.6253 29.4501 15.9398 28.9167 15.3542C28.4932 14.8891 27.9792 14.8995 27.504 15.244C26.7669 15.7848 26.3692 16.5875 25.9586 17.5072C27.4458 17.5107 28.8294 17.5107 30.2163 17.5107ZM25.1019 39.0617C25.1213 39.01 25.1375 38.9583 25.1569 38.9101C24.7819 38.0558 24.4069 37.2014 23.9963 36.2679C23.2948 36.6296 22.6062 36.9844 21.9208 37.3392C21.9208 37.415 21.924 37.4908 21.924 37.5666C22.9812 38.0627 24.0415 38.5622 25.1019 39.0617ZM34.293 37.6424C34.2962 37.5597 34.2994 37.477 34.3027 37.3944C33.6205 37.0361 32.9384 36.6813 32.2821 36.3368C31.8554 37.2945 31.4836 38.1281 31.1118 38.9652C31.1312 39.0031 31.1506 39.041 31.1733 39.0789C32.211 38.6001 33.252 38.1212 34.293 37.6424ZM22.5771 16.15C22.5641 16.2189 22.5512 16.2877 22.5383 16.3601C23.1428 16.615 23.7474 16.8734 24.3487 17.1248C24.7172 16.4049 25.047 15.7607 25.4575 14.958C24.4166 15.3886 23.4952 15.771 22.5771 16.15ZM30.9761 14.9994C30.9567 15.0373 30.9373 15.0752 30.9179 15.1165C31.2508 15.7572 31.5838 16.4014 31.9362 17.087C32.5311 16.8183 33.1097 16.5564 33.6852 16.2981C33.682 16.2361 33.6787 16.1741 33.6755 16.1121C32.7768 15.74 31.8748 15.368 30.9761 14.9994Z" fill="#0076A2"/>
<path d="M57.2248 26.5845C56.9468 28.3689 56.6688 30.1499 56.3908 31.9274C55.8961 35.1105 55.408 38.297 54.9101 41.48C54.8099 42.1242 54.4834 42.4136 53.9855 42.3343C53.507 42.2586 53.2743 41.8521 53.3745 41.2044C54.1924 35.8856 55.0136 30.5667 55.8444 25.2479C55.9123 24.8138 55.8961 24.4452 55.6698 24.0422C55.0006 22.8606 55.3013 21.6928 56.4134 21.0004C57.907 20.0703 59.407 19.1505 60.9103 18.2342C62.0321 17.5521 63.1248 17.8621 63.7746 19.0334C64.0947 19.6121 64.418 20.1943 64.7219 20.7833C65.2812 21.8685 64.9837 23.0466 63.9783 23.677C62.4427 24.6381 60.9006 25.582 59.3553 26.5259C58.6699 26.9531 58.3143 26.9531 57.2248 26.5845ZM63.6162 22.0752C63.5516 21.9994 63.4837 21.927 63.419 21.8513C63.4029 21.7824 63.3996 21.7066 63.3673 21.648C63.0311 21.0176 62.711 20.3734 62.3295 19.774C62.252 19.65 61.8866 19.5914 61.7444 19.6741C60.2217 20.5767 58.7184 21.5171 57.2087 22.4472C56.9113 22.6298 56.8143 22.8537 57.0082 23.1879C57.3412 23.7597 57.671 24.3315 57.9878 24.9137C58.1559 25.2203 58.3563 25.21 58.6117 25.055C60.1053 24.1317 61.5989 23.212 63.099 22.2956C63.2606 22.2026 63.4449 22.1475 63.6162 22.0752Z" fill="#0076A2"/>
<path d="M37.3855 51.6215C33.3864 51.6215 29.3906 51.6215 25.3915 51.6215C24.6286 51.6215 24.5348 51.7214 24.5316 52.5413C24.5316 52.7549 24.5413 52.9685 24.5251 53.1786C24.4895 53.6609 24.1727 53.964 23.7363 53.9537C23.3192 53.9433 23.0121 53.6505 22.9927 53.1889C22.9733 52.748 22.9669 52.3002 22.9992 51.8592C23.0703 50.8912 23.843 50.0713 24.7546 49.9783C24.9874 49.9542 25.2202 49.9577 25.4529 49.9577C33.2991 49.9577 41.1453 49.9577 48.9915 49.9577C50.831 49.9577 52.0659 48.9311 52.5282 47.0192C52.6705 46.4336 53.0196 46.158 53.4884 46.2579C53.9442 46.3543 54.1705 46.7918 54.0735 47.374C53.705 49.5959 51.7911 51.4355 49.6801 51.5974C49.415 51.6181 49.1466 51.6215 48.8815 51.6215C45.0474 51.6215 41.2164 51.6215 37.3855 51.6215Z" fill="#0076A2"/>
<path d="M30.6492 62.9998C28.0532 62.9826 25.9712 60.7262 26.0003 57.9565C26.0262 55.2179 28.1308 53.0097 30.7074 53.0132C33.2904 53.0201 35.408 55.2902 35.3886 58.0392C35.3659 60.8054 33.2549 63.0136 30.6492 62.9998ZM33.8012 58.053C33.8206 56.2238 32.4337 54.7046 30.7235 54.6874C29.0069 54.6667 27.5909 56.148 27.5779 57.9738C27.5618 59.8202 28.9228 61.3084 30.6492 61.3394C32.3529 61.3704 33.7851 59.8788 33.8012 58.053Z" fill="#0076A2"/>
<path d="M50.4217 58.0083C50.4217 60.7779 48.3591 62.993 45.7728 62.9999C43.1477 63.0068 41.069 60.8089 41.0625 58.0152C41.0593 55.2386 43.1639 52.9995 45.7631 53.0132C48.3462 53.027 50.4184 55.249 50.4217 58.0083ZM45.734 61.3395C47.4345 61.3429 48.8473 59.8513 48.8699 58.0324C48.8893 56.2411 47.4701 54.7012 45.776 54.684C44.0561 54.6668 42.6111 56.1894 42.6175 58.0152C42.624 59.8306 44.0367 61.336 45.734 61.3395Z" fill="#0076A2"/>
</svg>
