<svg width="81" height="81" viewBox="0 0 81 81" fill="none" xmlns="http://www.w3.org/2000/svg">
<path d="M16.2214 58.9674C17.6931 60.8396 19.0319 62.5413 20.3692 64.2416C20.8265 64.8217 21.288 65.399 21.7409 65.982C22.0652 66.3988 22.1295 66.8443 21.6609 67.1666C20.525 67.9473 19.4105 68.7824 18.1946 69.4141C16.7972 70.1403 15.3855 69.7178 14.3682 68.493C12.2207 65.9075 10.0761 63.3191 7.91142 60.7493C7.74568 60.5531 7.38848 60.3411 7.17559 60.3869C2.87915 61.3194 0.713068 58.2698 0.261564 55.117C0.0901062 53.9209 0.141543 52.6116 0.441594 51.4442C1.07456 48.9776 2.97631 47.9978 5.36814 47.6841C8.59868 47.2601 11.8321 46.8332 15.0355 46.2488C16.7058 45.9437 18.3546 45.4036 19.942 44.7848C22.8182 43.6618 24.5885 41.4028 25.7944 38.6383C25.9273 38.3346 26.0802 38.0309 26.2731 37.763C26.8918 36.8993 27.719 36.4409 28.7978 36.6687C29.8994 36.9007 30.6467 37.5668 30.821 38.7099C31.2554 41.5375 31.6497 44.3723 32.0641 47.2028C32.7685 52.0143 33.4814 56.8259 34.1787 61.6388C34.3273 62.6616 33.8901 63.4595 33.0657 64.031C32.1941 64.6355 31.2711 64.6326 30.3895 64.064C30.0151 63.8233 29.6637 63.5082 29.3879 63.1601C26.7474 59.8326 23.2326 58.5935 19.109 58.7854C18.2074 58.827 17.3116 58.8986 16.2214 58.9674ZM17.9788 57.4074C18.4003 57.4074 18.7318 57.4218 19.0633 57.4046C23.6526 57.1768 27.5276 58.6236 30.4695 62.2763C30.6324 62.4783 30.8181 62.7361 31.041 62.7977C31.4211 62.9023 31.9283 63.0226 32.2127 62.8521C32.5027 62.6788 32.6913 62.1746 32.7385 61.7921C32.7913 61.3581 32.6413 60.8983 32.5741 60.4499C31.8212 55.3591 31.0696 50.2682 30.3138 45.1773C30.0066 43.1031 29.7194 41.0261 29.3479 38.9634C29.2893 38.6368 28.8592 38.2128 28.5363 38.1455C28.2063 38.0782 27.7319 38.3174 27.4433 38.5666C27.1761 38.7973 27.0461 39.2069 26.896 39.555C25.3358 43.1719 22.6368 45.5082 18.9204 46.7057C18.116 46.965 17.3101 47.2142 16.5157 47.4649C17.0072 50.8082 17.4888 54.0799 17.9788 57.4074ZM15.1284 47.7414C11.5149 48.2685 8.01287 48.7799 4.51085 49.2927C3.24778 49.4775 2.35763 50.1751 1.89755 51.354C1.17172 53.2118 1.33889 55.0568 2.17617 56.833C3.05203 58.688 4.39655 59.3727 6.40117 59.0676C7.48278 58.9029 8.56439 58.741 9.64457 58.5749C11.9192 58.2254 14.1925 57.873 16.5615 57.5063C16.0828 54.2446 15.6099 51.0245 15.1284 47.7414ZM9.30023 60.0789C9.37453 60.2508 9.38881 60.3267 9.43168 60.3769C11.4892 62.845 13.5424 65.3173 15.6141 67.774C16.1099 68.3627 16.8501 68.5346 17.5602 68.1464C18.4846 67.6393 19.3462 67.0162 20.2778 66.4146C18.4232 64.0625 16.6443 61.7993 14.8497 59.5489C14.7554 59.4315 14.5225 59.3441 14.3697 59.3641C12.7037 59.5862 11.0405 59.8311 9.30023 60.0789Z" fill="#0076A2"/>
<path d="M55.0762 25.3757C54.9219 25.3284 54.6418 25.2697 54.3846 25.1594C49.4938 23.0494 44.6044 20.9352 39.715 18.8195C38.3619 18.2336 38.0976 17.5976 38.6863 16.2253C40.7723 11.3651 42.867 6.51055 44.9687 1.65746C45.4988 0.434161 46.189 0.163431 47.4249 0.694864C52.3614 2.81917 57.2937 4.95206 62.2259 7.08925C63.2218 7.52042 63.5219 8.2968 63.0889 9.30523C60.9443 14.2944 58.7882 19.2793 56.6464 24.2713C56.3664 24.9231 55.932 25.3199 55.0762 25.3757ZM61.9302 8.4959C56.765 6.26131 51.6484 4.04819 46.4619 1.805C44.2201 7.00044 42.0097 12.1214 39.7836 17.2782C44.9873 19.5271 50.1025 21.7388 55.2605 23.9691C57.498 18.7765 59.6998 13.667 61.9302 8.4959Z" fill="#0076A2"/>
<path d="M44.0156 72.146C44.0613 71.9913 44.1171 71.7077 44.2285 71.4498C46.346 66.528 48.4678 61.6076 50.5939 56.6886C51.0768 55.5727 51.8269 55.259 52.9528 55.7417C57.9323 57.8818 62.9074 60.0348 67.8811 62.192C68.8584 62.616 69.1256 63.4182 68.6598 64.5025C67.1681 67.9833 65.6636 71.457 64.1633 74.9349C63.5403 76.3774 62.9174 77.8213 62.2958 79.2638C61.81 80.3911 61.0756 80.6991 59.9555 80.2149C55.0003 78.0763 50.0509 75.9276 45.0944 73.7947C44.4057 73.4996 44.0199 73.0341 44.0156 72.146ZM67.5067 63.6516C67.4138 63.5628 67.3996 63.5399 67.3781 63.5313C62.4273 61.3827 57.475 59.2383 52.5285 57.0825C52.077 56.8848 51.9627 57.1183 51.8126 57.4664C50.281 61.0332 48.7364 64.5942 47.1976 68.1581C46.6061 69.5289 46.0202 70.9041 45.3959 72.3623C50.5767 74.6026 55.6919 76.8157 60.8642 79.0532C63.0946 73.8835 65.2978 68.7726 67.5067 63.6516Z" fill="#0076A2"/>
<path d="M62.4782 27.781C63.5141 27.9787 64.6357 28.1864 65.7544 28.4084C70.0223 29.2535 74.2916 30.1001 78.558 30.9553C79.9382 31.2317 80.3626 31.8634 80.0926 33.2443C79.0867 38.3896 78.0751 43.5349 77.0563 48.6788C76.762 50.1614 76.0933 50.571 74.6045 50.2745C69.5679 49.269 64.5299 48.2677 59.4891 47.2807C57.8317 46.9556 57.4473 46.3769 57.7831 44.6823C58.7975 39.5628 59.7949 34.439 60.8065 29.318C61.0122 28.2752 61.5409 27.7839 62.4782 27.781ZM62.2738 29.192C62.1924 29.4741 62.1195 29.6733 62.0795 29.8781C61.0794 34.9489 60.0892 40.0212 59.0747 45.0891C58.969 45.6162 59.099 45.781 59.6234 45.8827C63.6598 46.6576 67.6905 47.4698 71.724 48.2663C72.9528 48.5083 74.183 48.7361 75.4904 48.9839C76.5791 43.4518 77.6579 37.9756 78.7495 32.4321C73.2143 31.3435 67.7876 30.2763 62.2738 29.192Z" fill="#0076A2"/>
<path d="M22.6891 10.5855C24.6608 10.4752 26.634 10.3721 28.6044 10.2517C29.7789 10.1787 30.4561 10.7602 30.5204 11.9305C30.8162 17.3136 31.1105 22.6967 31.4077 28.0798C31.472 29.2472 30.9362 29.8646 29.7474 29.9305C26.0411 30.1354 22.3333 30.3273 18.627 30.5278C16.9167 30.6195 15.2064 30.737 13.4961 30.8086C12.4574 30.8516 11.8516 30.2714 11.793 29.2243C11.4972 23.8656 11.2043 18.5054 10.9214 13.1453C10.8471 11.7357 11.33 11.2301 12.7103 11.1542C16.038 10.9694 19.3642 10.7746 22.6891 10.5855ZM30.0432 28.4981C29.726 22.8314 29.4145 17.2721 29.1002 11.6555C23.4535 11.9721 17.9126 12.2815 12.2973 12.5966C12.6145 18.2619 12.926 23.8183 13.2404 29.4435C18.8756 29.1255 24.4037 28.8147 30.0432 28.4981Z" fill="#0076A2"/>
<path d="M46.2124 49.5187C46.171 53.2402 45.0908 56.1409 42.8847 58.6104C42.5604 58.9742 42.2132 59.2994 41.7445 58.8897C41.2516 58.4585 41.5288 58.0661 41.8717 57.6678C46.6925 52.0599 45.4466 43.789 39.1884 39.887C38.7197 39.5948 38.4068 39.2482 38.7197 38.7354C39.0255 38.234 39.4899 38.4002 39.9071 38.6637C44.0492 41.2736 46.0395 45.0896 46.2124 49.5187Z" fill="#0076A2"/>
<path d="M40.3206 49.5075C40.2606 51.8203 39.4162 53.7477 37.9902 55.4429C37.6916 55.7983 37.3301 55.9588 36.9372 55.6464C36.5071 55.3053 36.6657 54.9428 36.9158 54.5201C37.5301 53.4826 38.2531 52.4637 38.6146 51.3345C39.3304 49.0905 38.7146 47.0356 37.1587 45.3045C36.5928 44.674 35.8327 44.2198 35.2398 43.6108C35.0354 43.4001 34.9226 42.91 35.0197 42.6392C35.1683 42.2251 35.5941 42.195 35.9799 42.4414C38.5932 44.108 40.1792 46.4022 40.3206 49.5075Z" fill="#0076A2"/>
<path d="M55.7304 10.8655C56.6491 11.2481 57.5693 11.6307 58.5723 12.0492C58.4194 12.1523 58.3294 12.2555 58.2837 12.2383C57.4149 11.9245 56.852 12.4088 56.2719 12.9491C54.7002 14.4093 53.1099 15.848 51.5097 17.2781C51.3196 17.4486 51.031 17.5088 50.7881 17.6192C50.7224 17.3784 50.6138 17.1391 50.5981 16.8941C50.5395 16.0472 50.5109 15.1989 50.4638 14.1915C49.7294 14.8564 49.1121 15.4367 48.4692 15.987C48.2677 16.159 47.9991 16.2507 47.7605 16.3796C47.6776 16.1217 47.5361 15.8652 47.5233 15.6044C47.4204 13.4334 47.3461 11.2624 47.2504 9.09148C47.2189 8.39218 47.3733 7.60834 46.3359 7.29165C46.4217 7.21284 46.506 7.13545 46.5917 7.05664C47.519 7.43638 48.4463 7.81755 49.3736 8.1973C49.365 8.25175 49.355 8.30764 49.3464 8.36209C49.2236 8.38788 49.0964 8.4452 48.9764 8.43517C48.5177 8.39648 48.3806 8.65728 48.3949 9.04706C48.4663 11.0246 48.5449 13.0007 48.6306 15.1946C49.2936 14.587 49.8351 14.1084 50.3495 13.6011C50.4452 13.5065 50.4609 13.293 50.4566 13.1368C50.4209 12.0391 50.4252 10.9357 50.298 9.84666C50.2409 9.36088 49.9065 8.90949 49.6465 8.3277C50.5809 8.71317 51.5068 9.09434 52.5784 9.5357C51.4682 9.90828 51.4711 9.90828 51.4911 10.9973C51.4997 11.4459 51.4925 11.893 51.6611 12.4404C52.2041 11.936 52.7699 11.4502 53.2714 10.9071C53.3628 10.8082 53.2485 10.437 53.1328 10.2522C53.0099 10.0544 52.7713 9.92977 52.5841 9.77215C52.6199 9.71053 52.6541 9.65034 52.6899 9.58872C53.5986 9.9742 54.5073 10.3582 55.4475 10.7566C55.3432 10.8913 55.3032 10.9644 55.2889 10.9587C54.4187 10.6649 53.8701 11.165 53.2128 11.6451C51.8969 12.6066 51.2496 13.7501 51.6368 15.3966C51.6997 15.6617 51.6454 15.9555 51.6454 16.4083C51.934 16.1933 52.1026 16.0887 52.2455 15.9583C53.4657 14.8564 54.6816 13.7487 55.899 12.6424C56.6534 11.956 56.652 11.956 55.8275 11.2782C55.7461 11.2109 55.6904 11.1106 55.6218 11.026C55.6589 10.973 55.6947 10.9185 55.7304 10.8655Z" fill="#0076A2"/>
<path d="M58.5315 72.4013C58.4101 72.3684 58.1229 72.3297 57.8671 72.2193C55.9482 71.3939 54.0308 70.5614 52.119 69.7174C50.936 69.1943 50.5888 68.3016 51.0889 67.1036C51.4732 66.1808 51.8618 65.2608 52.2648 64.3465C52.8063 63.1142 53.6964 62.7316 54.9209 63.2503C56.8441 64.0657 58.7601 64.9011 60.6676 65.7552C61.7807 66.2538 62.1236 67.1394 61.6635 68.2743C61.242 69.3104 60.7933 70.335 60.3318 71.3524C60.0175 72.0402 59.4631 72.4028 58.5315 72.4013ZM57.9986 68.4105C57.2356 67.469 56.5883 66.6723 55.8711 65.7895C55.441 66.8055 55.0667 67.6868 54.648 68.6756C55.7911 68.5853 56.797 68.5051 57.9986 68.4105Z" fill="#0076A2"/>
<path d="M68.9968 37.6049C69.2254 37.1449 69.3626 36.725 69.614 36.394C70.2756 35.5228 71.5986 35.3049 72.4116 36.03C72.9889 36.5445 73.5361 36.6477 74.2848 36.5201C74.0376 36.7824 73.7919 37.0446 73.5018 37.3512C73.7676 37.3326 74.0005 37.3154 74.2334 37.2982C73.1375 37.6651 73.1889 38.7427 72.8217 39.5451C71.2886 42.8926 67.1293 44.0218 64.1402 41.8881C63.9902 41.7806 63.8588 41.6488 63.7188 41.5284C64.2074 41.5284 64.6718 41.5714 65.1247 41.5155C65.5562 41.4625 65.9748 41.3048 66.3278 41.2117C65.8391 40.6514 65.3933 40.1398 64.8118 39.4735C65.2447 39.4348 65.4133 39.419 65.6719 39.3961C65.0004 38.8272 64.5203 38.2282 64.7061 37.2853C64.8989 37.3398 65.0804 37.3914 65.3633 37.4702C64.8704 36.5559 64.7132 35.6962 65.4919 34.8335C66.2335 36.3467 67.4722 37.1478 68.9968 37.6049Z" fill="#0076A2"/>
<path d="M21.2181 20.6357C21.171 20.0023 21.1281 19.4162 21.0781 18.747C21.6082 18.6868 22.0912 18.6324 22.627 18.5722C22.6498 17.2252 22.6884 15.8724 23.8657 14.9367C24.4773 14.4509 25.4489 14.2732 26.8062 14.3864C26.8434 14.9553 26.8805 15.5357 26.9163 16.0988C25.1231 16.5947 24.7988 17.0016 25.0174 18.4561C25.4731 18.4561 25.9375 18.4561 26.479 18.4561C26.5119 19.0866 26.5433 19.6727 26.5776 20.3419C26.0918 20.4035 25.6332 20.4623 25.1202 20.5282C25.2131 22.4111 25.3031 24.2626 25.3989 26.2057C24.6573 26.2558 23.9386 26.306 23.1442 26.3604C23.0256 24.4202 22.9113 22.553 22.7956 20.6371C22.2455 20.6357 21.7568 20.6357 21.2181 20.6357Z" fill="#0076A2"/>
<path d="M10.2452 52.0468L4.8843 52.8895C4.48852 52.9512 4.11845 52.6803 4.05559 52.2833C3.99415 51.8863 4.26419 51.5151 4.65997 51.452L10.0209 50.6093C10.4167 50.5477 10.7867 50.8186 10.8496 51.2156C10.9125 51.6126 10.641 51.9852 10.2452 52.0468Z" fill="#0076A2"/>
<path d="M10.6202 55.4658L5.2593 56.3085C4.86352 56.3701 4.49345 56.0992 4.43059 55.7022C4.36915 55.3052 4.63919 54.934 5.03497 54.871L10.3959 54.0283C10.7917 53.9666 11.1617 54.2375 11.2246 54.6345C11.286 55.0315 11.016 55.4027 10.6202 55.4658Z" fill="#0076A2"/>
</svg>
