<svg width="96" height="81" viewBox="0 0 96 81" fill="none" xmlns="http://www.w3.org/2000/svg">
<path d="M92.4665 19.0296C91.5765 19.0296 90.7525 19.0296 89.9285 19.0296C85.1293 19.0296 80.3236 19.0296 75.5244 19.0296C74.0214 19.0296 73.4676 18.5759 73.461 17.3365C73.4544 14.9186 73.4544 12.5007 73.461 10.0828C73.461 9.02052 74.0543 8.40083 75.03 8.40636C75.9991 8.4119 76.5858 9.03159 76.5858 10.0939C76.5924 12.1522 76.5858 14.2049 76.5858 16.3295C81.0685 16.3295 85.5117 16.3295 90.0735 16.3295C89.8428 16.1027 89.678 15.9201 89.4802 15.7541C84.6152 11.6597 79.7566 7.56536 74.8652 3.49312C74.5554 3.2386 74.0214 3.03942 73.5929 3.03942C56.8684 3.01729 40.1504 3.01729 23.4259 3.02282C23.1688 3.02282 22.9117 3.03942 22.5425 3.05602C22.5425 4.28433 22.5491 5.46838 22.5425 6.65796C22.5359 7.72028 21.9558 8.3455 20.9868 8.35103C20.0111 8.35657 19.4178 7.73688 19.4112 6.67455C19.4046 5.14747 19.4046 3.61484 19.4112 2.08775C19.4178 0.870508 19.9584 0.394675 21.3691 0.394675C39.1814 0.389142 57.0002 0.389143 74.8125 0.411274C75.3135 0.411274 75.9398 0.621526 76.2957 0.914771C82.5452 6.12126 88.7748 11.3499 94.9715 16.6062C95.3605 16.9381 95.6308 17.5302 95.6308 18.0005C95.6637 38.2344 95.6572 58.4628 95.6572 78.6968C95.6572 79.9361 95.1034 80.3898 93.6004 80.3898C69.5585 80.3898 45.5231 80.3898 21.4812 80.3898C21.2504 80.3898 21.0131 80.4009 20.789 80.3677C19.9781 80.2515 19.3717 79.6761 19.431 79.0343C19.4969 78.3371 19.9781 77.9111 20.789 77.7894C21.145 77.734 21.5141 77.7617 21.8767 77.7617C44.9891 77.7617 68.1016 77.7617 91.214 77.7617C91.6095 77.7617 91.9984 77.7617 92.4599 77.7617C92.4665 58.1917 92.4665 38.666 92.4665 19.0296Z" fill="#0076A2"/>
<path d="M25.2614 19.3007C22.7761 17.5578 20.3634 15.8758 17.9111 14.155C16.3487 15.4663 14.8061 16.7223 13.3294 18.0281C13.0855 18.2439 13.0262 18.681 13.0262 19.0129C13.013 27.8214 13.0064 36.6353 13.0262 45.4438C13.0262 46.3512 12.6702 46.9321 11.7143 47.3969C6.27573 50.0417 3.53336 54.0309 3.47403 59.3149C3.47403 59.5362 3.48723 59.7575 3.49382 59.9843C3.52678 61.0688 3.00598 61.6774 2.03032 61.7161C1.08763 61.7493 0.428413 61.1518 0.38886 60.0729C0.151539 53.9922 2.95982 49.173 8.97854 45.7426C9.67732 45.3442 9.90147 44.9569 9.90147 44.2708C9.8751 35.6284 9.89489 26.9859 9.86852 18.3435C9.86852 17.5301 10.1388 16.9215 10.8442 16.3571C12.6834 14.8743 14.4633 13.3417 16.263 11.8257C17.4166 10.8574 18.0033 10.8187 19.2361 11.6763C22.163 13.7179 25.09 15.7651 28.0104 17.8123C29.0981 18.5758 29.2893 19.1734 28.3598 20.0919C26.1514 22.2663 25.5317 24.7063 25.6438 27.5392C25.7295 29.6085 26.0459 31.2961 28.1291 32.5908C28.5839 32.873 28.8739 33.5922 28.8805 34.1123C28.9465 37.5593 28.9267 41.0064 28.9003 44.4479C28.8937 45.0011 29.0915 45.3221 29.665 45.654C36.3627 49.5382 39.4545 54.9328 38.1229 61.6663C36.7649 68.5383 31.6955 72.9148 23.6331 74.6355C15.373 76.395 6.38121 72.8539 2.53134 66.4855C2.02374 65.6445 2.20833 64.892 2.9994 64.5269C3.84321 64.1396 4.71337 64.4162 5.2869 65.2738C8.39184 69.8994 13.0921 72.356 19.4273 72.4224C26.6326 72.4943 32.9348 68.3446 34.8136 62.4354C36.6198 56.7365 33.5479 50.4953 27.3775 47.5629C26.1711 46.9875 25.7294 46.318 25.7558 45.1727C25.8349 41.781 25.802 38.3893 25.7558 35.0031C25.7492 34.5882 25.5251 34.0293 25.1625 33.797C23.0398 32.4469 22.2685 30.7372 22.5652 28.513C22.7761 26.9195 22.5454 25.2928 22.6377 23.6827C22.6707 23.0575 22.9541 22.3991 23.3101 21.8403C23.8441 20.9771 24.5494 20.2025 25.2614 19.3007Z" fill="#0076A2"/>
<path d="M86.1392 61.5782C86.1392 61.2462 86.1326 60.9087 86.1392 60.5767C86.1523 59.8187 86.6401 59.3539 87.5037 59.282C88.3607 59.2101 89.0925 59.5808 89.1386 60.3167C89.2111 61.5837 89.277 62.8895 89.0068 64.1233C87.5828 70.5471 81.017 75.0896 73.3502 75.0619C65.7361 75.0343 59.1373 70.4585 57.8386 64.0791C56.7706 58.8449 58.8077 54.4241 63.831 51.1984C68.8213 47.9948 74.3456 47.5854 80.127 49.6768C80.8456 49.9369 81.3861 50.2965 81.3729 51.0213C81.3532 52.0671 80.2127 52.5595 78.9008 52.0671C76.4485 51.1431 73.9171 50.8443 71.2538 51.2039C65.2549 52.0117 60.693 56.5598 60.693 61.7718C60.693 66.9175 65.2615 71.4711 71.2275 72.2678C79.2371 73.3412 86.2249 68.345 86.1392 61.5782Z" fill="#0076A2"/>
<path d="M51.1809 32.4258C56.7447 32.4258 62.3086 32.4258 67.8658 32.4258C68.1954 32.4258 68.5382 32.4037 68.8547 32.4535C69.6655 32.5808 70.1468 33.0071 70.2127 33.699C70.272 34.3412 69.6721 34.9169 68.8547 35.0332C68.5646 35.0719 68.2614 35.0609 67.9647 35.0609C56.7711 35.0609 45.5841 35.0609 34.3904 35.0609C34.0608 35.0609 33.718 35.083 33.4016 35.0221C32.6039 34.856 32.1293 34.4076 32.149 33.7101C32.1688 33.0514 32.6435 32.6306 33.4016 32.4756C33.718 32.4147 34.0608 32.4369 34.3904 32.4369C39.9872 32.4203 45.584 32.4258 51.1809 32.4258Z" fill="#0076A2"/>
<path d="M16.2334 32.397C16.2334 28.5904 16.2334 24.7837 16.2334 20.9771C16.2334 20.7004 16.2004 20.4127 16.2795 20.1471C16.4707 19.4776 17.0047 19.0737 17.8353 19.0903C18.6198 19.1014 19.1208 19.4998 19.312 20.1305C19.3911 20.3961 19.3647 20.6838 19.3647 20.9605C19.3647 28.5738 19.3647 36.1871 19.3647 43.8004C19.3647 43.9111 19.3647 44.0217 19.3647 44.1324C19.3383 45.1117 18.7121 45.7204 17.7628 45.6982C16.853 45.6761 16.2466 45.0841 16.24 44.149C16.2268 41.1225 16.2334 38.0904 16.2334 35.0639C16.2334 34.1787 16.2334 33.2879 16.2334 32.397Z" fill="#0076A2"/>
<path d="M25.721 64.4738C25.6814 67.3686 22.7874 69.7543 19.3397 69.7266C15.8458 69.6989 12.9913 67.2413 13.0639 64.3078C13.1298 61.4074 16.0304 59.055 19.4913 59.0937C22.939 59.138 25.7605 61.5734 25.721 64.4738ZM19.3792 61.7229C17.6191 61.7229 16.1688 62.9627 16.1952 64.4406C16.2215 65.8908 17.6323 67.0808 19.3594 67.0974C21.1262 67.114 22.5897 65.9019 22.5963 64.4185C22.5963 62.9351 21.1526 61.7229 19.3792 61.7229Z" fill="#0076A2"/>
<path d="M68.567 29.7141C64.5919 29.7141 60.6233 29.7141 56.6482 29.7141C56.3186 29.7141 55.9758 29.7362 55.6593 29.6753C54.8617 29.5092 54.3871 29.0553 54.4068 28.3578C54.4266 27.699 54.9012 27.2838 55.6593 27.1233C55.8769 27.0735 56.1208 27.0845 56.3516 27.0845C64.5655 27.0845 72.7729 27.0845 80.9868 27.0845C81.0527 27.0845 81.1186 27.0845 81.1846 27.0845C82.2261 27.1233 82.9117 27.616 82.9447 28.3578C82.9776 29.1273 82.2657 29.703 81.1846 29.7085C77.7104 29.7251 74.2297 29.7141 70.7556 29.7141C70.0239 29.7141 69.2921 29.7141 68.567 29.7141Z" fill="#0076A2"/>
<path d="M73.5277 63.6619C76.2371 61.066 78.8476 58.5586 81.4582 56.0512C82.0449 55.4866 82.625 54.9165 83.2249 54.3575C83.983 53.6545 84.8598 53.5604 85.5717 54.0918C86.2639 54.601 86.3233 55.3427 85.6245 56.018C81.9987 59.5217 78.3664 63.0143 74.7077 66.4903C73.8375 67.3151 72.8487 67.2486 72.0379 66.3575C70.5546 64.7247 69.0845 63.0807 67.6276 61.4313C66.8893 60.601 66.9355 59.8759 67.7199 59.3778C68.5044 58.8741 69.3548 59.0346 70.0931 59.8427C71.227 61.0826 72.3345 62.328 73.5277 63.6619Z" fill="#0076A2"/>
<path d="M44.7283 40.3913C41.1553 40.3913 37.5757 40.3968 34.0027 40.3857C32.8161 40.3802 32.0448 39.7713 32.1502 38.9519C32.2425 38.1991 32.9347 37.7617 34.095 37.7617C39.2237 37.7562 44.3591 37.7617 49.4879 37.7617C51.5051 37.7617 53.5289 37.7562 55.5461 37.7617C56.7855 37.7673 57.537 38.2932 57.504 39.1125C57.4711 39.9041 56.7525 40.3857 55.5527 40.3857C51.9468 40.3968 48.3342 40.3913 44.7283 40.3913Z" fill="#0076A2"/>
<path d="M41.541 29.7141C39.0228 29.7141 36.5111 29.7196 33.9929 29.7085C32.8392 29.703 32.1009 29.1494 32.1339 28.3523C32.1668 27.6381 32.8195 27.0901 33.7951 27.0901C39.0228 27.0735 44.257 27.0735 49.4847 27.0901C50.4537 27.0956 51.113 27.6437 51.1393 28.3523C51.1723 29.0885 50.4867 29.6919 49.4781 29.6975C46.8412 29.7252 44.1911 29.7141 41.541 29.7141Z" fill="#0076A2"/>
<path d="M78.1481 35.0503C77.1526 35.0503 76.1638 35.0669 75.1683 35.0447C74.1465 35.0226 73.4609 34.4745 73.4609 33.7327C73.4609 32.9965 74.1465 32.4373 75.1683 32.4263C77.1856 32.4041 79.2094 32.4041 81.2266 32.4263C82.2484 32.4373 82.934 32.9909 82.934 33.7327C82.934 34.469 82.2484 35.0171 81.2266 35.0447C80.1982 35.0724 79.1764 35.0503 78.1481 35.0503Z" fill="#0076A2"/>
</svg>
