<svg width="100" height="101" viewBox="0 0 100 101" fill="none" xmlns="http://www.w3.org/2000/svg">
<circle cx="50" cy="50.436" r="50" fill="white"/>
<circle cx="50" cy="50.436" r="49" stroke="#0076A2" stroke-opacity="0.5" stroke-width="2"/>
<path d="M82.6326 50.8127C82.6326 52.2401 82.6519 53.6675 82.627 55.0921C82.5912 57.3809 81.1283 58.8939 78.843 58.9795C77.601 59.0264 76.3506 59.0678 75.1169 58.9684C74.1343 58.8884 73.8197 59.4212 73.6071 60.1805C73.3946 60.9397 72.5666 61.6327 73.6071 62.4803C74.6008 63.292 75.4729 64.2583 76.3479 65.1998C77.8218 66.7845 77.8466 68.8524 76.3479 70.4068C74.2723 72.5603 72.1553 74.6752 70.0052 76.7541C68.4044 78.3057 66.3343 78.2643 64.6949 76.7293C63.991 76.0694 63.2514 75.4234 62.6552 74.6724C61.7913 73.5846 60.9467 73.3168 59.6439 74.0291C58.849 74.4653 58.4516 74.8242 58.5206 75.763C58.6062 76.9529 58.5813 78.1566 58.5289 79.3493C58.4295 81.5719 56.9308 83.0379 54.72 83.0628C51.8219 83.0959 48.9211 83.0931 46.023 83.0655C43.6549 83.0434 42.1672 81.5608 42.0982 79.1809C42.0623 77.9385 42.0237 76.6906 42.1092 75.4537C42.2113 73.9711 40.8699 74.2417 40.1744 73.7365C39.592 73.314 39.1283 73.488 38.6481 74.0153C37.7814 74.9678 36.8596 75.8706 35.9211 76.7514C34.2927 78.2781 32.2116 78.2864 30.6108 76.7293C28.4993 74.6752 26.4182 72.5907 24.3647 70.4814C22.8025 68.8745 22.8053 66.7983 24.3206 65.1666C24.9775 64.4598 25.6178 63.7116 26.3796 63.1319C27.5692 62.229 27.7292 61.3014 27.0033 59.9955C26.6225 59.3108 26.3271 58.9187 25.4881 58.9712C24.2957 59.0457 23.0951 59.0181 21.9 58.985C19.5346 58.9187 18.0359 57.4085 18.0166 55.0507C17.9945 52.1987 17.9945 49.3439 18.0166 46.4919C18.0331 44.1231 19.5236 42.6046 21.8751 42.5356C23.0261 42.5024 24.1798 42.4638 25.3252 42.5494C26.2636 42.6212 26.6225 42.2208 27.0586 41.4229C27.7789 40.1087 27.4698 39.2722 26.4017 38.408C25.6178 37.7758 24.9305 37.0165 24.2516 36.2683C22.8522 34.725 22.8136 32.6571 24.2516 31.1607C26.3547 28.9713 28.5076 26.8261 30.6936 24.7167C32.2447 23.2203 34.3037 23.2645 35.9018 24.7416C36.6112 25.3959 37.2736 26.1027 37.9553 26.7874C39.3326 28.1679 40.0916 28.2645 41.6621 27.1353C41.9215 26.9476 42.0623 26.4561 42.0761 26.0944C42.1285 24.899 42.0789 23.7007 42.1009 22.5053C42.1451 19.9487 43.6135 18.4633 46.1362 18.4495C48.9431 18.4329 51.7501 18.4302 54.5571 18.4495C56.9998 18.4661 58.4875 19.9514 58.5454 22.4142C58.5675 23.3805 58.6255 24.3551 58.5316 25.3103C58.4102 26.5279 58.7718 27.1767 60.011 27.6461C61.0516 28.0381 61.645 27.9884 62.3516 27.1629C63.1244 26.2546 63.9966 25.4235 64.8853 24.6256C66.3675 23.2921 68.4486 23.2673 69.8893 24.6505C72.1139 26.7847 74.2999 28.9602 76.4279 31.191C77.8604 32.6902 77.7997 34.7609 76.3755 36.2987C75.4702 37.2788 74.4379 38.1457 73.5851 39.1645C73.3008 39.5041 73.1821 40.2744 73.3725 40.6554C73.7286 41.3732 73.5409 42.6212 74.9513 42.5466C76.2347 42.4776 77.5292 42.5024 78.8154 42.5411C81.1035 42.6101 82.5939 44.1203 82.6326 46.3953C82.6519 47.8669 82.6326 49.3384 82.6326 50.8127ZM50.2983 20.1309C48.9183 20.1309 47.5355 20.1088 46.1555 20.1364C44.596 20.1668 43.8701 20.8625 43.8177 22.4114C43.7735 23.7449 43.7377 25.0839 43.8232 26.4119C43.9088 27.6875 43.5941 28.5102 42.2086 28.8112C41.4164 28.9823 40.7126 29.5566 39.9205 29.7333C39.4043 29.8493 38.6481 29.7581 38.2644 29.4406C37.1714 28.5323 36.2192 27.4556 35.2063 26.4534C33.7048 24.968 32.8271 24.9625 31.3615 26.4257C29.9925 27.7896 28.6318 29.1618 27.26 30.5257C24.0749 33.6979 23.9783 33.8029 27.3014 36.8592C29.1452 38.5544 30.125 40.0867 28.4662 42.3727C28.284 42.6239 28.3171 43.0601 28.1046 43.2534C27.6851 43.6399 27.1828 44.1562 26.6804 44.1949C25.1265 44.3191 23.5533 44.2114 21.9911 44.2528C20.4979 44.2943 19.7223 45.0149 19.703 46.4367C19.6643 49.3357 19.6643 52.2346 19.703 55.1335C19.7195 56.4367 20.4647 57.1794 21.7675 57.2539C22.8218 57.3174 23.8845 57.276 24.9416 57.276C27.6575 57.276 27.6547 57.276 28.6842 59.7083C28.8802 60.1749 29.0596 60.6526 29.3163 61.086C29.7469 61.8094 29.5813 62.3422 28.9906 62.9027C27.8231 64.0098 26.6804 65.1473 25.5792 66.3234C24.6407 67.3229 24.6131 68.2864 25.5516 69.2583C27.5995 71.3759 29.6834 73.4548 31.7976 75.5062C32.7553 76.4366 33.749 76.4173 34.7398 75.5117C35.5872 74.7359 36.3765 73.8966 37.188 73.0821C38.9103 71.3538 38.9075 71.3538 41.0907 72.2815C41.5544 72.4802 42.0154 72.7232 42.5039 72.8281C43.5776 73.0545 43.8646 73.7144 43.8205 74.7331C43.7597 76.1578 43.7791 77.5851 43.8122 79.0125C43.8536 80.647 44.574 81.3676 46.1996 81.3814C48.9597 81.4062 51.7225 81.4062 54.4826 81.3841C56.031 81.3703 56.7679 80.6525 56.8231 79.1064C56.8701 77.7287 56.9032 76.3427 56.8176 74.9678C56.7431 73.7889 57.0495 73.0573 58.3025 72.7619C59.0947 72.5769 59.8592 72.1903 60.5768 71.7873C61.3635 71.3455 61.9182 71.4974 62.5117 72.1324C63.5494 73.2395 64.6341 74.3052 65.7271 75.3571C66.8836 76.4697 67.8358 76.4918 68.9647 75.3847C70.9713 73.4217 72.9558 71.4339 74.9182 69.4295C76.047 68.2754 76.0443 67.356 74.9347 66.1937C73.8555 65.0617 72.6908 64.0071 71.6475 62.8447C71.3411 62.5051 71.0403 61.7183 71.2169 61.4615C72.1167 60.139 71.8241 58.1402 73.5354 57.3146C73.7976 57.1876 74.1702 57.287 74.4931 57.287C75.9201 57.2843 77.347 57.3229 78.7712 57.2649C80.1651 57.207 80.9158 56.4643 80.9324 55.0949C80.9682 52.1959 80.971 49.297 80.9296 46.3981C80.913 45.0894 80.1816 44.3522 78.8761 44.2639C77.8687 44.1976 76.853 44.2363 75.84 44.2363C72.9834 44.2363 72.9861 44.239 71.8959 41.6935C71.7165 41.2711 71.5564 40.8321 71.3218 40.4428C70.8912 39.725 71.0458 39.1838 71.6364 38.6234C72.804 37.5163 73.9466 36.376 75.0507 35.2054C75.9808 34.2198 76.0139 33.2314 75.0838 32.2706C73.0358 30.1557 70.9519 28.074 68.8405 26.0199C67.8965 25.1005 66.867 25.1226 65.89 26.0171C65.0426 26.7929 64.2533 27.6323 63.4418 28.4495C61.7306 30.1668 61.7333 30.164 59.5418 29.2419C59.0754 29.0458 58.6172 28.8001 58.1287 28.7007C57.0495 28.4771 56.7707 27.8172 56.8176 26.7985C56.8811 25.4208 56.8563 24.0376 56.8287 22.6571C56.7928 20.8487 56.089 20.1585 54.2977 20.1419C52.9673 20.1226 51.6315 20.1309 50.2983 20.1309Z" fill="#0076A2"/>
<path d="M68.8207 51.6018C67.9899 51.6018 67.264 51.6267 66.5436 51.5963C65.3402 51.5439 65.0062 50.9917 65.6576 50.0336C66.6899 48.5124 67.7801 47.0298 68.8621 45.5417C69.4389 44.7465 70.0434 44.7438 70.623 45.55C71.6967 47.0436 72.7952 48.5179 73.8192 50.0447C74.4264 50.9475 74.1062 51.5301 73.0353 51.5908C72.2652 51.635 71.4897 51.5991 70.6672 51.5991C70.4767 52.8387 70.3635 53.9762 70.1207 55.0861C68.3128 63.3991 61.3768 69.763 52.9641 70.8646C44.51 71.9717 36.227 67.6399 32.3132 60.0557C32.1255 59.6913 31.8744 59.313 31.8385 58.9265C31.8109 58.6283 32.0124 58.0927 32.2166 58.0347C32.5313 57.9464 33.0032 58.0899 33.2792 58.3025C33.5414 58.5068 33.6353 58.9293 33.8064 59.255C37.6319 66.5687 45.5202 70.4394 53.6817 69.0038C61.5341 67.6233 67.6752 61.1435 68.7517 53.09C68.8069 52.651 68.7931 52.1982 68.8207 51.6018ZM71.6359 49.8459C70.899 48.8796 70.3277 48.1314 69.6901 47.2976C69.0277 48.2308 68.5088 48.9597 67.8795 49.8459C69.185 49.8459 70.2559 49.8459 71.6359 49.8459Z" fill="#0076A2"/>
<path d="M30.043 49.9178C30.3246 45.6549 31.6329 41.9415 34.081 38.6395C42.5848 27.168 60.2355 27.9824 67.6325 40.1966C67.8698 40.5887 68.1845 40.9807 68.2645 41.4114C68.3363 41.7869 68.1293 42.2149 68.0437 42.6179C67.6297 42.4661 67.0611 42.4385 66.8237 42.1458C65.5265 40.5473 64.5163 38.6588 63.0259 37.2839C57.5499 32.2342 51.0996 30.8317 44.1001 33.3303C37.0315 35.8538 33.0543 41.1243 31.8813 48.5207C31.8178 48.9211 31.8399 49.3324 31.8123 49.9205C32.701 49.9205 33.518 49.8708 34.3267 49.9343C35.232 50.0061 35.6156 50.539 35.0774 51.3369C33.9734 52.9768 32.8031 54.5726 31.6246 56.1574C31.1609 56.7813 30.5813 56.7178 30.1369 56.116C28.9915 54.5616 27.846 53.0044 26.7724 51.4004C26.2204 50.5776 26.5571 49.9923 27.5507 49.9288C28.329 49.8791 29.1074 49.9178 30.043 49.9178ZM32.7617 51.6792C31.4231 51.6792 30.3522 51.6792 29.0411 51.6792C29.7008 52.6013 30.2445 53.3634 30.8876 54.2579C31.5224 53.3827 32.0745 52.6234 32.7617 51.6792Z" fill="#0076A2"/>
<path d="M43.9063 50.7872C43.8925 47.2201 46.7023 44.3681 50.26 44.3405C53.8895 44.3129 56.7544 47.1704 56.7379 50.801C56.7213 54.3653 53.884 57.1815 50.3152 57.1759C46.7409 57.1704 43.9201 54.3571 43.9063 50.7872ZM55.0432 50.7983C55.0597 48.1699 52.9787 46.055 50.3593 46.0357C47.7345 46.0192 45.6203 48.1009 45.5982 50.721C45.5761 53.3438 47.6655 55.4642 50.2821 55.4807C52.9096 55.4973 55.0266 53.4128 55.0432 50.7983Z" fill="#0076A2"/>
</svg>
