<svg width="100" height="101" viewBox="0 0 100 101" fill="none" xmlns="http://www.w3.org/2000/svg">
<circle cx="50" cy="50.436" r="50" fill="white"/>
<circle cx="50" cy="50.436" r="49" stroke="#0076A2" stroke-opacity="0.5" stroke-width="2"/>
<path d="M42.8144 82.0796C42.6797 81.6354 42.4372 81.1942 42.4252 80.7441C42.3803 78.9944 42.4073 77.2417 42.4073 75.417C42.0481 75.384 41.7607 75.387 41.4853 75.327C41.0543 75.231 40.5814 75.177 40.2162 74.9579C38.2616 73.7814 38.8423 71.8247 38.8602 70.096C38.8752 68.8085 39.7073 68.0282 41.0842 67.6441C41.2579 67.5961 41.4345 67.5481 41.7128 67.47C40.5904 64.2288 39.4619 61.0416 38.4082 57.8334C38.2616 57.3832 38.3214 56.7319 38.5459 56.3148C42.0002 49.9133 45.4904 43.5299 48.9926 37.1555C49.2859 36.6213 49.6511 35.826 50.0971 35.7389C51.1088 35.5379 50.9233 36.6993 51.2256 37.2395C54.7397 43.5659 58.203 49.9193 61.6363 56.2908C61.8758 56.7349 61.9207 57.4372 61.759 57.9234C60.7174 61.1016 59.5949 64.2558 58.5023 67.41C60.9808 68.4814 62.0224 71.2635 60.9179 73.7094C60.3761 74.9099 59.3614 75.348 57.9964 75.378C57.9964 77.1847 58.0234 78.9704 57.9785 80.7561C57.9665 81.2002 57.7181 81.6414 57.5804 82.0826C52.6564 82.0796 47.7354 82.0796 42.8144 82.0796ZM49.5433 39.3253C49.4685 39.3103 49.3937 39.2923 49.3188 39.2773C46.2297 44.9344 43.1377 50.5946 39.9258 56.4798C41.4015 56.4798 42.6198 56.4288 43.8261 56.5099C44.2422 56.5369 44.6343 56.9 45.0354 57.1071C44.6373 57.3322 44.2482 57.7223 43.8381 57.7493C42.548 57.8334 41.2489 57.7793 39.9468 57.7793C39.9348 58.0134 39.8929 58.1335 39.9258 58.2265C40.9286 61.1526 41.9224 64.0817 42.979 66.9868C43.0718 67.2419 43.5717 67.5 43.883 67.503C48.0197 67.536 52.1535 67.509 56.2903 67.5451C56.9548 67.5511 57.1912 67.2779 57.3708 66.7137C57.8767 65.1531 58.4275 63.6106 58.9603 62.059C59.4272 60.6934 59.8942 59.3279 60.424 57.7763C58.9543 57.7763 57.6582 57.8274 56.3711 57.7463C55.952 57.7193 55.2366 57.3772 55.2067 57.1161C55.1199 56.3328 55.8472 56.4888 56.3352 56.4828C57.5744 56.4648 58.8166 56.4768 60.2773 56.4768C57.1284 50.7146 54.1081 45.1895 51.0879 39.6644C50.8544 44.0341 50.8394 48.3197 50.8873 52.6054C50.8903 52.8965 51.3303 53.2986 51.6566 53.4487C53.4855 54.286 54.5272 56.1467 54.1321 57.9894C53.713 59.9402 52.1026 61.2427 50.133 61.2246C48.2353 61.2066 46.6608 59.8861 46.2567 57.9774C45.8676 56.1437 46.9032 54.178 48.7681 53.4907C49.4595 53.2356 49.5583 52.8845 49.5553 52.2662C49.5344 48.938 49.5433 45.6157 49.5433 42.2904C49.5433 41.3031 49.5433 40.3127 49.5433 39.3253ZM49.9564 74.0185C49.9564 74.0155 49.9564 74.0155 49.9564 74.0125C52.1535 74.0125 54.3506 74.0125 56.5447 74.0125C59.8942 74.0155 59.9092 74.0005 59.8403 70.6602C59.8134 69.3848 59.2327 68.8716 57.9575 68.8806C53.0455 68.9196 48.1305 68.9646 43.2185 68.9526C40.1713 68.9436 40.0875 68.9826 40.1204 72.0348C40.1354 73.5533 40.5993 74.0155 42.1349 74.0185C44.7421 74.0215 47.3492 74.0185 49.9564 74.0185ZM43.7483 80.657C48.1095 80.657 52.366 80.657 56.6225 80.657C56.6225 78.8624 56.6225 77.1607 56.6225 75.4351C52.2972 75.4351 48.0407 75.4351 43.7483 75.4351C43.7483 77.2057 43.7483 78.8804 43.7483 80.657ZM52.8869 57.2181C52.8839 55.7416 51.6596 54.5051 50.1959 54.5051C48.7321 54.5051 47.4989 55.7416 47.4989 57.2121C47.4989 58.6977 48.7022 59.9041 50.1899 59.9071C51.6806 59.9101 52.8899 58.7037 52.8869 57.2181Z" fill="#0076A2"/>
<path d="M20 25.5677C20.1227 25.3516 20.2604 25.1415 20.3712 24.9194C21.1674 23.2808 22.4755 22.4014 24.2894 22.4675C26.0555 22.5305 27.3306 23.4639 27.9472 25.1175C28.1927 25.7777 28.507 25.9548 29.1535 25.9518C34.4816 25.9338 39.8097 25.9308 45.1378 25.9518C45.8532 25.9548 46.1046 25.7417 46.1166 25.0004C46.1585 22.4495 46.1855 22.4495 48.7866 22.4495C50.2414 22.4495 51.6931 22.4795 53.1449 22.4375C53.9471 22.4135 54.2764 22.6896 54.3003 23.5239C54.3692 25.9428 54.3931 25.9428 56.7937 25.9428C61.5621 25.9428 66.3334 25.9278 71.1017 25.9578C71.8321 25.9608 72.2003 25.7867 72.4787 25.0394C73.1671 23.1817 75.1098 22.1524 76.9656 22.5095C78.9322 22.8876 80.3391 24.5503 80.366 26.531C80.393 28.5058 79.0131 30.2344 77.0794 30.6486C75.1846 31.0567 73.1911 30.0303 72.4787 28.1366C72.2003 27.3923 71.8321 27.2123 71.1017 27.2183C67.4888 27.2513 63.8729 27.2303 60.257 27.2363C59.9756 27.2363 59.6942 27.2753 59.1884 27.3143C60.691 28.0436 62.029 28.5778 63.2443 29.3161C64.735 30.2224 66.1508 31.2638 67.5307 32.3322C67.8271 32.5633 67.8301 33.1725 67.9678 33.6047C67.5517 33.5087 67.0249 33.5387 66.7345 33.2956C63.2922 30.4055 59.3859 28.5148 54.9798 27.6624C54.8032 27.6294 54.6206 27.6294 54.2823 27.5994C54.2823 28.3197 54.2644 28.9799 54.2883 29.6342C54.3123 30.3635 54.0638 30.7356 53.2616 30.7236C51.2112 30.6906 49.1638 30.6966 47.1134 30.7236C46.401 30.7326 46.0777 30.4535 46.0957 29.7392C46.1136 29.079 46.0986 28.4187 46.0986 27.4013C43.9075 28.1516 41.8511 28.6108 40.0372 29.5442C37.8371 30.6756 35.8406 32.2062 33.7602 33.5657C33.6375 33.6467 33.5507 33.8148 33.422 33.8508C33.0448 33.9618 32.6527 34.0279 32.2666 34.1089C32.3594 33.7007 32.3115 33.1455 32.5629 32.9054C34.6852 30.8797 37.1277 29.3191 39.8067 28.1336C40.3335 27.8995 40.8663 27.6835 41.3722 27.2903C41.1298 27.2693 40.8873 27.2273 40.6448 27.2273C36.8074 27.2243 32.967 27.2123 29.1296 27.2573C28.7614 27.2603 28.1927 27.5634 28.064 27.8725C27.3216 29.6372 26.0824 30.6756 24.1577 30.6936C22.233 30.7116 20.9459 29.7002 20.2305 27.9295C20.1856 27.8065 20.0808 27.7015 20 27.5874C20 26.9152 20 26.2429 20 25.5677ZM52.9234 23.812C51.0735 23.812 49.3015 23.812 47.4576 23.812C47.4576 25.6697 47.4576 27.4734 47.4576 29.3281C49.3045 29.3281 51.0975 29.3281 52.9234 29.3281C52.9234 27.4494 52.9234 25.6427 52.9234 23.812ZM21.332 26.513C21.2931 28.0316 22.4994 29.3341 24.005 29.3971C25.5646 29.4601 26.8966 28.2177 26.9385 26.6601C26.9774 25.1025 25.6993 23.773 24.1547 23.764C22.6431 23.755 21.3709 24.9944 21.332 26.513ZM76.3161 29.3971C77.8247 29.3701 79.0639 28.1036 79.0609 26.585C79.058 25.0214 77.7529 23.731 76.2023 23.767C74.6907 23.8 73.4575 25.0665 73.4545 26.585C73.4545 28.1456 74.7536 29.4241 76.3161 29.3971Z" fill="#0076A2"/>
<path d="M76.6128 48.6738C76.9121 48.6918 77.0947 48.7128 77.2773 48.7098C79.7767 48.6858 79.654 48.5568 79.645 51.0807C79.642 52.1641 79.6241 53.2476 79.651 54.331C79.669 55.1143 79.3816 55.5104 78.5495 55.4924C77.0229 55.4624 75.4933 55.4594 73.9667 55.4894C73.1196 55.5074 72.8682 55.0903 72.8831 54.316C72.9071 52.9354 72.943 51.5489 72.8712 50.1714C72.8143 49.04 73.2453 48.5688 74.3648 48.7038C74.6133 48.7338 74.8737 48.6828 75.2239 48.6648C74.7061 45.0784 73.4429 41.8582 71.5451 38.8781C71.0842 38.1548 70.5484 37.4826 70.0545 36.7803C69.7491 36.3451 69.1385 35.8679 69.8389 35.3998C70.0395 35.2647 70.7788 35.6248 71.0363 35.946C73.7512 39.3163 75.5113 43.1457 76.3494 47.3983C76.4242 47.8005 76.514 48.1996 76.6128 48.6738ZM78.3369 54.1959C78.3369 52.9054 78.3759 51.789 78.307 50.6816C78.292 50.4535 77.8999 50.0904 77.6515 50.0603C74.275 49.6672 74.0535 49.8833 74.1792 53.2626C74.1822 53.3736 74.1373 53.5267 74.1942 53.5927C74.3828 53.8118 74.5953 54.1569 74.8138 54.1689C75.9213 54.2259 77.0348 54.1959 78.3369 54.1959Z" fill="#0076A2"/>
<path d="M24.1803 48.7152C24.8658 44.4116 26.3595 40.6331 28.7481 37.2208C28.8978 37.0078 29.0145 36.7287 29.2211 36.6056C29.5264 36.4225 29.8975 36.3505 30.2418 36.2305C30.2388 36.6236 30.3076 37.0348 30.2089 37.4009C30.125 37.704 29.8377 37.9501 29.6491 38.2262C27.5298 41.3534 26.1499 44.7747 25.5602 48.4841C25.656 48.5772 25.7009 48.6672 25.7578 48.6732C27.5059 48.8533 27.5059 48.8503 27.5059 50.675C27.5059 51.9444 27.4939 53.2139 27.5089 54.4804C27.5179 55.1887 27.1946 55.4948 26.4971 55.4888C24.8957 55.4768 23.2973 55.4798 21.6959 55.4828C21.0404 55.4858 20.75 55.1587 20.75 54.5194C20.753 52.9138 20.753 51.3112 20.753 49.7056C20.753 49.0003 21.1122 48.6972 21.8007 48.7122C22.5699 48.7272 23.3452 48.7152 24.1803 48.7152ZM26.1948 50.1678C22.2676 49.5735 21.8216 49.9397 22.0461 53.394C22.0491 53.43 22.0311 53.484 22.0521 53.505C22.2646 53.7391 22.4682 54.1473 22.6986 54.1623C23.6625 54.2343 24.6353 54.2193 25.6022 54.1653C25.8087 54.1533 26.1649 53.8592 26.1709 53.6821C26.2188 52.5027 26.1948 51.3172 26.1948 50.1678Z" fill="#0076A2"/>
</svg>
