<svg width="101" height="101" viewBox="0 0 101 101" fill="none" xmlns="http://www.w3.org/2000/svg">
<circle cx="50.1797" cy="50.2969" r="50" fill="white"/>
<circle cx="50.1797" cy="50.2969" r="49" stroke="#0076A2" stroke-opacity="0.5" stroke-width="2"/>
<g clip-path="url(#clip0_765_21104)">
<path d="M38.7191 43.2512C38.454 43.2944 38.1411 43.2622 37.9311 43.3934C37.2082 43.8429 36.4357 44.0787 35.5973 44.1915C34.6982 44.3126 33.812 44.5301 32.9167 44.6842C32.1938 44.808 31.4645 44.8878 30.7416 45.0098C30.0214 45.1319 29.3068 45.2832 28.5894 45.419C28.3243 45.4694 28.0583 45.5181 27.7904 45.5538C27.0767 45.6511 26.3593 45.719 25.6501 45.8392C24.7539 45.9905 23.8658 46.1969 22.9696 46.3529C22.2614 46.4758 21.5449 46.6409 20.833 46.64C19.6046 46.6373 18.9496 46.018 18.6295 44.9154C18.3616 43.9916 18.1717 43.0072 18.1799 42.0513C18.1891 40.9018 18.4322 39.7533 18.5964 38.6075C18.6983 37.8993 18.7973 37.1855 18.9744 36.4948C19.2762 35.3205 19.6037 34.1499 19.9844 32.9996C20.4376 31.6299 20.9119 30.263 21.4596 28.9292C22.0999 27.3687 22.8943 25.8816 23.8044 24.4551C24.4915 23.379 25.2346 22.3562 26.2033 21.5204C26.7868 21.0177 27.4399 20.6278 28.2454 20.5975C28.8243 20.5755 29.2655 20.848 29.6627 21.237C30.6324 22.1846 31.6021 23.1313 32.5837 24.0661C33.4882 24.9276 34.4065 25.7743 35.3193 26.6265C36.3761 27.6127 37.4476 28.5833 38.4879 29.5869C39.2704 30.3419 40.0988 31.0749 40.7364 31.9418C41.041 32.3565 41.3997 32.4455 41.7629 32.5748C42.7629 32.9317 43.7903 33.2078 44.8004 33.5371C46.0572 33.9463 47.3048 34.3875 48.5625 34.793C49.2386 35.0104 49.9322 35.1728 50.6119 35.3801C50.8908 35.4655 51.1532 35.6022 51.511 35.7517C51.5862 35.1563 51.7045 34.5985 51.7018 34.0426C51.7009 33.8408 51.4275 33.6215 51.2449 33.4436C50.8633 33.0702 50.4477 32.7298 50.067 32.3556C49.2726 31.574 49.0047 30.4988 49.668 29.4713C50.0166 28.931 50.2771 28.3329 50.5771 27.7613C50.8771 27.1889 51.4302 27.0017 51.9935 26.8403C52.7632 26.6201 53.4531 27.0155 54.1769 27.1494C54.4053 27.1916 54.6154 27.3421 54.8438 27.3715C55.108 27.4054 55.3493 27.4219 55.6098 27.1715C56.1474 26.6522 56.7685 26.2183 57.3657 25.7633C57.5767 25.6028 57.7225 25.4505 57.6987 25.1551C57.6491 24.5505 57.6271 23.9441 57.6014 23.3377C57.5391 21.8149 58.395 21.0672 59.7628 20.7737C60.2049 20.6792 60.6159 20.4324 61.059 20.3526C61.8452 20.2104 62.6305 20.3168 63.1773 20.9471C63.6158 21.4516 63.9332 22.0626 64.2937 22.6332C64.4185 22.8314 64.4744 23.0882 64.634 23.2442C64.7845 23.3919 65.0212 23.4946 65.234 23.5267C65.9899 23.6405 66.7495 23.7487 67.5119 23.7836C67.7229 23.7937 67.9806 23.5763 68.1568 23.4029C68.6145 22.9488 69.043 22.4644 69.475 21.9846C70.2521 21.1223 71.5144 21.1874 72.395 21.7186C72.7868 21.9553 73.1574 22.2387 73.572 22.4204C74.539 22.8442 75.2628 24.1166 74.8142 25.2092C74.5628 25.8211 74.4628 26.499 74.3307 27.154C74.3041 27.288 74.4078 27.476 74.5023 27.6008C74.971 28.2237 75.4435 28.8457 75.9462 29.442C76.0682 29.5869 76.3086 29.7126 76.493 29.7108C77.1672 29.7025 77.8433 29.6557 78.5158 29.5878C79.5598 29.4823 80.6624 30.4043 80.8322 31.3877C80.9092 31.8336 81.1413 32.251 81.2606 32.6922C81.5541 33.7784 81.3826 35.0783 80.1093 35.6636C79.5304 35.9287 79.0002 36.3076 78.4727 36.6709C78.347 36.758 78.28 36.9846 78.2562 37.1562C78.1507 37.8993 78.0773 38.6469 77.98 39.3909C77.9222 39.834 78.1919 40.0817 78.4773 40.3505C79.0231 40.8633 79.5992 41.3578 80.0643 41.9394C80.6037 42.6137 80.4808 43.4063 80.1377 44.1347C79.8689 44.7053 79.4965 45.2254 79.1946 45.7814C78.7213 46.6556 77.7103 47.1473 76.7507 46.9134C76.1627 46.7703 75.5829 46.5914 75.0059 46.407C74.4124 46.2171 74.0427 46.5914 73.6454 46.9088C73.2124 47.2537 72.7886 47.6115 72.3483 47.9464C72.1134 48.1253 71.9758 48.3142 72.0033 48.6316C72.0538 49.2206 72.0767 49.8132 72.1006 50.404C72.1639 51.9938 71.2694 52.6498 69.9484 52.9901C69.7181 53.0497 69.4925 53.1277 69.2668 53.1965C70.3695 55.6743 70.9621 58.2412 71.1254 60.9437C72.2125 60.9437 73.3069 60.9437 74.3757 60.9437C74.7573 60.2878 75.1206 59.6163 75.5297 58.9732C76.1535 57.9916 77.126 57.6063 78.2314 57.588C80.2038 57.555 82.177 57.5779 84.1494 57.5797C84.5861 57.5797 84.9888 57.6926 85.1677 58.1311C85.3255 58.5182 85.1805 58.8586 84.9337 59.1952C84.3494 59.9915 83.8035 60.8153 83.2412 61.6272C83.1861 61.707 83.1265 61.7841 83.0669 61.8648C83.7522 62.8308 84.4668 63.8014 85.1402 64.8004C85.4796 65.304 85.0447 66.1012 84.4338 66.1058C82.2009 66.1214 79.9652 66.1829 77.7369 66.0801C76.7067 66.0324 75.8664 65.3802 75.3206 64.461C75.0499 64.005 74.7995 63.5326 74.5802 63.05C74.4463 62.7565 74.2481 62.7069 73.9638 62.7125C73.2299 62.7262 72.496 62.717 71.7621 62.717C71.1355 62.717 70.985 62.917 70.9924 63.5519C70.9988 64.1729 70.9869 64.805 70.8805 65.4141C70.7273 66.2921 70.541 67.1746 70.2585 68.0176C69.8924 69.1102 69.4732 70.1927 68.9751 71.2312C68.4623 72.299 67.8889 73.3494 67.2284 74.3319C66.2596 75.7741 65.0744 77.0364 63.7616 78.1877C62.5452 79.2546 61.2278 80.1701 59.8233 80.9462C58.9243 81.4425 57.9436 81.8021 56.9776 82.1645C56.163 82.47 55.3318 82.7746 54.4805 82.9323C53.1843 83.1727 51.8678 83.3085 50.5551 83.4442C49.9762 83.5039 49.3854 83.4525 48.8001 83.4543C47.6039 83.4589 46.426 83.3167 45.2701 83.0085C44.1811 82.7177 43.0619 82.503 42.0143 82.1021C40.9364 81.6893 39.9319 81.0884 38.8925 80.5756C37.5494 79.9133 36.4018 78.9665 35.2716 78.0134C34.5854 77.4345 33.9808 76.7501 33.3928 76.0667C32.7983 75.3759 32.2075 74.6677 31.7268 73.898C31.0883 72.8751 30.5067 71.8092 29.9985 70.7166C29.56 69.7753 29.1967 68.7882 28.9142 67.7892C28.6435 66.8306 28.4601 65.837 28.3481 64.8463C28.2188 63.7032 28.1693 62.5464 28.1628 61.396C28.1582 60.5062 28.205 59.6044 28.3536 58.7292C28.5133 57.7861 28.86 56.8761 29.049 55.9367C29.36 54.3964 30.0288 52.9947 30.7755 51.6489C31.4204 50.4866 32.2195 49.3977 33.0424 48.3491C34.3964 46.6235 36.0504 45.2034 37.8632 43.9723C38.1494 43.7778 38.4558 43.6145 38.753 43.4375C38.7411 43.3732 38.7301 43.3127 38.7191 43.2512ZM64.5432 62.7161C64.3652 63.6243 64.2212 64.4903 64.0194 65.3426C63.846 66.0774 63.6653 66.8205 63.3827 67.5177C63.0763 68.2745 62.6929 69.0084 62.2645 69.7047C61.8351 70.4028 61.3645 71.0909 60.815 71.6954C60.0426 72.5449 59.2573 73.399 58.2482 73.9925C57.3703 74.5099 56.5327 75.119 55.6052 75.5236C54.6878 75.9236 53.6916 76.1667 52.71 76.3878C51.8651 76.5777 50.9927 76.7254 50.1303 76.7373C48.5653 76.7602 46.9947 76.7006 45.5003 76.1217C44.6462 75.7915 43.7472 75.553 42.9381 75.1365C41.7611 74.531 40.6437 73.8054 39.7043 72.8504C39.1291 72.2651 38.5228 71.7 38.0228 71.0542C37.2788 70.0927 36.5935 69.0855 36.1954 67.9112C35.8899 67.0104 35.4349 66.1462 35.2431 65.2251C35.0266 64.1858 35.0129 63.1014 34.9432 62.0345C34.9074 61.4878 35.3376 61.0502 35.8248 61.0658C36.3009 61.0804 36.666 61.5024 36.6825 62.0226C36.7027 62.6446 36.6651 63.2812 36.7908 63.883C37.0742 65.238 37.4274 66.5719 38.065 67.8268C38.8108 69.2955 39.775 70.6019 40.9841 71.6853C42.6757 73.1999 44.6811 74.2035 46.8947 74.7154C47.7543 74.9145 48.657 74.9677 49.5432 74.9961C50.2 75.0172 50.8725 74.9402 51.5201 74.8172C52.4843 74.6328 53.4668 74.4595 54.3787 74.1164C55.5282 73.6843 56.6024 73.0678 57.5923 72.3174C58.7032 71.4743 59.6518 70.4689 60.4288 69.3286C61.4141 67.8828 62.1039 66.2884 62.4158 64.5518C62.5222 63.9573 62.6094 63.3583 62.7094 62.7363C60.415 62.7363 58.2482 62.7363 56.0841 62.7363C55.3786 66.6021 52.5779 68.7809 48.5653 68.4149C46.3104 68.2094 43.5637 65.3673 43.3619 63.0977C43.0005 59.0283 45.4719 56.3229 48.8396 55.7734C50.5193 55.4991 52.1284 55.9404 53.476 56.9669C54.7851 57.9641 55.6777 59.3035 55.9621 60.9346C60.4563 60.9346 64.8937 60.9346 69.3567 60.9346C69.2567 60.164 69.1796 59.4328 69.0641 58.7081C68.954 58.0155 68.8503 57.3155 68.6586 56.6431C68.4485 55.9074 68.1659 55.19 67.8687 54.4845C67.6449 53.9533 67.532 53.3515 66.9055 53.0506C66.611 52.9085 66.3633 52.6076 66.1706 52.3268C65.7945 51.7801 65.4652 51.2003 65.1313 50.626C64.9817 50.3692 64.801 50.2508 64.4854 50.2279C63.7699 50.1756 63.0598 50.0508 62.3452 49.9747C62.1782 49.9573 61.9388 49.9536 61.8406 50.0508C61.3462 50.5435 60.8902 51.0755 60.415 51.5883C59.7885 52.2626 58.7335 52.7626 57.7574 52.2048C57.1583 51.8626 56.5189 51.5902 55.9272 51.2361C54.9649 50.6609 54.6172 49.7692 54.7741 48.8637C54.9007 48.1335 55.152 47.4253 55.3181 46.7006C55.3548 46.54 55.3153 46.3098 55.219 46.1813C54.7456 45.5483 54.2493 44.9319 53.7393 44.3282C53.6375 44.2071 53.4402 44.1099 53.2833 44.1035C52.6586 44.0778 52.032 44.0934 51.4165 44.0934C51.1055 44.8988 50.6716 45.6034 49.9184 45.9887C49.1717 46.3703 48.3543 46.4501 47.5066 46.129C47.5066 46.7464 47.5103 47.3418 47.5057 47.9372C47.4975 49.1711 47.3736 50.3848 46.9626 51.5627C46.4544 53.0185 45.6673 53.3112 44.3986 53.2405C43.6059 53.1965 42.8005 52.9598 42.0482 52.68C40.8263 52.225 40.4649 51.2902 40.5392 50.1077C40.6456 48.4179 40.7786 46.729 40.8988 45.0392C40.9162 44.8016 40.9272 44.5631 40.9419 44.3136C40.6052 44.4631 40.2208 44.5677 39.9135 44.7833C38.7851 45.5749 37.6513 46.3657 36.5779 47.2281C35.1266 48.395 33.968 49.8499 32.9635 51.3994C32.2974 52.4277 31.8067 53.5763 31.2948 54.6973C31.0205 55.2973 30.848 55.9468 30.6682 56.5844C30.5232 57.0999 30.4205 57.6293 30.3269 58.1577C30.1691 59.042 29.9554 59.9255 29.904 60.8181C29.8031 62.5583 29.9095 64.2958 30.3489 65.993C30.6416 67.1241 30.8709 68.2873 31.3104 69.3616C31.892 70.7844 32.5855 72.1724 33.5487 73.3925C34.2038 74.2219 34.845 75.0713 35.578 75.8291C36.7935 77.0859 38.1687 78.1501 39.6998 79.017C41.0235 79.7674 42.3776 80.4362 43.8454 80.8371C44.9444 81.137 46.0526 81.4755 47.1782 81.5911C48.4534 81.7214 49.7514 81.6269 51.0394 81.6205C52.4614 81.6141 53.8283 81.2921 55.1869 80.9013C56.3722 80.5609 57.4886 80.0802 58.5995 79.5417C59.9462 78.8895 61.182 78.0785 62.2956 77.1162C63.3341 76.219 64.2781 75.1961 65.1689 74.1485C65.8009 73.4063 66.3275 72.5596 66.8055 71.7055C67.2935 70.8321 67.688 69.9019 68.0788 68.9781C68.3274 68.3901 68.5347 67.7782 68.6907 67.1599C68.9008 66.3269 69.0659 65.4811 69.2081 64.6334C69.2943 64.1197 69.3007 63.5922 69.3448 63.0711C69.3659 62.8179 69.2549 62.7143 68.998 62.7152C67.5192 62.7189 66.0367 62.7161 64.5432 62.7161ZM73.1987 24.223C72.5648 23.8707 72.073 23.5542 71.5446 23.3212C71.2988 23.213 70.874 23.1387 70.7163 23.2708C70.1952 23.7084 69.7438 24.2331 69.2943 24.7487C68.7852 25.3321 68.1779 25.5771 67.4027 25.4697C66.7303 25.3771 66.0514 25.3129 65.3744 25.2817C64.3781 25.2358 63.5396 24.9395 63.0195 24.0157C62.7305 23.502 62.4149 23.0038 62.125 22.491C61.9626 22.2048 61.7865 22.0305 61.4159 22.1479C60.8453 22.3286 60.2563 22.4516 59.6894 22.6424C59.5481 22.6901 59.3683 22.8965 59.3637 23.035C59.3472 23.6102 59.3362 24.1964 59.4252 24.7624C59.5463 25.5284 59.1867 26.6458 58.6527 27.0439C58.0023 27.5283 57.3813 28.0512 56.7492 28.5613C56.24 28.9723 55.6694 29.3062 55.0117 29.2035C54.2503 29.0851 53.487 28.8952 52.7678 28.6209C52.3073 28.4448 52.1293 28.6255 51.9495 28.9466C51.6825 29.42 51.4284 29.9007 51.1725 30.3795C51.0431 30.6208 51.0156 30.818 51.2743 31.0355C51.7816 31.462 52.255 31.929 52.7338 32.3886C53.2659 32.8996 53.6521 33.5335 53.5338 34.2646C53.4081 35.0416 53.2824 35.804 53.276 36.5957C53.2705 37.314 53.0155 37.9809 52.3953 38.4093C51.8256 38.8029 51.2174 39.1414 50.6202 39.4946C50.2753 39.6982 49.9872 39.8891 50.1588 40.3863C50.3266 40.8734 50.3945 41.3954 50.5551 41.8862C50.6119 42.0614 50.8009 42.3063 50.9477 42.3201C51.4137 42.3614 51.8926 42.3476 52.3568 42.2843C53.4081 42.1421 54.6264 42.3302 55.2511 43.3934C55.563 43.9255 56.0731 44.3365 56.4373 44.8429C56.7171 45.2318 57.0327 45.6621 57.1161 46.1134C57.2776 46.9868 56.9345 47.8253 56.6584 48.6463C56.5354 49.0114 56.5776 49.5665 56.8198 49.7022C57.2776 49.96 57.7143 50.2664 58.1959 50.4664C58.4381 50.5673 58.8564 50.593 59.0261 50.4508C59.4674 50.0802 59.8252 49.6068 60.1976 49.1591C60.7205 48.5307 61.3902 48.1665 62.1957 48.1766C62.8681 48.1849 63.5378 48.3317 64.2102 48.3968C64.9937 48.4729 65.7817 48.5748 66.3055 49.2344C66.6715 49.6949 66.9192 50.2471 67.2614 50.7297C67.5238 51.0994 67.5917 51.7663 68.2797 51.603C68.9118 51.4526 69.5282 51.2342 70.1429 51.0187C70.2392 50.9847 70.3465 50.8095 70.3465 50.6994C70.3456 50.138 70.3374 49.5738 70.2832 49.0151C70.1897 48.0546 70.3988 47.1363 71.2557 46.5281C71.8446 46.1107 72.395 45.6392 72.9501 45.1768C73.5436 44.6814 74.2087 44.4108 74.9793 44.5732C75.66 44.7163 76.3324 44.9025 76.9975 45.1062C77.4131 45.2337 77.614 45.0117 77.7819 44.7154C78.036 44.2686 78.2626 43.8053 78.5176 43.3586C78.6497 43.1283 78.6855 42.9623 78.4543 42.7513C77.8938 42.2403 77.3535 41.7064 76.8232 41.1642C76.3655 40.6963 76.0636 40.112 76.1691 39.4671C76.2957 38.6928 76.4434 37.9323 76.4223 37.1397C76.4086 36.6103 76.5829 36.1287 76.9406 35.6966C77.5012 35.0205 78.3323 34.7646 79.0084 34.272C79.268 34.083 79.6983 33.9995 79.6093 33.5702C79.4809 32.9509 79.3066 32.3363 79.0882 31.7427C79.0332 31.5923 78.7451 31.4474 78.5571 31.4382C77.8397 31.4024 77.1195 31.4437 76.4021 31.418C75.7187 31.3941 75.1352 31.1455 74.6922 30.5859C74.2069 29.9722 73.7005 29.3741 73.1776 28.7925C72.5703 28.1164 72.4116 27.3577 72.6391 26.4908C72.8391 25.7312 73.017 24.9643 73.1987 24.223ZM24.1713 44.3108C24.8337 44.2044 25.4841 44.1035 26.1336 43.9961C26.784 43.8879 27.4317 43.7668 28.083 43.6641C28.7802 43.554 29.4802 43.4613 30.1774 43.354C30.8287 43.2531 31.4801 43.1467 32.1296 43.0347C33.0873 42.8696 34.0405 42.6687 35.0028 42.5375C35.9183 42.4128 36.8036 42.1403 37.5458 41.644C38.4292 41.0541 39.2411 40.3147 39.6787 39.2937C39.9364 38.6919 40.2557 38.0763 40.3236 37.4433C40.4557 36.215 40.4263 34.9609 39.7887 33.8399C39.4365 33.2197 39.0631 32.5803 38.5686 32.0794C37.5595 31.0575 36.4541 30.1309 35.4028 29.1502C34.0973 27.9329 32.8066 26.6981 31.5058 25.4752C31.2709 25.2541 31.0159 25.0551 30.7306 24.8129C30.7177 26.466 30.5627 28.0173 30.1746 29.5447C29.9389 30.4759 29.793 31.4299 29.5508 32.3592C29.3013 33.317 28.9876 34.2582 28.6949 35.204C28.6013 35.5058 28.4995 35.8067 28.3775 36.0975C27.9702 37.0663 27.5647 38.036 27.1345 38.9946C26.8134 39.7111 26.4923 40.4331 26.1052 41.1147C25.5061 42.1733 24.8493 43.198 24.1713 44.3108ZM28.4922 22.4699C27.9959 22.3204 27.6775 22.5791 27.3968 22.858C26.9354 23.3185 26.4583 23.7753 26.0749 24.2973C25.552 25.0101 25.0795 25.7651 24.6438 26.5348C24.2071 27.3054 23.8163 28.1044 23.453 28.9126C23.0035 29.9117 22.5861 30.9263 22.188 31.9464C21.9137 32.6491 21.6752 33.3674 21.4559 34.0903C21.2183 34.8728 21.0064 35.6627 20.8128 36.4571C20.6541 37.1103 20.5238 37.7708 20.4064 38.4332C20.2523 39.3028 20.0376 40.1734 20.0055 41.0486C19.9697 42.0412 20.0826 43.043 20.1771 44.0356C20.2431 44.7337 20.6963 44.9878 21.1899 44.6677C22.0889 44.0833 22.6778 43.21 23.2787 42.3623C23.7374 41.7155 24.1374 41.0238 24.5135 40.3248C24.9575 39.4992 25.3658 38.6533 25.7556 37.8011C26.0253 37.2112 26.2446 36.5975 26.4739 35.9902C26.7042 35.3811 26.9391 34.7719 27.1363 34.1509C27.3785 33.3867 27.5904 32.6124 27.8041 31.8391C28.0482 30.9584 28.3206 30.0823 28.5032 29.1888C28.6582 28.4274 28.7261 27.6448 28.7912 26.8687C28.9132 25.3918 29.0986 23.9056 28.4922 22.4699ZM41.9492 34.4921C42.6097 37.3369 41.8391 39.7588 40.0493 41.8917C40.5226 42.0394 40.9492 42.1742 41.3758 42.3054C41.7281 42.4137 42.084 42.5072 42.4335 42.6237C43.1473 42.8613 43.8564 43.1136 44.5692 43.3521C45.659 43.7163 46.7461 44.0888 47.8442 44.4264C48.1359 44.5163 48.469 44.5319 48.7744 44.5025C49.2671 44.4557 49.4606 44.0374 49.5937 43.8081C49.3276 43.2641 49.079 42.8219 48.8937 42.354C48.7414 41.9715 48.7139 41.5357 48.5433 41.1642C48.1543 40.3156 48.2203 39.0267 49.0781 38.4029C49.6093 38.0167 50.1854 37.6919 50.7633 37.325C47.847 36.3883 44.9536 35.4581 41.9492 34.4921ZM54.1071 60.9722C53.7521 59.3448 52.1119 57.1954 48.9588 57.5834C46.6012 57.8742 44.8994 59.9869 45.0765 62.3281C45.2902 65.1453 47.3809 66.8443 49.9505 66.7122C52.4256 66.5847 54.1127 64.6151 54.1576 62.7161C52.998 62.7161 51.8394 62.7207 50.6798 62.7143C50.034 62.7106 49.7056 62.3905 49.7111 61.7987C49.7166 61.2235 50.0056 60.974 50.6762 60.9731C51.8045 60.9713 52.9338 60.9722 54.1071 60.9722ZM42.7225 44.7245C42.6638 45.6236 42.617 46.4831 42.5491 47.34C42.4693 48.3463 42.3748 49.3518 42.2776 50.3563C42.2372 50.7719 42.4739 51.0095 42.8161 51.0865C43.4693 51.2342 44.1353 51.3379 44.8013 51.4131C44.9426 51.4287 45.1857 51.2801 45.2444 51.1471C45.3976 50.7957 45.5526 50.4141 45.57 50.0389C45.6352 48.6298 45.6526 47.218 45.6627 45.807C45.6636 45.6933 45.493 45.5227 45.3646 45.474C44.9361 45.308 44.494 45.1741 44.0518 45.0502C43.6298 44.9319 43.2032 44.841 42.7225 44.7245ZM82.6531 59.3209C81.0615 59.3209 79.5634 59.3191 78.0644 59.3255C77.9534 59.3264 77.8415 59.3879 77.7314 59.4246C76.9929 59.6686 76.7416 60.3236 76.4049 60.9593C78.1608 60.9593 79.8707 60.9593 81.5459 60.9593C81.9101 60.4199 82.2614 59.9007 82.6531 59.3209ZM76.4003 62.7161C76.5196 62.9381 76.6141 63.0812 76.6774 63.2363C76.9425 63.8913 77.4828 64.2747 78.1589 64.2747C79.6185 64.2747 81.0789 64.2747 82.6054 64.2747C82.3146 63.8812 82.0504 63.495 81.7541 63.1344C81.6174 62.9684 81.4193 62.7372 81.2459 62.7336C79.6469 62.7033 78.0479 62.7161 76.4003 62.7161Z" fill="#0076A2"/>
<path d="M23.2239 63.8937C23.1798 62.5232 23.0643 61.2177 23.1184 59.9187C23.1698 58.6775 23.367 57.4382 23.5606 56.207C23.6936 55.3594 23.8981 54.5191 24.1367 53.6953C24.2376 53.3448 24.4853 53.0265 24.7054 52.7228C24.9329 52.4082 25.2843 52.477 25.5733 52.5962C25.9292 52.743 26.1402 53.0531 26.0567 53.4512C25.9503 53.9567 25.7751 54.4475 25.6549 54.9512C25.4641 55.7465 25.2724 56.5428 25.121 57.3455C24.7779 59.1711 24.9614 61.0178 24.9458 62.8562C24.9403 63.4828 25.0999 64.1102 25.1595 64.7396C25.1981 65.1469 25.2338 65.5634 25.1935 65.9679C25.1485 66.422 24.2844 66.644 23.8504 66.3679C23.2587 65.9909 22.6413 65.6533 22.045 65.2836C21.6955 65.0661 21.3478 64.7946 21.368 64.3442C21.3873 63.9066 21.6616 63.5837 22.1056 63.4974C22.2937 63.4607 22.5157 63.525 22.7037 63.5928C22.8872 63.658 23.0477 63.7882 23.2239 63.8937Z" fill="#0076A2"/>
<path d="M74.6294 72.2815C73.9294 73.6998 73.3184 75.1823 72.4956 76.5354C71.7112 77.8261 70.6553 78.9435 69.3664 79.7719C69.0811 79.9554 68.6086 79.9655 68.2573 79.8921C67.939 79.8251 67.7179 79.1554 67.9041 78.8123C68.0555 78.5325 68.372 78.3289 68.6435 78.1316C69.4334 77.5564 70.1214 76.8812 70.6415 76.0583C71.2094 75.1602 71.7773 74.2539 72.2414 73.2998C72.5607 72.6439 72.7277 71.9081 72.9176 71.1953C73.1047 70.4954 73.1772 69.7606 73.4175 69.0817C73.5074 68.8276 73.9239 68.5423 74.1955 68.5386C74.4716 68.5349 74.8615 68.7964 75.011 69.0533C75.4651 69.8312 75.8211 70.666 76.2265 71.4724C76.4458 71.9091 76.3063 72.5026 75.91 72.7301C75.5229 72.9521 75.0248 72.8145 74.7367 72.4099C74.6844 72.3375 74.622 72.2723 74.6294 72.2815Z" fill="#0076A2"/>
<path d="M21.97 25.0424C21.9104 25.5249 21.6443 25.912 21.2691 26.0047C20.7875 26.123 20.516 25.957 20.2151 25.4836C19.6738 24.6314 19.0922 23.8057 18.5363 22.9627C18.2757 22.5673 18.4161 22.1425 18.8739 21.8325C19.2582 21.5719 19.7022 21.6472 19.9738 22.0306C20.3683 22.5866 20.7123 23.1783 21.0967 23.7424C21.27 23.9966 21.5021 24.2094 21.6783 24.4617C21.8021 24.6369 21.8755 24.8479 21.97 25.0424Z" fill="#0076A2"/>
<path d="M18.88 30.1797C18.8809 30.8118 18.4516 31.153 17.8305 30.9879C16.7967 30.7127 15.7664 30.4237 14.7371 30.1329C14.4096 30.0403 14.1555 29.5843 14.2005 29.21C14.2436 28.8513 14.6005 28.4578 14.961 28.5037C15.6233 28.589 16.2793 28.7376 16.9288 28.8972C17.3572 29.0027 17.7645 29.1871 18.1892 29.3091C18.7241 29.4632 18.88 29.6421 18.88 30.1797Z" fill="#0076A2"/>
<path d="M17.6841 37.1034C17.6346 37.3942 17.3924 37.6483 17.0181 37.7612C16.398 37.9483 15.7778 38.185 15.143 38.252C14.8815 38.2795 14.5008 37.9777 14.3173 37.7236C14.133 37.4685 14.1018 37.1236 14.4247 36.8062C14.9017 36.3365 15.5274 36.3906 16.0824 36.2016C16.1796 36.1686 16.2998 36.1943 16.3915 36.1539C17.0731 35.8521 17.696 36.2502 17.6841 37.1034Z" fill="#0076A2"/>
<path d="M64.8294 41.7032C62.4607 41.9279 59.737 39.562 59.9756 36.4879C60.1572 34.1385 62.1332 31.9982 64.8432 31.9854C67.3577 31.9735 69.9621 34.0403 69.7126 37.3511C69.5585 39.3785 67.5779 41.8839 64.8294 41.7032ZM67.9668 36.8833C67.876 34.9907 66.6229 33.7596 64.8661 33.7504C63.0515 33.7413 61.7388 35.0201 61.7498 36.8943C61.7599 38.7318 63.0323 39.9785 64.8312 39.9895C66.6045 39.9996 67.8558 38.7795 67.9668 36.8833Z" fill="#0076A2"/>
</g>
<defs>
<clipPath id="clip0_765_21104">
<rect width="71.0774" height="63.1751" fill="white" transform="translate(14.1797 20.2969)"/>
</clipPath>
</defs>
</svg>
