<svg width="100" height="101" viewBox="0 0 100 101" fill="none" xmlns="http://www.w3.org/2000/svg">
<circle cx="50" cy="50.436" r="50" fill="white"/>
<circle cx="50" cy="50.436" r="49" stroke="#0076A2" stroke-opacity="0.5" stroke-width="2"/>
<path d="M39.9385 61.2503C37.7815 63.4563 35.6454 65.5923 33.5794 67.8019C33.2433 68.1626 33.1242 68.8279 33.1102 69.3602C33.0612 71.0865 32.4869 72.4381 30.7361 73.0124C29.1813 73.5237 27.9627 72.9039 27.1083 71.6468C26.2294 70.3546 26.3169 68.982 27.2799 67.7459C28.2989 66.4433 29.8536 66.2507 31.7235 67.1086C31.8741 67.1786 32.0352 67.2311 32.1683 67.2802C34.4514 64.9831 36.7064 62.714 39.0526 60.3538C33.9891 53.5571 33.8981 46.6657 39.1926 39.834C36.9165 37.4983 34.6545 35.0892 32.2593 32.8201C31.8811 32.4629 30.9007 32.6695 30.2073 32.7255C28.3304 32.8726 26.9052 31.8116 26.5831 29.9592C26.3064 28.3834 27.3534 26.7342 28.8942 26.3105C30.6135 25.8412 32.3714 26.7727 32.9246 28.4815C33.0472 28.8597 33.2118 29.3639 33.0612 29.6651C32.2698 31.2583 33.2888 32.0987 34.2728 33.0477C36.2372 34.9491 38.1491 36.9101 40.1416 38.9095C43.153 36.3533 46.5042 35.0086 50.4015 35.0051C54.3094 35.0016 57.671 36.3323 60.714 38.941C63.0076 36.6299 65.2977 34.3923 67.4792 32.0462C67.8154 31.6855 67.7314 30.8206 67.6578 30.2113C67.4407 28.4325 68.5368 26.7061 70.2001 26.363C71.7548 26.0408 73.6457 27.1824 74.0519 28.6951C74.5281 30.467 73.4881 32.2773 71.6883 32.7886C71.4116 32.8691 71.0545 33.0372 70.8444 32.9356C68.7959 31.9552 67.7349 33.4294 66.5828 34.6235C64.965 36.2973 63.3858 38.0096 61.6735 39.8235C66.8665 46.5222 66.9645 53.5045 61.5719 60.5954C63.848 62.8575 66.0506 65.1021 68.3302 67.2556C68.6418 67.5498 69.3912 67.5638 69.8779 67.4517C71.4992 67.0771 72.7878 67.4727 73.6247 68.9295C74.4511 70.3686 74.2095 71.7728 73.0959 72.9459C72.0595 74.0384 70.7463 74.2345 69.4122 73.5517C67.9345 72.7953 67.3042 71.4997 67.7454 69.9029C68.001 68.9715 67.7664 68.4357 67.1151 67.8054C64.979 65.7394 62.9096 63.6034 60.7245 61.4043C57.678 63.9781 54.2534 65.3192 50.314 65.2842C46.4131 65.2457 43.0655 63.81 39.9385 61.2503ZM50.265 36.0942C42.4527 36.1362 36.2162 42.4567 36.2687 50.283C36.3213 58.1162 42.6698 64.2232 50.7202 64.1882C58.0912 64.1567 64.5238 57.6505 64.4993 50.2585C64.4748 42.3272 58.1718 36.0556 50.265 36.0942ZM70.9949 68.3552C69.6223 68.3902 68.5157 69.4512 68.6103 70.6033C68.7188 71.9234 69.5137 72.7393 70.8339 72.8548C72.0489 72.9634 73.1415 71.7623 73.0609 70.4842C72.9769 69.0975 72.1365 68.4497 70.9949 68.3552ZM32.0282 29.6651C32.0457 28.3274 31.0267 27.2629 29.8501 27.1999C28.6281 27.1333 27.4305 28.2504 27.5285 29.4725C27.6371 30.8066 28.404 31.5875 29.7766 31.6015C31.1738 31.6155 31.8391 30.7786 32.0282 29.6651ZM29.8081 67.6338C28.425 67.7109 27.6371 68.4357 27.532 69.7839C27.434 71.0305 28.5405 72.074 29.8466 72.074C31.0232 72.074 32.1052 71.0094 32.0177 69.8364C31.9196 68.4987 31.1458 67.7564 29.8081 67.6338ZM73.0819 29.469C72.9104 28.2609 72.231 27.4065 70.8479 27.438C69.4647 27.4695 68.7714 28.3554 68.7013 29.6721C68.6418 30.8311 69.7834 31.9517 70.9319 31.8396C72.2485 31.7171 73.0189 30.9572 73.0819 29.469Z" fill="#0076A2"/>
<path d="M58.6815 33.2194C56.7066 33.2194 54.9662 33.2194 53.2294 33.2194C50.0814 33.2194 46.9369 33.1809 43.7923 33.2369C42.5983 33.2579 42.1465 32.8762 42.1816 31.6331C42.2586 28.7232 42.2341 25.8063 42.1921 22.8929C42.1746 21.8704 42.4687 21.4257 43.5717 21.4362C48.1729 21.4817 52.7777 21.4642 57.3789 21.4467C58.2053 21.4432 58.699 21.6218 58.692 22.5918C58.664 26.0234 58.6815 29.4551 58.6815 33.2194ZM57.5365 23.3656C55.8346 24.9134 54.427 26.216 52.9913 27.4906C50.1409 30.0223 51.0303 30.2885 48.0189 27.5046C46.5657 26.16 45.0845 24.8434 43.4107 23.3306C43.4107 26.4891 43.4107 29.1995 43.4107 31.9868C48.1729 31.9868 52.8372 31.9868 57.5365 31.9868C57.5365 29.1399 57.5365 26.4366 57.5365 23.3656ZM50.4385 28.2365C52.445 26.4121 54.3919 24.6403 56.5385 22.6863C52.3259 22.6863 48.4566 22.6863 44.2721 22.6863C46.4641 24.6578 48.4006 26.4016 50.4385 28.2365Z" fill="#0076A2"/>
<path d="M19.9791 59.6014C19.8776 58.2532 19.7725 56.9086 19.671 55.5604C19.5869 55.4939 19.5064 55.3783 19.4153 55.3678C17.0202 55.1227 17.0202 55.1227 17.0237 52.7381C17.0237 50.581 17.0692 48.424 17.0027 46.2704C16.9642 45.0869 17.3353 44.5966 18.5854 44.6106C23.0711 44.6632 27.5602 44.6527 32.0494 44.6176C33.0859 44.6106 33.5131 44.9468 33.4921 46.0288C33.4396 48.6516 33.4326 51.2743 33.4956 53.8971C33.5236 55.0702 33.0194 55.4484 31.9374 55.4203C30.5402 55.3853 29.129 55.5184 27.7423 55.3888C25.6553 55.1927 24.0376 55.802 22.7594 57.5179C22.1256 58.3723 21.2327 59.0306 20.4553 59.7799C20.3013 59.7169 20.1402 59.6609 19.9791 59.6014ZM32.2595 54.2158C32.2595 51.3199 32.2595 48.6166 32.2595 45.8818C27.5182 45.8818 22.896 45.8818 18.2808 45.8818C18.2808 48.7286 18.2808 51.4284 18.2808 53.8236C19.2823 54.2788 20.3853 54.4329 20.7355 55.0317C21.1242 55.6935 20.823 56.758 20.823 58.0746C21.5128 57.2832 21.9015 56.9296 22.1782 56.5024C23.4703 54.5204 25.2316 53.8446 27.5778 54.1807C29.059 54.3873 30.5927 54.2158 32.2595 54.2158Z" fill="#0076A2"/>
<path d="M50.4529 79.9495C48.2363 79.9495 46.0197 79.9005 43.8032 79.9705C42.6301 80.009 42.1293 79.6939 42.1574 78.4122C42.2344 75.0891 42.2134 71.7625 42.1644 68.4394C42.1504 67.3679 42.5495 67.0073 43.5966 67.0143C48.0892 67.0493 52.5784 67.0423 57.071 67.0213C58.1285 67.0178 58.6993 67.3434 58.6818 68.5235C58.6398 71.8466 58.6398 75.1732 58.6818 78.4963C58.6993 79.6693 58.2021 79.9985 57.0955 79.967C54.886 79.904 52.6694 79.9495 50.4529 79.9495ZM43.3234 78.7064C48.1487 78.7064 52.8165 78.7064 57.4737 78.7064C57.4737 75.1417 57.4737 71.731 57.4737 68.2784C52.7009 68.2784 48.0332 68.2784 43.3234 68.2784C43.3234 71.8046 43.3234 75.1767 43.3234 78.7064Z" fill="#0076A2"/>
<path d="M75.4811 43.6891C77.6942 43.6891 79.9107 43.7276 82.1238 43.6751C83.3634 43.6471 83.9096 44.0428 83.8781 45.3839C83.8011 48.588 83.8256 51.7955 83.8676 54.9995C83.8816 56.1166 83.4965 56.5473 82.3444 56.5368C77.8587 56.4913 73.3696 56.4913 68.8804 56.5368C67.7354 56.5473 67.3502 56.1306 67.3677 55.0031C67.4202 51.7395 67.4412 48.4759 67.3607 45.2123C67.3292 43.9237 67.8649 43.6191 69.01 43.6506C71.1635 43.7066 73.3206 43.6681 75.4776 43.6681C75.4811 43.6716 75.4811 43.6821 75.4811 43.6891ZM82.663 55.3357C82.663 51.7955 82.663 48.3884 82.663 44.8762C77.9113 44.8762 73.247 44.8762 68.5933 44.8762C68.5933 48.4339 68.5933 51.848 68.5933 55.3357C73.2785 55.3357 77.8622 55.3357 82.663 55.3357Z" fill="#0076A2"/>
<path d="M54.7745 42.2435C56.6269 45.437 58.4793 48.6305 60.4998 52.1147C58.7314 52.6995 57.2327 53.2282 55.713 53.6835C54.6905 53.9916 53.8466 54.2998 53.4474 55.5148C53.0377 56.7579 50.576 57.84 49.6691 57.1431C47.372 55.3783 45.4005 56.4568 43.4256 57.5878C42.6237 58.0466 42.0809 58.0115 41.7588 57.1816C41.4261 56.3167 40.0254 55.5814 41.209 54.4713C44.7282 51.1728 48.3139 47.9442 51.8016 44.6176C52.6315 43.8262 53.1918 42.7477 53.8781 41.8022C54.1792 41.9458 54.4769 42.0929 54.7745 42.2435ZM52.7435 44.9573C49.6796 48.1858 46.7907 51.2148 43.9368 54.2752C43.7267 54.4994 43.6112 55.0841 43.7547 55.3012C43.9158 55.5464 44.4691 55.7354 44.7667 55.6514C48.7726 54.5274 52.7646 53.3508 56.907 52.1462C55.5064 49.7301 54.2002 47.475 52.7435 44.9573ZM59.0221 51.7575C57.3483 48.8476 55.874 46.2844 54.2948 43.5321C53.7555 45.0028 57.1872 51.1272 59.0221 51.7575Z" fill="#0076A2"/>
<path d="M47.6562 77.0426C47.6562 74.5004 47.6562 72.5184 47.6562 69.9307C49.7538 71.1493 51.4906 72.1612 53.7212 73.4604C51.5606 74.7385 49.8238 75.7645 47.6562 77.0426ZM48.8153 71.9091C48.8153 73.0682 48.8153 74.0241 48.8153 75.1762C49.8273 74.5599 50.6292 74.0732 51.6132 73.4744C50.5697 72.8896 49.7433 72.4309 48.8153 71.9091Z" fill="#0076A2"/>
<path d="M76.9558 48.7599C77.5511 48.7599 78.0098 48.7214 78.458 48.7739C78.7907 48.8124 79.3895 48.9735 79.3895 49.0821C79.393 50.3112 79.4315 51.5718 79.1794 52.7588C79.0743 53.2596 78.339 53.9004 77.8137 53.9809C76.1539 54.2366 74.4521 54.219 72.7748 54.3801C71.5877 54.4957 71.199 53.9739 71.2726 52.8709C71.3216 52.1741 71.3426 51.4667 71.2691 50.7769C71.115 49.3762 71.4302 48.5883 73.1075 48.6654C73.5802 48.6864 74.242 47.8705 74.5572 47.2962C74.8898 46.6904 74.7007 45.5384 75.8178 45.9621C76.3185 46.1512 76.5846 47.0336 76.8858 47.6394C76.9978 47.8705 76.9278 48.2031 76.9558 48.7599ZM75.4186 49.1801C75.2645 48.998 75.1139 48.8159 74.9599 48.6339C74.6062 49.9785 74.2525 51.3266 73.8883 52.7203C78.0308 53.3366 78.416 53.074 78.5071 50.003C77.4706 49.7299 76.4446 49.4533 75.4186 49.1801Z" fill="#0076A2"/>
</svg>
