<svg width="60" height="61" viewBox="0 0 60 61" fill="none" xmlns="http://www.w3.org/2000/svg">
<g clip-path="url(#clip0_1482_2113)">
<path d="M1.38172 43.8748L21.2995 5.91699C23.8295 7.57508 36.5875 15.4346 38.6479 16.9293L18.7301 54.8893C16.5518 58.0927 -1.37797 48.7361 1.38172 43.8727V43.8748Z" fill="#FBBC04"/>
<path d="M58.6076 43.874L38.6898 5.91857C35.9053 0.760132 29.9083 -1.11448 24.9825 1.93222C20.0567 4.97891 18.5569 11.5419 21.3414 16.9307L41.2592 54.8908C44.0438 60.0469 50.041 61.9213 54.9668 58.8748C59.6772 55.8279 61.3922 49.0322 58.6076 43.8785V43.874Z" fill="#4285F4"/>
<path d="M9.99827 60.3417C15.5202 60.3417 19.9965 55.4825 19.9965 49.4885C19.9965 43.4944 15.5202 38.6353 9.99827 38.6353C4.47638 38.6353 0 43.4944 0 49.4885C0 55.4825 4.47638 60.3417 9.99827 60.3417Z" fill="#34A853"/>
</g>
<defs>
<clipPath id="clip0_1482_2113">
<rect width="60" height="60" fill="white" transform="translate(0 0.464844)"/>
</clipPath>
</defs>
</svg>
